G04*
G04 #@! TF.GenerationSoftware,Altium Limited,Altium Designer,22.0.2 (36)*
G04*
G04 Layer_Color=8388736*
%FSLAX25Y25*%
%MOIN*%
G70*
G04*
G04 #@! TF.SameCoordinates,04F3E7EA-1EC6-48BA-AAB6-D1FA50B40766*
G04*
G04*
G04 #@! TF.FilePolarity,Negative*
G04*
G01*
G75*
%ADD30R,0.43701X0.28150*%
%ADD31R,0.91535X0.23622*%
%ADD32R,1.05154X0.23425*%
%ADD33R,0.92126X0.23425*%
%ADD34R,1.77165X0.23032*%
%ADD35R,1.17717X0.62795*%
%ADD36R,0.06693X1.51772*%
%ADD37R,0.18307X0.14764*%
%ADD38R,0.05709X1.45079*%
%ADD39R,3.21794X0.06266*%
%ADD40R,3.22047X0.05315*%
%ADD41R,0.41535X0.28150*%
%ADD42R,1.10827X0.24410*%
%ADD43R,1.04134X0.50197*%
%ADD44R,2.89173X0.23425*%
%ADD45R,0.54724X0.13583*%
%ADD46R,0.06800X0.11800*%
%ADD47R,0.23800X0.25300*%
%ADD48R,0.05800X0.04300*%
%ADD49R,0.07099X0.05918*%
%ADD50R,0.07099X0.08674*%
%ADD51R,0.03800X0.03800*%
%ADD52R,0.24028X0.59855*%
%ADD53R,0.16548X0.08674*%
%ADD54R,0.16548X0.06706*%
%ADD55O,0.05918X0.15761*%
%ADD56R,0.05918X0.15761*%
%ADD57R,0.03800X0.03800*%
%ADD58C,0.13398*%
%ADD59C,0.13792*%
%ADD60C,0.16548*%
D30*
X222835Y41634D02*
D03*
D31*
X173524Y39173D02*
D03*
D32*
X70258Y122539D02*
D03*
D33*
X259055Y113878D02*
D03*
D34*
X216535Y105610D02*
D03*
D35*
X75197Y85728D02*
D03*
D36*
X3150Y76083D02*
D03*
D37*
X9547Y118799D02*
D03*
D38*
X319390Y75295D02*
D03*
D39*
X160700Y2773D02*
D03*
D40*
X160827Y149705D02*
D03*
D41*
X113287Y41634D02*
D03*
D42*
X178445Y12402D02*
D03*
D43*
X253051Y79626D02*
D03*
D44*
X160531Y131398D02*
D03*
D45*
X277756Y144390D02*
D03*
D46*
X34155Y108889D02*
D03*
X51955Y108789D02*
D03*
D47*
X43110Y137402D02*
D03*
D48*
X24212Y119095D02*
D03*
Y126575D02*
D03*
X70767Y119059D02*
D03*
Y126540D02*
D03*
X61614Y119095D02*
D03*
Y126575D02*
D03*
X92166Y108071D02*
D03*
Y100590D02*
D03*
X237795Y134449D02*
D03*
Y141929D02*
D03*
X230795Y134449D02*
D03*
Y141929D02*
D03*
D49*
X80866Y127874D02*
D03*
Y118032D02*
D03*
D50*
X92283Y122953D02*
D03*
D51*
X92126Y78346D02*
D03*
Y73228D02*
D03*
X112795Y78347D02*
D03*
Y73228D02*
D03*
D52*
X182480Y71850D02*
D03*
X158465D02*
D03*
D53*
X8465Y82480D02*
D03*
Y61221D02*
D03*
X312434D02*
D03*
Y82480D02*
D03*
D54*
X8465Y71850D02*
D03*
X312434D02*
D03*
D55*
X288976Y100000D02*
D03*
D56*
Y139370D02*
D03*
D57*
X25393Y71850D02*
D03*
X20275D02*
D03*
D58*
X158465Y12795D02*
D03*
X182480D02*
D03*
Y130905D02*
D03*
X158465D02*
D03*
D59*
X254724Y96653D02*
D03*
X43110Y92716D02*
D03*
D60*
X256102Y47441D02*
D03*
X43110D02*
D03*
M02*
