M48
;Layer_Color=9474304
;FILE_FORMAT=2:5
INCH,LZ
;TYPE=PLATED
T1F00S00C0.01575
T2F00S00C0.11811
;TYPE=NON_PLATED
T3F00S00C0.12598
%
T01
X0004173Y0003543
X0009173
X0014173
X0019173
X0024173
X0029173
X0034173
X0039173
X0044173
X0049173
X0054173
X0059173
X0064173
X0069173
X0074173
X0079173
X0084173
X0089173
X0094173
X0099173
X0104173
X0109173
X0114173
X0119173
X0124173
X0129173
X0134173
X0139173
X0144173
X0149173
X0146673Y0008543
X0141673
X0136673
X0131673
X0126673
X0121673
X0116673
X0111673
X0106673
X0101673
X0096673
X0091673
X0086673
X0081673
X0076673
X0071673
X0066673
X0061673
X0056673
X0051673
X0046673
X0041673
X0036673
X0031673
X0026673
X0021673
X0016673
X0011673
X0006673
X0009173Y0013543
X0014173
X0019173
X0024173
X0029173
X0034173
X0039173
X0044173
X0049173
X0054173
X0059173
X0064173
X0069173
X0074173
X0079173
X0084173
X0089173
X0094173
X0099173
X0104173
X0109173
X0114173
X0119173
X0124173
X0129173
X0134173
X0139173
X0144173
X0149173
X0146673Y0018543
X0141673
X0136673
X0131673
X0126673
X0121673
X0116673
X0111673
X0106673
X0101673
X0096673
X0091673
X0086673
X0081673
X0076673
X0071673
X0066673
X0061673
X0056673
X0051673
X0046673
X0041673
X0036673
X0031673
X0026673
X0021673
X0016673
X0011673
X0006673
X0009173Y0023543
X0014173
X0019173
X0024173
X0029173
X0034173
X0039173
X0044173
X0049173
X0054173
X0059173
X0064173
X0069173
X0074173
X0079173
X0084173
X0089173
X0094173
X0099173
X0104173
X0109173
X0114173
X0119173
X0124173
X0129173
X0134173
X0139173
X0144173
X0149173
X0146673Y0028543
X0141673
X0136673
X0131673
X0126673
X0121673
X0116673
X0111673
X0106673
X0101673
X0096673
X0091673
X0086673
X0081673
X0076673
X0071673
X0066673
X0061673
X0056673
X0051673
X0046673
X0041673
X0036673
X0031673
X0026673
X0021673
X0016673
X0011673
X0006673
X0009173Y0033543
X0014173
X0019173
X0024173
X0029173
X0034173
X0039173
X0044173
X0049173
X0054173
X0059173
X0064173
X0069173
X0074173
X0079173
X0084173
X0089173
X0094173
X0099173
X0104173
X0109173
X0114173
X0119173
X0124173
X0129173
X0134173
X0139173
X0144173
X0149173
X0004173
Y0023543
Y0013543
X0151673Y0018543
X0154173Y0023543
X0159173
X0164173
X0166673Y0028543
X0161673
X0156673
X0151673
X0154173Y0033543
X0159173
X0164173
X0174173
X0179173
X0184173
X0189173
X0194173
X0199173
X0204173
X0209173
X0214173
X0219173
X0224173
X0229173
X0234173
X0239173
X0244173
X0249173
X0254173
X0259173
X0264173
X0269173
X0274173
X0279173
X0284173
X0289173
X0294173
X0299173
X0304173
X0306673Y0028543
X0301673
X0296673
X0291673
X0286673
X0281673
X0276673
X0271673
X0266673
X0261673
X0256673
X0251673
X0246673
X0241673
X0236673
X0231673
X0226673
X0221673
X0216673
X0211673
X0206673
X0201673
X0196673
X0191673
X0186673
X0181673
X0176673
X0179173Y0023543
X0184173
X0189173
X0194173
X0199173
X0204173
X0209173
X0214173
X0219173
X0224173
X0229173
X0234173
X0239173
X0244173
X0249173
X0254173
X0259173
X0264173
X0269173
X0274173
X0279173
X0284173
X0289173
X0294173
X0299173
X0304173
X0306673Y0018543
X0301673
X0296673
X0291673
X0286673
X0281673
X0276673
X0271673
X0266673
X0261673
X0256673
X0251673
X0246673
X0241673
X0236673
X0231673
X0226673
X0221673
X0216673
X0211673
X0206673
X0201673
X0196673
X0191673
X0194173Y0013543
X0199173
X0204173
X0209173
X0214173
X0219173
X0224173
X0229173
X0234173
X0239173
X0244173
X0249173
X0254173
X0259173
X0264173
X0269173
X0274173
X0279173
X0284173
X0289173
X0294173
X0299173
X0304173
X0306673Y0008543
X0301673
X0296673
X0291673
X0286673
X0281673
X0276673
X0271673
X0266673
X0261673
X0256673
X0251673
X0246673
X0241673
X0236673
X0231673
X0226673
X0221673
X0216673
X0211673
X0206673
X0201673
X0196673
X0191673
X0194173Y0003543
X0199173
X0204173
X0209173
X0214173
X0219173
X0224173
X0229173
X0234173
X0239173
X0244173
X0249173
X0254173
X0259173
X0264173
X0269173
X0274173
X0279173
X0284173
X0289173
X0294173
X0299173
X0304173
X0189173
X0184173
X0179173
X0174173
Y0013543
X0176673Y0018543
X0174173Y0023543
X0166673Y0018543
Y0008543
X0164173Y0003543
X0159173
X0154173
X0151673Y0008543
X0311673
X0316673
X0319173Y0013543
X0314173
X0309173
X0311673Y0018543
X0316673
X0319173Y0023543
X0314173
X0309173
X0311673Y0028543
X0316673
X0319173Y0033543
X0314173
X0309173
Y0003543
X0314173
X0319173
X0316673Y0038543
X0311673
X0314173Y0043543
X0319173
X0316673Y0048543
X0311673
X0314173Y0053543
X0319173
X0309173
Y0043543
X0311673Y0088543
X0316673
X0319173Y0093543
X0314173
X0309173
X0311673Y0098543
X0316673
X0319173Y0103543
X0314173
X0309173
X0311673Y0108543
X0316673
X0319173Y0113543
X0314173
X0309173
X0311673Y0118543
X0316673
X0319173Y0123543
X0314173
X0309173
X0311673Y0128543
X0316673
X0319173Y0133543
X0314173
X0309173
X0311673Y0138543
X0316673
X0319173Y0143543
X0314173
X0309173
X0311673Y0148543
X0316673
X0306673
Y0138543
Y0128543
Y0118543
Y0108543
X0304173Y0103543
X0299173
X0294173
X0296673Y0098543
X0301673
X0306673
X0304173Y0093543
X0299173
X0294173
X0296673Y0088543
X0301673
X0306673
X0291673
X0286673
X0281673
X0276673
X0271673
X0266673
X0261673
X0256673
X0251673
X0246673
Y0098543
X0249173Y0103543
X0259173
X0264173
X0269173
X0274173
X0279173
X0284173
X0281673Y0098543
X0276673
X0271673
X0266673
X0269173Y0093543
X0274173
X0279173
X0284173
X0264173
X0266673Y0058543
X0271673
X0276673
X0281673
X0286673
X0291673
X0294173Y0053543
X0299173
X0304173
X0306673Y0048543
X0301673
X0296673
X0291673
X0286673
X0281673
X0276673
X0271673
X0266673
X0269173Y0053543
X0274173
X0279173
X0284173
X0289173
Y0043543
X0294173
X0299173
X0304173
X0306673Y0038543
X0301673
X0296673
X0291673
X0286673
X0281673
X0276673
X0271673
X0266673
X0261673
X0251673
X0246673
Y0058543
X0251673
X0256673
X0261673
X0264173Y0053543
X0269173Y0043543
X0274173
X0279173
X0284173
X0246673Y0148543
X0241673
X0236673
X0231673
X0226673
X0221673
X0216673
X0211673
X0206673
X0201673
X0196673
X0191673
X0186673
X0181673
X0176673
X0179173Y0143543
X0184173
X0189173
X0194173
X0199173
X0204173
X0209173
X0211673Y0138543
X0206673
X0201673
X0196673
X0191673
X0186673
X0176673
X0174173Y0143543
Y0133543
Y0123543
X0179173
X0181673Y0118543
X0186673
X0191673
X0196673
X0201673
X0206673
X0211673
X0209173Y0123543
X0204173
X0199173
X0194173
X0189173
X0191673Y0128543
X0196673
X0201673
X0206673
X0211673
X0209173Y0133543
X0204173
X0199173
X0194173
Y0113543
X0199173
X0204173
X0209173
X0189173
X0184173
X0179173
X0174173
X0176673Y0118543
X0166673
X0161673
X0156673
X0151673
X0154173Y0123543
X0164173
X0166673Y0128543
Y0138543
X0161673
X0164173Y0143543
X0159173
X0154173
X0156673Y0148543
X0161673
X0166673
X0151673
Y0138543
X0154173Y0113543
X0159173
X0164173
X0149173
X0144173
X0139173
X0134173
X0129173
X0124173
X0126673Y0118543
X0131673
X0136673
X0141673
X0146673
X0149173Y0123543
X0144173
X0139173
X0134173
X0129173
X0124173
X0126673Y0128543
X0131673
X0136673
X0141673
X0146673
X0149173Y0133543
X0144173
X0139173
X0134173
X0129173
X0124173
X0126673Y0138543
X0131673
X0136673
X0141673
X0146673
X0149173Y0143543
X0144173
X0139173
X0134173
X0129173
X0124173
X0126673Y0148543
X0131673
X0136673
X0141673
X0146673
X0121673
X0116673
X0111673
X0106673
X0101673
X0096673
X0091673
X0086673
X0081673
X0076673
X0071673
X0066673
X0061673
X0056673
X0026673
X0021673
X0016673
X0011673
X0006673
X0009173Y0143543
X0014173
X0011673Y0138543
X0006673
X0009173Y0133543
X0014173
X0011673Y0128543
X0006673
X0004173Y0133543
Y0143543
X0006673Y0108543
X0011673
X0014173Y0103543
X0009173
X0004173
X0006673Y0098543
X0011673
X0016673
X0021673
X0026673
X0031673
X0036673
X0034173Y0093543
X0029173
X0024173
X0019173
X0014173
X0009173
X0004173
X0006673Y0088543
X0011673
X0016673
X0021673
X0026673
X0031673
X0051673
X0056673
X0061673
X0066673
X0071673
X0076673
X0081673
X0086673
X0091673
X0089173Y0093543
X0084173
X0079173
X0074173
X0069173
X0064173
X0059173
X0054173
X0056673Y0098543
X0061673
X0066673
X0071673
X0076673
X0081673
X0086673
X0051673
Y0058543
X0056673
X0061673
X0066673
X0071673
X0076673
X0081673
X0086673
X0091673
X0096673
X0101673
X0106673
X0109173Y0053543
X0104173
X0099173
X0094173
X0089173
X0084173
X0079173
X0074173
X0069173
X0064173
X0059173
X0054173
X0056673Y0048543
X0061673
X0066673
X0071673
X0076673
X0081673
X0086673
X0091673
X0096673
X0101673
X0106673
X0109173Y0043543
X0104173
X0099173
X0094173
X0089173
X0084173
X0079173
X0074173
X0069173
X0064173
X0059173
X0054173
X0056673Y0038543
X0061673
X0066673
X0071673
X0076673
X0081673
X0086673
X0091673
X0096673
X0101673
X0106673
X0051673
X0046673
X0036673
X0031673
X0026673
X0021673
X0016673
X0011673
X0006673
X0009173Y0043543
X0014173
X0019173
X0024173
X0029173
X0034173
X0031673Y0048543
X0026673
X0021673
X0016673
X0011673
X0006673
X0009173Y0053543
X0014173
X0019173
X0024173
X0029173
X0034173
X0036673Y0058543
X0041673
X0046673
X0031673
X0026673
X0021673
X0004173Y0053543
Y0043543
T02
X0256102Y0047441
X0254724Y0096653
X004311Y0092716
Y0047441
T03
X0158465Y0012795
X018248
Y0130905
X0158465
M30
