G04*
G04 #@! TF.GenerationSoftware,Altium Limited,Altium Designer,22.0.2 (36)*
G04*
G04 Layer_Color=2752767*
%FSLAX25Y25*%
%MOIN*%
G70*
G04*
G04 #@! TF.SameCoordinates,04F3E7EA-1EC6-48BA-AAB6-D1FA50B40766*
G04*
G04*
G04 #@! TF.FilePolarity,Positive*
G04*
G01*
G75*
%ADD12C,0.01000*%
%ADD16C,0.01500*%
%ADD88C,0.01600*%
%ADD89C,0.00200*%
D12*
X645365Y237258D02*
X643366Y239257D01*
Y241257D01*
X645365Y243256D01*
X648364Y237258D02*
Y243256D01*
X650364Y241257D01*
X652363Y243256D01*
Y237258D01*
X654363D02*
X656362D01*
X655362D01*
Y241257D01*
X654363D01*
X659361D02*
X663360Y237258D01*
X661360Y239257D01*
X663360Y241257D01*
X659361Y237258D01*
X668358D02*
X666359D01*
X665359Y238258D01*
Y240257D01*
X666359Y241257D01*
X668358D01*
X669358Y240257D01*
Y239257D01*
X665359D01*
X675356Y243256D02*
Y237258D01*
X672357D01*
X671357Y238258D01*
Y240257D01*
X672357Y241257D01*
X675356D01*
X677355Y237258D02*
X679354Y239257D01*
Y241257D01*
X677355Y243256D01*
X647365Y226257D02*
X644366D01*
X643366Y225257D01*
Y223257D01*
X644366Y222258D01*
X647365D01*
X649364Y227256D02*
X650364Y228256D01*
X652363D01*
X653363Y227256D01*
Y226257D01*
X652363Y225257D01*
X651364D01*
X652363D01*
X653363Y224257D01*
Y223257D01*
X652363Y222258D01*
X650364D01*
X649364Y223257D01*
X659361Y222258D02*
X655362D01*
X659361Y226257D01*
Y227256D01*
X658361Y228256D01*
X656362D01*
X655362Y227256D01*
X661360D02*
X662360Y228256D01*
X664359D01*
X665359Y227256D01*
Y223257D01*
X664359Y222258D01*
X662360D01*
X661360Y223257D01*
Y227256D01*
X667358Y228256D02*
Y222258D01*
Y225257D01*
X668358Y226257D01*
X670357D01*
X671357Y225257D01*
Y222258D01*
X673356D02*
Y226257D01*
X676356D01*
X677355Y225257D01*
Y222258D01*
X679354Y227256D02*
X680354Y228256D01*
X682353D01*
X683353Y227256D01*
Y226257D01*
X682353Y225257D01*
X681354D01*
X682353D01*
X683353Y224257D01*
Y223257D01*
X682353Y222258D01*
X680354D01*
X679354Y223257D01*
X689351Y222258D02*
X685353D01*
X689351Y226257D01*
Y227256D01*
X688352Y228256D01*
X686352D01*
X685353Y227256D01*
X691351D02*
X692350Y228256D01*
X694350D01*
X695349Y227256D01*
Y223257D01*
X694350Y222258D01*
X692350D01*
X691351Y223257D01*
Y227256D01*
X643366Y211257D02*
X645365Y207258D01*
X647365Y211257D01*
X653363Y213256D02*
X651364Y212256D01*
X649364Y210257D01*
Y208258D01*
X650364Y207258D01*
X652363D01*
X653363Y208258D01*
Y209257D01*
X652363Y210257D01*
X649364D01*
X655362Y212256D02*
X656362Y213256D01*
X658361D01*
X659361Y212256D01*
Y208258D01*
X658361Y207258D01*
X656362D01*
X655362Y208258D01*
Y212256D01*
X661360Y213256D02*
Y207258D01*
Y210257D01*
X662360Y211257D01*
X664359D01*
X665359Y210257D01*
Y207258D01*
X670357D02*
Y213256D01*
X667358Y210257D01*
X671357D01*
X673356Y212256D02*
X674356Y213256D01*
X676356D01*
X677355Y212256D01*
Y208258D01*
X676356Y207258D01*
X674356D01*
X673356Y208258D01*
Y212256D01*
X679354Y207258D02*
Y211257D01*
X680354D01*
X681354Y210257D01*
Y207258D01*
Y210257D01*
X682353Y211257D01*
X683353Y210257D01*
Y207258D01*
X685353Y212256D02*
X686352Y213256D01*
X688352D01*
X689351Y212256D01*
Y208258D01*
X688352Y207258D01*
X686352D01*
X685353Y208258D01*
Y212256D01*
X568786Y237258D02*
Y243256D01*
X571785D01*
X572785Y242256D01*
Y240257D01*
X571785Y239257D01*
X568786D01*
X570786D02*
X572785Y237258D01*
X575784D02*
X577783D01*
X578783Y238258D01*
Y240257D01*
X577783Y241257D01*
X575784D01*
X574784Y240257D01*
Y238258D01*
X575784Y237258D01*
X580782Y241257D02*
Y238258D01*
X581782Y237258D01*
X584781D01*
Y241257D01*
X586781Y237258D02*
Y241257D01*
X589780D01*
X590779Y240257D01*
Y237258D01*
X596777Y243256D02*
Y237258D01*
X593778D01*
X592778Y238258D01*
Y240257D01*
X593778Y241257D01*
X596777D01*
X601776Y237258D02*
X599776D01*
X598777Y238258D01*
Y240257D01*
X599776Y241257D01*
X601776D01*
X602775Y240257D01*
Y239257D01*
X598777D01*
X608773Y243256D02*
Y237258D01*
X605774D01*
X604775Y238258D01*
Y240257D01*
X605774Y241257D01*
X608773D01*
X568786Y222258D02*
Y228256D01*
X571785D01*
X572785Y227256D01*
Y225257D01*
X571785Y224257D01*
X568786D01*
X570786D02*
X572785Y222258D01*
X575784D02*
X577783D01*
X578783Y223257D01*
Y225257D01*
X577783Y226257D01*
X575784D01*
X574784Y225257D01*
Y223257D01*
X575784Y222258D01*
X580782Y226257D02*
Y223257D01*
X581782Y222258D01*
X584781D01*
Y226257D01*
X586781Y222258D02*
Y226257D01*
X589780D01*
X590779Y225257D01*
Y222258D01*
X596777Y228256D02*
Y222258D01*
X593778D01*
X592778Y223257D01*
Y225257D01*
X593778Y226257D01*
X596777D01*
X601776Y222258D02*
X599776D01*
X598777Y223257D01*
Y225257D01*
X599776Y226257D01*
X601776D01*
X602775Y225257D01*
Y224257D01*
X598777D01*
X608773Y228256D02*
Y222258D01*
X605774D01*
X604775Y223257D01*
Y225257D01*
X605774Y226257D01*
X608773D01*
X568786Y207258D02*
Y213256D01*
X571785D01*
X572785Y212256D01*
Y210257D01*
X571785Y209257D01*
X568786D01*
X570786D02*
X572785Y207258D01*
X575784D02*
X577783D01*
X578783Y208258D01*
Y210257D01*
X577783Y211257D01*
X575784D01*
X574784Y210257D01*
Y208258D01*
X575784Y207258D01*
X580782Y211257D02*
Y208258D01*
X581782Y207258D01*
X584781D01*
Y211257D01*
X586781Y207258D02*
Y211257D01*
X589780D01*
X590779Y210257D01*
Y207258D01*
X596777Y213256D02*
Y207258D01*
X593778D01*
X592778Y208258D01*
Y210257D01*
X593778Y211257D01*
X596777D01*
X601776Y207258D02*
X599776D01*
X598777Y208258D01*
Y210257D01*
X599776Y211257D01*
X601776D01*
X602775Y210257D01*
Y209257D01*
X598777D01*
X608773Y213256D02*
Y207258D01*
X605774D01*
X604775Y208258D01*
Y210257D01*
X605774Y211257D01*
X608773D01*
X509801Y243256D02*
Y239257D01*
X511801Y237258D01*
X513800Y239257D01*
Y243256D01*
X515800Y237258D02*
X517799D01*
X516799D01*
Y241257D01*
X515800D01*
X521798D02*
X523797D01*
X524797Y240257D01*
Y237258D01*
X521798D01*
X520798Y238258D01*
X521798Y239257D01*
X524797D01*
X509801Y222258D02*
Y228256D01*
X512801D01*
X513800Y227256D01*
Y225257D01*
X512801Y224257D01*
X509801D01*
X516799Y226257D02*
X518798D01*
X519798Y225257D01*
Y222258D01*
X516799D01*
X515800Y223257D01*
X516799Y224257D01*
X519798D01*
X525796Y228256D02*
Y222258D01*
X522797D01*
X521798Y223257D01*
Y225257D01*
X522797Y226257D01*
X525796D01*
X509801Y213256D02*
Y209257D01*
X511801Y207258D01*
X513800Y209257D01*
Y213256D01*
X515800Y207258D02*
X517799D01*
X516799D01*
Y211257D01*
X515800D01*
X521798D02*
X523797D01*
X524797Y210257D01*
Y207258D01*
X521798D01*
X520798Y208258D01*
X521798Y209257D01*
X524797D01*
X359846Y243256D02*
X363845D01*
X361846D01*
Y237258D01*
X366844D02*
X368844D01*
X369843Y238258D01*
Y240257D01*
X368844Y241257D01*
X366844D01*
X365844Y240257D01*
Y238258D01*
X366844Y237258D01*
X371843Y235259D02*
Y241257D01*
X374842D01*
X375841Y240257D01*
Y238258D01*
X374842Y237258D01*
X371843D01*
X383839Y243256D02*
Y237258D01*
X387837D01*
X390836Y241257D02*
X392836D01*
X393835Y240257D01*
Y237258D01*
X390836D01*
X389837Y238258D01*
X390836Y239257D01*
X393835D01*
X395835Y241257D02*
Y238258D01*
X396834Y237258D01*
X399833D01*
Y236258D01*
X398834Y235259D01*
X397834D01*
X399833Y237258D02*
Y241257D01*
X404832Y237258D02*
X402833D01*
X401833Y238258D01*
Y240257D01*
X402833Y241257D01*
X404832D01*
X405831Y240257D01*
Y239257D01*
X401833D01*
X407831Y241257D02*
Y237258D01*
Y239257D01*
X408831Y240257D01*
X409830Y241257D01*
X410830D01*
X419827Y240257D02*
X423826D01*
X431823Y243256D02*
Y237258D01*
X434822D01*
X435822Y238258D01*
Y239257D01*
X434822Y240257D01*
X431823D01*
X434822D01*
X435822Y241257D01*
Y242256D01*
X434822Y243256D01*
X431823D01*
X438821Y237258D02*
X440820D01*
X441820Y238258D01*
Y240257D01*
X440820Y241257D01*
X438821D01*
X437821Y240257D01*
Y238258D01*
X438821Y237258D01*
X444819Y242256D02*
Y241257D01*
X443819D01*
X445819D01*
X444819D01*
Y238258D01*
X445819Y237258D01*
X449817Y242256D02*
Y241257D01*
X448818D01*
X450817D01*
X449817D01*
Y238258D01*
X450817Y237258D01*
X454816D02*
X456815D01*
X457815Y238258D01*
Y240257D01*
X456815Y241257D01*
X454816D01*
X453816Y240257D01*
Y238258D01*
X454816Y237258D01*
X459814D02*
Y241257D01*
X460814D01*
X461813Y240257D01*
Y237258D01*
Y240257D01*
X462813Y241257D01*
X463813Y240257D01*
Y237258D01*
X471810Y243256D02*
Y237258D01*
X475809D01*
X478808Y241257D02*
X480807D01*
X481807Y240257D01*
Y237258D01*
X478808D01*
X477808Y238258D01*
X478808Y239257D01*
X481807D01*
X483806Y241257D02*
Y238258D01*
X484806Y237258D01*
X487805D01*
Y236258D01*
X486805Y235259D01*
X485806D01*
X487805Y237258D02*
Y241257D01*
X492803Y237258D02*
X490804D01*
X489804Y238258D01*
Y240257D01*
X490804Y241257D01*
X492803D01*
X493803Y240257D01*
Y239257D01*
X489804D01*
X495802Y241257D02*
Y237258D01*
Y239257D01*
X496802Y240257D01*
X497802Y241257D01*
X498802D01*
X359846Y228256D02*
X363845D01*
X361846D01*
Y222258D01*
X366844D02*
X368844D01*
X369843Y223257D01*
Y225257D01*
X368844Y226257D01*
X366844D01*
X365844Y225257D01*
Y223257D01*
X366844Y222258D01*
X371843Y220258D02*
Y226257D01*
X374842D01*
X375841Y225257D01*
Y223257D01*
X374842Y222258D01*
X371843D01*
X383839Y228256D02*
Y222258D01*
X387837D01*
X390836Y226257D02*
X392836D01*
X393835Y225257D01*
Y222258D01*
X390836D01*
X389837Y223257D01*
X390836Y224257D01*
X393835D01*
X395835Y226257D02*
Y223257D01*
X396834Y222258D01*
X399833D01*
Y221258D01*
X398834Y220258D01*
X397834D01*
X399833Y222258D02*
Y226257D01*
X404832Y222258D02*
X402833D01*
X401833Y223257D01*
Y225257D01*
X402833Y226257D01*
X404832D01*
X405831Y225257D01*
Y224257D01*
X401833D01*
X407831Y226257D02*
Y222258D01*
Y224257D01*
X408831Y225257D01*
X409830Y226257D01*
X410830D01*
X419827Y225257D02*
X423826D01*
X431823Y228256D02*
Y222258D01*
X434822D01*
X435822Y223257D01*
Y224257D01*
X434822Y225257D01*
X431823D01*
X434822D01*
X435822Y226257D01*
Y227256D01*
X434822Y228256D01*
X431823D01*
X438821Y222258D02*
X440820D01*
X441820Y223257D01*
Y225257D01*
X440820Y226257D01*
X438821D01*
X437821Y225257D01*
Y223257D01*
X438821Y222258D01*
X444819Y227256D02*
Y226257D01*
X443819D01*
X445819D01*
X444819D01*
Y223257D01*
X445819Y222258D01*
X449817Y227256D02*
Y226257D01*
X448818D01*
X450817D01*
X449817D01*
Y223257D01*
X450817Y222258D01*
X454816D02*
X456815D01*
X457815Y223257D01*
Y225257D01*
X456815Y226257D01*
X454816D01*
X453816Y225257D01*
Y223257D01*
X454816Y222258D01*
X459814D02*
Y226257D01*
X460814D01*
X461813Y225257D01*
Y222258D01*
Y225257D01*
X462813Y226257D01*
X463813Y225257D01*
Y222258D01*
X471810Y228256D02*
Y222258D01*
X475809D01*
X478808Y226257D02*
X480807D01*
X481807Y225257D01*
Y222258D01*
X478808D01*
X477808Y223257D01*
X478808Y224257D01*
X481807D01*
X483806Y226257D02*
Y223257D01*
X484806Y222258D01*
X487805D01*
Y221258D01*
X486805Y220258D01*
X485806D01*
X487805Y222258D02*
Y226257D01*
X492803Y222258D02*
X490804D01*
X489804Y223257D01*
Y225257D01*
X490804Y226257D01*
X492803D01*
X493803Y225257D01*
Y224257D01*
X489804D01*
X495802Y226257D02*
Y222258D01*
Y224257D01*
X496802Y225257D01*
X497802Y226257D01*
X498802D01*
X359846Y213256D02*
X363845D01*
X361846D01*
Y207258D01*
X366844D02*
X368844D01*
X369843Y208258D01*
Y210257D01*
X368844Y211257D01*
X366844D01*
X365844Y210257D01*
Y208258D01*
X366844Y207258D01*
X371843Y205258D02*
Y211257D01*
X374842D01*
X375841Y210257D01*
Y208258D01*
X374842Y207258D01*
X371843D01*
X383839Y213256D02*
Y207258D01*
X387837D01*
X390836Y211257D02*
X392836D01*
X393835Y210257D01*
Y207258D01*
X390836D01*
X389837Y208258D01*
X390836Y209257D01*
X393835D01*
X395835Y211257D02*
Y208258D01*
X396834Y207258D01*
X399833D01*
Y206258D01*
X398834Y205258D01*
X397834D01*
X399833Y207258D02*
Y211257D01*
X404832Y207258D02*
X402833D01*
X401833Y208258D01*
Y210257D01*
X402833Y211257D01*
X404832D01*
X405831Y210257D01*
Y209257D01*
X401833D01*
X407831Y211257D02*
Y207258D01*
Y209257D01*
X408831Y210257D01*
X409830Y211257D01*
X410830D01*
X419827Y210257D02*
X423826D01*
X431823Y213256D02*
Y207258D01*
X434822D01*
X435822Y208258D01*
Y209257D01*
X434822Y210257D01*
X431823D01*
X434822D01*
X435822Y211257D01*
Y212256D01*
X434822Y213256D01*
X431823D01*
X438821Y207258D02*
X440820D01*
X441820Y208258D01*
Y210257D01*
X440820Y211257D01*
X438821D01*
X437821Y210257D01*
Y208258D01*
X438821Y207258D01*
X444819Y212256D02*
Y211257D01*
X443819D01*
X445819D01*
X444819D01*
Y208258D01*
X445819Y207258D01*
X449817Y212256D02*
Y211257D01*
X448818D01*
X450817D01*
X449817D01*
Y208258D01*
X450817Y207258D01*
X454816D02*
X456815D01*
X457815Y208258D01*
Y210257D01*
X456815Y211257D01*
X454816D01*
X453816Y210257D01*
Y208258D01*
X454816Y207258D01*
X459814D02*
Y211257D01*
X460814D01*
X461813Y210257D01*
Y207258D01*
Y210257D01*
X462813Y211257D01*
X463813Y210257D01*
Y207258D01*
X471810Y213256D02*
Y207258D01*
X475809D01*
X478808Y211257D02*
X480807D01*
X481807Y210257D01*
Y207258D01*
X478808D01*
X477808Y208258D01*
X478808Y209257D01*
X481807D01*
X483806Y211257D02*
Y208258D01*
X484806Y207258D01*
X487805D01*
Y206258D01*
X486805Y205258D01*
X485806D01*
X487805Y207258D02*
Y211257D01*
X492803Y207258D02*
X490804D01*
X489804Y208258D01*
Y210257D01*
X490804Y211257D01*
X492803D01*
X493803Y210257D01*
Y209257D01*
X489804D01*
X495802Y211257D02*
Y207258D01*
Y209257D01*
X496802Y210257D01*
X497802Y211257D01*
X498802D01*
X286466Y237258D02*
Y243256D01*
X289465D01*
X290465Y242256D01*
Y240257D01*
X289465Y239257D01*
X286466D01*
X288465D02*
X290465Y237258D01*
X293464D02*
X295463D01*
X296463Y238258D01*
Y240257D01*
X295463Y241257D01*
X293464D01*
X292464Y240257D01*
Y238258D01*
X293464Y237258D01*
X298462Y241257D02*
Y238258D01*
X299462Y237258D01*
X302461D01*
Y241257D01*
X304460Y237258D02*
Y241257D01*
X307459D01*
X308459Y240257D01*
Y237258D01*
X314457Y243256D02*
Y237258D01*
X311458D01*
X310458Y238258D01*
Y240257D01*
X311458Y241257D01*
X314457D01*
X286466Y222258D02*
Y228256D01*
X289465D01*
X290465Y227256D01*
Y225257D01*
X289465Y224257D01*
X286466D01*
X288465D02*
X290465Y222258D01*
X293464D02*
X295463D01*
X296463Y223257D01*
Y225257D01*
X295463Y226257D01*
X293464D01*
X292464Y225257D01*
Y223257D01*
X293464Y222258D01*
X298462Y226257D02*
Y223257D01*
X299462Y222258D01*
X302461D01*
Y226257D01*
X304460Y222258D02*
Y226257D01*
X307459D01*
X308459Y225257D01*
Y222258D01*
X314457Y228256D02*
Y222258D01*
X311458D01*
X310458Y223257D01*
Y225257D01*
X311458Y226257D01*
X314457D01*
X286466Y207258D02*
Y213256D01*
X289465D01*
X290465Y212256D01*
Y210257D01*
X289465Y209257D01*
X286466D01*
X288465D02*
X290465Y207258D01*
X293464D02*
X295463D01*
X296463Y208258D01*
Y210257D01*
X295463Y211257D01*
X293464D01*
X292464Y210257D01*
Y208258D01*
X293464Y207258D01*
X298462Y211257D02*
Y208258D01*
X299462Y207258D01*
X302461D01*
Y211257D01*
X304460Y207258D02*
Y211257D01*
X307459D01*
X308459Y210257D01*
Y207258D01*
X314457Y213256D02*
Y207258D01*
X311458D01*
X310458Y208258D01*
Y210257D01*
X311458Y211257D01*
X314457D01*
X235879Y237258D02*
Y243256D01*
X238878D01*
X239877Y242256D01*
Y240257D01*
X238878Y239257D01*
X235879D01*
X241877Y243256D02*
X245875D01*
X243876D01*
Y237258D01*
X247875Y243256D02*
Y237258D01*
Y240257D01*
X251873D01*
Y243256D01*
Y237258D01*
X235879Y222258D02*
Y228256D01*
X239877Y222258D01*
Y228256D01*
X241877Y222258D02*
Y228256D01*
X244876D01*
X245875Y227256D01*
Y225257D01*
X244876Y224257D01*
X241877D01*
X247875Y228256D02*
X251873D01*
X249874D01*
Y222258D01*
X253873Y228256D02*
Y222258D01*
Y225257D01*
X257872D01*
Y228256D01*
Y222258D01*
X235879Y207258D02*
Y213256D01*
X238878D01*
X239877Y212256D01*
Y210257D01*
X238878Y209257D01*
X235879D01*
X241877Y213256D02*
X245875D01*
X243876D01*
Y207258D01*
X247875Y213256D02*
Y207258D01*
Y210257D01*
X251873D01*
Y213256D01*
Y207258D01*
X120912Y242256D02*
X121912Y243256D01*
X123911D01*
X124911Y242256D01*
Y241257D01*
X123911Y240257D01*
X122912D01*
X123911D01*
X124911Y239257D01*
Y238258D01*
X123911Y237258D01*
X121912D01*
X120912Y238258D01*
X126910Y237258D02*
Y238258D01*
X127910D01*
Y237258D01*
X126910D01*
X131909Y242256D02*
X132908Y243256D01*
X134908D01*
X135907Y242256D01*
Y238258D01*
X134908Y237258D01*
X132908D01*
X131909Y238258D01*
Y242256D01*
X137907D02*
X138906Y243256D01*
X140906D01*
X141905Y242256D01*
Y238258D01*
X140906Y237258D01*
X138906D01*
X137907Y238258D01*
Y242256D01*
X143905D02*
X144904Y243256D01*
X146904D01*
X147904Y242256D01*
Y238258D01*
X146904Y237258D01*
X144904D01*
X143905Y238258D01*
Y242256D01*
X149903Y237258D02*
Y241257D01*
X150903D01*
X151902Y240257D01*
Y237258D01*
Y240257D01*
X152902Y241257D01*
X153902Y240257D01*
Y237258D01*
X155901D02*
Y241257D01*
X156901D01*
X157900Y240257D01*
Y237258D01*
Y240257D01*
X158900Y241257D01*
X159900Y240257D01*
Y237258D01*
X169896D02*
X167897Y239257D01*
Y241257D01*
X169896Y243256D01*
X172896Y237258D02*
X174895D01*
X173895D01*
Y243256D01*
X172896Y242256D01*
X177894Y237258D02*
X179893D01*
X178893D01*
Y243256D01*
X177894Y242256D01*
X182892D02*
X183892Y243256D01*
X185891D01*
X186891Y242256D01*
Y241257D01*
X185891Y240257D01*
X186891Y239257D01*
Y238258D01*
X185891Y237258D01*
X183892D01*
X182892Y238258D01*
Y239257D01*
X183892Y240257D01*
X182892Y241257D01*
Y242256D01*
X183892Y240257D02*
X185891D01*
X188890Y237258D02*
Y238258D01*
X189890D01*
Y237258D01*
X188890D01*
X193889D02*
X195888D01*
X194888D01*
Y243256D01*
X193889Y242256D01*
X198887Y237258D02*
X200886D01*
X199887D01*
Y243256D01*
X198887Y242256D01*
X203885Y237258D02*
Y241257D01*
X204885D01*
X205885Y240257D01*
Y237258D01*
Y240257D01*
X206884Y241257D01*
X207884Y240257D01*
Y237258D01*
X209883D02*
X211883D01*
X210883D01*
Y241257D01*
X209883D01*
X214882Y237258D02*
X216881D01*
X215881D01*
Y243256D01*
X214882D01*
X219880Y237258D02*
X221880Y239257D01*
Y241257D01*
X219880Y243256D01*
X120912Y227256D02*
X121912Y228256D01*
X123911D01*
X124911Y227256D01*
Y226257D01*
X123911Y225257D01*
X122912D01*
X123911D01*
X124911Y224257D01*
Y223257D01*
X123911Y222258D01*
X121912D01*
X120912Y223257D01*
X126910Y222258D02*
Y223257D01*
X127910D01*
Y222258D01*
X126910D01*
X135907D02*
X131909D01*
X135907Y226257D01*
Y227256D01*
X134908Y228256D01*
X132908D01*
X131909Y227256D01*
X137907D02*
X138906Y228256D01*
X140906D01*
X141905Y227256D01*
Y223257D01*
X140906Y222258D01*
X138906D01*
X137907Y223257D01*
Y227256D01*
X143905D02*
X144904Y228256D01*
X146904D01*
X147904Y227256D01*
Y223257D01*
X146904Y222258D01*
X144904D01*
X143905Y223257D01*
Y227256D01*
X149903Y222258D02*
Y226257D01*
X150903D01*
X151902Y225257D01*
Y222258D01*
Y225257D01*
X152902Y226257D01*
X153902Y225257D01*
Y222258D01*
X155901D02*
Y226257D01*
X156901D01*
X157900Y225257D01*
Y222258D01*
Y225257D01*
X158900Y226257D01*
X159900Y225257D01*
Y222258D01*
X169896D02*
X167897Y224257D01*
Y226257D01*
X169896Y228256D01*
X172896Y222258D02*
X174895D01*
X173895D01*
Y228256D01*
X172896Y227256D01*
X181893Y222258D02*
X177894D01*
X181893Y226257D01*
Y227256D01*
X180893Y228256D01*
X178893D01*
X177894Y227256D01*
X187891Y228256D02*
X183892D01*
Y225257D01*
X185891Y226257D01*
X186891D01*
X187891Y225257D01*
Y223257D01*
X186891Y222258D01*
X184892D01*
X183892Y223257D01*
X189890Y222258D02*
Y223257D01*
X190890D01*
Y222258D01*
X189890D01*
X194888Y223257D02*
X195888Y222258D01*
X197887D01*
X198887Y223257D01*
Y227256D01*
X197887Y228256D01*
X195888D01*
X194888Y227256D01*
Y226257D01*
X195888Y225257D01*
X198887D01*
X200886Y227256D02*
X201886Y228256D01*
X203885D01*
X204885Y227256D01*
Y226257D01*
X203885Y225257D01*
X204885Y224257D01*
Y223257D01*
X203885Y222258D01*
X201886D01*
X200886Y223257D01*
Y224257D01*
X201886Y225257D01*
X200886Y226257D01*
Y227256D01*
X201886Y225257D02*
X203885D01*
X206885Y222258D02*
Y226257D01*
X207884D01*
X208884Y225257D01*
Y222258D01*
Y225257D01*
X209883Y226257D01*
X210883Y225257D01*
Y222258D01*
X212882D02*
X214882D01*
X213882D01*
Y226257D01*
X212882D01*
X217881Y222258D02*
X219880D01*
X218881D01*
Y228256D01*
X217881D01*
X222879Y222258D02*
X224879Y224257D01*
Y226257D01*
X222879Y228256D01*
X120912Y212256D02*
X121912Y213256D01*
X123911D01*
X124911Y212256D01*
Y208258D01*
X123911Y207258D01*
X121912D01*
X120912Y208258D01*
Y212256D01*
X126910Y207258D02*
Y208258D01*
X127910D01*
Y207258D01*
X126910D01*
X134908D02*
Y213256D01*
X131909Y210257D01*
X135907D01*
X137907Y212256D02*
X138906Y213256D01*
X140906D01*
X141905Y212256D01*
Y208258D01*
X140906Y207258D01*
X138906D01*
X137907Y208258D01*
Y212256D01*
X143905D02*
X144904Y213256D01*
X146904D01*
X147904Y212256D01*
Y208258D01*
X146904Y207258D01*
X144904D01*
X143905Y208258D01*
Y212256D01*
X149903Y207258D02*
Y211257D01*
X150903D01*
X151902Y210257D01*
Y207258D01*
Y210257D01*
X152902Y211257D01*
X153902Y210257D01*
Y207258D01*
X155901D02*
Y211257D01*
X156901D01*
X157900Y210257D01*
Y207258D01*
Y210257D01*
X158900Y211257D01*
X159900Y210257D01*
Y207258D01*
X169896D02*
X167897Y209257D01*
Y211257D01*
X169896Y213256D01*
X172896Y207258D02*
X174895D01*
X173895D01*
Y213256D01*
X172896Y212256D01*
X181893Y213256D02*
X177894D01*
Y210257D01*
X179893Y211257D01*
X180893D01*
X181893Y210257D01*
Y208258D01*
X180893Y207258D01*
X178893D01*
X177894Y208258D01*
X183892Y207258D02*
Y208258D01*
X184892D01*
Y207258D01*
X183892D01*
X188890Y213256D02*
X192889D01*
Y212256D01*
X188890Y208258D01*
Y207258D01*
X198887Y213256D02*
X194888D01*
Y210257D01*
X196888Y211257D01*
X197887D01*
X198887Y210257D01*
Y208258D01*
X197887Y207258D01*
X195888D01*
X194888Y208258D01*
X200886Y207258D02*
Y211257D01*
X201886D01*
X202886Y210257D01*
Y207258D01*
Y210257D01*
X203885Y211257D01*
X204885Y210257D01*
Y207258D01*
X206885D02*
X208884D01*
X207884D01*
Y211257D01*
X206885D01*
X211883Y207258D02*
X213882D01*
X212882D01*
Y213256D01*
X211883D01*
X216881Y207258D02*
X218881Y209257D01*
Y211257D01*
X216881Y213256D01*
X60928Y197256D02*
X61928Y198256D01*
X63927D01*
X64927Y197256D01*
Y196257D01*
X63927Y195257D01*
X64927Y194257D01*
Y193257D01*
X63927Y192258D01*
X61928D01*
X60928Y193257D01*
Y194257D01*
X61928Y195257D01*
X60928Y196257D01*
Y197256D01*
X61928Y195257D02*
X63927D01*
X70925Y198256D02*
X68925Y197256D01*
X66926Y195257D01*
Y193257D01*
X67926Y192258D01*
X69925D01*
X70925Y193257D01*
Y194257D01*
X69925Y195257D01*
X66926D01*
X75923Y192258D02*
Y198256D01*
X72924Y195257D01*
X76923D01*
X84920Y198256D02*
X88919D01*
X86920D01*
Y192258D01*
X91918D02*
X93917D01*
X94917Y193257D01*
Y195257D01*
X93917Y196257D01*
X91918D01*
X90918Y195257D01*
Y193257D01*
X91918Y192258D01*
X97916Y197256D02*
Y196257D01*
X96917D01*
X98916D01*
X97916D01*
Y193257D01*
X98916Y192258D01*
X102915Y196257D02*
X104914D01*
X105914Y195257D01*
Y192258D01*
X102915D01*
X101915Y193257D01*
X102915Y194257D01*
X105914D01*
X107913Y192258D02*
X109912D01*
X108913D01*
Y198256D01*
X107913D01*
X63927Y237258D02*
Y243256D01*
X60928Y240257D01*
X64927D01*
X63927Y222258D02*
Y228256D01*
X60928Y225257D01*
X64927D01*
X60928Y212256D02*
X61928Y213256D01*
X63927D01*
X64927Y212256D01*
Y211257D01*
X63927Y210257D01*
X64927Y209257D01*
Y208258D01*
X63927Y207258D01*
X61928D01*
X60928Y208258D01*
Y209257D01*
X61928Y210257D01*
X60928Y211257D01*
Y212256D01*
X61928Y210257D02*
X63927D01*
X70925Y213256D02*
X66926D01*
Y210257D01*
X68925Y211257D01*
X69925D01*
X70925Y210257D01*
Y208258D01*
X69925Y207258D01*
X67926D01*
X66926Y208258D01*
X76923Y213256D02*
X74924Y212256D01*
X72924Y210257D01*
Y208258D01*
X73924Y207258D01*
X75923D01*
X76923Y208258D01*
Y209257D01*
X75923Y210257D01*
X72924D01*
X7432Y242923D02*
Y236259D01*
X10764D01*
X11875Y237370D01*
Y238480D01*
X10764Y239591D01*
X7432D01*
X10764D01*
X11875Y240702D01*
Y241813D01*
X10764Y242923D01*
X7432D01*
X11875Y226813D02*
X10764Y227923D01*
X8542D01*
X7432Y226813D01*
Y222370D01*
X8542Y221259D01*
X10764D01*
X11875Y222370D01*
X7432Y206259D02*
Y210702D01*
X9653Y212924D01*
X11875Y210702D01*
Y206259D01*
Y209591D01*
X7432D01*
D16*
X1341Y247758D02*
X1060447D01*
X1341Y202758D02*
X1060447D01*
X1341Y187758D02*
X1060447D01*
Y262758D01*
X1341D02*
X1060447D01*
X1341Y187758D02*
Y262758D01*
X922586Y187758D02*
Y262758D01*
X789225Y187758D02*
Y262758D01*
X703849Y187758D02*
Y262758D01*
X638866Y187758D02*
Y262758D01*
X564286Y187758D02*
Y262758D01*
X505302Y187758D02*
Y262758D01*
X355346Y187758D02*
Y262758D01*
X281966Y187758D02*
Y262758D01*
X231379Y187758D02*
Y262758D01*
X116412Y187758D02*
Y262758D01*
X56428Y187758D02*
Y262758D01*
D88*
X927086Y259455D02*
Y252258D01*
Y255857D01*
X931885D01*
Y259455D01*
Y252258D01*
X935483D02*
X937883D01*
X939082Y253457D01*
Y255857D01*
X937883Y257056D01*
X935483D01*
X934284Y255857D01*
Y253457D01*
X935483Y252258D01*
X941481D02*
X943881D01*
X942681D01*
Y259455D01*
X941481D01*
X951078Y252258D02*
X948679D01*
X947480Y253457D01*
Y255857D01*
X948679Y257056D01*
X951078D01*
X952278Y255857D01*
Y254657D01*
X947480D01*
X961875Y259455D02*
X966673D01*
X964274D01*
Y252258D01*
X970272D02*
X972671D01*
X973871Y253457D01*
Y255857D01*
X972671Y257056D01*
X970272D01*
X969073Y255857D01*
Y253457D01*
X970272Y252258D01*
X976270D02*
X978669D01*
X977470D01*
Y259455D01*
X976270D01*
X985867Y252258D02*
X983468D01*
X982268Y253457D01*
Y255857D01*
X983468Y257056D01*
X985867D01*
X987067Y255857D01*
Y254657D01*
X982268D01*
X989466Y257056D02*
Y252258D01*
Y254657D01*
X990666Y255857D01*
X991865Y257056D01*
X993065D01*
X997863D02*
X1000263D01*
X1001462Y255857D01*
Y252258D01*
X997863D01*
X996664Y253457D01*
X997863Y254657D01*
X1001462D01*
X1003861Y252258D02*
Y257056D01*
X1007460D01*
X1008660Y255857D01*
Y252258D01*
X1015857Y257056D02*
X1012259D01*
X1011059Y255857D01*
Y253457D01*
X1012259Y252258D01*
X1015857D01*
X1021856D02*
X1019456D01*
X1018257Y253457D01*
Y255857D01*
X1019456Y257056D01*
X1021856D01*
X1023055Y255857D01*
Y254657D01*
X1018257D01*
X1035051Y252258D02*
X1032652Y254657D01*
Y257056D01*
X1035051Y259455D01*
X1038650Y255857D02*
X1043449D01*
X1045848Y252258D02*
X1048247Y254657D01*
Y257056D01*
X1045848Y259455D01*
X793725D02*
Y252258D01*
Y255857D01*
X798524D01*
Y259455D01*
Y252258D01*
X802123D02*
X804522D01*
X805721Y253457D01*
Y255857D01*
X804522Y257056D01*
X802123D01*
X800923Y255857D01*
Y253457D01*
X802123Y252258D01*
X808121D02*
X810520D01*
X809320D01*
Y259455D01*
X808121D01*
X817718Y252258D02*
X815318D01*
X814119Y253457D01*
Y255857D01*
X815318Y257056D01*
X817718D01*
X818917Y255857D01*
Y254657D01*
X814119D01*
X828514Y259455D02*
X833313D01*
X830913D01*
Y252258D01*
X836911D02*
X839311D01*
X840510Y253457D01*
Y255857D01*
X839311Y257056D01*
X836911D01*
X835712Y255857D01*
Y253457D01*
X836911Y252258D01*
X842909D02*
X845309D01*
X844109D01*
Y259455D01*
X842909D01*
X852506Y252258D02*
X850107D01*
X848907Y253457D01*
Y255857D01*
X850107Y257056D01*
X852506D01*
X853706Y255857D01*
Y254657D01*
X848907D01*
X856105Y257056D02*
Y252258D01*
Y254657D01*
X857305Y255857D01*
X858504Y257056D01*
X859704D01*
X864502D02*
X866902D01*
X868101Y255857D01*
Y252258D01*
X864502D01*
X863303Y253457D01*
X864502Y254657D01*
X868101D01*
X870500Y252258D02*
Y257056D01*
X874099D01*
X875299Y255857D01*
Y252258D01*
X882497Y257056D02*
X878898D01*
X877698Y255857D01*
Y253457D01*
X878898Y252258D01*
X882497D01*
X888495D02*
X886096D01*
X884896Y253457D01*
Y255857D01*
X886096Y257056D01*
X888495D01*
X889694Y255857D01*
Y254657D01*
X884896D01*
X901690Y252258D02*
X899291Y254657D01*
Y257056D01*
X901690Y259455D01*
X905289Y255857D02*
X910088D01*
X907689Y258256D02*
Y253457D01*
X912487Y252258D02*
X914886Y254657D01*
Y257056D01*
X912487Y259455D01*
X708349D02*
Y252258D01*
X711948D01*
X713147Y253457D01*
Y258256D01*
X711948Y259455D01*
X708349D01*
X719146Y252258D02*
X716746D01*
X715547Y253457D01*
Y255857D01*
X716746Y257056D01*
X719146D01*
X720345Y255857D01*
Y254657D01*
X715547D01*
X722744Y252258D02*
X726343D01*
X727543Y253457D01*
X726343Y254657D01*
X723944D01*
X722744Y255857D01*
X723944Y257056D01*
X727543D01*
X734740D02*
X731142D01*
X729942Y255857D01*
Y253457D01*
X731142Y252258D01*
X734740D01*
X737140Y257056D02*
Y252258D01*
Y254657D01*
X738339Y255857D01*
X739539Y257056D01*
X740739D01*
X744337Y252258D02*
X746737D01*
X745537D01*
Y257056D01*
X744337D01*
X750336Y249859D02*
Y257056D01*
X753934D01*
X755134Y255857D01*
Y253457D01*
X753934Y252258D01*
X750336D01*
X758733Y258256D02*
Y257056D01*
X757533D01*
X759932D01*
X758733D01*
Y253457D01*
X759932Y252258D01*
X763531D02*
X765930D01*
X764731D01*
Y257056D01*
X763531D01*
X770729Y252258D02*
X773128D01*
X774328Y253457D01*
Y255857D01*
X773128Y257056D01*
X770729D01*
X769529Y255857D01*
Y253457D01*
X770729Y252258D01*
X776727D02*
Y257056D01*
X780326D01*
X781525Y255857D01*
Y252258D01*
X643366Y259455D02*
X648165D01*
X645765D01*
Y252258D01*
X654163D02*
X651763D01*
X650564Y253457D01*
Y255857D01*
X651763Y257056D01*
X654163D01*
X655362Y255857D01*
Y254657D01*
X650564D01*
X657761Y252258D02*
Y257056D01*
X658961D01*
X660161Y255857D01*
Y252258D01*
Y255857D01*
X661360Y257056D01*
X662560Y255857D01*
Y252258D01*
X664959Y249859D02*
Y257056D01*
X668558D01*
X669758Y255857D01*
Y253457D01*
X668558Y252258D01*
X664959D01*
X672157D02*
X674556D01*
X673356D01*
Y259455D01*
X672157D01*
X679354Y257056D02*
X681754D01*
X682953Y255857D01*
Y252258D01*
X679354D01*
X678155Y253457D01*
X679354Y254657D01*
X682953D01*
X686552Y258256D02*
Y257056D01*
X685353D01*
X687752D01*
X686552D01*
Y253457D01*
X687752Y252258D01*
X694949D02*
X692550D01*
X691351Y253457D01*
Y255857D01*
X692550Y257056D01*
X694949D01*
X696149Y255857D01*
Y254657D01*
X691351D01*
X568786Y252258D02*
Y259455D01*
X572385D01*
X573585Y258256D01*
Y255857D01*
X572385Y254657D01*
X568786D01*
X577184Y257056D02*
X579583D01*
X580782Y255857D01*
Y252258D01*
X577184D01*
X575984Y253457D01*
X577184Y254657D01*
X580782D01*
X587980Y259455D02*
Y252258D01*
X584381D01*
X583182Y253457D01*
Y255857D01*
X584381Y257056D01*
X587980D01*
X602375Y258256D02*
X601176Y259455D01*
X598777D01*
X597577Y258256D01*
Y257056D01*
X598777Y255857D01*
X601176D01*
X602375Y254657D01*
Y253457D01*
X601176Y252258D01*
X598777D01*
X597577Y253457D01*
X604775Y259455D02*
Y252258D01*
Y255857D01*
X605974Y257056D01*
X608373D01*
X609573Y255857D01*
Y252258D01*
X613172Y257056D02*
X615571D01*
X616771Y255857D01*
Y252258D01*
X613172D01*
X611972Y253457D01*
X613172Y254657D01*
X616771D01*
X619170Y249859D02*
Y257056D01*
X622769D01*
X623969Y255857D01*
Y253457D01*
X622769Y252258D01*
X619170D01*
X629966D02*
X627567D01*
X626368Y253457D01*
Y255857D01*
X627567Y257056D01*
X629966D01*
X631166Y255857D01*
Y254657D01*
X626368D01*
X509801Y259455D02*
Y254657D01*
X512201Y252258D01*
X514600Y254657D01*
Y259455D01*
X516999Y252258D02*
X519398D01*
X518199D01*
Y257056D01*
X516999D01*
X524197D02*
X526596D01*
X527796Y255857D01*
Y252258D01*
X524197D01*
X522997Y253457D01*
X524197Y254657D01*
X527796D01*
X530195Y252258D02*
X534993Y257056D01*
X537393Y252258D02*
Y259455D01*
X540991D01*
X542191Y258256D01*
Y255857D01*
X540991Y254657D01*
X537393D01*
X545790Y257056D02*
X548189D01*
X549389Y255857D01*
Y252258D01*
X545790D01*
X544590Y253457D01*
X545790Y254657D01*
X549389D01*
X556586Y259455D02*
Y252258D01*
X552987D01*
X551788Y253457D01*
Y255857D01*
X552987Y257056D01*
X556586D01*
X359846Y259455D02*
Y252258D01*
X363445D01*
X364645Y253457D01*
Y258256D01*
X363445Y259455D01*
X359846D01*
X367044Y257056D02*
Y252258D01*
Y254657D01*
X368244Y255857D01*
X369443Y257056D01*
X370643D01*
X374242Y252258D02*
X376641D01*
X375441D01*
Y257056D01*
X374242D01*
X380240Y252258D02*
X382639D01*
X381439D01*
Y259455D01*
X380240D01*
X386238Y252258D02*
X388637D01*
X387438D01*
Y259455D01*
X386238D01*
X399434D02*
Y252258D01*
X404232D01*
X407831Y257056D02*
X410230D01*
X411430Y255857D01*
Y252258D01*
X407831D01*
X406631Y253457D01*
X407831Y254657D01*
X411430D01*
X413829Y257056D02*
Y253457D01*
X415028Y252258D01*
X418627D01*
Y251058D01*
X417428Y249859D01*
X416228D01*
X418627Y252258D02*
Y257056D01*
X424625Y252258D02*
X422226D01*
X421027Y253457D01*
Y255857D01*
X422226Y257056D01*
X424625D01*
X425825Y255857D01*
Y254657D01*
X421027D01*
X428224Y257056D02*
Y252258D01*
Y254657D01*
X429424Y255857D01*
X430623Y257056D01*
X431823D01*
X442620Y252258D02*
Y259455D01*
X446218D01*
X447418Y258256D01*
Y255857D01*
X446218Y254657D01*
X442620D01*
X451017Y257056D02*
X453416D01*
X454616Y255857D01*
Y252258D01*
X451017D01*
X449817Y253457D01*
X451017Y254657D01*
X454616D01*
X457015Y252258D02*
X459414D01*
X458215D01*
Y257056D01*
X457015D01*
X463013D02*
Y252258D01*
Y254657D01*
X464213Y255857D01*
X465412Y257056D01*
X466612D01*
X286466Y259455D02*
Y252258D01*
Y255857D01*
X291265D01*
Y259455D01*
Y252258D01*
X294864D02*
X297263D01*
X298462Y253457D01*
Y255857D01*
X297263Y257056D01*
X294864D01*
X293664Y255857D01*
Y253457D01*
X294864Y252258D01*
X300862D02*
X303261D01*
X302061D01*
Y259455D01*
X300862D01*
X310458Y252258D02*
X308059D01*
X306860Y253457D01*
Y255857D01*
X308059Y257056D01*
X310458D01*
X311658Y255857D01*
Y254657D01*
X306860D01*
X321255Y259455D02*
X326053D01*
X323654D01*
Y252258D01*
X328453Y257056D02*
Y253457D01*
X329652Y252258D01*
X333251D01*
Y251058D01*
X332051Y249859D01*
X330852D01*
X333251Y252258D02*
Y257056D01*
X335650Y249859D02*
Y257056D01*
X339249D01*
X340449Y255857D01*
Y253457D01*
X339249Y252258D01*
X335650D01*
X346447D02*
X344048D01*
X342848Y253457D01*
Y255857D01*
X344048Y257056D01*
X346447D01*
X347646Y255857D01*
Y254657D01*
X342848D01*
X235879Y252258D02*
Y259455D01*
X239477D01*
X240677Y258256D01*
Y255857D01*
X239477Y254657D01*
X235879D01*
X243076Y252258D02*
X245476D01*
X244276D01*
Y259455D01*
X243076D01*
X250274Y257056D02*
X252673D01*
X253873Y255857D01*
Y252258D01*
X250274D01*
X249074Y253457D01*
X250274Y254657D01*
X253873D01*
X257472Y258256D02*
Y257056D01*
X256272D01*
X258671D01*
X257472D01*
Y253457D01*
X258671Y252258D01*
X265869D02*
X263470D01*
X262270Y253457D01*
Y255857D01*
X263470Y257056D01*
X265869D01*
X267069Y255857D01*
Y254657D01*
X262270D01*
X274266Y259455D02*
Y252258D01*
X270667D01*
X269468Y253457D01*
Y255857D01*
X270667Y257056D01*
X274266D01*
X120912Y259455D02*
Y252258D01*
Y255857D01*
X125711D01*
Y259455D01*
Y252258D01*
X129309D02*
X131709D01*
X132908Y253457D01*
Y255857D01*
X131709Y257056D01*
X129309D01*
X128110Y255857D01*
Y253457D01*
X129309Y252258D01*
X135308D02*
X137707D01*
X136507D01*
Y259455D01*
X135308D01*
X144904Y252258D02*
X142505D01*
X141306Y253457D01*
Y255857D01*
X142505Y257056D01*
X144904D01*
X146104Y255857D01*
Y254657D01*
X141306D01*
X160500Y258256D02*
X159300Y259455D01*
X156901D01*
X155701Y258256D01*
Y257056D01*
X156901Y255857D01*
X159300D01*
X160500Y254657D01*
Y253457D01*
X159300Y252258D01*
X156901D01*
X155701Y253457D01*
X162899Y252258D02*
X165298D01*
X164098D01*
Y257056D01*
X162899D01*
X168897D02*
X173695D01*
X168897Y252258D01*
X173695D01*
X179693D02*
X177294D01*
X176094Y253457D01*
Y255857D01*
X177294Y257056D01*
X179693D01*
X180893Y255857D01*
Y254657D01*
X176094D01*
X65727Y258256D02*
X64527Y259455D01*
X62128D01*
X60928Y258256D01*
Y253457D01*
X62128Y252258D01*
X64527D01*
X65727Y253457D01*
X69325Y252258D02*
X71725D01*
X72924Y253457D01*
Y255857D01*
X71725Y257056D01*
X69325D01*
X68126Y255857D01*
Y253457D01*
X69325Y252258D01*
X75323Y257056D02*
Y253457D01*
X76523Y252258D01*
X80122D01*
Y257056D01*
X82521Y252258D02*
Y257056D01*
X86120D01*
X87320Y255857D01*
Y252258D01*
X90918Y258256D02*
Y257056D01*
X89719D01*
X92118D01*
X90918D01*
Y253457D01*
X92118Y252258D01*
X15139Y258256D02*
X13939Y259455D01*
X11540D01*
X10341Y258256D01*
Y257056D01*
X11540Y255857D01*
X13939D01*
X15139Y254657D01*
Y253457D01*
X13939Y252258D01*
X11540D01*
X10341Y253457D01*
X17538Y257056D02*
Y253457D01*
X18738Y252258D01*
X22337D01*
Y251058D01*
X21137Y249859D01*
X19937D01*
X22337Y252258D02*
Y257056D01*
X24736Y252258D02*
Y257056D01*
X25936D01*
X27135Y255857D01*
Y252258D01*
Y255857D01*
X28335Y257056D01*
X29534Y255857D01*
Y252258D01*
X31934Y259455D02*
Y252258D01*
X35532D01*
X36732Y253457D01*
Y254657D01*
Y255857D01*
X35532Y257056D01*
X31934D01*
X40331Y252258D02*
X42730D01*
X43930Y253457D01*
Y255857D01*
X42730Y257056D01*
X40331D01*
X39131Y255857D01*
Y253457D01*
X40331Y252258D01*
X46329D02*
X48728D01*
X47528D01*
Y259455D01*
X46329D01*
D89*
X42244Y93516D02*
Y91517D01*
X43244D01*
X43577Y91850D01*
Y92183D01*
X43244Y92516D01*
X42244D01*
X43244D01*
X43577Y92850D01*
Y93183D01*
X43244Y93516D01*
X42244D01*
Y48241D02*
Y46241D01*
X43244D01*
X43577Y46575D01*
Y46908D01*
X43244Y47241D01*
X42244D01*
X43244D01*
X43577Y47574D01*
Y47907D01*
X43244Y48241D01*
X42244D01*
X255236D02*
Y46241D01*
X256236D01*
X256569Y46575D01*
Y46908D01*
X256236Y47241D01*
X255236D01*
X256236D01*
X256569Y47574D01*
Y47907D01*
X256236Y48241D01*
X255236D01*
X253858Y97453D02*
Y95454D01*
X254858D01*
X255191Y95787D01*
Y96120D01*
X254858Y96453D01*
X253858D01*
X254858D01*
X255191Y96787D01*
Y97120D01*
X254858Y97453D01*
X253858D01*
X3307Y2344D02*
Y3677D01*
X3973Y4343D01*
X4640Y3677D01*
Y2344D01*
Y3343D01*
X3307D01*
X5807Y7344D02*
Y8676D01*
X6473Y9343D01*
X7140Y8676D01*
Y7344D01*
Y8343D01*
X5807D01*
X3307Y12344D02*
Y13677D01*
X3973Y14343D01*
X4640Y13677D01*
Y12344D01*
Y13343D01*
X3307D01*
X5807Y17344D02*
Y18677D01*
X6473Y19343D01*
X7140Y18677D01*
Y17344D01*
Y18343D01*
X5807D01*
X3307Y22344D02*
Y23676D01*
X3973Y24343D01*
X4640Y23676D01*
Y22344D01*
Y23343D01*
X3307D01*
X5807Y27344D02*
Y28677D01*
X6473Y29343D01*
X7140Y28677D01*
Y27344D01*
Y28343D01*
X5807D01*
X3307Y32344D02*
Y33676D01*
X3973Y34343D01*
X4640Y33676D01*
Y32344D01*
Y33343D01*
X3307D01*
X5807Y37344D02*
Y38677D01*
X6473Y39343D01*
X7140Y38677D01*
Y37344D01*
Y38343D01*
X5807D01*
X3307Y42344D02*
Y43676D01*
X3973Y44343D01*
X4640Y43676D01*
Y42344D01*
Y43343D01*
X3307D01*
X5807Y47344D02*
Y48676D01*
X6473Y49343D01*
X7140Y48676D01*
Y47344D01*
Y48343D01*
X5807D01*
X3307Y52344D02*
Y53676D01*
X3973Y54343D01*
X4640Y53676D01*
Y52344D01*
Y53343D01*
X3307D01*
X5807Y87344D02*
Y88677D01*
X6473Y89343D01*
X7140Y88677D01*
Y87344D01*
Y88343D01*
X5807D01*
X3307Y92344D02*
Y93677D01*
X3973Y94343D01*
X4640Y93677D01*
Y92344D01*
Y93343D01*
X3307D01*
X5807Y97344D02*
Y98677D01*
X6473Y99343D01*
X7140Y98677D01*
Y97344D01*
Y98343D01*
X5807D01*
X3307Y102344D02*
Y103676D01*
X3973Y104343D01*
X4640Y103676D01*
Y102344D01*
Y103343D01*
X3307D01*
X5807Y107344D02*
Y108677D01*
X6473Y109343D01*
X7140Y108677D01*
Y107344D01*
Y108343D01*
X5807D01*
Y127344D02*
Y128676D01*
X6473Y129343D01*
X7140Y128676D01*
Y127344D01*
Y128343D01*
X5807D01*
X3307Y132344D02*
Y133677D01*
X3973Y134343D01*
X4640Y133677D01*
Y132344D01*
Y133343D01*
X3307D01*
X5807Y137344D02*
Y138677D01*
X6473Y139343D01*
X7140Y138677D01*
Y137344D01*
Y138343D01*
X5807D01*
X3307Y142344D02*
Y143676D01*
X3973Y144343D01*
X4640Y143676D01*
Y142344D01*
Y143343D01*
X3307D01*
X5807Y147344D02*
Y148677D01*
X6473Y149343D01*
X7140Y148677D01*
Y147344D01*
Y148343D01*
X5807D01*
X8307Y2344D02*
Y3677D01*
X8973Y4343D01*
X9640Y3677D01*
Y2344D01*
Y3343D01*
X8307D01*
X10807Y7344D02*
Y8676D01*
X11473Y9343D01*
X12140Y8676D01*
Y7344D01*
Y8343D01*
X10807D01*
X8307Y12344D02*
Y13677D01*
X8973Y14343D01*
X9640Y13677D01*
Y12344D01*
Y13343D01*
X8307D01*
X10807Y17344D02*
Y18677D01*
X11473Y19343D01*
X12140Y18677D01*
Y17344D01*
Y18343D01*
X10807D01*
X8307Y22344D02*
Y23676D01*
X8973Y24343D01*
X9640Y23676D01*
Y22344D01*
Y23343D01*
X8307D01*
X10807Y27344D02*
Y28677D01*
X11473Y29343D01*
X12140Y28677D01*
Y27344D01*
Y28343D01*
X10807D01*
X8307Y32344D02*
Y33676D01*
X8973Y34343D01*
X9640Y33676D01*
Y32344D01*
Y33343D01*
X8307D01*
X10807Y37344D02*
Y38677D01*
X11473Y39343D01*
X12140Y38677D01*
Y37344D01*
Y38343D01*
X10807D01*
X8307Y42344D02*
Y43676D01*
X8973Y44343D01*
X9640Y43676D01*
Y42344D01*
Y43343D01*
X8307D01*
X10807Y47344D02*
Y48676D01*
X11473Y49343D01*
X12140Y48676D01*
Y47344D01*
Y48343D01*
X10807D01*
X8307Y52344D02*
Y53676D01*
X8973Y54343D01*
X9640Y53676D01*
Y52344D01*
Y53343D01*
X8307D01*
X10807Y87344D02*
Y88677D01*
X11473Y89343D01*
X12140Y88677D01*
Y87344D01*
Y88343D01*
X10807D01*
X8307Y92344D02*
Y93677D01*
X8973Y94343D01*
X9640Y93677D01*
Y92344D01*
Y93343D01*
X8307D01*
X10807Y97344D02*
Y98677D01*
X11473Y99343D01*
X12140Y98677D01*
Y97344D01*
Y98343D01*
X10807D01*
X8307Y102344D02*
Y103676D01*
X8973Y104343D01*
X9640Y103676D01*
Y102344D01*
Y103343D01*
X8307D01*
X10807Y107344D02*
Y108677D01*
X11473Y109343D01*
X12140Y108677D01*
Y107344D01*
Y108343D01*
X10807D01*
Y127344D02*
Y128676D01*
X11473Y129343D01*
X12140Y128676D01*
Y127344D01*
Y128343D01*
X10807D01*
X8307Y132344D02*
Y133677D01*
X8973Y134343D01*
X9640Y133677D01*
Y132344D01*
Y133343D01*
X8307D01*
X10807Y137344D02*
Y138677D01*
X11473Y139343D01*
X12140Y138677D01*
Y137344D01*
Y138343D01*
X10807D01*
X8307Y142344D02*
Y143676D01*
X8973Y144343D01*
X9640Y143676D01*
Y142344D01*
Y143343D01*
X8307D01*
X10807Y147344D02*
Y148677D01*
X11473Y149343D01*
X12140Y148677D01*
Y147344D01*
Y148343D01*
X10807D01*
X13307Y2344D02*
Y3677D01*
X13973Y4343D01*
X14640Y3677D01*
Y2344D01*
Y3343D01*
X13307D01*
X15807Y7344D02*
Y8676D01*
X16473Y9343D01*
X17140Y8676D01*
Y7344D01*
Y8343D01*
X15807D01*
X13307Y12344D02*
Y13677D01*
X13973Y14343D01*
X14640Y13677D01*
Y12344D01*
Y13343D01*
X13307D01*
X15807Y17344D02*
Y18677D01*
X16473Y19343D01*
X17140Y18677D01*
Y17344D01*
Y18343D01*
X15807D01*
X13307Y22344D02*
Y23676D01*
X13973Y24343D01*
X14640Y23676D01*
Y22344D01*
Y23343D01*
X13307D01*
X15807Y27344D02*
Y28677D01*
X16473Y29343D01*
X17140Y28677D01*
Y27344D01*
Y28343D01*
X15807D01*
X13307Y32344D02*
Y33676D01*
X13973Y34343D01*
X14640Y33676D01*
Y32344D01*
Y33343D01*
X13307D01*
X15807Y37344D02*
Y38677D01*
X16473Y39343D01*
X17140Y38677D01*
Y37344D01*
Y38343D01*
X15807D01*
X13307Y42344D02*
Y43676D01*
X13973Y44343D01*
X14640Y43676D01*
Y42344D01*
Y43343D01*
X13307D01*
X15807Y47344D02*
Y48676D01*
X16473Y49343D01*
X17140Y48676D01*
Y47344D01*
Y48343D01*
X15807D01*
X13307Y52344D02*
Y53676D01*
X13973Y54343D01*
X14640Y53676D01*
Y52344D01*
Y53343D01*
X13307D01*
X15807Y87344D02*
Y88677D01*
X16473Y89343D01*
X17140Y88677D01*
Y87344D01*
Y88343D01*
X15807D01*
X13307Y92344D02*
Y93677D01*
X13973Y94343D01*
X14640Y93677D01*
Y92344D01*
Y93343D01*
X13307D01*
X15807Y97344D02*
Y98677D01*
X16473Y99343D01*
X17140Y98677D01*
Y97344D01*
Y98343D01*
X15807D01*
X13307Y102344D02*
Y103676D01*
X13973Y104343D01*
X14640Y103676D01*
Y102344D01*
Y103343D01*
X13307D01*
Y132344D02*
Y133677D01*
X13973Y134343D01*
X14640Y133677D01*
Y132344D01*
Y133343D01*
X13307D01*
Y142344D02*
Y143676D01*
X13973Y144343D01*
X14640Y143676D01*
Y142344D01*
Y143343D01*
X13307D01*
X15807Y147344D02*
Y148677D01*
X16473Y149343D01*
X17140Y148677D01*
Y147344D01*
Y148343D01*
X15807D01*
X18307Y2344D02*
Y3677D01*
X18973Y4343D01*
X19640Y3677D01*
Y2344D01*
Y3343D01*
X18307D01*
X20807Y7344D02*
Y8676D01*
X21473Y9343D01*
X22140Y8676D01*
Y7344D01*
Y8343D01*
X20807D01*
X18307Y12344D02*
Y13677D01*
X18973Y14343D01*
X19640Y13677D01*
Y12344D01*
Y13343D01*
X18307D01*
X20807Y17344D02*
Y18677D01*
X21473Y19343D01*
X22140Y18677D01*
Y17344D01*
Y18343D01*
X20807D01*
X18307Y22344D02*
Y23676D01*
X18973Y24343D01*
X19640Y23676D01*
Y22344D01*
Y23343D01*
X18307D01*
X20807Y27344D02*
Y28677D01*
X21473Y29343D01*
X22140Y28677D01*
Y27344D01*
Y28343D01*
X20807D01*
X18307Y32344D02*
Y33676D01*
X18973Y34343D01*
X19640Y33676D01*
Y32344D01*
Y33343D01*
X18307D01*
X20807Y37344D02*
Y38677D01*
X21473Y39343D01*
X22140Y38677D01*
Y37344D01*
Y38343D01*
X20807D01*
X18307Y42344D02*
Y43676D01*
X18973Y44343D01*
X19640Y43676D01*
Y42344D01*
Y43343D01*
X18307D01*
X20807Y47344D02*
Y48676D01*
X21473Y49343D01*
X22140Y48676D01*
Y47344D01*
Y48343D01*
X20807D01*
X18307Y52344D02*
Y53676D01*
X18973Y54343D01*
X19640Y53676D01*
Y52344D01*
Y53343D01*
X18307D01*
X20807Y57344D02*
Y58676D01*
X21473Y59343D01*
X22140Y58676D01*
Y57344D01*
Y58343D01*
X20807D01*
Y87344D02*
Y88677D01*
X21473Y89343D01*
X22140Y88677D01*
Y87344D01*
Y88343D01*
X20807D01*
X18307Y92344D02*
Y93677D01*
X18973Y94343D01*
X19640Y93677D01*
Y92344D01*
Y93343D01*
X18307D01*
X20807Y97344D02*
Y98677D01*
X21473Y99343D01*
X22140Y98677D01*
Y97344D01*
Y98343D01*
X20807D01*
Y147344D02*
Y148677D01*
X21473Y149343D01*
X22140Y148677D01*
Y147344D01*
Y148343D01*
X20807D01*
X23307Y2344D02*
Y3677D01*
X23973Y4343D01*
X24640Y3677D01*
Y2344D01*
Y3343D01*
X23307D01*
X25807Y7344D02*
Y8676D01*
X26473Y9343D01*
X27140Y8676D01*
Y7344D01*
Y8343D01*
X25807D01*
X23307Y12344D02*
Y13677D01*
X23973Y14343D01*
X24640Y13677D01*
Y12344D01*
Y13343D01*
X23307D01*
X25807Y17344D02*
Y18677D01*
X26473Y19343D01*
X27140Y18677D01*
Y17344D01*
Y18343D01*
X25807D01*
X23307Y22344D02*
Y23676D01*
X23973Y24343D01*
X24640Y23676D01*
Y22344D01*
Y23343D01*
X23307D01*
X25807Y27344D02*
Y28677D01*
X26473Y29343D01*
X27140Y28677D01*
Y27344D01*
Y28343D01*
X25807D01*
X23307Y32344D02*
Y33676D01*
X23973Y34343D01*
X24640Y33676D01*
Y32344D01*
Y33343D01*
X23307D01*
X25807Y37344D02*
Y38677D01*
X26473Y39343D01*
X27140Y38677D01*
Y37344D01*
Y38343D01*
X25807D01*
X23307Y42344D02*
Y43676D01*
X23973Y44343D01*
X24640Y43676D01*
Y42344D01*
Y43343D01*
X23307D01*
X25807Y47344D02*
Y48676D01*
X26473Y49343D01*
X27140Y48676D01*
Y47344D01*
Y48343D01*
X25807D01*
X23307Y52344D02*
Y53676D01*
X23973Y54343D01*
X24640Y53676D01*
Y52344D01*
Y53343D01*
X23307D01*
X25807Y57344D02*
Y58676D01*
X26473Y59343D01*
X27140Y58676D01*
Y57344D01*
Y58343D01*
X25807D01*
Y87344D02*
Y88677D01*
X26473Y89343D01*
X27140Y88677D01*
Y87344D01*
Y88343D01*
X25807D01*
X23307Y92344D02*
Y93677D01*
X23973Y94343D01*
X24640Y93677D01*
Y92344D01*
Y93343D01*
X23307D01*
X25807Y97344D02*
Y98677D01*
X26473Y99343D01*
X27140Y98677D01*
Y97344D01*
Y98343D01*
X25807D01*
Y147344D02*
Y148677D01*
X26473Y149343D01*
X27140Y148677D01*
Y147344D01*
Y148343D01*
X25807D01*
X28307Y2344D02*
Y3677D01*
X28973Y4343D01*
X29640Y3677D01*
Y2344D01*
Y3343D01*
X28307D01*
X30807Y7344D02*
Y8676D01*
X31473Y9343D01*
X32140Y8676D01*
Y7344D01*
Y8343D01*
X30807D01*
X28307Y12344D02*
Y13677D01*
X28973Y14343D01*
X29640Y13677D01*
Y12344D01*
Y13343D01*
X28307D01*
X30807Y17344D02*
Y18677D01*
X31473Y19343D01*
X32140Y18677D01*
Y17344D01*
Y18343D01*
X30807D01*
X28307Y22344D02*
Y23676D01*
X28973Y24343D01*
X29640Y23676D01*
Y22344D01*
Y23343D01*
X28307D01*
X30807Y27344D02*
Y28677D01*
X31473Y29343D01*
X32140Y28677D01*
Y27344D01*
Y28343D01*
X30807D01*
X28307Y32344D02*
Y33676D01*
X28973Y34343D01*
X29640Y33676D01*
Y32344D01*
Y33343D01*
X28307D01*
X30807Y37344D02*
Y38677D01*
X31473Y39343D01*
X32140Y38677D01*
Y37344D01*
Y38343D01*
X30807D01*
X28307Y42344D02*
Y43676D01*
X28973Y44343D01*
X29640Y43676D01*
Y42344D01*
Y43343D01*
X28307D01*
X30807Y47344D02*
Y48676D01*
X31473Y49343D01*
X32140Y48676D01*
Y47344D01*
Y48343D01*
X30807D01*
X28307Y52344D02*
Y53676D01*
X28973Y54343D01*
X29640Y53676D01*
Y52344D01*
Y53343D01*
X28307D01*
X30807Y57344D02*
Y58676D01*
X31473Y59343D01*
X32140Y58676D01*
Y57344D01*
Y58343D01*
X30807D01*
Y87344D02*
Y88677D01*
X31473Y89343D01*
X32140Y88677D01*
Y87344D01*
Y88343D01*
X30807D01*
X28307Y92344D02*
Y93677D01*
X28973Y94343D01*
X29640Y93677D01*
Y92344D01*
Y93343D01*
X28307D01*
X30807Y97344D02*
Y98677D01*
X31473Y99343D01*
X32140Y98677D01*
Y97344D01*
Y98343D01*
X30807D01*
X33307Y2344D02*
Y3677D01*
X33973Y4343D01*
X34640Y3677D01*
Y2344D01*
Y3343D01*
X33307D01*
X35807Y7344D02*
Y8676D01*
X36473Y9343D01*
X37140Y8676D01*
Y7344D01*
Y8343D01*
X35807D01*
X33307Y12344D02*
Y13677D01*
X33973Y14343D01*
X34640Y13677D01*
Y12344D01*
Y13343D01*
X33307D01*
X35807Y17344D02*
Y18677D01*
X36473Y19343D01*
X37140Y18677D01*
Y17344D01*
Y18343D01*
X35807D01*
X33307Y22344D02*
Y23676D01*
X33973Y24343D01*
X34640Y23676D01*
Y22344D01*
Y23343D01*
X33307D01*
X35807Y27344D02*
Y28677D01*
X36473Y29343D01*
X37140Y28677D01*
Y27344D01*
Y28343D01*
X35807D01*
X33307Y32344D02*
Y33676D01*
X33973Y34343D01*
X34640Y33676D01*
Y32344D01*
Y33343D01*
X33307D01*
X35807Y37344D02*
Y38677D01*
X36473Y39343D01*
X37140Y38677D01*
Y37344D01*
Y38343D01*
X35807D01*
X33307Y42344D02*
Y43676D01*
X33973Y44343D01*
X34640Y43676D01*
Y42344D01*
Y43343D01*
X33307D01*
Y52344D02*
Y53676D01*
X33973Y54343D01*
X34640Y53676D01*
Y52344D01*
Y53343D01*
X33307D01*
X35807Y57344D02*
Y58676D01*
X36473Y59343D01*
X37140Y58676D01*
Y57344D01*
Y58343D01*
X35807D01*
X33307Y92344D02*
Y93677D01*
X33973Y94343D01*
X34640Y93677D01*
Y92344D01*
Y93343D01*
X33307D01*
X35807Y97344D02*
Y98677D01*
X36473Y99343D01*
X37140Y98677D01*
Y97344D01*
Y98343D01*
X35807D01*
X38307Y2344D02*
Y3677D01*
X38973Y4343D01*
X39640Y3677D01*
Y2344D01*
Y3343D01*
X38307D01*
X40807Y7344D02*
Y8676D01*
X41473Y9343D01*
X42140Y8676D01*
Y7344D01*
Y8343D01*
X40807D01*
X38307Y12344D02*
Y13677D01*
X38973Y14343D01*
X39640Y13677D01*
Y12344D01*
Y13343D01*
X38307D01*
X40807Y17344D02*
Y18677D01*
X41473Y19343D01*
X42140Y18677D01*
Y17344D01*
Y18343D01*
X40807D01*
X38307Y22344D02*
Y23676D01*
X38973Y24343D01*
X39640Y23676D01*
Y22344D01*
Y23343D01*
X38307D01*
X40807Y27344D02*
Y28677D01*
X41473Y29343D01*
X42140Y28677D01*
Y27344D01*
Y28343D01*
X40807D01*
X38307Y32344D02*
Y33676D01*
X38973Y34343D01*
X39640Y33676D01*
Y32344D01*
Y33343D01*
X38307D01*
X40807Y57344D02*
Y58676D01*
X41473Y59343D01*
X42140Y58676D01*
Y57344D01*
Y58343D01*
X40807D01*
X43307Y2344D02*
Y3677D01*
X43973Y4343D01*
X44640Y3677D01*
Y2344D01*
Y3343D01*
X43307D01*
X45807Y7344D02*
Y8676D01*
X46473Y9343D01*
X47140Y8676D01*
Y7344D01*
Y8343D01*
X45807D01*
X43307Y12344D02*
Y13677D01*
X43973Y14343D01*
X44640Y13677D01*
Y12344D01*
Y13343D01*
X43307D01*
X45807Y17344D02*
Y18677D01*
X46473Y19343D01*
X47140Y18677D01*
Y17344D01*
Y18343D01*
X45807D01*
X43307Y22344D02*
Y23676D01*
X43973Y24343D01*
X44640Y23676D01*
Y22344D01*
Y23343D01*
X43307D01*
X45807Y27344D02*
Y28677D01*
X46473Y29343D01*
X47140Y28677D01*
Y27344D01*
Y28343D01*
X45807D01*
X43307Y32344D02*
Y33676D01*
X43973Y34343D01*
X44640Y33676D01*
Y32344D01*
Y33343D01*
X43307D01*
X45807Y37344D02*
Y38677D01*
X46473Y39343D01*
X47140Y38677D01*
Y37344D01*
Y38343D01*
X45807D01*
Y57344D02*
Y58676D01*
X46473Y59343D01*
X47140Y58676D01*
Y57344D01*
Y58343D01*
X45807D01*
X48307Y2344D02*
Y3677D01*
X48973Y4343D01*
X49640Y3677D01*
Y2344D01*
Y3343D01*
X48307D01*
X50807Y7344D02*
Y8676D01*
X51473Y9343D01*
X52140Y8676D01*
Y7344D01*
Y8343D01*
X50807D01*
X48307Y12344D02*
Y13677D01*
X48973Y14343D01*
X49640Y13677D01*
Y12344D01*
Y13343D01*
X48307D01*
X50807Y17344D02*
Y18677D01*
X51473Y19343D01*
X52140Y18677D01*
Y17344D01*
Y18343D01*
X50807D01*
X48307Y22344D02*
Y23676D01*
X48973Y24343D01*
X49640Y23676D01*
Y22344D01*
Y23343D01*
X48307D01*
X50807Y27344D02*
Y28677D01*
X51473Y29343D01*
X52140Y28677D01*
Y27344D01*
Y28343D01*
X50807D01*
X48307Y32344D02*
Y33676D01*
X48973Y34343D01*
X49640Y33676D01*
Y32344D01*
Y33343D01*
X48307D01*
X50807Y37344D02*
Y38677D01*
X51473Y39343D01*
X52140Y38677D01*
Y37344D01*
Y38343D01*
X50807D01*
Y57344D02*
Y58676D01*
X51473Y59343D01*
X52140Y58676D01*
Y57344D01*
Y58343D01*
X50807D01*
Y87344D02*
Y88677D01*
X51473Y89343D01*
X52140Y88677D01*
Y87344D01*
Y88343D01*
X50807D01*
Y97344D02*
Y98677D01*
X51473Y99343D01*
X52140Y98677D01*
Y97344D01*
Y98343D01*
X50807D01*
X53307Y2344D02*
Y3677D01*
X53973Y4343D01*
X54640Y3677D01*
Y2344D01*
Y3343D01*
X53307D01*
X55807Y7344D02*
Y8676D01*
X56473Y9343D01*
X57140Y8676D01*
Y7344D01*
Y8343D01*
X55807D01*
X53307Y12344D02*
Y13677D01*
X53973Y14343D01*
X54640Y13677D01*
Y12344D01*
Y13343D01*
X53307D01*
X55807Y17344D02*
Y18677D01*
X56473Y19343D01*
X57140Y18677D01*
Y17344D01*
Y18343D01*
X55807D01*
X53307Y22344D02*
Y23676D01*
X53973Y24343D01*
X54640Y23676D01*
Y22344D01*
Y23343D01*
X53307D01*
X55807Y27344D02*
Y28677D01*
X56473Y29343D01*
X57140Y28677D01*
Y27344D01*
Y28343D01*
X55807D01*
X53307Y32344D02*
Y33676D01*
X53973Y34343D01*
X54640Y33676D01*
Y32344D01*
Y33343D01*
X53307D01*
X55807Y37344D02*
Y38677D01*
X56473Y39343D01*
X57140Y38677D01*
Y37344D01*
Y38343D01*
X55807D01*
X53307Y42344D02*
Y43676D01*
X53973Y44343D01*
X54640Y43676D01*
Y42344D01*
Y43343D01*
X53307D01*
X55807Y47344D02*
Y48676D01*
X56473Y49343D01*
X57140Y48676D01*
Y47344D01*
Y48343D01*
X55807D01*
X53307Y52344D02*
Y53676D01*
X53973Y54343D01*
X54640Y53676D01*
Y52344D01*
Y53343D01*
X53307D01*
X55807Y57344D02*
Y58676D01*
X56473Y59343D01*
X57140Y58676D01*
Y57344D01*
Y58343D01*
X55807D01*
Y87344D02*
Y88677D01*
X56473Y89343D01*
X57140Y88677D01*
Y87344D01*
Y88343D01*
X55807D01*
X53307Y92344D02*
Y93677D01*
X53973Y94343D01*
X54640Y93677D01*
Y92344D01*
Y93343D01*
X53307D01*
X55807Y97344D02*
Y98677D01*
X56473Y99343D01*
X57140Y98677D01*
Y97344D01*
Y98343D01*
X55807D01*
Y147344D02*
Y148677D01*
X56473Y149343D01*
X57140Y148677D01*
Y147344D01*
Y148343D01*
X55807D01*
X58307Y2344D02*
Y3677D01*
X58973Y4343D01*
X59640Y3677D01*
Y2344D01*
Y3343D01*
X58307D01*
X60807Y7344D02*
Y8676D01*
X61473Y9343D01*
X62140Y8676D01*
Y7344D01*
Y8343D01*
X60807D01*
X58307Y12344D02*
Y13677D01*
X58973Y14343D01*
X59640Y13677D01*
Y12344D01*
Y13343D01*
X58307D01*
X60807Y17344D02*
Y18677D01*
X61473Y19343D01*
X62140Y18677D01*
Y17344D01*
Y18343D01*
X60807D01*
X58307Y22344D02*
Y23676D01*
X58973Y24343D01*
X59640Y23676D01*
Y22344D01*
Y23343D01*
X58307D01*
X60807Y27344D02*
Y28677D01*
X61473Y29343D01*
X62140Y28677D01*
Y27344D01*
Y28343D01*
X60807D01*
X58307Y32344D02*
Y33676D01*
X58973Y34343D01*
X59640Y33676D01*
Y32344D01*
Y33343D01*
X58307D01*
X60807Y37344D02*
Y38677D01*
X61473Y39343D01*
X62140Y38677D01*
Y37344D01*
Y38343D01*
X60807D01*
X58307Y42344D02*
Y43676D01*
X58973Y44343D01*
X59640Y43676D01*
Y42344D01*
Y43343D01*
X58307D01*
X60807Y47344D02*
Y48676D01*
X61473Y49343D01*
X62140Y48676D01*
Y47344D01*
Y48343D01*
X60807D01*
X58307Y52344D02*
Y53676D01*
X58973Y54343D01*
X59640Y53676D01*
Y52344D01*
Y53343D01*
X58307D01*
X60807Y57344D02*
Y58676D01*
X61473Y59343D01*
X62140Y58676D01*
Y57344D01*
Y58343D01*
X60807D01*
Y87344D02*
Y88677D01*
X61473Y89343D01*
X62140Y88677D01*
Y87344D01*
Y88343D01*
X60807D01*
X58307Y92344D02*
Y93677D01*
X58973Y94343D01*
X59640Y93677D01*
Y92344D01*
Y93343D01*
X58307D01*
X60807Y97344D02*
Y98677D01*
X61473Y99343D01*
X62140Y98677D01*
Y97344D01*
Y98343D01*
X60807D01*
Y147344D02*
Y148677D01*
X61473Y149343D01*
X62140Y148677D01*
Y147344D01*
Y148343D01*
X60807D01*
X63307Y2344D02*
Y3677D01*
X63973Y4343D01*
X64640Y3677D01*
Y2344D01*
Y3343D01*
X63307D01*
X65807Y7344D02*
Y8676D01*
X66473Y9343D01*
X67140Y8676D01*
Y7344D01*
Y8343D01*
X65807D01*
X63307Y12344D02*
Y13677D01*
X63973Y14343D01*
X64640Y13677D01*
Y12344D01*
Y13343D01*
X63307D01*
X65807Y17344D02*
Y18677D01*
X66473Y19343D01*
X67140Y18677D01*
Y17344D01*
Y18343D01*
X65807D01*
X63307Y22344D02*
Y23676D01*
X63973Y24343D01*
X64640Y23676D01*
Y22344D01*
Y23343D01*
X63307D01*
X65807Y27344D02*
Y28677D01*
X66473Y29343D01*
X67140Y28677D01*
Y27344D01*
Y28343D01*
X65807D01*
X63307Y32344D02*
Y33676D01*
X63973Y34343D01*
X64640Y33676D01*
Y32344D01*
Y33343D01*
X63307D01*
X65807Y37344D02*
Y38677D01*
X66473Y39343D01*
X67140Y38677D01*
Y37344D01*
Y38343D01*
X65807D01*
X63307Y42344D02*
Y43676D01*
X63973Y44343D01*
X64640Y43676D01*
Y42344D01*
Y43343D01*
X63307D01*
X65807Y47344D02*
Y48676D01*
X66473Y49343D01*
X67140Y48676D01*
Y47344D01*
Y48343D01*
X65807D01*
X63307Y52344D02*
Y53676D01*
X63973Y54343D01*
X64640Y53676D01*
Y52344D01*
Y53343D01*
X63307D01*
X65807Y57344D02*
Y58676D01*
X66473Y59343D01*
X67140Y58676D01*
Y57344D01*
Y58343D01*
X65807D01*
Y87344D02*
Y88677D01*
X66473Y89343D01*
X67140Y88677D01*
Y87344D01*
Y88343D01*
X65807D01*
X63307Y92344D02*
Y93677D01*
X63973Y94343D01*
X64640Y93677D01*
Y92344D01*
Y93343D01*
X63307D01*
X65807Y97344D02*
Y98677D01*
X66473Y99343D01*
X67140Y98677D01*
Y97344D01*
Y98343D01*
X65807D01*
Y147344D02*
Y148677D01*
X66473Y149343D01*
X67140Y148677D01*
Y147344D01*
Y148343D01*
X65807D01*
X68307Y2344D02*
Y3677D01*
X68973Y4343D01*
X69640Y3677D01*
Y2344D01*
Y3343D01*
X68307D01*
X70807Y7344D02*
Y8676D01*
X71473Y9343D01*
X72140Y8676D01*
Y7344D01*
Y8343D01*
X70807D01*
X68307Y12344D02*
Y13677D01*
X68973Y14343D01*
X69640Y13677D01*
Y12344D01*
Y13343D01*
X68307D01*
X70807Y17344D02*
Y18677D01*
X71473Y19343D01*
X72140Y18677D01*
Y17344D01*
Y18343D01*
X70807D01*
X68307Y22344D02*
Y23676D01*
X68973Y24343D01*
X69640Y23676D01*
Y22344D01*
Y23343D01*
X68307D01*
X70807Y27344D02*
Y28677D01*
X71473Y29343D01*
X72140Y28677D01*
Y27344D01*
Y28343D01*
X70807D01*
X68307Y32344D02*
Y33676D01*
X68973Y34343D01*
X69640Y33676D01*
Y32344D01*
Y33343D01*
X68307D01*
X70807Y37344D02*
Y38677D01*
X71473Y39343D01*
X72140Y38677D01*
Y37344D01*
Y38343D01*
X70807D01*
X68307Y42344D02*
Y43676D01*
X68973Y44343D01*
X69640Y43676D01*
Y42344D01*
Y43343D01*
X68307D01*
X70807Y47344D02*
Y48676D01*
X71473Y49343D01*
X72140Y48676D01*
Y47344D01*
Y48343D01*
X70807D01*
X68307Y52344D02*
Y53676D01*
X68973Y54343D01*
X69640Y53676D01*
Y52344D01*
Y53343D01*
X68307D01*
X70807Y57344D02*
Y58676D01*
X71473Y59343D01*
X72140Y58676D01*
Y57344D01*
Y58343D01*
X70807D01*
Y87344D02*
Y88677D01*
X71473Y89343D01*
X72140Y88677D01*
Y87344D01*
Y88343D01*
X70807D01*
X68307Y92344D02*
Y93677D01*
X68973Y94343D01*
X69640Y93677D01*
Y92344D01*
Y93343D01*
X68307D01*
X70807Y97344D02*
Y98677D01*
X71473Y99343D01*
X72140Y98677D01*
Y97344D01*
Y98343D01*
X70807D01*
Y147344D02*
Y148677D01*
X71473Y149343D01*
X72140Y148677D01*
Y147344D01*
Y148343D01*
X70807D01*
X73307Y2344D02*
Y3677D01*
X73973Y4343D01*
X74640Y3677D01*
Y2344D01*
Y3343D01*
X73307D01*
X75807Y7344D02*
Y8676D01*
X76473Y9343D01*
X77140Y8676D01*
Y7344D01*
Y8343D01*
X75807D01*
X73307Y12344D02*
Y13677D01*
X73973Y14343D01*
X74640Y13677D01*
Y12344D01*
Y13343D01*
X73307D01*
X75807Y17344D02*
Y18677D01*
X76473Y19343D01*
X77140Y18677D01*
Y17344D01*
Y18343D01*
X75807D01*
X73307Y22344D02*
Y23676D01*
X73973Y24343D01*
X74640Y23676D01*
Y22344D01*
Y23343D01*
X73307D01*
X75807Y27344D02*
Y28677D01*
X76473Y29343D01*
X77140Y28677D01*
Y27344D01*
Y28343D01*
X75807D01*
X73307Y32344D02*
Y33676D01*
X73973Y34343D01*
X74640Y33676D01*
Y32344D01*
Y33343D01*
X73307D01*
X75807Y37344D02*
Y38677D01*
X76473Y39343D01*
X77140Y38677D01*
Y37344D01*
Y38343D01*
X75807D01*
X73307Y42344D02*
Y43676D01*
X73973Y44343D01*
X74640Y43676D01*
Y42344D01*
Y43343D01*
X73307D01*
X75807Y47344D02*
Y48676D01*
X76473Y49343D01*
X77140Y48676D01*
Y47344D01*
Y48343D01*
X75807D01*
X73307Y52344D02*
Y53676D01*
X73973Y54343D01*
X74640Y53676D01*
Y52344D01*
Y53343D01*
X73307D01*
X75807Y57344D02*
Y58676D01*
X76473Y59343D01*
X77140Y58676D01*
Y57344D01*
Y58343D01*
X75807D01*
Y87344D02*
Y88677D01*
X76473Y89343D01*
X77140Y88677D01*
Y87344D01*
Y88343D01*
X75807D01*
X73307Y92344D02*
Y93677D01*
X73973Y94343D01*
X74640Y93677D01*
Y92344D01*
Y93343D01*
X73307D01*
X75807Y97344D02*
Y98677D01*
X76473Y99343D01*
X77140Y98677D01*
Y97344D01*
Y98343D01*
X75807D01*
Y147344D02*
Y148677D01*
X76473Y149343D01*
X77140Y148677D01*
Y147344D01*
Y148343D01*
X75807D01*
X78307Y2344D02*
Y3677D01*
X78973Y4343D01*
X79640Y3677D01*
Y2344D01*
Y3343D01*
X78307D01*
X80807Y7344D02*
Y8676D01*
X81473Y9343D01*
X82140Y8676D01*
Y7344D01*
Y8343D01*
X80807D01*
X78307Y12344D02*
Y13677D01*
X78973Y14343D01*
X79640Y13677D01*
Y12344D01*
Y13343D01*
X78307D01*
X80807Y17344D02*
Y18677D01*
X81473Y19343D01*
X82140Y18677D01*
Y17344D01*
Y18343D01*
X80807D01*
X78307Y22344D02*
Y23676D01*
X78973Y24343D01*
X79640Y23676D01*
Y22344D01*
Y23343D01*
X78307D01*
X80807Y27344D02*
Y28677D01*
X81473Y29343D01*
X82140Y28677D01*
Y27344D01*
Y28343D01*
X80807D01*
X78307Y32344D02*
Y33676D01*
X78973Y34343D01*
X79640Y33676D01*
Y32344D01*
Y33343D01*
X78307D01*
X80807Y37344D02*
Y38677D01*
X81473Y39343D01*
X82140Y38677D01*
Y37344D01*
Y38343D01*
X80807D01*
X78307Y42344D02*
Y43676D01*
X78973Y44343D01*
X79640Y43676D01*
Y42344D01*
Y43343D01*
X78307D01*
X80807Y47344D02*
Y48676D01*
X81473Y49343D01*
X82140Y48676D01*
Y47344D01*
Y48343D01*
X80807D01*
X78307Y52344D02*
Y53676D01*
X78973Y54343D01*
X79640Y53676D01*
Y52344D01*
Y53343D01*
X78307D01*
X80807Y57344D02*
Y58676D01*
X81473Y59343D01*
X82140Y58676D01*
Y57344D01*
Y58343D01*
X80807D01*
Y87344D02*
Y88677D01*
X81473Y89343D01*
X82140Y88677D01*
Y87344D01*
Y88343D01*
X80807D01*
X78307Y92344D02*
Y93677D01*
X78973Y94343D01*
X79640Y93677D01*
Y92344D01*
Y93343D01*
X78307D01*
X80807Y97344D02*
Y98677D01*
X81473Y99343D01*
X82140Y98677D01*
Y97344D01*
Y98343D01*
X80807D01*
Y147344D02*
Y148677D01*
X81473Y149343D01*
X82140Y148677D01*
Y147344D01*
Y148343D01*
X80807D01*
X83307Y2344D02*
Y3677D01*
X83973Y4343D01*
X84640Y3677D01*
Y2344D01*
Y3343D01*
X83307D01*
X85807Y7344D02*
Y8676D01*
X86473Y9343D01*
X87140Y8676D01*
Y7344D01*
Y8343D01*
X85807D01*
X83307Y12344D02*
Y13677D01*
X83973Y14343D01*
X84640Y13677D01*
Y12344D01*
Y13343D01*
X83307D01*
X85807Y17344D02*
Y18677D01*
X86473Y19343D01*
X87140Y18677D01*
Y17344D01*
Y18343D01*
X85807D01*
X83307Y22344D02*
Y23676D01*
X83973Y24343D01*
X84640Y23676D01*
Y22344D01*
Y23343D01*
X83307D01*
X85807Y27344D02*
Y28677D01*
X86473Y29343D01*
X87140Y28677D01*
Y27344D01*
Y28343D01*
X85807D01*
X83307Y32344D02*
Y33676D01*
X83973Y34343D01*
X84640Y33676D01*
Y32344D01*
Y33343D01*
X83307D01*
X85807Y37344D02*
Y38677D01*
X86473Y39343D01*
X87140Y38677D01*
Y37344D01*
Y38343D01*
X85807D01*
X83307Y42344D02*
Y43676D01*
X83973Y44343D01*
X84640Y43676D01*
Y42344D01*
Y43343D01*
X83307D01*
X85807Y47344D02*
Y48676D01*
X86473Y49343D01*
X87140Y48676D01*
Y47344D01*
Y48343D01*
X85807D01*
X83307Y52344D02*
Y53676D01*
X83973Y54343D01*
X84640Y53676D01*
Y52344D01*
Y53343D01*
X83307D01*
X85807Y57344D02*
Y58676D01*
X86473Y59343D01*
X87140Y58676D01*
Y57344D01*
Y58343D01*
X85807D01*
Y87344D02*
Y88677D01*
X86473Y89343D01*
X87140Y88677D01*
Y87344D01*
Y88343D01*
X85807D01*
X83307Y92344D02*
Y93677D01*
X83973Y94343D01*
X84640Y93677D01*
Y92344D01*
Y93343D01*
X83307D01*
X85807Y97344D02*
Y98677D01*
X86473Y99343D01*
X87140Y98677D01*
Y97344D01*
Y98343D01*
X85807D01*
Y147344D02*
Y148677D01*
X86473Y149343D01*
X87140Y148677D01*
Y147344D01*
Y148343D01*
X85807D01*
X88307Y2344D02*
Y3677D01*
X88973Y4343D01*
X89640Y3677D01*
Y2344D01*
Y3343D01*
X88307D01*
X90807Y7344D02*
Y8676D01*
X91473Y9343D01*
X92140Y8676D01*
Y7344D01*
Y8343D01*
X90807D01*
X88307Y12344D02*
Y13677D01*
X88973Y14343D01*
X89640Y13677D01*
Y12344D01*
Y13343D01*
X88307D01*
X90807Y17344D02*
Y18677D01*
X91473Y19343D01*
X92140Y18677D01*
Y17344D01*
Y18343D01*
X90807D01*
X88307Y22344D02*
Y23676D01*
X88973Y24343D01*
X89640Y23676D01*
Y22344D01*
Y23343D01*
X88307D01*
X90807Y27344D02*
Y28677D01*
X91473Y29343D01*
X92140Y28677D01*
Y27344D01*
Y28343D01*
X90807D01*
X88307Y32344D02*
Y33676D01*
X88973Y34343D01*
X89640Y33676D01*
Y32344D01*
Y33343D01*
X88307D01*
X90807Y37344D02*
Y38677D01*
X91473Y39343D01*
X92140Y38677D01*
Y37344D01*
Y38343D01*
X90807D01*
X88307Y42344D02*
Y43676D01*
X88973Y44343D01*
X89640Y43676D01*
Y42344D01*
Y43343D01*
X88307D01*
X90807Y47344D02*
Y48676D01*
X91473Y49343D01*
X92140Y48676D01*
Y47344D01*
Y48343D01*
X90807D01*
X88307Y52344D02*
Y53676D01*
X88973Y54343D01*
X89640Y53676D01*
Y52344D01*
Y53343D01*
X88307D01*
X90807Y57344D02*
Y58676D01*
X91473Y59343D01*
X92140Y58676D01*
Y57344D01*
Y58343D01*
X90807D01*
Y87344D02*
Y88677D01*
X91473Y89343D01*
X92140Y88677D01*
Y87344D01*
Y88343D01*
X90807D01*
X88307Y92344D02*
Y93677D01*
X88973Y94343D01*
X89640Y93677D01*
Y92344D01*
Y93343D01*
X88307D01*
X90807Y147344D02*
Y148677D01*
X91473Y149343D01*
X92140Y148677D01*
Y147344D01*
Y148343D01*
X90807D01*
X93307Y2344D02*
Y3677D01*
X93973Y4343D01*
X94640Y3677D01*
Y2344D01*
Y3343D01*
X93307D01*
X95807Y7344D02*
Y8676D01*
X96473Y9343D01*
X97140Y8676D01*
Y7344D01*
Y8343D01*
X95807D01*
X93307Y12344D02*
Y13677D01*
X93973Y14343D01*
X94640Y13677D01*
Y12344D01*
Y13343D01*
X93307D01*
X95807Y17344D02*
Y18677D01*
X96473Y19343D01*
X97140Y18677D01*
Y17344D01*
Y18343D01*
X95807D01*
X93307Y22344D02*
Y23676D01*
X93973Y24343D01*
X94640Y23676D01*
Y22344D01*
Y23343D01*
X93307D01*
X95807Y27344D02*
Y28677D01*
X96473Y29343D01*
X97140Y28677D01*
Y27344D01*
Y28343D01*
X95807D01*
X93307Y32344D02*
Y33676D01*
X93973Y34343D01*
X94640Y33676D01*
Y32344D01*
Y33343D01*
X93307D01*
X95807Y37344D02*
Y38677D01*
X96473Y39343D01*
X97140Y38677D01*
Y37344D01*
Y38343D01*
X95807D01*
X93307Y42344D02*
Y43676D01*
X93973Y44343D01*
X94640Y43676D01*
Y42344D01*
Y43343D01*
X93307D01*
X95807Y47344D02*
Y48676D01*
X96473Y49343D01*
X97140Y48676D01*
Y47344D01*
Y48343D01*
X95807D01*
X93307Y52344D02*
Y53676D01*
X93973Y54343D01*
X94640Y53676D01*
Y52344D01*
Y53343D01*
X93307D01*
X95807Y57344D02*
Y58676D01*
X96473Y59343D01*
X97140Y58676D01*
Y57344D01*
Y58343D01*
X95807D01*
Y147344D02*
Y148677D01*
X96473Y149343D01*
X97140Y148677D01*
Y147344D01*
Y148343D01*
X95807D01*
X98307Y2344D02*
Y3677D01*
X98973Y4343D01*
X99640Y3677D01*
Y2344D01*
Y3343D01*
X98307D01*
X100807Y7344D02*
Y8676D01*
X101473Y9343D01*
X102140Y8676D01*
Y7344D01*
Y8343D01*
X100807D01*
X98307Y12344D02*
Y13677D01*
X98973Y14343D01*
X99640Y13677D01*
Y12344D01*
Y13343D01*
X98307D01*
X100807Y17344D02*
Y18677D01*
X101473Y19343D01*
X102140Y18677D01*
Y17344D01*
Y18343D01*
X100807D01*
X98307Y22344D02*
Y23676D01*
X98973Y24343D01*
X99640Y23676D01*
Y22344D01*
Y23343D01*
X98307D01*
X100807Y27344D02*
Y28677D01*
X101473Y29343D01*
X102140Y28677D01*
Y27344D01*
Y28343D01*
X100807D01*
X98307Y32344D02*
Y33676D01*
X98973Y34343D01*
X99640Y33676D01*
Y32344D01*
Y33343D01*
X98307D01*
X100807Y37344D02*
Y38677D01*
X101473Y39343D01*
X102140Y38677D01*
Y37344D01*
Y38343D01*
X100807D01*
X98307Y42344D02*
Y43676D01*
X98973Y44343D01*
X99640Y43676D01*
Y42344D01*
Y43343D01*
X98307D01*
X100807Y47344D02*
Y48676D01*
X101473Y49343D01*
X102140Y48676D01*
Y47344D01*
Y48343D01*
X100807D01*
X98307Y52344D02*
Y53676D01*
X98973Y54343D01*
X99640Y53676D01*
Y52344D01*
Y53343D01*
X98307D01*
X100807Y57344D02*
Y58676D01*
X101473Y59343D01*
X102140Y58676D01*
Y57344D01*
Y58343D01*
X100807D01*
Y147344D02*
Y148677D01*
X101473Y149343D01*
X102140Y148677D01*
Y147344D01*
Y148343D01*
X100807D01*
X103307Y2344D02*
Y3677D01*
X103973Y4343D01*
X104640Y3677D01*
Y2344D01*
Y3343D01*
X103307D01*
X105807Y7344D02*
Y8676D01*
X106473Y9343D01*
X107140Y8676D01*
Y7344D01*
Y8343D01*
X105807D01*
X103307Y12344D02*
Y13677D01*
X103973Y14343D01*
X104640Y13677D01*
Y12344D01*
Y13343D01*
X103307D01*
X105807Y17344D02*
Y18677D01*
X106473Y19343D01*
X107140Y18677D01*
Y17344D01*
Y18343D01*
X105807D01*
X103307Y22344D02*
Y23676D01*
X103973Y24343D01*
X104640Y23676D01*
Y22344D01*
Y23343D01*
X103307D01*
X105807Y27344D02*
Y28677D01*
X106473Y29343D01*
X107140Y28677D01*
Y27344D01*
Y28343D01*
X105807D01*
X103307Y32344D02*
Y33676D01*
X103973Y34343D01*
X104640Y33676D01*
Y32344D01*
Y33343D01*
X103307D01*
X105807Y37344D02*
Y38677D01*
X106473Y39343D01*
X107140Y38677D01*
Y37344D01*
Y38343D01*
X105807D01*
X103307Y42344D02*
Y43676D01*
X103973Y44343D01*
X104640Y43676D01*
Y42344D01*
Y43343D01*
X103307D01*
X105807Y47344D02*
Y48676D01*
X106473Y49343D01*
X107140Y48676D01*
Y47344D01*
Y48343D01*
X105807D01*
X103307Y52344D02*
Y53676D01*
X103973Y54343D01*
X104640Y53676D01*
Y52344D01*
Y53343D01*
X103307D01*
X105807Y57344D02*
Y58676D01*
X106473Y59343D01*
X107140Y58676D01*
Y57344D01*
Y58343D01*
X105807D01*
Y147344D02*
Y148677D01*
X106473Y149343D01*
X107140Y148677D01*
Y147344D01*
Y148343D01*
X105807D01*
X108307Y2344D02*
Y3677D01*
X108973Y4343D01*
X109640Y3677D01*
Y2344D01*
Y3343D01*
X108307D01*
X110807Y7344D02*
Y8676D01*
X111473Y9343D01*
X112140Y8676D01*
Y7344D01*
Y8343D01*
X110807D01*
X108307Y12344D02*
Y13677D01*
X108973Y14343D01*
X109640Y13677D01*
Y12344D01*
Y13343D01*
X108307D01*
X110807Y17344D02*
Y18677D01*
X111473Y19343D01*
X112140Y18677D01*
Y17344D01*
Y18343D01*
X110807D01*
X108307Y22344D02*
Y23676D01*
X108973Y24343D01*
X109640Y23676D01*
Y22344D01*
Y23343D01*
X108307D01*
X110807Y27344D02*
Y28677D01*
X111473Y29343D01*
X112140Y28677D01*
Y27344D01*
Y28343D01*
X110807D01*
X108307Y32344D02*
Y33676D01*
X108973Y34343D01*
X109640Y33676D01*
Y32344D01*
Y33343D01*
X108307D01*
Y42344D02*
Y43676D01*
X108973Y44343D01*
X109640Y43676D01*
Y42344D01*
Y43343D01*
X108307D01*
Y52344D02*
Y53676D01*
X108973Y54343D01*
X109640Y53676D01*
Y52344D01*
Y53343D01*
X108307D01*
X110807Y147344D02*
Y148677D01*
X111473Y149343D01*
X112140Y148677D01*
Y147344D01*
Y148343D01*
X110807D01*
X113307Y2344D02*
Y3677D01*
X113973Y4343D01*
X114640Y3677D01*
Y2344D01*
Y3343D01*
X113307D01*
X115807Y7344D02*
Y8676D01*
X116473Y9343D01*
X117140Y8676D01*
Y7344D01*
Y8343D01*
X115807D01*
X113307Y12344D02*
Y13677D01*
X113973Y14343D01*
X114640Y13677D01*
Y12344D01*
Y13343D01*
X113307D01*
X115807Y17344D02*
Y18677D01*
X116473Y19343D01*
X117140Y18677D01*
Y17344D01*
Y18343D01*
X115807D01*
X113307Y22344D02*
Y23676D01*
X113973Y24343D01*
X114640Y23676D01*
Y22344D01*
Y23343D01*
X113307D01*
X115807Y27344D02*
Y28677D01*
X116473Y29343D01*
X117140Y28677D01*
Y27344D01*
Y28343D01*
X115807D01*
X113307Y32344D02*
Y33676D01*
X113973Y34343D01*
X114640Y33676D01*
Y32344D01*
Y33343D01*
X113307D01*
X115807Y147344D02*
Y148677D01*
X116473Y149343D01*
X117140Y148677D01*
Y147344D01*
Y148343D01*
X115807D01*
X118307Y2344D02*
Y3677D01*
X118973Y4343D01*
X119640Y3677D01*
Y2344D01*
Y3343D01*
X118307D01*
X120807Y7344D02*
Y8676D01*
X121473Y9343D01*
X122140Y8676D01*
Y7344D01*
Y8343D01*
X120807D01*
X118307Y12344D02*
Y13677D01*
X118973Y14343D01*
X119640Y13677D01*
Y12344D01*
Y13343D01*
X118307D01*
X120807Y17344D02*
Y18677D01*
X121473Y19343D01*
X122140Y18677D01*
Y17344D01*
Y18343D01*
X120807D01*
X118307Y22344D02*
Y23676D01*
X118973Y24343D01*
X119640Y23676D01*
Y22344D01*
Y23343D01*
X118307D01*
X120807Y27344D02*
Y28677D01*
X121473Y29343D01*
X122140Y28677D01*
Y27344D01*
Y28343D01*
X120807D01*
X118307Y32344D02*
Y33676D01*
X118973Y34343D01*
X119640Y33676D01*
Y32344D01*
Y33343D01*
X118307D01*
X120807Y147344D02*
Y148677D01*
X121473Y149343D01*
X122140Y148677D01*
Y147344D01*
Y148343D01*
X120807D01*
X123307Y2344D02*
Y3677D01*
X123973Y4343D01*
X124640Y3677D01*
Y2344D01*
Y3343D01*
X123307D01*
X125807Y7344D02*
Y8676D01*
X126473Y9343D01*
X127140Y8676D01*
Y7344D01*
Y8343D01*
X125807D01*
X123307Y12344D02*
Y13677D01*
X123973Y14343D01*
X124640Y13677D01*
Y12344D01*
Y13343D01*
X123307D01*
X125807Y17344D02*
Y18677D01*
X126473Y19343D01*
X127140Y18677D01*
Y17344D01*
Y18343D01*
X125807D01*
X123307Y22344D02*
Y23676D01*
X123973Y24343D01*
X124640Y23676D01*
Y22344D01*
Y23343D01*
X123307D01*
X125807Y27344D02*
Y28677D01*
X126473Y29343D01*
X127140Y28677D01*
Y27344D01*
Y28343D01*
X125807D01*
X123307Y32344D02*
Y33676D01*
X123973Y34343D01*
X124640Y33676D01*
Y32344D01*
Y33343D01*
X123307D01*
Y112344D02*
Y113677D01*
X123973Y114343D01*
X124640Y113677D01*
Y112344D01*
Y113343D01*
X123307D01*
X125807Y117344D02*
Y118676D01*
X126473Y119343D01*
X127140Y118676D01*
Y117344D01*
Y118343D01*
X125807D01*
X123307Y122344D02*
Y123677D01*
X123973Y124343D01*
X124640Y123677D01*
Y122344D01*
Y123343D01*
X123307D01*
X125807Y127344D02*
Y128676D01*
X126473Y129343D01*
X127140Y128676D01*
Y127344D01*
Y128343D01*
X125807D01*
X123307Y132344D02*
Y133677D01*
X123973Y134343D01*
X124640Y133677D01*
Y132344D01*
Y133343D01*
X123307D01*
X125807Y137344D02*
Y138677D01*
X126473Y139343D01*
X127140Y138677D01*
Y137344D01*
Y138343D01*
X125807D01*
X123307Y142344D02*
Y143676D01*
X123973Y144343D01*
X124640Y143676D01*
Y142344D01*
Y143343D01*
X123307D01*
X125807Y147344D02*
Y148677D01*
X126473Y149343D01*
X127140Y148677D01*
Y147344D01*
Y148343D01*
X125807D01*
X128307Y2344D02*
Y3677D01*
X128973Y4343D01*
X129640Y3677D01*
Y2344D01*
Y3343D01*
X128307D01*
X130807Y7344D02*
Y8676D01*
X131473Y9343D01*
X132140Y8676D01*
Y7344D01*
Y8343D01*
X130807D01*
X128307Y12344D02*
Y13677D01*
X128973Y14343D01*
X129640Y13677D01*
Y12344D01*
Y13343D01*
X128307D01*
X130807Y17344D02*
Y18677D01*
X131473Y19343D01*
X132140Y18677D01*
Y17344D01*
Y18343D01*
X130807D01*
X128307Y22344D02*
Y23676D01*
X128973Y24343D01*
X129640Y23676D01*
Y22344D01*
Y23343D01*
X128307D01*
X130807Y27344D02*
Y28677D01*
X131473Y29343D01*
X132140Y28677D01*
Y27344D01*
Y28343D01*
X130807D01*
X128307Y32344D02*
Y33676D01*
X128973Y34343D01*
X129640Y33676D01*
Y32344D01*
Y33343D01*
X128307D01*
Y112344D02*
Y113677D01*
X128973Y114343D01*
X129640Y113677D01*
Y112344D01*
Y113343D01*
X128307D01*
X130807Y117344D02*
Y118676D01*
X131473Y119343D01*
X132140Y118676D01*
Y117344D01*
Y118343D01*
X130807D01*
X128307Y122344D02*
Y123677D01*
X128973Y124343D01*
X129640Y123677D01*
Y122344D01*
Y123343D01*
X128307D01*
X130807Y127344D02*
Y128676D01*
X131473Y129343D01*
X132140Y128676D01*
Y127344D01*
Y128343D01*
X130807D01*
X128307Y132344D02*
Y133677D01*
X128973Y134343D01*
X129640Y133677D01*
Y132344D01*
Y133343D01*
X128307D01*
X130807Y137344D02*
Y138677D01*
X131473Y139343D01*
X132140Y138677D01*
Y137344D01*
Y138343D01*
X130807D01*
X128307Y142344D02*
Y143676D01*
X128973Y144343D01*
X129640Y143676D01*
Y142344D01*
Y143343D01*
X128307D01*
X130807Y147344D02*
Y148677D01*
X131473Y149343D01*
X132140Y148677D01*
Y147344D01*
Y148343D01*
X130807D01*
X133307Y2344D02*
Y3677D01*
X133973Y4343D01*
X134640Y3677D01*
Y2344D01*
Y3343D01*
X133307D01*
X135807Y7344D02*
Y8676D01*
X136473Y9343D01*
X137140Y8676D01*
Y7344D01*
Y8343D01*
X135807D01*
X133307Y12344D02*
Y13677D01*
X133973Y14343D01*
X134640Y13677D01*
Y12344D01*
Y13343D01*
X133307D01*
X135807Y17344D02*
Y18677D01*
X136473Y19343D01*
X137140Y18677D01*
Y17344D01*
Y18343D01*
X135807D01*
X133307Y22344D02*
Y23676D01*
X133973Y24343D01*
X134640Y23676D01*
Y22344D01*
Y23343D01*
X133307D01*
X135807Y27344D02*
Y28677D01*
X136473Y29343D01*
X137140Y28677D01*
Y27344D01*
Y28343D01*
X135807D01*
X133307Y32344D02*
Y33676D01*
X133973Y34343D01*
X134640Y33676D01*
Y32344D01*
Y33343D01*
X133307D01*
Y112344D02*
Y113677D01*
X133973Y114343D01*
X134640Y113677D01*
Y112344D01*
Y113343D01*
X133307D01*
X135807Y117344D02*
Y118676D01*
X136473Y119343D01*
X137140Y118676D01*
Y117344D01*
Y118343D01*
X135807D01*
X133307Y122344D02*
Y123677D01*
X133973Y124343D01*
X134640Y123677D01*
Y122344D01*
Y123343D01*
X133307D01*
X135807Y127344D02*
Y128676D01*
X136473Y129343D01*
X137140Y128676D01*
Y127344D01*
Y128343D01*
X135807D01*
X133307Y132344D02*
Y133677D01*
X133973Y134343D01*
X134640Y133677D01*
Y132344D01*
Y133343D01*
X133307D01*
X135807Y137344D02*
Y138677D01*
X136473Y139343D01*
X137140Y138677D01*
Y137344D01*
Y138343D01*
X135807D01*
X133307Y142344D02*
Y143676D01*
X133973Y144343D01*
X134640Y143676D01*
Y142344D01*
Y143343D01*
X133307D01*
X135807Y147344D02*
Y148677D01*
X136473Y149343D01*
X137140Y148677D01*
Y147344D01*
Y148343D01*
X135807D01*
X138307Y2344D02*
Y3677D01*
X138973Y4343D01*
X139640Y3677D01*
Y2344D01*
Y3343D01*
X138307D01*
X140807Y7344D02*
Y8676D01*
X141473Y9343D01*
X142140Y8676D01*
Y7344D01*
Y8343D01*
X140807D01*
X138307Y12344D02*
Y13677D01*
X138973Y14343D01*
X139640Y13677D01*
Y12344D01*
Y13343D01*
X138307D01*
X140807Y17344D02*
Y18677D01*
X141473Y19343D01*
X142140Y18677D01*
Y17344D01*
Y18343D01*
X140807D01*
X138307Y22344D02*
Y23676D01*
X138973Y24343D01*
X139640Y23676D01*
Y22344D01*
Y23343D01*
X138307D01*
X140807Y27344D02*
Y28677D01*
X141473Y29343D01*
X142140Y28677D01*
Y27344D01*
Y28343D01*
X140807D01*
X138307Y32344D02*
Y33676D01*
X138973Y34343D01*
X139640Y33676D01*
Y32344D01*
Y33343D01*
X138307D01*
Y112344D02*
Y113677D01*
X138973Y114343D01*
X139640Y113677D01*
Y112344D01*
Y113343D01*
X138307D01*
X140807Y117344D02*
Y118676D01*
X141473Y119343D01*
X142140Y118676D01*
Y117344D01*
Y118343D01*
X140807D01*
X138307Y122344D02*
Y123677D01*
X138973Y124343D01*
X139640Y123677D01*
Y122344D01*
Y123343D01*
X138307D01*
X140807Y127344D02*
Y128676D01*
X141473Y129343D01*
X142140Y128676D01*
Y127344D01*
Y128343D01*
X140807D01*
X138307Y132344D02*
Y133677D01*
X138973Y134343D01*
X139640Y133677D01*
Y132344D01*
Y133343D01*
X138307D01*
X140807Y137344D02*
Y138677D01*
X141473Y139343D01*
X142140Y138677D01*
Y137344D01*
Y138343D01*
X140807D01*
X138307Y142344D02*
Y143676D01*
X138973Y144343D01*
X139640Y143676D01*
Y142344D01*
Y143343D01*
X138307D01*
X140807Y147344D02*
Y148677D01*
X141473Y149343D01*
X142140Y148677D01*
Y147344D01*
Y148343D01*
X140807D01*
X143307Y2344D02*
Y3677D01*
X143973Y4343D01*
X144640Y3677D01*
Y2344D01*
Y3343D01*
X143307D01*
X145807Y7344D02*
Y8676D01*
X146473Y9343D01*
X147140Y8676D01*
Y7344D01*
Y8343D01*
X145807D01*
X143307Y12344D02*
Y13677D01*
X143973Y14343D01*
X144640Y13677D01*
Y12344D01*
Y13343D01*
X143307D01*
X145807Y17344D02*
Y18677D01*
X146473Y19343D01*
X147140Y18677D01*
Y17344D01*
Y18343D01*
X145807D01*
X143307Y22344D02*
Y23676D01*
X143973Y24343D01*
X144640Y23676D01*
Y22344D01*
Y23343D01*
X143307D01*
X145807Y27344D02*
Y28677D01*
X146473Y29343D01*
X147140Y28677D01*
Y27344D01*
Y28343D01*
X145807D01*
X143307Y32344D02*
Y33676D01*
X143973Y34343D01*
X144640Y33676D01*
Y32344D01*
Y33343D01*
X143307D01*
Y112344D02*
Y113677D01*
X143973Y114343D01*
X144640Y113677D01*
Y112344D01*
Y113343D01*
X143307D01*
X145807Y117344D02*
Y118676D01*
X146473Y119343D01*
X147140Y118676D01*
Y117344D01*
Y118343D01*
X145807D01*
X143307Y122344D02*
Y123677D01*
X143973Y124343D01*
X144640Y123677D01*
Y122344D01*
Y123343D01*
X143307D01*
X145807Y127344D02*
Y128676D01*
X146473Y129343D01*
X147140Y128676D01*
Y127344D01*
Y128343D01*
X145807D01*
X143307Y132344D02*
Y133677D01*
X143973Y134343D01*
X144640Y133677D01*
Y132344D01*
Y133343D01*
X143307D01*
X145807Y137344D02*
Y138677D01*
X146473Y139343D01*
X147140Y138677D01*
Y137344D01*
Y138343D01*
X145807D01*
X143307Y142344D02*
Y143676D01*
X143973Y144343D01*
X144640Y143676D01*
Y142344D01*
Y143343D01*
X143307D01*
X145807Y147344D02*
Y148677D01*
X146473Y149343D01*
X147140Y148677D01*
Y147344D01*
Y148343D01*
X145807D01*
X148307Y2344D02*
Y3677D01*
X148973Y4343D01*
X149640Y3677D01*
Y2344D01*
Y3343D01*
X148307D01*
X150807Y7344D02*
Y8676D01*
X151473Y9343D01*
X152140Y8676D01*
Y7344D01*
Y8343D01*
X150807D01*
X148307Y12344D02*
Y13677D01*
X148973Y14343D01*
X149640Y13677D01*
Y12344D01*
Y13343D01*
X148307D01*
X150807Y17344D02*
Y18677D01*
X151473Y19343D01*
X152140Y18677D01*
Y17344D01*
Y18343D01*
X150807D01*
X148307Y22344D02*
Y23676D01*
X148973Y24343D01*
X149640Y23676D01*
Y22344D01*
Y23343D01*
X148307D01*
X150807Y27344D02*
Y28677D01*
X151473Y29343D01*
X152140Y28677D01*
Y27344D01*
Y28343D01*
X150807D01*
X148307Y32344D02*
Y33676D01*
X148973Y34343D01*
X149640Y33676D01*
Y32344D01*
Y33343D01*
X148307D01*
Y112344D02*
Y113677D01*
X148973Y114343D01*
X149640Y113677D01*
Y112344D01*
Y113343D01*
X148307D01*
X150807Y117344D02*
Y118676D01*
X151473Y119343D01*
X152140Y118676D01*
Y117344D01*
Y118343D01*
X150807D01*
X148307Y122344D02*
Y123677D01*
X148973Y124343D01*
X149640Y123677D01*
Y122344D01*
Y123343D01*
X148307D01*
Y132344D02*
Y133677D01*
X148973Y134343D01*
X149640Y133677D01*
Y132344D01*
Y133343D01*
X148307D01*
X150807Y137344D02*
Y138677D01*
X151473Y139343D01*
X152140Y138677D01*
Y137344D01*
Y138343D01*
X150807D01*
X148307Y142344D02*
Y143676D01*
X148973Y144343D01*
X149640Y143676D01*
Y142344D01*
Y143343D01*
X148307D01*
X150807Y147344D02*
Y148677D01*
X151473Y149343D01*
X152140Y148677D01*
Y147344D01*
Y148343D01*
X150807D01*
X153307Y2344D02*
Y3677D01*
X153973Y4343D01*
X154640Y3677D01*
Y2344D01*
Y3343D01*
X153307D01*
Y22344D02*
Y23676D01*
X153973Y24343D01*
X154640Y23676D01*
Y22344D01*
Y23343D01*
X153307D01*
X155807Y27344D02*
Y28677D01*
X156473Y29343D01*
X157140Y28677D01*
Y27344D01*
Y28343D01*
X155807D01*
X153307Y32344D02*
Y33676D01*
X153973Y34343D01*
X154640Y33676D01*
Y32344D01*
Y33343D01*
X153307D01*
Y112344D02*
Y113677D01*
X153973Y114343D01*
X154640Y113677D01*
Y112344D01*
Y113343D01*
X153307D01*
X155807Y117344D02*
Y118676D01*
X156473Y119343D01*
X157140Y118676D01*
Y117344D01*
Y118343D01*
X155807D01*
X153307Y122344D02*
Y123677D01*
X153973Y124343D01*
X154640Y123677D01*
Y122344D01*
Y123343D01*
X153307D01*
Y142344D02*
Y143676D01*
X153973Y144343D01*
X154640Y143676D01*
Y142344D01*
Y143343D01*
X153307D01*
X155807Y147344D02*
Y148677D01*
X156473Y149343D01*
X157140Y148677D01*
Y147344D01*
Y148343D01*
X155807D01*
X158307Y2344D02*
Y3677D01*
X158973Y4343D01*
X159640Y3677D01*
Y2344D01*
Y3343D01*
X158307D01*
Y22344D02*
Y23676D01*
X158973Y24343D01*
X159640Y23676D01*
Y22344D01*
Y23343D01*
X158307D01*
X160807Y27344D02*
Y28677D01*
X161473Y29343D01*
X162140Y28677D01*
Y27344D01*
Y28343D01*
X160807D01*
X158307Y32344D02*
Y33676D01*
X158973Y34343D01*
X159640Y33676D01*
Y32344D01*
Y33343D01*
X158307D01*
Y112344D02*
Y113677D01*
X158973Y114343D01*
X159640Y113677D01*
Y112344D01*
Y113343D01*
X158307D01*
X160807Y117344D02*
Y118676D01*
X161473Y119343D01*
X162140Y118676D01*
Y117344D01*
Y118343D01*
X160807D01*
Y137344D02*
Y138677D01*
X161473Y139343D01*
X162140Y138677D01*
Y137344D01*
Y138343D01*
X160807D01*
X158307Y142344D02*
Y143676D01*
X158973Y144343D01*
X159640Y143676D01*
Y142344D01*
Y143343D01*
X158307D01*
X160807Y147344D02*
Y148677D01*
X161473Y149343D01*
X162140Y148677D01*
Y147344D01*
Y148343D01*
X160807D01*
X163307Y2344D02*
Y3677D01*
X163973Y4343D01*
X164640Y3677D01*
Y2344D01*
Y3343D01*
X163307D01*
X165807Y7344D02*
Y8676D01*
X166473Y9343D01*
X167140Y8676D01*
Y7344D01*
Y8343D01*
X165807D01*
Y17344D02*
Y18677D01*
X166473Y19343D01*
X167140Y18677D01*
Y17344D01*
Y18343D01*
X165807D01*
X163307Y22344D02*
Y23676D01*
X163973Y24343D01*
X164640Y23676D01*
Y22344D01*
Y23343D01*
X163307D01*
X165807Y27344D02*
Y28677D01*
X166473Y29343D01*
X167140Y28677D01*
Y27344D01*
Y28343D01*
X165807D01*
X163307Y32344D02*
Y33676D01*
X163973Y34343D01*
X164640Y33676D01*
Y32344D01*
Y33343D01*
X163307D01*
Y112344D02*
Y113677D01*
X163973Y114343D01*
X164640Y113677D01*
Y112344D01*
Y113343D01*
X163307D01*
X165807Y117344D02*
Y118676D01*
X166473Y119343D01*
X167140Y118676D01*
Y117344D01*
Y118343D01*
X165807D01*
X163307Y122344D02*
Y123677D01*
X163973Y124343D01*
X164640Y123677D01*
Y122344D01*
Y123343D01*
X163307D01*
X165807Y127344D02*
Y128676D01*
X166473Y129343D01*
X167140Y128676D01*
Y127344D01*
Y128343D01*
X165807D01*
Y137344D02*
Y138677D01*
X166473Y139343D01*
X167140Y138677D01*
Y137344D01*
Y138343D01*
X165807D01*
X163307Y142344D02*
Y143676D01*
X163973Y144343D01*
X164640Y143676D01*
Y142344D01*
Y143343D01*
X163307D01*
X165807Y147344D02*
Y148677D01*
X166473Y149343D01*
X167140Y148677D01*
Y147344D01*
Y148343D01*
X165807D01*
X173307Y2344D02*
Y3677D01*
X173973Y4343D01*
X174640Y3677D01*
Y2344D01*
Y3343D01*
X173307D01*
Y12344D02*
Y13677D01*
X173973Y14343D01*
X174640Y13677D01*
Y12344D01*
Y13343D01*
X173307D01*
X175807Y17344D02*
Y18677D01*
X176473Y19343D01*
X177140Y18677D01*
Y17344D01*
Y18343D01*
X175807D01*
X173307Y22344D02*
Y23676D01*
X173973Y24343D01*
X174640Y23676D01*
Y22344D01*
Y23343D01*
X173307D01*
X175807Y27344D02*
Y28677D01*
X176473Y29343D01*
X177140Y28677D01*
Y27344D01*
Y28343D01*
X175807D01*
X173307Y32344D02*
Y33676D01*
X173973Y34343D01*
X174640Y33676D01*
Y32344D01*
Y33343D01*
X173307D01*
Y112344D02*
Y113677D01*
X173973Y114343D01*
X174640Y113677D01*
Y112344D01*
Y113343D01*
X173307D01*
X175807Y117344D02*
Y118676D01*
X176473Y119343D01*
X177140Y118676D01*
Y117344D01*
Y118343D01*
X175807D01*
X173307Y122344D02*
Y123677D01*
X173973Y124343D01*
X174640Y123677D01*
Y122344D01*
Y123343D01*
X173307D01*
Y132344D02*
Y133677D01*
X173973Y134343D01*
X174640Y133677D01*
Y132344D01*
Y133343D01*
X173307D01*
X175807Y137344D02*
Y138677D01*
X176473Y139343D01*
X177140Y138677D01*
Y137344D01*
Y138343D01*
X175807D01*
X173307Y142344D02*
Y143676D01*
X173973Y144343D01*
X174640Y143676D01*
Y142344D01*
Y143343D01*
X173307D01*
X175807Y147344D02*
Y148677D01*
X176473Y149343D01*
X177140Y148677D01*
Y147344D01*
Y148343D01*
X175807D01*
X178307Y2344D02*
Y3677D01*
X178973Y4343D01*
X179640Y3677D01*
Y2344D01*
Y3343D01*
X178307D01*
Y22344D02*
Y23676D01*
X178973Y24343D01*
X179640Y23676D01*
Y22344D01*
Y23343D01*
X178307D01*
X180807Y27344D02*
Y28677D01*
X181473Y29343D01*
X182140Y28677D01*
Y27344D01*
Y28343D01*
X180807D01*
X178307Y32344D02*
Y33676D01*
X178973Y34343D01*
X179640Y33676D01*
Y32344D01*
Y33343D01*
X178307D01*
Y112344D02*
Y113677D01*
X178973Y114343D01*
X179640Y113677D01*
Y112344D01*
Y113343D01*
X178307D01*
X180807Y117344D02*
Y118676D01*
X181473Y119343D01*
X182140Y118676D01*
Y117344D01*
Y118343D01*
X180807D01*
X178307Y122344D02*
Y123677D01*
X178973Y124343D01*
X179640Y123677D01*
Y122344D01*
Y123343D01*
X178307D01*
Y142344D02*
Y143676D01*
X178973Y144343D01*
X179640Y143676D01*
Y142344D01*
Y143343D01*
X178307D01*
X180807Y147344D02*
Y148677D01*
X181473Y149343D01*
X182140Y148677D01*
Y147344D01*
Y148343D01*
X180807D01*
X183307Y2344D02*
Y3677D01*
X183973Y4343D01*
X184640Y3677D01*
Y2344D01*
Y3343D01*
X183307D01*
Y22344D02*
Y23676D01*
X183973Y24343D01*
X184640Y23676D01*
Y22344D01*
Y23343D01*
X183307D01*
X185807Y27344D02*
Y28677D01*
X186473Y29343D01*
X187140Y28677D01*
Y27344D01*
Y28343D01*
X185807D01*
X183307Y32344D02*
Y33676D01*
X183973Y34343D01*
X184640Y33676D01*
Y32344D01*
Y33343D01*
X183307D01*
Y112344D02*
Y113677D01*
X183973Y114343D01*
X184640Y113677D01*
Y112344D01*
Y113343D01*
X183307D01*
X185807Y117344D02*
Y118676D01*
X186473Y119343D01*
X187140Y118676D01*
Y117344D01*
Y118343D01*
X185807D01*
Y137344D02*
Y138677D01*
X186473Y139343D01*
X187140Y138677D01*
Y137344D01*
Y138343D01*
X185807D01*
X183307Y142344D02*
Y143676D01*
X183973Y144343D01*
X184640Y143676D01*
Y142344D01*
Y143343D01*
X183307D01*
X185807Y147344D02*
Y148677D01*
X186473Y149343D01*
X187140Y148677D01*
Y147344D01*
Y148343D01*
X185807D01*
X188307Y2344D02*
Y3677D01*
X188973Y4343D01*
X189640Y3677D01*
Y2344D01*
Y3343D01*
X188307D01*
X190807Y7344D02*
Y8676D01*
X191473Y9343D01*
X192140Y8676D01*
Y7344D01*
Y8343D01*
X190807D01*
Y17344D02*
Y18677D01*
X191473Y19343D01*
X192140Y18677D01*
Y17344D01*
Y18343D01*
X190807D01*
X188307Y22344D02*
Y23676D01*
X188973Y24343D01*
X189640Y23676D01*
Y22344D01*
Y23343D01*
X188307D01*
X190807Y27344D02*
Y28677D01*
X191473Y29343D01*
X192140Y28677D01*
Y27344D01*
Y28343D01*
X190807D01*
X188307Y32344D02*
Y33676D01*
X188973Y34343D01*
X189640Y33676D01*
Y32344D01*
Y33343D01*
X188307D01*
Y112344D02*
Y113677D01*
X188973Y114343D01*
X189640Y113677D01*
Y112344D01*
Y113343D01*
X188307D01*
X190807Y117344D02*
Y118676D01*
X191473Y119343D01*
X192140Y118676D01*
Y117344D01*
Y118343D01*
X190807D01*
X188307Y122344D02*
Y123677D01*
X188973Y124343D01*
X189640Y123677D01*
Y122344D01*
Y123343D01*
X188307D01*
X190807Y127344D02*
Y128676D01*
X191473Y129343D01*
X192140Y128676D01*
Y127344D01*
Y128343D01*
X190807D01*
Y137344D02*
Y138677D01*
X191473Y139343D01*
X192140Y138677D01*
Y137344D01*
Y138343D01*
X190807D01*
X188307Y142344D02*
Y143676D01*
X188973Y144343D01*
X189640Y143676D01*
Y142344D01*
Y143343D01*
X188307D01*
X190807Y147344D02*
Y148677D01*
X191473Y149343D01*
X192140Y148677D01*
Y147344D01*
Y148343D01*
X190807D01*
X193307Y2344D02*
Y3677D01*
X193973Y4343D01*
X194640Y3677D01*
Y2344D01*
Y3343D01*
X193307D01*
X195807Y7344D02*
Y8676D01*
X196473Y9343D01*
X197140Y8676D01*
Y7344D01*
Y8343D01*
X195807D01*
X193307Y12344D02*
Y13677D01*
X193973Y14343D01*
X194640Y13677D01*
Y12344D01*
Y13343D01*
X193307D01*
X195807Y17344D02*
Y18677D01*
X196473Y19343D01*
X197140Y18677D01*
Y17344D01*
Y18343D01*
X195807D01*
X193307Y22344D02*
Y23676D01*
X193973Y24343D01*
X194640Y23676D01*
Y22344D01*
Y23343D01*
X193307D01*
X195807Y27344D02*
Y28677D01*
X196473Y29343D01*
X197140Y28677D01*
Y27344D01*
Y28343D01*
X195807D01*
X193307Y32344D02*
Y33676D01*
X193973Y34343D01*
X194640Y33676D01*
Y32344D01*
Y33343D01*
X193307D01*
Y112344D02*
Y113677D01*
X193973Y114343D01*
X194640Y113677D01*
Y112344D01*
Y113343D01*
X193307D01*
X195807Y117344D02*
Y118676D01*
X196473Y119343D01*
X197140Y118676D01*
Y117344D01*
Y118343D01*
X195807D01*
X193307Y122344D02*
Y123677D01*
X193973Y124343D01*
X194640Y123677D01*
Y122344D01*
Y123343D01*
X193307D01*
X195807Y127344D02*
Y128676D01*
X196473Y129343D01*
X197140Y128676D01*
Y127344D01*
Y128343D01*
X195807D01*
X193307Y132344D02*
Y133677D01*
X193973Y134343D01*
X194640Y133677D01*
Y132344D01*
Y133343D01*
X193307D01*
X195807Y137344D02*
Y138677D01*
X196473Y139343D01*
X197140Y138677D01*
Y137344D01*
Y138343D01*
X195807D01*
X193307Y142344D02*
Y143676D01*
X193973Y144343D01*
X194640Y143676D01*
Y142344D01*
Y143343D01*
X193307D01*
X195807Y147344D02*
Y148677D01*
X196473Y149343D01*
X197140Y148677D01*
Y147344D01*
Y148343D01*
X195807D01*
X198307Y2344D02*
Y3677D01*
X198973Y4343D01*
X199640Y3677D01*
Y2344D01*
Y3343D01*
X198307D01*
X200807Y7344D02*
Y8676D01*
X201473Y9343D01*
X202140Y8676D01*
Y7344D01*
Y8343D01*
X200807D01*
X198307Y12344D02*
Y13677D01*
X198973Y14343D01*
X199640Y13677D01*
Y12344D01*
Y13343D01*
X198307D01*
X200807Y17344D02*
Y18677D01*
X201473Y19343D01*
X202140Y18677D01*
Y17344D01*
Y18343D01*
X200807D01*
X198307Y22344D02*
Y23676D01*
X198973Y24343D01*
X199640Y23676D01*
Y22344D01*
Y23343D01*
X198307D01*
X200807Y27344D02*
Y28677D01*
X201473Y29343D01*
X202140Y28677D01*
Y27344D01*
Y28343D01*
X200807D01*
X198307Y32344D02*
Y33676D01*
X198973Y34343D01*
X199640Y33676D01*
Y32344D01*
Y33343D01*
X198307D01*
Y112344D02*
Y113677D01*
X198973Y114343D01*
X199640Y113677D01*
Y112344D01*
Y113343D01*
X198307D01*
X200807Y117344D02*
Y118676D01*
X201473Y119343D01*
X202140Y118676D01*
Y117344D01*
Y118343D01*
X200807D01*
X198307Y122344D02*
Y123677D01*
X198973Y124343D01*
X199640Y123677D01*
Y122344D01*
Y123343D01*
X198307D01*
X200807Y127344D02*
Y128676D01*
X201473Y129343D01*
X202140Y128676D01*
Y127344D01*
Y128343D01*
X200807D01*
X198307Y132344D02*
Y133677D01*
X198973Y134343D01*
X199640Y133677D01*
Y132344D01*
Y133343D01*
X198307D01*
X200807Y137344D02*
Y138677D01*
X201473Y139343D01*
X202140Y138677D01*
Y137344D01*
Y138343D01*
X200807D01*
X198307Y142344D02*
Y143676D01*
X198973Y144343D01*
X199640Y143676D01*
Y142344D01*
Y143343D01*
X198307D01*
X200807Y147344D02*
Y148677D01*
X201473Y149343D01*
X202140Y148677D01*
Y147344D01*
Y148343D01*
X200807D01*
X203307Y2344D02*
Y3677D01*
X203973Y4343D01*
X204640Y3677D01*
Y2344D01*
Y3343D01*
X203307D01*
X205807Y7344D02*
Y8676D01*
X206473Y9343D01*
X207140Y8676D01*
Y7344D01*
Y8343D01*
X205807D01*
X203307Y12344D02*
Y13677D01*
X203973Y14343D01*
X204640Y13677D01*
Y12344D01*
Y13343D01*
X203307D01*
X205807Y17344D02*
Y18677D01*
X206473Y19343D01*
X207140Y18677D01*
Y17344D01*
Y18343D01*
X205807D01*
X203307Y22344D02*
Y23676D01*
X203973Y24343D01*
X204640Y23676D01*
Y22344D01*
Y23343D01*
X203307D01*
X205807Y27344D02*
Y28677D01*
X206473Y29343D01*
X207140Y28677D01*
Y27344D01*
Y28343D01*
X205807D01*
X203307Y32344D02*
Y33676D01*
X203973Y34343D01*
X204640Y33676D01*
Y32344D01*
Y33343D01*
X203307D01*
Y112344D02*
Y113677D01*
X203973Y114343D01*
X204640Y113677D01*
Y112344D01*
Y113343D01*
X203307D01*
X205807Y117344D02*
Y118676D01*
X206473Y119343D01*
X207140Y118676D01*
Y117344D01*
Y118343D01*
X205807D01*
X203307Y122344D02*
Y123677D01*
X203973Y124343D01*
X204640Y123677D01*
Y122344D01*
Y123343D01*
X203307D01*
X205807Y127344D02*
Y128676D01*
X206473Y129343D01*
X207140Y128676D01*
Y127344D01*
Y128343D01*
X205807D01*
X203307Y132344D02*
Y133677D01*
X203973Y134343D01*
X204640Y133677D01*
Y132344D01*
Y133343D01*
X203307D01*
X205807Y137344D02*
Y138677D01*
X206473Y139343D01*
X207140Y138677D01*
Y137344D01*
Y138343D01*
X205807D01*
X203307Y142344D02*
Y143676D01*
X203973Y144343D01*
X204640Y143676D01*
Y142344D01*
Y143343D01*
X203307D01*
X205807Y147344D02*
Y148677D01*
X206473Y149343D01*
X207140Y148677D01*
Y147344D01*
Y148343D01*
X205807D01*
X208307Y2344D02*
Y3677D01*
X208973Y4343D01*
X209640Y3677D01*
Y2344D01*
Y3343D01*
X208307D01*
X210807Y7344D02*
Y8676D01*
X211473Y9343D01*
X212140Y8676D01*
Y7344D01*
Y8343D01*
X210807D01*
X208307Y12344D02*
Y13677D01*
X208973Y14343D01*
X209640Y13677D01*
Y12344D01*
Y13343D01*
X208307D01*
X210807Y17344D02*
Y18677D01*
X211473Y19343D01*
X212140Y18677D01*
Y17344D01*
Y18343D01*
X210807D01*
X208307Y22344D02*
Y23676D01*
X208973Y24343D01*
X209640Y23676D01*
Y22344D01*
Y23343D01*
X208307D01*
X210807Y27344D02*
Y28677D01*
X211473Y29343D01*
X212140Y28677D01*
Y27344D01*
Y28343D01*
X210807D01*
X208307Y32344D02*
Y33676D01*
X208973Y34343D01*
X209640Y33676D01*
Y32344D01*
Y33343D01*
X208307D01*
Y112344D02*
Y113677D01*
X208973Y114343D01*
X209640Y113677D01*
Y112344D01*
Y113343D01*
X208307D01*
X210807Y117344D02*
Y118676D01*
X211473Y119343D01*
X212140Y118676D01*
Y117344D01*
Y118343D01*
X210807D01*
X208307Y122344D02*
Y123677D01*
X208973Y124343D01*
X209640Y123677D01*
Y122344D01*
Y123343D01*
X208307D01*
X210807Y127344D02*
Y128676D01*
X211473Y129343D01*
X212140Y128676D01*
Y127344D01*
Y128343D01*
X210807D01*
X208307Y132344D02*
Y133677D01*
X208973Y134343D01*
X209640Y133677D01*
Y132344D01*
Y133343D01*
X208307D01*
X210807Y137344D02*
Y138677D01*
X211473Y139343D01*
X212140Y138677D01*
Y137344D01*
Y138343D01*
X210807D01*
X208307Y142344D02*
Y143676D01*
X208973Y144343D01*
X209640Y143676D01*
Y142344D01*
Y143343D01*
X208307D01*
X210807Y147344D02*
Y148677D01*
X211473Y149343D01*
X212140Y148677D01*
Y147344D01*
Y148343D01*
X210807D01*
X213307Y2344D02*
Y3677D01*
X213973Y4343D01*
X214640Y3677D01*
Y2344D01*
Y3343D01*
X213307D01*
X215807Y7344D02*
Y8676D01*
X216473Y9343D01*
X217140Y8676D01*
Y7344D01*
Y8343D01*
X215807D01*
X213307Y12344D02*
Y13677D01*
X213973Y14343D01*
X214640Y13677D01*
Y12344D01*
Y13343D01*
X213307D01*
X215807Y17344D02*
Y18677D01*
X216473Y19343D01*
X217140Y18677D01*
Y17344D01*
Y18343D01*
X215807D01*
X213307Y22344D02*
Y23676D01*
X213973Y24343D01*
X214640Y23676D01*
Y22344D01*
Y23343D01*
X213307D01*
X215807Y27344D02*
Y28677D01*
X216473Y29343D01*
X217140Y28677D01*
Y27344D01*
Y28343D01*
X215807D01*
X213307Y32344D02*
Y33676D01*
X213973Y34343D01*
X214640Y33676D01*
Y32344D01*
Y33343D01*
X213307D01*
X215807Y147344D02*
Y148677D01*
X216473Y149343D01*
X217140Y148677D01*
Y147344D01*
Y148343D01*
X215807D01*
X218307Y2344D02*
Y3677D01*
X218973Y4343D01*
X219640Y3677D01*
Y2344D01*
Y3343D01*
X218307D01*
X220807Y7344D02*
Y8676D01*
X221473Y9343D01*
X222140Y8676D01*
Y7344D01*
Y8343D01*
X220807D01*
X218307Y12344D02*
Y13677D01*
X218973Y14343D01*
X219640Y13677D01*
Y12344D01*
Y13343D01*
X218307D01*
X220807Y17344D02*
Y18677D01*
X221473Y19343D01*
X222140Y18677D01*
Y17344D01*
Y18343D01*
X220807D01*
X218307Y22344D02*
Y23676D01*
X218973Y24343D01*
X219640Y23676D01*
Y22344D01*
Y23343D01*
X218307D01*
X220807Y27344D02*
Y28677D01*
X221473Y29343D01*
X222140Y28677D01*
Y27344D01*
Y28343D01*
X220807D01*
X218307Y32344D02*
Y33676D01*
X218973Y34343D01*
X219640Y33676D01*
Y32344D01*
Y33343D01*
X218307D01*
X220807Y147344D02*
Y148677D01*
X221473Y149343D01*
X222140Y148677D01*
Y147344D01*
Y148343D01*
X220807D01*
X223307Y2344D02*
Y3677D01*
X223973Y4343D01*
X224640Y3677D01*
Y2344D01*
Y3343D01*
X223307D01*
X225807Y7344D02*
Y8676D01*
X226473Y9343D01*
X227140Y8676D01*
Y7344D01*
Y8343D01*
X225807D01*
X223307Y12344D02*
Y13677D01*
X223973Y14343D01*
X224640Y13677D01*
Y12344D01*
Y13343D01*
X223307D01*
X225807Y17344D02*
Y18677D01*
X226473Y19343D01*
X227140Y18677D01*
Y17344D01*
Y18343D01*
X225807D01*
X223307Y22344D02*
Y23676D01*
X223973Y24343D01*
X224640Y23676D01*
Y22344D01*
Y23343D01*
X223307D01*
X225807Y27344D02*
Y28677D01*
X226473Y29343D01*
X227140Y28677D01*
Y27344D01*
Y28343D01*
X225807D01*
X223307Y32344D02*
Y33676D01*
X223973Y34343D01*
X224640Y33676D01*
Y32344D01*
Y33343D01*
X223307D01*
X225807Y147344D02*
Y148677D01*
X226473Y149343D01*
X227140Y148677D01*
Y147344D01*
Y148343D01*
X225807D01*
X228307Y2344D02*
Y3677D01*
X228973Y4343D01*
X229640Y3677D01*
Y2344D01*
Y3343D01*
X228307D01*
X230807Y7344D02*
Y8676D01*
X231473Y9343D01*
X232140Y8676D01*
Y7344D01*
Y8343D01*
X230807D01*
X228307Y12344D02*
Y13677D01*
X228973Y14343D01*
X229640Y13677D01*
Y12344D01*
Y13343D01*
X228307D01*
X230807Y17344D02*
Y18677D01*
X231473Y19343D01*
X232140Y18677D01*
Y17344D01*
Y18343D01*
X230807D01*
X228307Y22344D02*
Y23676D01*
X228973Y24343D01*
X229640Y23676D01*
Y22344D01*
Y23343D01*
X228307D01*
X230807Y27344D02*
Y28677D01*
X231473Y29343D01*
X232140Y28677D01*
Y27344D01*
Y28343D01*
X230807D01*
X228307Y32344D02*
Y33676D01*
X228973Y34343D01*
X229640Y33676D01*
Y32344D01*
Y33343D01*
X228307D01*
X230807Y147344D02*
Y148677D01*
X231473Y149343D01*
X232140Y148677D01*
Y147344D01*
Y148343D01*
X230807D01*
X233307Y2344D02*
Y3677D01*
X233973Y4343D01*
X234640Y3677D01*
Y2344D01*
Y3343D01*
X233307D01*
X235807Y7344D02*
Y8676D01*
X236473Y9343D01*
X237140Y8676D01*
Y7344D01*
Y8343D01*
X235807D01*
X233307Y12344D02*
Y13677D01*
X233973Y14343D01*
X234640Y13677D01*
Y12344D01*
Y13343D01*
X233307D01*
X235807Y17344D02*
Y18677D01*
X236473Y19343D01*
X237140Y18677D01*
Y17344D01*
Y18343D01*
X235807D01*
X233307Y22344D02*
Y23676D01*
X233973Y24343D01*
X234640Y23676D01*
Y22344D01*
Y23343D01*
X233307D01*
X235807Y27344D02*
Y28677D01*
X236473Y29343D01*
X237140Y28677D01*
Y27344D01*
Y28343D01*
X235807D01*
X233307Y32344D02*
Y33676D01*
X233973Y34343D01*
X234640Y33676D01*
Y32344D01*
Y33343D01*
X233307D01*
X235807Y147344D02*
Y148677D01*
X236473Y149343D01*
X237140Y148677D01*
Y147344D01*
Y148343D01*
X235807D01*
X238307Y2344D02*
Y3677D01*
X238973Y4343D01*
X239640Y3677D01*
Y2344D01*
Y3343D01*
X238307D01*
X240807Y7344D02*
Y8676D01*
X241473Y9343D01*
X242140Y8676D01*
Y7344D01*
Y8343D01*
X240807D01*
X238307Y12344D02*
Y13677D01*
X238973Y14343D01*
X239640Y13677D01*
Y12344D01*
Y13343D01*
X238307D01*
X240807Y17344D02*
Y18677D01*
X241473Y19343D01*
X242140Y18677D01*
Y17344D01*
Y18343D01*
X240807D01*
X238307Y22344D02*
Y23676D01*
X238973Y24343D01*
X239640Y23676D01*
Y22344D01*
Y23343D01*
X238307D01*
X240807Y27344D02*
Y28677D01*
X241473Y29343D01*
X242140Y28677D01*
Y27344D01*
Y28343D01*
X240807D01*
X238307Y32344D02*
Y33676D01*
X238973Y34343D01*
X239640Y33676D01*
Y32344D01*
Y33343D01*
X238307D01*
X240807Y147344D02*
Y148677D01*
X241473Y149343D01*
X242140Y148677D01*
Y147344D01*
Y148343D01*
X240807D01*
X243307Y2344D02*
Y3677D01*
X243973Y4343D01*
X244640Y3677D01*
Y2344D01*
Y3343D01*
X243307D01*
X245807Y7344D02*
Y8676D01*
X246473Y9343D01*
X247140Y8676D01*
Y7344D01*
Y8343D01*
X245807D01*
X243307Y12344D02*
Y13677D01*
X243973Y14343D01*
X244640Y13677D01*
Y12344D01*
Y13343D01*
X243307D01*
X245807Y17344D02*
Y18677D01*
X246473Y19343D01*
X247140Y18677D01*
Y17344D01*
Y18343D01*
X245807D01*
X243307Y22344D02*
Y23676D01*
X243973Y24343D01*
X244640Y23676D01*
Y22344D01*
Y23343D01*
X243307D01*
X245807Y27344D02*
Y28677D01*
X246473Y29343D01*
X247140Y28677D01*
Y27344D01*
Y28343D01*
X245807D01*
X243307Y32344D02*
Y33676D01*
X243973Y34343D01*
X244640Y33676D01*
Y32344D01*
Y33343D01*
X243307D01*
X245807Y37344D02*
Y38677D01*
X246473Y39343D01*
X247140Y38677D01*
Y37344D01*
Y38343D01*
X245807D01*
Y57344D02*
Y58676D01*
X246473Y59343D01*
X247140Y58676D01*
Y57344D01*
Y58343D01*
X245807D01*
Y87344D02*
Y88677D01*
X246473Y89343D01*
X247140Y88677D01*
Y87344D01*
Y88343D01*
X245807D01*
Y97344D02*
Y98677D01*
X246473Y99343D01*
X247140Y98677D01*
Y97344D01*
Y98343D01*
X245807D01*
Y147344D02*
Y148677D01*
X246473Y149343D01*
X247140Y148677D01*
Y147344D01*
Y148343D01*
X245807D01*
X248307Y2344D02*
Y3677D01*
X248973Y4343D01*
X249640Y3677D01*
Y2344D01*
Y3343D01*
X248307D01*
X250807Y7344D02*
Y8676D01*
X251473Y9343D01*
X252140Y8676D01*
Y7344D01*
Y8343D01*
X250807D01*
X248307Y12344D02*
Y13677D01*
X248973Y14343D01*
X249640Y13677D01*
Y12344D01*
Y13343D01*
X248307D01*
X250807Y17344D02*
Y18677D01*
X251473Y19343D01*
X252140Y18677D01*
Y17344D01*
Y18343D01*
X250807D01*
X248307Y22344D02*
Y23676D01*
X248973Y24343D01*
X249640Y23676D01*
Y22344D01*
Y23343D01*
X248307D01*
X250807Y27344D02*
Y28677D01*
X251473Y29343D01*
X252140Y28677D01*
Y27344D01*
Y28343D01*
X250807D01*
X248307Y32344D02*
Y33676D01*
X248973Y34343D01*
X249640Y33676D01*
Y32344D01*
Y33343D01*
X248307D01*
X250807Y37344D02*
Y38677D01*
X251473Y39343D01*
X252140Y38677D01*
Y37344D01*
Y38343D01*
X250807D01*
Y57344D02*
Y58676D01*
X251473Y59343D01*
X252140Y58676D01*
Y57344D01*
Y58343D01*
X250807D01*
Y87344D02*
Y88677D01*
X251473Y89343D01*
X252140Y88677D01*
Y87344D01*
Y88343D01*
X250807D01*
X248307Y102344D02*
Y103676D01*
X248973Y104343D01*
X249640Y103676D01*
Y102344D01*
Y103343D01*
X248307D01*
X253307Y2344D02*
Y3677D01*
X253973Y4343D01*
X254640Y3677D01*
Y2344D01*
Y3343D01*
X253307D01*
X255807Y7344D02*
Y8676D01*
X256473Y9343D01*
X257140Y8676D01*
Y7344D01*
Y8343D01*
X255807D01*
X253307Y12344D02*
Y13677D01*
X253973Y14343D01*
X254640Y13677D01*
Y12344D01*
Y13343D01*
X253307D01*
X255807Y17344D02*
Y18677D01*
X256473Y19343D01*
X257140Y18677D01*
Y17344D01*
Y18343D01*
X255807D01*
X253307Y22344D02*
Y23676D01*
X253973Y24343D01*
X254640Y23676D01*
Y22344D01*
Y23343D01*
X253307D01*
X255807Y27344D02*
Y28677D01*
X256473Y29343D01*
X257140Y28677D01*
Y27344D01*
Y28343D01*
X255807D01*
X253307Y32344D02*
Y33676D01*
X253973Y34343D01*
X254640Y33676D01*
Y32344D01*
Y33343D01*
X253307D01*
X255807Y57344D02*
Y58676D01*
X256473Y59343D01*
X257140Y58676D01*
Y57344D01*
Y58343D01*
X255807D01*
Y87344D02*
Y88677D01*
X256473Y89343D01*
X257140Y88677D01*
Y87344D01*
Y88343D01*
X255807D01*
X258307Y2344D02*
Y3677D01*
X258973Y4343D01*
X259640Y3677D01*
Y2344D01*
Y3343D01*
X258307D01*
X260807Y7344D02*
Y8676D01*
X261473Y9343D01*
X262140Y8676D01*
Y7344D01*
Y8343D01*
X260807D01*
X258307Y12344D02*
Y13677D01*
X258973Y14343D01*
X259640Y13677D01*
Y12344D01*
Y13343D01*
X258307D01*
X260807Y17344D02*
Y18677D01*
X261473Y19343D01*
X262140Y18677D01*
Y17344D01*
Y18343D01*
X260807D01*
X258307Y22344D02*
Y23676D01*
X258973Y24343D01*
X259640Y23676D01*
Y22344D01*
Y23343D01*
X258307D01*
X260807Y27344D02*
Y28677D01*
X261473Y29343D01*
X262140Y28677D01*
Y27344D01*
Y28343D01*
X260807D01*
X258307Y32344D02*
Y33676D01*
X258973Y34343D01*
X259640Y33676D01*
Y32344D01*
Y33343D01*
X258307D01*
X260807Y37344D02*
Y38677D01*
X261473Y39343D01*
X262140Y38677D01*
Y37344D01*
Y38343D01*
X260807D01*
Y57344D02*
Y58676D01*
X261473Y59343D01*
X262140Y58676D01*
Y57344D01*
Y58343D01*
X260807D01*
Y87344D02*
Y88677D01*
X261473Y89343D01*
X262140Y88677D01*
Y87344D01*
Y88343D01*
X260807D01*
X258307Y102344D02*
Y103676D01*
X258973Y104343D01*
X259640Y103676D01*
Y102344D01*
Y103343D01*
X258307D01*
X263307Y2344D02*
Y3677D01*
X263973Y4343D01*
X264640Y3677D01*
Y2344D01*
Y3343D01*
X263307D01*
X265807Y7344D02*
Y8676D01*
X266473Y9343D01*
X267140Y8676D01*
Y7344D01*
Y8343D01*
X265807D01*
X263307Y12344D02*
Y13677D01*
X263973Y14343D01*
X264640Y13677D01*
Y12344D01*
Y13343D01*
X263307D01*
X265807Y17344D02*
Y18677D01*
X266473Y19343D01*
X267140Y18677D01*
Y17344D01*
Y18343D01*
X265807D01*
X263307Y22344D02*
Y23676D01*
X263973Y24343D01*
X264640Y23676D01*
Y22344D01*
Y23343D01*
X263307D01*
X265807Y27344D02*
Y28677D01*
X266473Y29343D01*
X267140Y28677D01*
Y27344D01*
Y28343D01*
X265807D01*
X263307Y32344D02*
Y33676D01*
X263973Y34343D01*
X264640Y33676D01*
Y32344D01*
Y33343D01*
X263307D01*
X265807Y37344D02*
Y38677D01*
X266473Y39343D01*
X267140Y38677D01*
Y37344D01*
Y38343D01*
X265807D01*
Y47344D02*
Y48676D01*
X266473Y49343D01*
X267140Y48676D01*
Y47344D01*
Y48343D01*
X265807D01*
X263307Y52344D02*
Y53676D01*
X263973Y54343D01*
X264640Y53676D01*
Y52344D01*
Y53343D01*
X263307D01*
X265807Y57344D02*
Y58676D01*
X266473Y59343D01*
X267140Y58676D01*
Y57344D01*
Y58343D01*
X265807D01*
Y87344D02*
Y88677D01*
X266473Y89343D01*
X267140Y88677D01*
Y87344D01*
Y88343D01*
X265807D01*
X263307Y92344D02*
Y93677D01*
X263973Y94343D01*
X264640Y93677D01*
Y92344D01*
Y93343D01*
X263307D01*
X265807Y97344D02*
Y98677D01*
X266473Y99343D01*
X267140Y98677D01*
Y97344D01*
Y98343D01*
X265807D01*
X263307Y102344D02*
Y103676D01*
X263973Y104343D01*
X264640Y103676D01*
Y102344D01*
Y103343D01*
X263307D01*
X268307Y2344D02*
Y3677D01*
X268973Y4343D01*
X269640Y3677D01*
Y2344D01*
Y3343D01*
X268307D01*
X270807Y7344D02*
Y8676D01*
X271473Y9343D01*
X272140Y8676D01*
Y7344D01*
Y8343D01*
X270807D01*
X268307Y12344D02*
Y13677D01*
X268973Y14343D01*
X269640Y13677D01*
Y12344D01*
Y13343D01*
X268307D01*
X270807Y17344D02*
Y18677D01*
X271473Y19343D01*
X272140Y18677D01*
Y17344D01*
Y18343D01*
X270807D01*
X268307Y22344D02*
Y23676D01*
X268973Y24343D01*
X269640Y23676D01*
Y22344D01*
Y23343D01*
X268307D01*
X270807Y27344D02*
Y28677D01*
X271473Y29343D01*
X272140Y28677D01*
Y27344D01*
Y28343D01*
X270807D01*
X268307Y32344D02*
Y33676D01*
X268973Y34343D01*
X269640Y33676D01*
Y32344D01*
Y33343D01*
X268307D01*
X270807Y37344D02*
Y38677D01*
X271473Y39343D01*
X272140Y38677D01*
Y37344D01*
Y38343D01*
X270807D01*
X268307Y42344D02*
Y43676D01*
X268973Y44343D01*
X269640Y43676D01*
Y42344D01*
Y43343D01*
X268307D01*
X270807Y47344D02*
Y48676D01*
X271473Y49343D01*
X272140Y48676D01*
Y47344D01*
Y48343D01*
X270807D01*
X268307Y52344D02*
Y53676D01*
X268973Y54343D01*
X269640Y53676D01*
Y52344D01*
Y53343D01*
X268307D01*
X270807Y57344D02*
Y58676D01*
X271473Y59343D01*
X272140Y58676D01*
Y57344D01*
Y58343D01*
X270807D01*
Y87344D02*
Y88677D01*
X271473Y89343D01*
X272140Y88677D01*
Y87344D01*
Y88343D01*
X270807D01*
X268307Y92344D02*
Y93677D01*
X268973Y94343D01*
X269640Y93677D01*
Y92344D01*
Y93343D01*
X268307D01*
X270807Y97344D02*
Y98677D01*
X271473Y99343D01*
X272140Y98677D01*
Y97344D01*
Y98343D01*
X270807D01*
X268307Y102344D02*
Y103676D01*
X268973Y104343D01*
X269640Y103676D01*
Y102344D01*
Y103343D01*
X268307D01*
X273307Y2344D02*
Y3677D01*
X273973Y4343D01*
X274640Y3677D01*
Y2344D01*
Y3343D01*
X273307D01*
X275807Y7344D02*
Y8676D01*
X276473Y9343D01*
X277140Y8676D01*
Y7344D01*
Y8343D01*
X275807D01*
X273307Y12344D02*
Y13677D01*
X273973Y14343D01*
X274640Y13677D01*
Y12344D01*
Y13343D01*
X273307D01*
X275807Y17344D02*
Y18677D01*
X276473Y19343D01*
X277140Y18677D01*
Y17344D01*
Y18343D01*
X275807D01*
X273307Y22344D02*
Y23676D01*
X273973Y24343D01*
X274640Y23676D01*
Y22344D01*
Y23343D01*
X273307D01*
X275807Y27344D02*
Y28677D01*
X276473Y29343D01*
X277140Y28677D01*
Y27344D01*
Y28343D01*
X275807D01*
X273307Y32344D02*
Y33676D01*
X273973Y34343D01*
X274640Y33676D01*
Y32344D01*
Y33343D01*
X273307D01*
X275807Y37344D02*
Y38677D01*
X276473Y39343D01*
X277140Y38677D01*
Y37344D01*
Y38343D01*
X275807D01*
X273307Y42344D02*
Y43676D01*
X273973Y44343D01*
X274640Y43676D01*
Y42344D01*
Y43343D01*
X273307D01*
X275807Y47344D02*
Y48676D01*
X276473Y49343D01*
X277140Y48676D01*
Y47344D01*
Y48343D01*
X275807D01*
X273307Y52344D02*
Y53676D01*
X273973Y54343D01*
X274640Y53676D01*
Y52344D01*
Y53343D01*
X273307D01*
X275807Y57344D02*
Y58676D01*
X276473Y59343D01*
X277140Y58676D01*
Y57344D01*
Y58343D01*
X275807D01*
Y87344D02*
Y88677D01*
X276473Y89343D01*
X277140Y88677D01*
Y87344D01*
Y88343D01*
X275807D01*
X273307Y92344D02*
Y93677D01*
X273973Y94343D01*
X274640Y93677D01*
Y92344D01*
Y93343D01*
X273307D01*
X275807Y97344D02*
Y98677D01*
X276473Y99343D01*
X277140Y98677D01*
Y97344D01*
Y98343D01*
X275807D01*
X273307Y102344D02*
Y103676D01*
X273973Y104343D01*
X274640Y103676D01*
Y102344D01*
Y103343D01*
X273307D01*
X278307Y2344D02*
Y3677D01*
X278973Y4343D01*
X279640Y3677D01*
Y2344D01*
Y3343D01*
X278307D01*
X280807Y7344D02*
Y8676D01*
X281473Y9343D01*
X282140Y8676D01*
Y7344D01*
Y8343D01*
X280807D01*
X278307Y12344D02*
Y13677D01*
X278973Y14343D01*
X279640Y13677D01*
Y12344D01*
Y13343D01*
X278307D01*
X280807Y17344D02*
Y18677D01*
X281473Y19343D01*
X282140Y18677D01*
Y17344D01*
Y18343D01*
X280807D01*
X278307Y22344D02*
Y23676D01*
X278973Y24343D01*
X279640Y23676D01*
Y22344D01*
Y23343D01*
X278307D01*
X280807Y27344D02*
Y28677D01*
X281473Y29343D01*
X282140Y28677D01*
Y27344D01*
Y28343D01*
X280807D01*
X278307Y32344D02*
Y33676D01*
X278973Y34343D01*
X279640Y33676D01*
Y32344D01*
Y33343D01*
X278307D01*
X280807Y37344D02*
Y38677D01*
X281473Y39343D01*
X282140Y38677D01*
Y37344D01*
Y38343D01*
X280807D01*
X278307Y42344D02*
Y43676D01*
X278973Y44343D01*
X279640Y43676D01*
Y42344D01*
Y43343D01*
X278307D01*
X280807Y47344D02*
Y48676D01*
X281473Y49343D01*
X282140Y48676D01*
Y47344D01*
Y48343D01*
X280807D01*
X278307Y52344D02*
Y53676D01*
X278973Y54343D01*
X279640Y53676D01*
Y52344D01*
Y53343D01*
X278307D01*
X280807Y57344D02*
Y58676D01*
X281473Y59343D01*
X282140Y58676D01*
Y57344D01*
Y58343D01*
X280807D01*
Y87344D02*
Y88677D01*
X281473Y89343D01*
X282140Y88677D01*
Y87344D01*
Y88343D01*
X280807D01*
X278307Y92344D02*
Y93677D01*
X278973Y94343D01*
X279640Y93677D01*
Y92344D01*
Y93343D01*
X278307D01*
X280807Y97344D02*
Y98677D01*
X281473Y99343D01*
X282140Y98677D01*
Y97344D01*
Y98343D01*
X280807D01*
X278307Y102344D02*
Y103676D01*
X278973Y104343D01*
X279640Y103676D01*
Y102344D01*
Y103343D01*
X278307D01*
X283307Y2344D02*
Y3677D01*
X283973Y4343D01*
X284640Y3677D01*
Y2344D01*
Y3343D01*
X283307D01*
X285807Y7344D02*
Y8676D01*
X286473Y9343D01*
X287140Y8676D01*
Y7344D01*
Y8343D01*
X285807D01*
X283307Y12344D02*
Y13677D01*
X283973Y14343D01*
X284640Y13677D01*
Y12344D01*
Y13343D01*
X283307D01*
X285807Y17344D02*
Y18677D01*
X286473Y19343D01*
X287140Y18677D01*
Y17344D01*
Y18343D01*
X285807D01*
X283307Y22344D02*
Y23676D01*
X283973Y24343D01*
X284640Y23676D01*
Y22344D01*
Y23343D01*
X283307D01*
X285807Y27344D02*
Y28677D01*
X286473Y29343D01*
X287140Y28677D01*
Y27344D01*
Y28343D01*
X285807D01*
X283307Y32344D02*
Y33676D01*
X283973Y34343D01*
X284640Y33676D01*
Y32344D01*
Y33343D01*
X283307D01*
X285807Y37344D02*
Y38677D01*
X286473Y39343D01*
X287140Y38677D01*
Y37344D01*
Y38343D01*
X285807D01*
X283307Y42344D02*
Y43676D01*
X283973Y44343D01*
X284640Y43676D01*
Y42344D01*
Y43343D01*
X283307D01*
X285807Y47344D02*
Y48676D01*
X286473Y49343D01*
X287140Y48676D01*
Y47344D01*
Y48343D01*
X285807D01*
X283307Y52344D02*
Y53676D01*
X283973Y54343D01*
X284640Y53676D01*
Y52344D01*
Y53343D01*
X283307D01*
X285807Y57344D02*
Y58676D01*
X286473Y59343D01*
X287140Y58676D01*
Y57344D01*
Y58343D01*
X285807D01*
Y87344D02*
Y88677D01*
X286473Y89343D01*
X287140Y88677D01*
Y87344D01*
Y88343D01*
X285807D01*
X283307Y92344D02*
Y93677D01*
X283973Y94343D01*
X284640Y93677D01*
Y92344D01*
Y93343D01*
X283307D01*
Y102344D02*
Y103676D01*
X283973Y104343D01*
X284640Y103676D01*
Y102344D01*
Y103343D01*
X283307D01*
X288307Y2344D02*
Y3677D01*
X288973Y4343D01*
X289640Y3677D01*
Y2344D01*
Y3343D01*
X288307D01*
X290807Y7344D02*
Y8676D01*
X291473Y9343D01*
X292140Y8676D01*
Y7344D01*
Y8343D01*
X290807D01*
X288307Y12344D02*
Y13677D01*
X288973Y14343D01*
X289640Y13677D01*
Y12344D01*
Y13343D01*
X288307D01*
X290807Y17344D02*
Y18677D01*
X291473Y19343D01*
X292140Y18677D01*
Y17344D01*
Y18343D01*
X290807D01*
X288307Y22344D02*
Y23676D01*
X288973Y24343D01*
X289640Y23676D01*
Y22344D01*
Y23343D01*
X288307D01*
X290807Y27344D02*
Y28677D01*
X291473Y29343D01*
X292140Y28677D01*
Y27344D01*
Y28343D01*
X290807D01*
X288307Y32344D02*
Y33676D01*
X288973Y34343D01*
X289640Y33676D01*
Y32344D01*
Y33343D01*
X288307D01*
X290807Y37344D02*
Y38677D01*
X291473Y39343D01*
X292140Y38677D01*
Y37344D01*
Y38343D01*
X290807D01*
X288307Y42344D02*
Y43676D01*
X288973Y44343D01*
X289640Y43676D01*
Y42344D01*
Y43343D01*
X288307D01*
X290807Y47344D02*
Y48676D01*
X291473Y49343D01*
X292140Y48676D01*
Y47344D01*
Y48343D01*
X290807D01*
X288307Y52344D02*
Y53676D01*
X288973Y54343D01*
X289640Y53676D01*
Y52344D01*
Y53343D01*
X288307D01*
X290807Y57344D02*
Y58676D01*
X291473Y59343D01*
X292140Y58676D01*
Y57344D01*
Y58343D01*
X290807D01*
Y87344D02*
Y88677D01*
X291473Y89343D01*
X292140Y88677D01*
Y87344D01*
Y88343D01*
X290807D01*
X293307Y2344D02*
Y3677D01*
X293973Y4343D01*
X294640Y3677D01*
Y2344D01*
Y3343D01*
X293307D01*
X295807Y7344D02*
Y8676D01*
X296473Y9343D01*
X297140Y8676D01*
Y7344D01*
Y8343D01*
X295807D01*
X293307Y12344D02*
Y13677D01*
X293973Y14343D01*
X294640Y13677D01*
Y12344D01*
Y13343D01*
X293307D01*
X295807Y17344D02*
Y18677D01*
X296473Y19343D01*
X297140Y18677D01*
Y17344D01*
Y18343D01*
X295807D01*
X293307Y22344D02*
Y23676D01*
X293973Y24343D01*
X294640Y23676D01*
Y22344D01*
Y23343D01*
X293307D01*
X295807Y27344D02*
Y28677D01*
X296473Y29343D01*
X297140Y28677D01*
Y27344D01*
Y28343D01*
X295807D01*
X293307Y32344D02*
Y33676D01*
X293973Y34343D01*
X294640Y33676D01*
Y32344D01*
Y33343D01*
X293307D01*
X295807Y37344D02*
Y38677D01*
X296473Y39343D01*
X297140Y38677D01*
Y37344D01*
Y38343D01*
X295807D01*
X293307Y42344D02*
Y43676D01*
X293973Y44343D01*
X294640Y43676D01*
Y42344D01*
Y43343D01*
X293307D01*
X295807Y47344D02*
Y48676D01*
X296473Y49343D01*
X297140Y48676D01*
Y47344D01*
Y48343D01*
X295807D01*
X293307Y52344D02*
Y53676D01*
X293973Y54343D01*
X294640Y53676D01*
Y52344D01*
Y53343D01*
X293307D01*
X295807Y87344D02*
Y88677D01*
X296473Y89343D01*
X297140Y88677D01*
Y87344D01*
Y88343D01*
X295807D01*
X293307Y92344D02*
Y93677D01*
X293973Y94343D01*
X294640Y93677D01*
Y92344D01*
Y93343D01*
X293307D01*
X295807Y97344D02*
Y98677D01*
X296473Y99343D01*
X297140Y98677D01*
Y97344D01*
Y98343D01*
X295807D01*
X293307Y102344D02*
Y103676D01*
X293973Y104343D01*
X294640Y103676D01*
Y102344D01*
Y103343D01*
X293307D01*
X298307Y2344D02*
Y3677D01*
X298973Y4343D01*
X299640Y3677D01*
Y2344D01*
Y3343D01*
X298307D01*
X300807Y7344D02*
Y8676D01*
X301473Y9343D01*
X302140Y8676D01*
Y7344D01*
Y8343D01*
X300807D01*
X298307Y12344D02*
Y13677D01*
X298973Y14343D01*
X299640Y13677D01*
Y12344D01*
Y13343D01*
X298307D01*
X300807Y17344D02*
Y18677D01*
X301473Y19343D01*
X302140Y18677D01*
Y17344D01*
Y18343D01*
X300807D01*
X298307Y22344D02*
Y23676D01*
X298973Y24343D01*
X299640Y23676D01*
Y22344D01*
Y23343D01*
X298307D01*
X300807Y27344D02*
Y28677D01*
X301473Y29343D01*
X302140Y28677D01*
Y27344D01*
Y28343D01*
X300807D01*
X298307Y32344D02*
Y33676D01*
X298973Y34343D01*
X299640Y33676D01*
Y32344D01*
Y33343D01*
X298307D01*
X300807Y37344D02*
Y38677D01*
X301473Y39343D01*
X302140Y38677D01*
Y37344D01*
Y38343D01*
X300807D01*
X298307Y42344D02*
Y43676D01*
X298973Y44343D01*
X299640Y43676D01*
Y42344D01*
Y43343D01*
X298307D01*
X300807Y47344D02*
Y48676D01*
X301473Y49343D01*
X302140Y48676D01*
Y47344D01*
Y48343D01*
X300807D01*
X298307Y52344D02*
Y53676D01*
X298973Y54343D01*
X299640Y53676D01*
Y52344D01*
Y53343D01*
X298307D01*
X300807Y87344D02*
Y88677D01*
X301473Y89343D01*
X302140Y88677D01*
Y87344D01*
Y88343D01*
X300807D01*
X298307Y92344D02*
Y93677D01*
X298973Y94343D01*
X299640Y93677D01*
Y92344D01*
Y93343D01*
X298307D01*
X300807Y97344D02*
Y98677D01*
X301473Y99343D01*
X302140Y98677D01*
Y97344D01*
Y98343D01*
X300807D01*
X298307Y102344D02*
Y103676D01*
X298973Y104343D01*
X299640Y103676D01*
Y102344D01*
Y103343D01*
X298307D01*
X303307Y2344D02*
Y3677D01*
X303973Y4343D01*
X304640Y3677D01*
Y2344D01*
Y3343D01*
X303307D01*
X305807Y7344D02*
Y8676D01*
X306473Y9343D01*
X307140Y8676D01*
Y7344D01*
Y8343D01*
X305807D01*
X303307Y12344D02*
Y13677D01*
X303973Y14343D01*
X304640Y13677D01*
Y12344D01*
Y13343D01*
X303307D01*
X305807Y17344D02*
Y18677D01*
X306473Y19343D01*
X307140Y18677D01*
Y17344D01*
Y18343D01*
X305807D01*
X303307Y22344D02*
Y23676D01*
X303973Y24343D01*
X304640Y23676D01*
Y22344D01*
Y23343D01*
X303307D01*
X305807Y27344D02*
Y28677D01*
X306473Y29343D01*
X307140Y28677D01*
Y27344D01*
Y28343D01*
X305807D01*
X303307Y32344D02*
Y33676D01*
X303973Y34343D01*
X304640Y33676D01*
Y32344D01*
Y33343D01*
X303307D01*
X305807Y37344D02*
Y38677D01*
X306473Y39343D01*
X307140Y38677D01*
Y37344D01*
Y38343D01*
X305807D01*
X303307Y42344D02*
Y43676D01*
X303973Y44343D01*
X304640Y43676D01*
Y42344D01*
Y43343D01*
X303307D01*
X305807Y47344D02*
Y48676D01*
X306473Y49343D01*
X307140Y48676D01*
Y47344D01*
Y48343D01*
X305807D01*
X303307Y52344D02*
Y53676D01*
X303973Y54343D01*
X304640Y53676D01*
Y52344D01*
Y53343D01*
X303307D01*
X305807Y87344D02*
Y88677D01*
X306473Y89343D01*
X307140Y88677D01*
Y87344D01*
Y88343D01*
X305807D01*
X303307Y92344D02*
Y93677D01*
X303973Y94343D01*
X304640Y93677D01*
Y92344D01*
Y93343D01*
X303307D01*
X305807Y97344D02*
Y98677D01*
X306473Y99343D01*
X307140Y98677D01*
Y97344D01*
Y98343D01*
X305807D01*
X303307Y102344D02*
Y103676D01*
X303973Y104343D01*
X304640Y103676D01*
Y102344D01*
Y103343D01*
X303307D01*
X305807Y107344D02*
Y108677D01*
X306473Y109343D01*
X307140Y108677D01*
Y107344D01*
Y108343D01*
X305807D01*
Y117344D02*
Y118676D01*
X306473Y119343D01*
X307140Y118676D01*
Y117344D01*
Y118343D01*
X305807D01*
Y127344D02*
Y128676D01*
X306473Y129343D01*
X307140Y128676D01*
Y127344D01*
Y128343D01*
X305807D01*
Y137344D02*
Y138677D01*
X306473Y139343D01*
X307140Y138677D01*
Y137344D01*
Y138343D01*
X305807D01*
Y147344D02*
Y148677D01*
X306473Y149343D01*
X307140Y148677D01*
Y147344D01*
Y148343D01*
X305807D01*
X308307Y2344D02*
Y3677D01*
X308973Y4343D01*
X309640Y3677D01*
Y2344D01*
Y3343D01*
X308307D01*
X310807Y7344D02*
Y8676D01*
X311473Y9343D01*
X312140Y8676D01*
Y7344D01*
Y8343D01*
X310807D01*
X308307Y12344D02*
Y13677D01*
X308973Y14343D01*
X309640Y13677D01*
Y12344D01*
Y13343D01*
X308307D01*
X310807Y17344D02*
Y18677D01*
X311473Y19343D01*
X312140Y18677D01*
Y17344D01*
Y18343D01*
X310807D01*
X308307Y22344D02*
Y23676D01*
X308973Y24343D01*
X309640Y23676D01*
Y22344D01*
Y23343D01*
X308307D01*
X310807Y27344D02*
Y28677D01*
X311473Y29343D01*
X312140Y28677D01*
Y27344D01*
Y28343D01*
X310807D01*
X308307Y32344D02*
Y33676D01*
X308973Y34343D01*
X309640Y33676D01*
Y32344D01*
Y33343D01*
X308307D01*
X310807Y37344D02*
Y38677D01*
X311473Y39343D01*
X312140Y38677D01*
Y37344D01*
Y38343D01*
X310807D01*
X308307Y42344D02*
Y43676D01*
X308973Y44343D01*
X309640Y43676D01*
Y42344D01*
Y43343D01*
X308307D01*
X310807Y47344D02*
Y48676D01*
X311473Y49343D01*
X312140Y48676D01*
Y47344D01*
Y48343D01*
X310807D01*
X308307Y52344D02*
Y53676D01*
X308973Y54343D01*
X309640Y53676D01*
Y52344D01*
Y53343D01*
X308307D01*
X310807Y87344D02*
Y88677D01*
X311473Y89343D01*
X312140Y88677D01*
Y87344D01*
Y88343D01*
X310807D01*
X308307Y92344D02*
Y93677D01*
X308973Y94343D01*
X309640Y93677D01*
Y92344D01*
Y93343D01*
X308307D01*
X310807Y97344D02*
Y98677D01*
X311473Y99343D01*
X312140Y98677D01*
Y97344D01*
Y98343D01*
X310807D01*
X308307Y102344D02*
Y103676D01*
X308973Y104343D01*
X309640Y103676D01*
Y102344D01*
Y103343D01*
X308307D01*
X310807Y107344D02*
Y108677D01*
X311473Y109343D01*
X312140Y108677D01*
Y107344D01*
Y108343D01*
X310807D01*
X308307Y112344D02*
Y113677D01*
X308973Y114343D01*
X309640Y113677D01*
Y112344D01*
Y113343D01*
X308307D01*
X310807Y117344D02*
Y118676D01*
X311473Y119343D01*
X312140Y118676D01*
Y117344D01*
Y118343D01*
X310807D01*
X308307Y122344D02*
Y123677D01*
X308973Y124343D01*
X309640Y123677D01*
Y122344D01*
Y123343D01*
X308307D01*
X310807Y127344D02*
Y128676D01*
X311473Y129343D01*
X312140Y128676D01*
Y127344D01*
Y128343D01*
X310807D01*
X308307Y132344D02*
Y133677D01*
X308973Y134343D01*
X309640Y133677D01*
Y132344D01*
Y133343D01*
X308307D01*
X310807Y137344D02*
Y138677D01*
X311473Y139343D01*
X312140Y138677D01*
Y137344D01*
Y138343D01*
X310807D01*
X308307Y142344D02*
Y143676D01*
X308973Y144343D01*
X309640Y143676D01*
Y142344D01*
Y143343D01*
X308307D01*
X310807Y147344D02*
Y148677D01*
X311473Y149343D01*
X312140Y148677D01*
Y147344D01*
Y148343D01*
X310807D01*
X313307Y2344D02*
Y3677D01*
X313973Y4343D01*
X314640Y3677D01*
Y2344D01*
Y3343D01*
X313307D01*
X315807Y7344D02*
Y8676D01*
X316473Y9343D01*
X317140Y8676D01*
Y7344D01*
Y8343D01*
X315807D01*
X313307Y12344D02*
Y13677D01*
X313973Y14343D01*
X314640Y13677D01*
Y12344D01*
Y13343D01*
X313307D01*
X315807Y17344D02*
Y18677D01*
X316473Y19343D01*
X317140Y18677D01*
Y17344D01*
Y18343D01*
X315807D01*
X313307Y22344D02*
Y23676D01*
X313973Y24343D01*
X314640Y23676D01*
Y22344D01*
Y23343D01*
X313307D01*
X315807Y27344D02*
Y28677D01*
X316473Y29343D01*
X317140Y28677D01*
Y27344D01*
Y28343D01*
X315807D01*
X313307Y32344D02*
Y33676D01*
X313973Y34343D01*
X314640Y33676D01*
Y32344D01*
Y33343D01*
X313307D01*
X315807Y37344D02*
Y38677D01*
X316473Y39343D01*
X317140Y38677D01*
Y37344D01*
Y38343D01*
X315807D01*
X313307Y42344D02*
Y43676D01*
X313973Y44343D01*
X314640Y43676D01*
Y42344D01*
Y43343D01*
X313307D01*
X315807Y47344D02*
Y48676D01*
X316473Y49343D01*
X317140Y48676D01*
Y47344D01*
Y48343D01*
X315807D01*
X313307Y52344D02*
Y53676D01*
X313973Y54343D01*
X314640Y53676D01*
Y52344D01*
Y53343D01*
X313307D01*
X315807Y87344D02*
Y88677D01*
X316473Y89343D01*
X317140Y88677D01*
Y87344D01*
Y88343D01*
X315807D01*
X313307Y92344D02*
Y93677D01*
X313973Y94343D01*
X314640Y93677D01*
Y92344D01*
Y93343D01*
X313307D01*
X315807Y97344D02*
Y98677D01*
X316473Y99343D01*
X317140Y98677D01*
Y97344D01*
Y98343D01*
X315807D01*
X313307Y102344D02*
Y103676D01*
X313973Y104343D01*
X314640Y103676D01*
Y102344D01*
Y103343D01*
X313307D01*
X315807Y107344D02*
Y108677D01*
X316473Y109343D01*
X317140Y108677D01*
Y107344D01*
Y108343D01*
X315807D01*
X313307Y112344D02*
Y113677D01*
X313973Y114343D01*
X314640Y113677D01*
Y112344D01*
Y113343D01*
X313307D01*
X315807Y117344D02*
Y118676D01*
X316473Y119343D01*
X317140Y118676D01*
Y117344D01*
Y118343D01*
X315807D01*
X313307Y122344D02*
Y123677D01*
X313973Y124343D01*
X314640Y123677D01*
Y122344D01*
Y123343D01*
X313307D01*
X315807Y127344D02*
Y128676D01*
X316473Y129343D01*
X317140Y128676D01*
Y127344D01*
Y128343D01*
X315807D01*
X313307Y132344D02*
Y133677D01*
X313973Y134343D01*
X314640Y133677D01*
Y132344D01*
Y133343D01*
X313307D01*
X315807Y137344D02*
Y138677D01*
X316473Y139343D01*
X317140Y138677D01*
Y137344D01*
Y138343D01*
X315807D01*
X313307Y142344D02*
Y143676D01*
X313973Y144343D01*
X314640Y143676D01*
Y142344D01*
Y143343D01*
X313307D01*
X315807Y147344D02*
Y148677D01*
X316473Y149343D01*
X317140Y148677D01*
Y147344D01*
Y148343D01*
X315807D01*
X318307Y2344D02*
Y3677D01*
X318973Y4343D01*
X319640Y3677D01*
Y2344D01*
Y3343D01*
X318307D01*
Y12344D02*
Y13677D01*
X318973Y14343D01*
X319640Y13677D01*
Y12344D01*
Y13343D01*
X318307D01*
Y22344D02*
Y23676D01*
X318973Y24343D01*
X319640Y23676D01*
Y22344D01*
Y23343D01*
X318307D01*
Y32344D02*
Y33676D01*
X318973Y34343D01*
X319640Y33676D01*
Y32344D01*
Y33343D01*
X318307D01*
Y42344D02*
Y43676D01*
X318973Y44343D01*
X319640Y43676D01*
Y42344D01*
Y43343D01*
X318307D01*
Y52344D02*
Y53676D01*
X318973Y54343D01*
X319640Y53676D01*
Y52344D01*
Y53343D01*
X318307D01*
Y92344D02*
Y93677D01*
X318973Y94343D01*
X319640Y93677D01*
Y92344D01*
Y93343D01*
X318307D01*
Y102344D02*
Y103676D01*
X318973Y104343D01*
X319640Y103676D01*
Y102344D01*
Y103343D01*
X318307D01*
Y112344D02*
Y113677D01*
X318973Y114343D01*
X319640Y113677D01*
Y112344D01*
Y113343D01*
X318307D01*
Y122344D02*
Y123677D01*
X318973Y124343D01*
X319640Y123677D01*
Y122344D01*
Y123343D01*
X318307D01*
Y132344D02*
Y133677D01*
X318973Y134343D01*
X319640Y133677D01*
Y132344D01*
Y133343D01*
X318307D01*
Y142344D02*
Y143676D01*
X318973Y144343D01*
X319640Y143676D01*
Y142344D01*
Y143343D01*
X318307D01*
X158931Y131372D02*
X158598Y131705D01*
X157931D01*
X157598Y131372D01*
Y130039D01*
X157931Y129706D01*
X158598D01*
X158931Y130039D01*
X182947Y131372D02*
X182614Y131705D01*
X181947D01*
X181614Y131372D01*
Y130039D01*
X181947Y129706D01*
X182614D01*
X182947Y130039D01*
Y13262D02*
X182614Y13595D01*
X181947D01*
X181614Y13262D01*
Y11929D01*
X181947Y11596D01*
X182614D01*
X182947Y11929D01*
X158931Y13262D02*
X158598Y13595D01*
X157931D01*
X157598Y13262D01*
Y11929D01*
X157931Y11596D01*
X158598D01*
X158931Y11929D01*
M02*
