G04*
G04 #@! TF.GenerationSoftware,Altium Limited,Altium Designer,22.0.2 (36)*
G04*
G04 Layer_Color=255*
%FSLAX25Y25*%
%MOIN*%
G70*
G04*
G04 #@! TF.SameCoordinates,04F3E7EA-1EC6-48BA-AAB6-D1FA50B40766*
G04*
G04*
G04 #@! TF.FilePolarity,Positive*
G04*
G01*
G75*
%ADD18R,0.06000X0.11000*%
%ADD19R,0.23000X0.24500*%
%ADD20R,0.05000X0.03500*%
%ADD21R,0.06299X0.05118*%
%ADD22R,0.06299X0.07874*%
%ADD23R,0.03000X0.03000*%
%ADD24R,0.23228X0.59055*%
%ADD25R,0.15748X0.07874*%
%ADD26R,0.15748X0.05906*%
%ADD27O,0.05118X0.14961*%
%ADD28R,0.05118X0.14961*%
%ADD29R,0.03000X0.03000*%
%ADD82C,0.12598*%
D18*
X34155Y108889D02*
D03*
X51955Y108789D02*
D03*
D19*
X43110Y137402D02*
D03*
D20*
X24212Y119095D02*
D03*
Y126575D02*
D03*
X70767Y119059D02*
D03*
Y126540D02*
D03*
X61614Y119095D02*
D03*
Y126575D02*
D03*
X92166Y108071D02*
D03*
Y100590D02*
D03*
X237795Y134449D02*
D03*
Y141929D02*
D03*
X230795Y134449D02*
D03*
Y141929D02*
D03*
D21*
X80866Y127874D02*
D03*
Y118032D02*
D03*
D22*
X92283Y122953D02*
D03*
D23*
X92126Y78346D02*
D03*
Y73228D02*
D03*
X112795Y78347D02*
D03*
Y73228D02*
D03*
D24*
X182480Y71850D02*
D03*
X158465D02*
D03*
D25*
X8465Y82480D02*
D03*
Y61221D02*
D03*
X312434D02*
D03*
Y82480D02*
D03*
D26*
X8465Y71850D02*
D03*
X312434D02*
D03*
D27*
X288976Y100000D02*
D03*
D28*
Y139370D02*
D03*
D29*
X25393Y71850D02*
D03*
X20275D02*
D03*
D82*
X158465Y12795D02*
D03*
X182480D02*
D03*
Y130905D02*
D03*
X158465D02*
D03*
M02*
