G04*
G04 #@! TF.GenerationSoftware,Altium Limited,Altium Designer,22.0.2 (36)*
G04*
G04 Layer_Color=65535*
%FSLAX25Y25*%
%MOIN*%
G70*
G04*
G04 #@! TF.SameCoordinates,04F3E7EA-1EC6-48BA-AAB6-D1FA50B40766*
G04*
G04*
G04 #@! TF.FilePolarity,Positive*
G04*
G01*
G75*
%ADD10C,0.01968*%
%ADD11C,0.00787*%
%ADD12C,0.01000*%
%ADD13C,0.00800*%
%ADD14C,0.00600*%
%ADD15C,0.00394*%
%ADD16C,0.01500*%
%ADD17C,0.00492*%
G36*
X30055Y42520D02*
X29190D01*
X25892Y47466D01*
Y42520D01*
X25090D01*
Y48824D01*
X25947D01*
X29254Y43868D01*
Y48824D01*
X30055D01*
Y42520D01*
D02*
G37*
G36*
X23624D02*
X22785D01*
Y48824D01*
X23624D01*
Y42520D01*
D02*
G37*
G36*
X19114Y48077D02*
X15689D01*
Y46127D01*
X18650D01*
Y45380D01*
X15689D01*
Y42520D01*
X14851D01*
Y48824D01*
X19114D01*
Y48077D01*
D02*
G37*
G36*
X11462Y48815D02*
X11544D01*
X11735Y48806D01*
X11936Y48778D01*
X12154Y48751D01*
X12354Y48705D01*
X12455Y48678D01*
X12537Y48651D01*
X12546D01*
X12555Y48642D01*
X12610Y48614D01*
X12692Y48578D01*
X12792Y48514D01*
X12901Y48432D01*
X13020Y48323D01*
X13129Y48195D01*
X13238Y48050D01*
Y48040D01*
X13247Y48031D01*
X13284Y47977D01*
X13320Y47886D01*
X13375Y47767D01*
X13420Y47630D01*
X13466Y47466D01*
X13493Y47293D01*
X13502Y47102D01*
Y47093D01*
Y47075D01*
Y47038D01*
X13493Y46993D01*
Y46929D01*
X13484Y46865D01*
X13448Y46710D01*
X13393Y46528D01*
X13320Y46337D01*
X13211Y46145D01*
X13138Y46054D01*
X13065Y45963D01*
X13056Y45954D01*
X13047Y45945D01*
X13020Y45918D01*
X12983Y45890D01*
X12938Y45854D01*
X12883Y45818D01*
X12810Y45772D01*
X12737Y45717D01*
X12646Y45672D01*
X12546Y45626D01*
X12437Y45572D01*
X12318Y45526D01*
X12181Y45489D01*
X12045Y45444D01*
X11890Y45417D01*
X11726Y45389D01*
X11744Y45380D01*
X11781Y45362D01*
X11835Y45326D01*
X11908Y45289D01*
X12072Y45189D01*
X12154Y45125D01*
X12227Y45070D01*
X12245Y45052D01*
X12291Y45007D01*
X12364Y44934D01*
X12455Y44843D01*
X12555Y44715D01*
X12673Y44578D01*
X12792Y44415D01*
X12919Y44232D01*
X14003Y42520D01*
X12965D01*
X12136Y43832D01*
Y43841D01*
X12118Y43859D01*
X12100Y43886D01*
X12072Y43923D01*
X12008Y44023D01*
X11926Y44150D01*
X11826Y44287D01*
X11726Y44433D01*
X11626Y44569D01*
X11535Y44697D01*
X11525Y44706D01*
X11498Y44743D01*
X11453Y44797D01*
X11389Y44861D01*
X11252Y44998D01*
X11179Y45061D01*
X11107Y45116D01*
X11097Y45125D01*
X11079Y45134D01*
X11043Y45153D01*
X10988Y45180D01*
X10933Y45207D01*
X10870Y45235D01*
X10724Y45280D01*
X10715D01*
X10696Y45289D01*
X10660D01*
X10615Y45298D01*
X10551Y45307D01*
X10478D01*
X10378Y45316D01*
X9303D01*
Y42520D01*
X8465D01*
Y48824D01*
X11389D01*
X11462Y48815D01*
D02*
G37*
G36*
X15914Y29921D02*
X15040D01*
X12598Y36225D01*
X13509D01*
X15149Y31643D01*
Y31634D01*
X15158Y31616D01*
X15167Y31588D01*
X15186Y31552D01*
X15195Y31497D01*
X15213Y31443D01*
X15258Y31306D01*
X15313Y31151D01*
X15368Y30978D01*
X15477Y30614D01*
Y30623D01*
X15486Y30641D01*
X15495Y30668D01*
X15505Y30705D01*
X15532Y30805D01*
X15577Y30942D01*
X15623Y31096D01*
X15678Y31269D01*
X15741Y31452D01*
X15814Y31643D01*
X17527Y36225D01*
X18374D01*
X15914Y29921D01*
D02*
G37*
G36*
X43764Y29921D02*
X42989D01*
Y34850D01*
X42980Y34841D01*
X42935Y34804D01*
X42880Y34750D01*
X42789Y34686D01*
X42689Y34604D01*
X42561Y34513D01*
X42415Y34413D01*
X42252Y34312D01*
X42242D01*
X42233Y34303D01*
X42179Y34267D01*
X42088Y34221D01*
X41978Y34166D01*
X41851Y34103D01*
X41714Y34039D01*
X41577Y33975D01*
X41441Y33920D01*
Y34668D01*
X41450D01*
X41468Y34686D01*
X41504Y34695D01*
X41550Y34722D01*
X41605Y34750D01*
X41668Y34786D01*
X41823Y34877D01*
X42006Y34977D01*
X42188Y35105D01*
X42379Y35251D01*
X42570Y35405D01*
X42579Y35415D01*
X42588Y35424D01*
X42616Y35451D01*
X42652Y35478D01*
X42734Y35570D01*
X42844Y35679D01*
X42953Y35806D01*
X43071Y35952D01*
X43172Y36098D01*
X43263Y36253D01*
X43764D01*
Y29921D01*
D02*
G37*
G36*
X39719Y29921D02*
X38835D01*
Y30805D01*
X39719D01*
Y29921D01*
D02*
G37*
G36*
X35738Y36244D02*
X35811Y36235D01*
X35902Y36225D01*
X36002Y36207D01*
X36102Y36189D01*
X36339Y36125D01*
X36576Y36034D01*
X36694Y35979D01*
X36813Y35916D01*
X36922Y35834D01*
X37022Y35743D01*
X37031Y35733D01*
X37050Y35724D01*
X37068Y35688D01*
X37104Y35651D01*
X37150Y35606D01*
X37195Y35542D01*
X37241Y35478D01*
X37296Y35396D01*
X37387Y35223D01*
X37478Y35005D01*
X37514Y34895D01*
X37532Y34768D01*
X37551Y34640D01*
X37560Y34504D01*
Y34485D01*
Y34440D01*
X37551Y34367D01*
X37542Y34267D01*
X37523Y34157D01*
X37487Y34030D01*
X37451Y33893D01*
X37396Y33757D01*
X37387Y33738D01*
X37369Y33693D01*
X37332Y33620D01*
X37277Y33520D01*
X37205Y33410D01*
X37113Y33274D01*
X37004Y33137D01*
X36877Y32982D01*
X36858Y32964D01*
X36813Y32909D01*
X36767Y32864D01*
X36722Y32818D01*
X36667Y32764D01*
X36594Y32691D01*
X36521Y32618D01*
X36430Y32536D01*
X36339Y32445D01*
X36230Y32344D01*
X36111Y32244D01*
X35984Y32126D01*
X35838Y32007D01*
X35692Y31880D01*
X35683Y31871D01*
X35665Y31853D01*
X35629Y31825D01*
X35583Y31789D01*
X35528Y31734D01*
X35465Y31679D01*
X35319Y31561D01*
X35164Y31424D01*
X35018Y31288D01*
X34891Y31169D01*
X34836Y31124D01*
X34790Y31078D01*
X34781Y31069D01*
X34754Y31042D01*
X34718Y31005D01*
X34672Y30951D01*
X34626Y30887D01*
X34572Y30823D01*
X34462Y30668D01*
X37569D01*
Y29921D01*
X33387D01*
Y29930D01*
Y29967D01*
Y30022D01*
X33397Y30094D01*
X33406Y30176D01*
X33424Y30267D01*
X33442Y30358D01*
X33479Y30459D01*
Y30468D01*
X33488Y30477D01*
X33506Y30532D01*
X33542Y30614D01*
X33597Y30723D01*
X33670Y30850D01*
X33761Y30996D01*
X33861Y31142D01*
X33989Y31297D01*
Y31306D01*
X34007Y31315D01*
X34053Y31370D01*
X34135Y31452D01*
X34253Y31570D01*
X34389Y31707D01*
X34563Y31871D01*
X34772Y32053D01*
X35000Y32244D01*
X35009Y32253D01*
X35045Y32281D01*
X35100Y32326D01*
X35164Y32381D01*
X35246Y32454D01*
X35346Y32536D01*
X35446Y32627D01*
X35565Y32727D01*
X35792Y32946D01*
X36020Y33164D01*
X36130Y33274D01*
X36230Y33383D01*
X36321Y33483D01*
X36394Y33584D01*
Y33593D01*
X36412Y33602D01*
X36430Y33629D01*
X36448Y33665D01*
X36512Y33766D01*
X36585Y33884D01*
X36649Y34030D01*
X36713Y34185D01*
X36749Y34358D01*
X36767Y34522D01*
Y34531D01*
Y34540D01*
X36758Y34595D01*
X36749Y34686D01*
X36722Y34786D01*
X36685Y34914D01*
X36621Y35041D01*
X36540Y35169D01*
X36430Y35296D01*
X36412Y35314D01*
X36366Y35351D01*
X36303Y35396D01*
X36202Y35460D01*
X36075Y35515D01*
X35929Y35570D01*
X35756Y35606D01*
X35565Y35615D01*
X35510D01*
X35474Y35606D01*
X35364Y35597D01*
X35237Y35570D01*
X35100Y35533D01*
X34945Y35469D01*
X34800Y35387D01*
X34663Y35278D01*
X34645Y35260D01*
X34608Y35214D01*
X34554Y35141D01*
X34499Y35032D01*
X34435Y34904D01*
X34380Y34740D01*
X34344Y34558D01*
X34326Y34349D01*
X33533Y34431D01*
Y34440D01*
X33542Y34467D01*
Y34513D01*
X33551Y34576D01*
X33570Y34649D01*
X33588Y34731D01*
X33615Y34832D01*
X33643Y34932D01*
X33715Y35150D01*
X33825Y35369D01*
X33889Y35478D01*
X33970Y35588D01*
X34053Y35688D01*
X34144Y35779D01*
X34153Y35788D01*
X34171Y35797D01*
X34198Y35824D01*
X34244Y35852D01*
X34298Y35888D01*
X34362Y35925D01*
X34435Y35970D01*
X34526Y36016D01*
X34626Y36061D01*
X34736Y36107D01*
X34854Y36143D01*
X34982Y36180D01*
X35118Y36207D01*
X35264Y36235D01*
X35419Y36244D01*
X35583Y36253D01*
X35674D01*
X35738Y36244D01*
D02*
G37*
G36*
X28012Y36216D02*
X28095D01*
X28286Y36207D01*
X28486Y36180D01*
X28705Y36152D01*
X28905Y36107D01*
X29006Y36080D01*
X29087Y36052D01*
X29097D01*
X29106Y36043D01*
X29160Y36016D01*
X29242Y35979D01*
X29343Y35916D01*
X29452Y35834D01*
X29570Y35724D01*
X29680Y35597D01*
X29789Y35451D01*
Y35442D01*
X29798Y35433D01*
X29834Y35378D01*
X29871Y35287D01*
X29926Y35169D01*
X29971Y35032D01*
X30017Y34868D01*
X30044Y34695D01*
X30053Y34504D01*
Y34495D01*
Y34476D01*
Y34440D01*
X30044Y34394D01*
Y34330D01*
X30035Y34267D01*
X29998Y34112D01*
X29944Y33930D01*
X29871Y33738D01*
X29762Y33547D01*
X29689Y33456D01*
X29616Y33365D01*
X29607Y33356D01*
X29598Y33347D01*
X29570Y33319D01*
X29534Y33292D01*
X29488Y33255D01*
X29434Y33219D01*
X29361Y33173D01*
X29288Y33119D01*
X29197Y33073D01*
X29097Y33028D01*
X28987Y32973D01*
X28869Y32928D01*
X28732Y32891D01*
X28596Y32846D01*
X28441Y32818D01*
X28277Y32791D01*
X28295Y32782D01*
X28331Y32764D01*
X28386Y32727D01*
X28459Y32691D01*
X28623Y32590D01*
X28705Y32527D01*
X28778Y32472D01*
X28796Y32454D01*
X28842Y32408D01*
X28914Y32335D01*
X29006Y32244D01*
X29106Y32117D01*
X29224Y31980D01*
X29343Y31816D01*
X29470Y31634D01*
X30554Y29921D01*
X29516D01*
X28687Y31233D01*
Y31242D01*
X28668Y31260D01*
X28650Y31288D01*
X28623Y31324D01*
X28559Y31424D01*
X28477Y31552D01*
X28377Y31689D01*
X28277Y31834D01*
X28177Y31971D01*
X28085Y32098D01*
X28076Y32108D01*
X28049Y32144D01*
X28003Y32199D01*
X27940Y32263D01*
X27803Y32399D01*
X27730Y32463D01*
X27657Y32518D01*
X27648Y32527D01*
X27630Y32536D01*
X27593Y32554D01*
X27539Y32581D01*
X27484Y32609D01*
X27420Y32636D01*
X27275Y32682D01*
X27266D01*
X27247Y32691D01*
X27211D01*
X27165Y32700D01*
X27101Y32709D01*
X27029D01*
X26928Y32718D01*
X25853D01*
Y29921D01*
X25015D01*
Y36225D01*
X27940D01*
X28012Y36216D01*
D02*
G37*
G36*
X23704Y35478D02*
X19977D01*
Y33556D01*
X23467D01*
Y32809D01*
X19977D01*
Y30668D01*
X23849D01*
Y29921D01*
X19139D01*
Y36225D01*
X23704D01*
Y35478D01*
D02*
G37*
G36*
X35820Y25805D02*
X35893D01*
X36066Y25787D01*
X36257Y25759D01*
X36457Y25714D01*
X36676Y25659D01*
X36886Y25586D01*
X36895D01*
X36913Y25577D01*
X36940Y25568D01*
X36977Y25550D01*
X37077Y25495D01*
X37205Y25431D01*
X37341Y25340D01*
X37487Y25231D01*
X37624Y25113D01*
X37751Y24967D01*
X37769Y24949D01*
X37806Y24894D01*
X37860Y24812D01*
X37933Y24694D01*
X38006Y24548D01*
X38088Y24366D01*
X38170Y24165D01*
X38234Y23937D01*
X37478Y23737D01*
Y23746D01*
X37469Y23755D01*
X37460Y23783D01*
X37451Y23819D01*
X37423Y23901D01*
X37387Y24010D01*
X37332Y24138D01*
X37268Y24256D01*
X37205Y24384D01*
X37122Y24493D01*
X37113Y24502D01*
X37086Y24539D01*
X37031Y24584D01*
X36968Y24648D01*
X36886Y24721D01*
X36776Y24794D01*
X36658Y24867D01*
X36521Y24930D01*
X36503Y24939D01*
X36457Y24958D01*
X36375Y24985D01*
X36266Y25021D01*
X36139Y25049D01*
X35993Y25076D01*
X35829Y25094D01*
X35656Y25104D01*
X35556D01*
X35510Y25094D01*
X35455D01*
X35319Y25085D01*
X35164Y25058D01*
X34991Y25031D01*
X34827Y24985D01*
X34663Y24921D01*
X34645Y24912D01*
X34590Y24894D01*
X34517Y24848D01*
X34426Y24803D01*
X34317Y24730D01*
X34198Y24657D01*
X34089Y24566D01*
X33989Y24466D01*
X33980Y24457D01*
X33943Y24420D01*
X33898Y24356D01*
X33843Y24284D01*
X33779Y24193D01*
X33715Y24083D01*
X33652Y23965D01*
X33588Y23837D01*
Y23828D01*
X33579Y23810D01*
X33570Y23783D01*
X33551Y23737D01*
X33533Y23682D01*
X33515Y23619D01*
X33488Y23546D01*
X33469Y23464D01*
X33424Y23272D01*
X33387Y23054D01*
X33360Y22826D01*
X33351Y22571D01*
Y22562D01*
Y22535D01*
Y22489D01*
X33360Y22434D01*
Y22361D01*
X33369Y22270D01*
X33378Y22179D01*
X33387Y22079D01*
X33424Y21851D01*
X33469Y21614D01*
X33542Y21377D01*
X33633Y21150D01*
Y21141D01*
X33652Y21123D01*
X33661Y21095D01*
X33688Y21059D01*
X33752Y20958D01*
X33852Y20831D01*
X33970Y20694D01*
X34116Y20558D01*
X34289Y20430D01*
X34481Y20312D01*
X34490D01*
X34508Y20302D01*
X34535Y20284D01*
X34581Y20266D01*
X34626Y20248D01*
X34690Y20230D01*
X34836Y20175D01*
X35018Y20130D01*
X35219Y20084D01*
X35437Y20048D01*
X35665Y20038D01*
X35756D01*
X35811Y20048D01*
X35865D01*
X36002Y20066D01*
X36166Y20084D01*
X36339Y20120D01*
X36530Y20175D01*
X36722Y20239D01*
X36731D01*
X36749Y20248D01*
X36767Y20257D01*
X36804Y20275D01*
X36904Y20321D01*
X37013Y20375D01*
X37141Y20439D01*
X37277Y20512D01*
X37405Y20594D01*
X37514Y20685D01*
Y21869D01*
X35656D01*
Y22616D01*
X38334D01*
Y20275D01*
X38325Y20266D01*
X38307Y20257D01*
X38270Y20230D01*
X38225Y20193D01*
X38170Y20157D01*
X38106Y20111D01*
X38024Y20057D01*
X37942Y20002D01*
X37751Y19884D01*
X37532Y19756D01*
X37305Y19637D01*
X37059Y19537D01*
X37050D01*
X37031Y19528D01*
X36995Y19519D01*
X36950Y19501D01*
X36886Y19483D01*
X36813Y19455D01*
X36731Y19437D01*
X36649Y19419D01*
X36448Y19373D01*
X36221Y19328D01*
X35975Y19300D01*
X35720Y19291D01*
X35629D01*
X35565Y19300D01*
X35483D01*
X35383Y19310D01*
X35273Y19328D01*
X35155Y19337D01*
X34891Y19392D01*
X34608Y19455D01*
X34317Y19556D01*
X34171Y19610D01*
X34025Y19683D01*
X34016Y19692D01*
X33989Y19701D01*
X33952Y19729D01*
X33898Y19756D01*
X33834Y19802D01*
X33770Y19847D01*
X33597Y19975D01*
X33415Y20139D01*
X33224Y20339D01*
X33041Y20567D01*
X32877Y20831D01*
Y20840D01*
X32859Y20867D01*
X32841Y20904D01*
X32814Y20968D01*
X32786Y21031D01*
X32759Y21123D01*
X32722Y21214D01*
X32686Y21323D01*
X32649Y21441D01*
X32613Y21578D01*
X32586Y21715D01*
X32558Y21860D01*
X32513Y22179D01*
X32495Y22516D01*
Y22525D01*
Y22562D01*
Y22607D01*
X32504Y22671D01*
Y22753D01*
X32513Y22853D01*
X32531Y22954D01*
X32540Y23072D01*
X32568Y23200D01*
X32586Y23336D01*
X32659Y23628D01*
X32750Y23928D01*
X32877Y24229D01*
X32886Y24238D01*
X32895Y24265D01*
X32914Y24302D01*
X32950Y24356D01*
X32987Y24429D01*
X33032Y24502D01*
X33160Y24675D01*
X33315Y24876D01*
X33506Y25067D01*
X33724Y25258D01*
X33852Y25340D01*
X33980Y25422D01*
X33989Y25431D01*
X34016Y25441D01*
X34053Y25459D01*
X34107Y25486D01*
X34180Y25513D01*
X34262Y25550D01*
X34353Y25586D01*
X34462Y25623D01*
X34581Y25659D01*
X34708Y25687D01*
X34845Y25723D01*
X34991Y25750D01*
X35310Y25796D01*
X35474Y25814D01*
X35765D01*
X35820Y25805D01*
D02*
G37*
G36*
X41413Y25723D02*
X41532Y25705D01*
X41677Y25677D01*
X41842Y25632D01*
X42006Y25577D01*
X42169Y25504D01*
X42179D01*
X42188Y25495D01*
X42242Y25468D01*
X42324Y25413D01*
X42415Y25350D01*
X42525Y25258D01*
X42634Y25158D01*
X42743Y25040D01*
X42834Y24903D01*
X42844Y24885D01*
X42871Y24839D01*
X42907Y24757D01*
X42953Y24657D01*
X42998Y24539D01*
X43035Y24402D01*
X43062Y24247D01*
X43071Y24092D01*
Y24074D01*
Y24019D01*
X43062Y23946D01*
X43044Y23846D01*
X43017Y23728D01*
X42971Y23600D01*
X42917Y23473D01*
X42844Y23345D01*
X42834Y23327D01*
X42807Y23291D01*
X42753Y23227D01*
X42680Y23154D01*
X42588Y23072D01*
X42479Y22981D01*
X42352Y22899D01*
X42197Y22817D01*
X42206D01*
X42224Y22808D01*
X42252Y22799D01*
X42288Y22790D01*
X42388Y22753D01*
X42516Y22698D01*
X42661Y22626D01*
X42807Y22535D01*
X42944Y22416D01*
X43071Y22279D01*
X43080Y22261D01*
X43117Y22207D01*
X43172Y22115D01*
X43226Y21997D01*
X43281Y21851D01*
X43336Y21678D01*
X43372Y21478D01*
X43381Y21259D01*
Y21250D01*
Y21223D01*
Y21177D01*
X43372Y21123D01*
X43363Y21050D01*
X43345Y20968D01*
X43326Y20877D01*
X43308Y20776D01*
X43235Y20558D01*
X43181Y20439D01*
X43126Y20330D01*
X43053Y20211D01*
X42971Y20093D01*
X42880Y19975D01*
X42771Y19865D01*
X42762Y19856D01*
X42743Y19838D01*
X42707Y19811D01*
X42661Y19774D01*
X42607Y19729D01*
X42534Y19683D01*
X42452Y19628D01*
X42352Y19583D01*
X42252Y19528D01*
X42133Y19474D01*
X42015Y19428D01*
X41878Y19382D01*
X41732Y19346D01*
X41577Y19319D01*
X41423Y19300D01*
X41249Y19291D01*
X41167D01*
X41113Y19300D01*
X41040Y19310D01*
X40958Y19319D01*
X40867Y19337D01*
X40767Y19355D01*
X40548Y19410D01*
X40320Y19501D01*
X40202Y19556D01*
X40092Y19619D01*
X39983Y19701D01*
X39874Y19783D01*
X39865Y19792D01*
X39846Y19811D01*
X39819Y19838D01*
X39792Y19874D01*
X39746Y19920D01*
X39701Y19984D01*
X39646Y20048D01*
X39591Y20130D01*
X39537Y20221D01*
X39482Y20312D01*
X39382Y20530D01*
X39300Y20785D01*
X39272Y20922D01*
X39254Y21068D01*
X40029Y21168D01*
Y21159D01*
X40038Y21141D01*
X40047Y21104D01*
X40056Y21059D01*
X40065Y21004D01*
X40083Y20940D01*
X40129Y20804D01*
X40193Y20640D01*
X40275Y20485D01*
X40366Y20339D01*
X40475Y20211D01*
X40493Y20202D01*
X40530Y20166D01*
X40603Y20120D01*
X40694Y20075D01*
X40803Y20020D01*
X40940Y19975D01*
X41094Y19938D01*
X41258Y19929D01*
X41313D01*
X41350Y19938D01*
X41450Y19947D01*
X41577Y19975D01*
X41723Y20020D01*
X41878Y20084D01*
X42033Y20175D01*
X42179Y20302D01*
X42197Y20321D01*
X42242Y20375D01*
X42297Y20457D01*
X42370Y20567D01*
X42443Y20703D01*
X42497Y20858D01*
X42543Y21041D01*
X42561Y21241D01*
Y21250D01*
Y21268D01*
Y21295D01*
X42552Y21332D01*
X42543Y21432D01*
X42516Y21551D01*
X42479Y21696D01*
X42415Y21842D01*
X42324Y21988D01*
X42206Y22125D01*
X42188Y22143D01*
X42142Y22179D01*
X42069Y22234D01*
X41969Y22298D01*
X41842Y22361D01*
X41687Y22416D01*
X41514Y22453D01*
X41322Y22471D01*
X41240D01*
X41177Y22462D01*
X41094Y22453D01*
X41003Y22434D01*
X40894Y22416D01*
X40776Y22389D01*
X40867Y23072D01*
X40912D01*
X40949Y23063D01*
X41067D01*
X41167Y23081D01*
X41286Y23099D01*
X41423Y23127D01*
X41577Y23172D01*
X41723Y23236D01*
X41878Y23318D01*
X41887D01*
X41896Y23327D01*
X41942Y23363D01*
X42006Y23427D01*
X42078Y23509D01*
X42151Y23628D01*
X42215Y23764D01*
X42261Y23919D01*
X42279Y24010D01*
Y24111D01*
Y24120D01*
Y24129D01*
Y24183D01*
X42261Y24256D01*
X42242Y24356D01*
X42206Y24466D01*
X42160Y24584D01*
X42088Y24703D01*
X41987Y24812D01*
X41978Y24821D01*
X41933Y24858D01*
X41869Y24903D01*
X41787Y24958D01*
X41677Y25003D01*
X41550Y25049D01*
X41404Y25085D01*
X41240Y25094D01*
X41167D01*
X41085Y25076D01*
X40976Y25058D01*
X40858Y25021D01*
X40739Y24976D01*
X40612Y24903D01*
X40493Y24812D01*
X40484Y24803D01*
X40448Y24757D01*
X40393Y24694D01*
X40329Y24602D01*
X40266Y24484D01*
X40202Y24338D01*
X40147Y24165D01*
X40111Y23965D01*
X39336Y24101D01*
Y24111D01*
X39345Y24138D01*
X39355Y24174D01*
X39364Y24229D01*
X39382Y24293D01*
X39409Y24366D01*
X39464Y24539D01*
X39555Y24739D01*
X39664Y24939D01*
X39801Y25131D01*
X39974Y25304D01*
X39983Y25313D01*
X40001Y25322D01*
X40029Y25340D01*
X40065Y25368D01*
X40111Y25404D01*
X40174Y25441D01*
X40238Y25477D01*
X40320Y25523D01*
X40502Y25596D01*
X40712Y25668D01*
X40958Y25714D01*
X41085Y25732D01*
X41313D01*
X41413Y25723D01*
D02*
G37*
G36*
X21116Y22070D02*
Y19401D01*
X20278D01*
Y22070D01*
X17846Y25705D01*
X18857D01*
X20096Y23792D01*
Y23783D01*
X20114Y23764D01*
X20132Y23737D01*
X20151Y23701D01*
X20187Y23655D01*
X20223Y23600D01*
X20305Y23464D01*
X20406Y23300D01*
X20515Y23118D01*
X20633Y22926D01*
X20743Y22726D01*
Y22735D01*
X20752Y22753D01*
X20770Y22781D01*
X20797Y22817D01*
X20825Y22862D01*
X20861Y22917D01*
X20943Y23054D01*
X21043Y23218D01*
X21162Y23409D01*
X21298Y23619D01*
X21444Y23846D01*
X22656Y25705D01*
X23631D01*
X21116Y22070D01*
D02*
G37*
G36*
X50450Y19401D02*
X49649D01*
Y24675D01*
X47809Y19401D01*
X47061D01*
X45240Y24767D01*
Y19401D01*
X44438D01*
Y25705D01*
X45686D01*
X47180Y21232D01*
Y21223D01*
X47189Y21204D01*
X47198Y21177D01*
X47216Y21132D01*
X47253Y21022D01*
X47298Y20886D01*
X47344Y20731D01*
X47399Y20576D01*
X47444Y20430D01*
X47481Y20302D01*
X47490Y20321D01*
X47499Y20366D01*
X47526Y20448D01*
X47563Y20558D01*
X47608Y20703D01*
X47672Y20877D01*
X47736Y21077D01*
X47818Y21314D01*
X49330Y25705D01*
X50450D01*
Y19401D01*
D02*
G37*
G36*
X54395Y25696D02*
X54577Y25687D01*
X54760Y25668D01*
X54942Y25641D01*
X55097Y25614D01*
X55106D01*
X55124Y25605D01*
X55151D01*
X55188Y25586D01*
X55288Y25559D01*
X55415Y25513D01*
X55561Y25450D01*
X55716Y25368D01*
X55871Y25277D01*
X56017Y25158D01*
X56026Y25149D01*
X56035Y25140D01*
X56062Y25113D01*
X56099Y25085D01*
X56190Y24994D01*
X56299Y24867D01*
X56418Y24712D01*
X56545Y24530D01*
X56664Y24320D01*
X56764Y24083D01*
Y24074D01*
X56773Y24056D01*
X56791Y24019D01*
X56800Y23965D01*
X56827Y23901D01*
X56846Y23828D01*
X56864Y23746D01*
X56891Y23646D01*
X56919Y23546D01*
X56937Y23427D01*
X56982Y23172D01*
X57010Y22890D01*
X57019Y22580D01*
Y22571D01*
Y22553D01*
Y22507D01*
Y22462D01*
X57010Y22398D01*
Y22325D01*
X57001Y22152D01*
X56973Y21951D01*
X56946Y21742D01*
X56900Y21523D01*
X56846Y21305D01*
Y21295D01*
X56837Y21277D01*
X56827Y21250D01*
X56818Y21214D01*
X56782Y21113D01*
X56727Y20986D01*
X56673Y20840D01*
X56600Y20694D01*
X56509Y20539D01*
X56418Y20394D01*
X56408Y20375D01*
X56372Y20330D01*
X56317Y20266D01*
X56244Y20184D01*
X56162Y20093D01*
X56062Y20002D01*
X55962Y19902D01*
X55844Y19820D01*
X55825Y19811D01*
X55789Y19783D01*
X55725Y19747D01*
X55634Y19701D01*
X55525Y19647D01*
X55397Y19601D01*
X55251Y19546D01*
X55088Y19501D01*
X55069D01*
X55042Y19492D01*
X55015Y19483D01*
X54923Y19474D01*
X54796Y19455D01*
X54650Y19437D01*
X54477Y19419D01*
X54286Y19410D01*
X54076Y19401D01*
X51808D01*
Y25705D01*
X54231D01*
X54395Y25696D01*
D02*
G37*
G36*
X29343D02*
X29416D01*
X29579Y25677D01*
X29762Y25659D01*
X29953Y25623D01*
X30144Y25577D01*
X30317Y25513D01*
X30327D01*
X30336Y25504D01*
X30390Y25477D01*
X30472Y25431D01*
X30563Y25368D01*
X30673Y25286D01*
X30791Y25185D01*
X30900Y25058D01*
X31001Y24921D01*
X31010Y24903D01*
X31037Y24848D01*
X31083Y24776D01*
X31128Y24666D01*
X31174Y24539D01*
X31219Y24402D01*
X31247Y24247D01*
X31256Y24092D01*
Y24074D01*
Y24028D01*
X31247Y23946D01*
X31228Y23846D01*
X31201Y23728D01*
X31155Y23600D01*
X31101Y23473D01*
X31028Y23336D01*
X31019Y23318D01*
X30992Y23281D01*
X30937Y23209D01*
X30864Y23136D01*
X30773Y23045D01*
X30663Y22944D01*
X30527Y22853D01*
X30372Y22762D01*
X30381D01*
X30399Y22753D01*
X30427Y22744D01*
X30463Y22726D01*
X30572Y22689D01*
X30700Y22626D01*
X30837Y22544D01*
X30992Y22443D01*
X31128Y22325D01*
X31256Y22179D01*
X31265Y22161D01*
X31301Y22106D01*
X31356Y22024D01*
X31411Y21915D01*
X31465Y21769D01*
X31520Y21614D01*
X31556Y21432D01*
X31565Y21232D01*
Y21223D01*
Y21214D01*
Y21159D01*
X31556Y21068D01*
X31538Y20958D01*
X31520Y20831D01*
X31483Y20694D01*
X31438Y20549D01*
X31374Y20403D01*
X31365Y20384D01*
X31338Y20339D01*
X31301Y20275D01*
X31247Y20184D01*
X31174Y20093D01*
X31101Y19993D01*
X31010Y19893D01*
X30909Y19811D01*
X30900Y19802D01*
X30864Y19774D01*
X30800Y19738D01*
X30718Y19701D01*
X30618Y19647D01*
X30500Y19592D01*
X30372Y19546D01*
X30217Y19501D01*
X30199D01*
X30144Y19483D01*
X30053Y19474D01*
X29935Y19455D01*
X29789Y19437D01*
X29616Y19419D01*
X29425Y19410D01*
X29206Y19401D01*
X26801D01*
Y25705D01*
X29279D01*
X29343Y25696D01*
D02*
G37*
G36*
X15140D02*
X15213D01*
X15377Y25677D01*
X15559Y25659D01*
X15751Y25623D01*
X15942Y25577D01*
X16115Y25513D01*
X16124D01*
X16133Y25504D01*
X16188Y25477D01*
X16270Y25431D01*
X16361Y25368D01*
X16470Y25286D01*
X16589Y25185D01*
X16698Y25058D01*
X16798Y24921D01*
X16807Y24903D01*
X16835Y24848D01*
X16880Y24776D01*
X16926Y24666D01*
X16971Y24539D01*
X17017Y24402D01*
X17044Y24247D01*
X17053Y24092D01*
Y24074D01*
Y24028D01*
X17044Y23946D01*
X17026Y23846D01*
X16999Y23728D01*
X16953Y23600D01*
X16898Y23473D01*
X16826Y23336D01*
X16816Y23318D01*
X16789Y23281D01*
X16734Y23209D01*
X16661Y23136D01*
X16570Y23045D01*
X16461Y22944D01*
X16324Y22853D01*
X16170Y22762D01*
X16179D01*
X16197Y22753D01*
X16224Y22744D01*
X16261Y22726D01*
X16370Y22689D01*
X16498Y22626D01*
X16634Y22544D01*
X16789Y22443D01*
X16926Y22325D01*
X17053Y22179D01*
X17062Y22161D01*
X17099Y22106D01*
X17153Y22024D01*
X17208Y21915D01*
X17263Y21769D01*
X17317Y21614D01*
X17354Y21432D01*
X17363Y21232D01*
Y21223D01*
Y21214D01*
Y21159D01*
X17354Y21068D01*
X17336Y20958D01*
X17317Y20831D01*
X17281Y20694D01*
X17235Y20549D01*
X17172Y20403D01*
X17163Y20384D01*
X17135Y20339D01*
X17099Y20275D01*
X17044Y20184D01*
X16971Y20093D01*
X16898Y19993D01*
X16807Y19893D01*
X16707Y19811D01*
X16698Y19802D01*
X16661Y19774D01*
X16598Y19738D01*
X16516Y19701D01*
X16416Y19647D01*
X16297Y19592D01*
X16170Y19546D01*
X16015Y19501D01*
X15996D01*
X15942Y19483D01*
X15851Y19474D01*
X15732Y19455D01*
X15586Y19437D01*
X15413Y19419D01*
X15222Y19410D01*
X15003Y19401D01*
X12598D01*
Y25705D01*
X15076D01*
X15140Y25696D01*
D02*
G37*
G36*
X61073Y25805D02*
X61155D01*
X61237Y25796D01*
X61346Y25778D01*
X61455Y25759D01*
X61692Y25714D01*
X61966Y25641D01*
X62230Y25532D01*
X62366Y25468D01*
X62503Y25395D01*
X62512Y25386D01*
X62530Y25377D01*
X62567Y25350D01*
X62621Y25322D01*
X62676Y25277D01*
X62749Y25222D01*
X62904Y25094D01*
X63068Y24930D01*
X63250Y24730D01*
X63423Y24493D01*
X63569Y24229D01*
Y24220D01*
X63587Y24193D01*
X63605Y24156D01*
X63623Y24101D01*
X63660Y24028D01*
X63687Y23946D01*
X63724Y23846D01*
X63760Y23737D01*
X63788Y23619D01*
X63824Y23491D01*
X63860Y23345D01*
X63888Y23200D01*
X63924Y22881D01*
X63942Y22535D01*
Y22525D01*
Y22489D01*
Y22443D01*
X63933Y22370D01*
Y22288D01*
X63924Y22188D01*
X63906Y22079D01*
X63897Y21961D01*
X63851Y21696D01*
X63778Y21405D01*
X63678Y21113D01*
X63623Y20968D01*
X63551Y20822D01*
Y20813D01*
X63532Y20785D01*
X63514Y20749D01*
X63478Y20694D01*
X63441Y20630D01*
X63396Y20567D01*
X63268Y20394D01*
X63113Y20211D01*
X62931Y20020D01*
X62713Y19838D01*
X62457Y19674D01*
X62448D01*
X62430Y19656D01*
X62385Y19637D01*
X62330Y19610D01*
X62266Y19583D01*
X62193Y19556D01*
X62102Y19519D01*
X62002Y19483D01*
X61893Y19446D01*
X61774Y19410D01*
X61510Y19355D01*
X61228Y19310D01*
X60927Y19291D01*
X60836D01*
X60781Y19300D01*
X60699D01*
X60608Y19319D01*
X60508Y19328D01*
X60390Y19346D01*
X60144Y19401D01*
X59879Y19474D01*
X59606Y19583D01*
X59469Y19647D01*
X59333Y19719D01*
X59324Y19729D01*
X59305Y19738D01*
X59269Y19765D01*
X59214Y19802D01*
X59160Y19838D01*
X59096Y19893D01*
X58941Y20029D01*
X58768Y20193D01*
X58586Y20394D01*
X58422Y20621D01*
X58267Y20886D01*
Y20895D01*
X58249Y20922D01*
X58230Y20958D01*
X58212Y21013D01*
X58185Y21086D01*
X58157Y21168D01*
X58121Y21259D01*
X58094Y21359D01*
X58057Y21478D01*
X58021Y21596D01*
X57966Y21869D01*
X57930Y22152D01*
X57912Y22462D01*
Y22471D01*
Y22480D01*
Y22535D01*
X57921Y22616D01*
Y22726D01*
X57939Y22853D01*
X57957Y23008D01*
X57984Y23181D01*
X58021Y23363D01*
X58057Y23555D01*
X58112Y23755D01*
X58185Y23956D01*
X58267Y24165D01*
X58358Y24366D01*
X58476Y24566D01*
X58604Y24748D01*
X58750Y24921D01*
X58759Y24930D01*
X58786Y24958D01*
X58841Y25003D01*
X58904Y25058D01*
X58987Y25131D01*
X59087Y25204D01*
X59205Y25286D01*
X59342Y25368D01*
X59488Y25450D01*
X59652Y25532D01*
X59834Y25605D01*
X60025Y25677D01*
X60235Y25732D01*
X60453Y25778D01*
X60681Y25805D01*
X60927Y25814D01*
X61009D01*
X61073Y25805D01*
D02*
G37*
G36*
X264984Y15684D02*
X265048D01*
X265121Y15675D01*
X265294Y15638D01*
X265486Y15593D01*
X265686Y15520D01*
X265886Y15410D01*
X265987Y15347D01*
X266078Y15274D01*
X266087Y15265D01*
X266096Y15256D01*
X266123Y15228D01*
X266150Y15201D01*
X266196Y15155D01*
X266232Y15101D01*
X266333Y14973D01*
X266433Y14809D01*
X266524Y14609D01*
X266606Y14381D01*
X266661Y14126D01*
X265886Y14062D01*
Y14071D01*
X265877Y14080D01*
X265868Y14135D01*
X265841Y14217D01*
X265804Y14317D01*
X265768Y14426D01*
X265713Y14536D01*
X265650Y14636D01*
X265586Y14718D01*
X265567Y14736D01*
X265531Y14773D01*
X265467Y14827D01*
X265376Y14891D01*
X265258Y14946D01*
X265130Y15000D01*
X264975Y15037D01*
X264811Y15055D01*
X264748D01*
X264675Y15046D01*
X264593Y15028D01*
X264483Y15000D01*
X264374Y14964D01*
X264265Y14918D01*
X264156Y14845D01*
X264137Y14836D01*
X264092Y14800D01*
X264028Y14736D01*
X263946Y14645D01*
X263855Y14536D01*
X263755Y14408D01*
X263664Y14244D01*
X263572Y14062D01*
Y14053D01*
X263563Y14035D01*
X263554Y14007D01*
X263536Y13971D01*
X263527Y13916D01*
X263509Y13852D01*
X263490Y13780D01*
X263472Y13689D01*
X263445Y13588D01*
X263427Y13479D01*
X263408Y13361D01*
X263399Y13233D01*
X263381Y13087D01*
X263372Y12942D01*
X263363Y12777D01*
Y12614D01*
X263372Y12623D01*
X263408Y12677D01*
X263472Y12750D01*
X263554Y12841D01*
X263645Y12951D01*
X263764Y13051D01*
X263891Y13151D01*
X264037Y13242D01*
X264046D01*
X264055Y13251D01*
X264110Y13279D01*
X264192Y13306D01*
X264301Y13352D01*
X264429Y13388D01*
X264575Y13415D01*
X264729Y13443D01*
X264893Y13452D01*
X264966D01*
X265021Y13443D01*
X265094Y13433D01*
X265167Y13424D01*
X265258Y13406D01*
X265349Y13379D01*
X265558Y13315D01*
X265668Y13270D01*
X265777Y13206D01*
X265886Y13142D01*
X266005Y13069D01*
X266114Y12978D01*
X266214Y12878D01*
X266223Y12869D01*
X266242Y12850D01*
X266269Y12823D01*
X266296Y12777D01*
X266342Y12714D01*
X266387Y12650D01*
X266433Y12568D01*
X266488Y12477D01*
X266542Y12377D01*
X266588Y12267D01*
X266633Y12140D01*
X266679Y12012D01*
X266706Y11876D01*
X266734Y11721D01*
X266752Y11566D01*
X266761Y11402D01*
Y11393D01*
Y11375D01*
Y11347D01*
Y11302D01*
X266752Y11247D01*
Y11192D01*
X266724Y11047D01*
X266697Y10874D01*
X266652Y10691D01*
X266588Y10491D01*
X266497Y10300D01*
Y10290D01*
X266488Y10281D01*
X266469Y10254D01*
X266451Y10218D01*
X266396Y10126D01*
X266315Y10008D01*
X266214Y9881D01*
X266096Y9753D01*
X265950Y9625D01*
X265795Y9516D01*
X265786D01*
X265777Y9507D01*
X265750Y9489D01*
X265713Y9480D01*
X265622Y9434D01*
X265504Y9389D01*
X265349Y9334D01*
X265176Y9297D01*
X264984Y9261D01*
X264775Y9252D01*
X264729D01*
X264684Y9261D01*
X264611D01*
X264529Y9270D01*
X264438Y9288D01*
X264329Y9316D01*
X264219Y9343D01*
X264092Y9380D01*
X263964Y9425D01*
X263837Y9480D01*
X263700Y9553D01*
X263572Y9635D01*
X263445Y9726D01*
X263317Y9835D01*
X263199Y9963D01*
X263190Y9972D01*
X263172Y9999D01*
X263144Y10035D01*
X263108Y10099D01*
X263053Y10181D01*
X263008Y10272D01*
X262953Y10391D01*
X262898Y10518D01*
X262835Y10673D01*
X262780Y10846D01*
X262734Y11038D01*
X262689Y11247D01*
X262643Y11484D01*
X262616Y11739D01*
X262598Y12012D01*
X262589Y12304D01*
Y12313D01*
Y12322D01*
Y12349D01*
Y12386D01*
X262598Y12477D01*
Y12604D01*
X262607Y12750D01*
X262625Y12923D01*
X262643Y13115D01*
X262670Y13324D01*
X262707Y13534D01*
X262753Y13761D01*
X262807Y13980D01*
X262871Y14199D01*
X262953Y14408D01*
X263044Y14609D01*
X263144Y14800D01*
X263263Y14964D01*
X263272Y14973D01*
X263290Y14991D01*
X263326Y15028D01*
X263372Y15082D01*
X263427Y15137D01*
X263499Y15192D01*
X263591Y15265D01*
X263682Y15328D01*
X263791Y15392D01*
X263910Y15465D01*
X264046Y15520D01*
X264183Y15583D01*
X264338Y15629D01*
X264502Y15665D01*
X264675Y15684D01*
X264857Y15693D01*
X264930D01*
X264984Y15684D01*
D02*
G37*
G36*
X298591Y15766D02*
X298655D01*
X298828Y15747D01*
X299019Y15720D01*
X299220Y15675D01*
X299439Y15620D01*
X299639Y15547D01*
X299648D01*
X299666Y15538D01*
X299694Y15520D01*
X299730Y15501D01*
X299821Y15456D01*
X299939Y15374D01*
X300076Y15283D01*
X300213Y15164D01*
X300340Y15028D01*
X300459Y14873D01*
Y14864D01*
X300468Y14855D01*
X300486Y14827D01*
X300504Y14800D01*
X300550Y14709D01*
X300605Y14590D01*
X300668Y14445D01*
X300714Y14272D01*
X300759Y14089D01*
X300778Y13889D01*
X299976Y13825D01*
Y13834D01*
Y13852D01*
X299967Y13880D01*
X299958Y13925D01*
X299930Y14026D01*
X299894Y14162D01*
X299839Y14308D01*
X299757Y14454D01*
X299657Y14590D01*
X299530Y14718D01*
X299511Y14727D01*
X299466Y14763D01*
X299375Y14818D01*
X299256Y14873D01*
X299101Y14928D01*
X298919Y14982D01*
X298692Y15019D01*
X298436Y15028D01*
X298309D01*
X298254Y15019D01*
X298181Y15010D01*
X298017Y14991D01*
X297835Y14955D01*
X297653Y14909D01*
X297480Y14836D01*
X297407Y14791D01*
X297334Y14745D01*
X297316Y14736D01*
X297279Y14700D01*
X297225Y14636D01*
X297170Y14563D01*
X297106Y14463D01*
X297052Y14354D01*
X297015Y14226D01*
X296997Y14080D01*
Y14062D01*
Y14026D01*
X297006Y13962D01*
X297024Y13889D01*
X297052Y13798D01*
X297097Y13707D01*
X297152Y13616D01*
X297234Y13525D01*
X297243Y13516D01*
X297288Y13488D01*
X297325Y13461D01*
X297361Y13443D01*
X297416Y13415D01*
X297480Y13379D01*
X297562Y13352D01*
X297653Y13315D01*
X297753Y13279D01*
X297872Y13233D01*
X297999Y13197D01*
X298145Y13151D01*
X298309Y13115D01*
X298491Y13069D01*
X298500D01*
X298537Y13060D01*
X298591Y13051D01*
X298655Y13033D01*
X298737Y13014D01*
X298837Y12987D01*
X298937Y12960D01*
X299047Y12932D01*
X299284Y12869D01*
X299511Y12805D01*
X299621Y12768D01*
X299721Y12732D01*
X299812Y12705D01*
X299885Y12668D01*
X299894D01*
X299912Y12659D01*
X299939Y12641D01*
X299976Y12623D01*
X300076Y12568D01*
X300195Y12495D01*
X300331Y12395D01*
X300468Y12286D01*
X300595Y12158D01*
X300705Y12021D01*
X300714Y12003D01*
X300750Y11958D01*
X300787Y11876D01*
X300841Y11766D01*
X300887Y11639D01*
X300933Y11484D01*
X300960Y11311D01*
X300969Y11129D01*
Y11119D01*
Y11110D01*
Y11083D01*
Y11047D01*
X300951Y10946D01*
X300933Y10819D01*
X300896Y10673D01*
X300851Y10518D01*
X300778Y10354D01*
X300677Y10181D01*
Y10172D01*
X300668Y10163D01*
X300623Y10108D01*
X300559Y10026D01*
X300468Y9935D01*
X300349Y9826D01*
X300204Y9708D01*
X300040Y9598D01*
X299848Y9498D01*
X299839D01*
X299821Y9489D01*
X299794Y9480D01*
X299757Y9461D01*
X299703Y9443D01*
X299639Y9416D01*
X299493Y9380D01*
X299320Y9334D01*
X299111Y9288D01*
X298883Y9261D01*
X298637Y9252D01*
X298491D01*
X298418Y9261D01*
X298336D01*
X298245Y9270D01*
X298136Y9279D01*
X297908Y9316D01*
X297671Y9352D01*
X297434Y9416D01*
X297206Y9498D01*
X297197D01*
X297179Y9507D01*
X297152Y9525D01*
X297115Y9544D01*
X297006Y9598D01*
X296879Y9680D01*
X296733Y9789D01*
X296578Y9917D01*
X296432Y10072D01*
X296295Y10245D01*
Y10254D01*
X296277Y10272D01*
X296268Y10300D01*
X296241Y10336D01*
X296223Y10382D01*
X296195Y10436D01*
X296132Y10573D01*
X296068Y10746D01*
X296013Y10937D01*
X295977Y11156D01*
X295958Y11384D01*
X296742Y11457D01*
Y11447D01*
Y11438D01*
X296751Y11411D01*
Y11375D01*
X296769Y11293D01*
X296797Y11174D01*
X296833Y11056D01*
X296869Y10919D01*
X296933Y10792D01*
X296997Y10673D01*
X297006Y10664D01*
X297033Y10628D01*
X297079Y10564D01*
X297152Y10500D01*
X297243Y10418D01*
X297343Y10336D01*
X297480Y10254D01*
X297626Y10181D01*
X297635D01*
X297644Y10172D01*
X297671Y10163D01*
X297698Y10154D01*
X297790Y10126D01*
X297908Y10090D01*
X298054Y10054D01*
X298218Y10026D01*
X298400Y10008D01*
X298600Y9999D01*
X298682D01*
X298774Y10008D01*
X298883Y10017D01*
X299010Y10035D01*
X299156Y10054D01*
X299302Y10090D01*
X299439Y10136D01*
X299457Y10145D01*
X299502Y10163D01*
X299566Y10199D01*
X299648Y10236D01*
X299730Y10300D01*
X299821Y10363D01*
X299912Y10436D01*
X299985Y10527D01*
X299994Y10537D01*
X300012Y10573D01*
X300040Y10618D01*
X300076Y10691D01*
X300113Y10764D01*
X300140Y10855D01*
X300158Y10955D01*
X300167Y11065D01*
Y11074D01*
Y11119D01*
X300158Y11174D01*
X300149Y11247D01*
X300122Y11320D01*
X300094Y11411D01*
X300049Y11502D01*
X299985Y11584D01*
X299976Y11593D01*
X299949Y11621D01*
X299912Y11657D01*
X299848Y11712D01*
X299776Y11766D01*
X299675Y11830D01*
X299557Y11894D01*
X299420Y11948D01*
X299411Y11958D01*
X299366Y11967D01*
X299293Y11994D01*
X299247Y12003D01*
X299183Y12021D01*
X299120Y12049D01*
X299038Y12067D01*
X298946Y12094D01*
X298837Y12122D01*
X298728Y12149D01*
X298600Y12185D01*
X298455Y12222D01*
X298300Y12258D01*
X298291D01*
X298263Y12267D01*
X298218Y12276D01*
X298163Y12295D01*
X298090Y12313D01*
X298008Y12331D01*
X297826Y12386D01*
X297626Y12450D01*
X297416Y12513D01*
X297234Y12577D01*
X297152Y12614D01*
X297079Y12650D01*
X297070D01*
X297061Y12659D01*
X297006Y12696D01*
X296924Y12741D01*
X296833Y12814D01*
X296724Y12896D01*
X296614Y12996D01*
X296505Y13115D01*
X296414Y13242D01*
X296405Y13260D01*
X296377Y13306D01*
X296341Y13379D01*
X296305Y13470D01*
X296268Y13588D01*
X296232Y13725D01*
X296204Y13871D01*
X296195Y14026D01*
Y14035D01*
Y14044D01*
Y14071D01*
Y14108D01*
X296214Y14199D01*
X296232Y14317D01*
X296259Y14454D01*
X296305Y14609D01*
X296368Y14763D01*
X296460Y14918D01*
Y14928D01*
X296469Y14937D01*
X296514Y14991D01*
X296578Y15064D01*
X296660Y15155D01*
X296769Y15256D01*
X296906Y15365D01*
X297070Y15465D01*
X297252Y15556D01*
X297261D01*
X297279Y15565D01*
X297307Y15574D01*
X297343Y15593D01*
X297389Y15611D01*
X297452Y15629D01*
X297589Y15665D01*
X297762Y15702D01*
X297963Y15738D01*
X298172Y15766D01*
X298409Y15775D01*
X298528D01*
X298591Y15766D01*
D02*
G37*
G36*
X292715D02*
X292779D01*
X292952Y15747D01*
X293144Y15720D01*
X293344Y15675D01*
X293563Y15620D01*
X293763Y15547D01*
X293772D01*
X293790Y15538D01*
X293818Y15520D01*
X293854Y15501D01*
X293945Y15456D01*
X294064Y15374D01*
X294200Y15283D01*
X294337Y15164D01*
X294464Y15028D01*
X294583Y14873D01*
Y14864D01*
X294592Y14855D01*
X294610Y14827D01*
X294628Y14800D01*
X294674Y14709D01*
X294729Y14590D01*
X294792Y14445D01*
X294838Y14272D01*
X294883Y14089D01*
X294902Y13889D01*
X294100Y13825D01*
Y13834D01*
Y13852D01*
X294091Y13880D01*
X294082Y13925D01*
X294055Y14026D01*
X294018Y14162D01*
X293963Y14308D01*
X293881Y14454D01*
X293781Y14590D01*
X293654Y14718D01*
X293635Y14727D01*
X293590Y14763D01*
X293499Y14818D01*
X293380Y14873D01*
X293226Y14928D01*
X293043Y14982D01*
X292815Y15019D01*
X292560Y15028D01*
X292433D01*
X292378Y15019D01*
X292305Y15010D01*
X292141Y14991D01*
X291959Y14955D01*
X291777Y14909D01*
X291604Y14836D01*
X291531Y14791D01*
X291458Y14745D01*
X291440Y14736D01*
X291404Y14700D01*
X291349Y14636D01*
X291294Y14563D01*
X291230Y14463D01*
X291176Y14354D01*
X291139Y14226D01*
X291121Y14080D01*
Y14062D01*
Y14026D01*
X291130Y13962D01*
X291148Y13889D01*
X291176Y13798D01*
X291221Y13707D01*
X291276Y13616D01*
X291358Y13525D01*
X291367Y13516D01*
X291413Y13488D01*
X291449Y13461D01*
X291485Y13443D01*
X291540Y13415D01*
X291604Y13379D01*
X291686Y13352D01*
X291777Y13315D01*
X291877Y13279D01*
X291996Y13233D01*
X292123Y13197D01*
X292269Y13151D01*
X292433Y13115D01*
X292615Y13069D01*
X292624D01*
X292661Y13060D01*
X292715Y13051D01*
X292779Y13033D01*
X292861Y13014D01*
X292961Y12987D01*
X293061Y12960D01*
X293171Y12932D01*
X293408Y12869D01*
X293635Y12805D01*
X293745Y12768D01*
X293845Y12732D01*
X293936Y12705D01*
X294009Y12668D01*
X294018D01*
X294036Y12659D01*
X294064Y12641D01*
X294100Y12623D01*
X294200Y12568D01*
X294319Y12495D01*
X294455Y12395D01*
X294592Y12286D01*
X294720Y12158D01*
X294829Y12021D01*
X294838Y12003D01*
X294874Y11958D01*
X294911Y11876D01*
X294966Y11766D01*
X295011Y11639D01*
X295057Y11484D01*
X295084Y11311D01*
X295093Y11129D01*
Y11119D01*
Y11110D01*
Y11083D01*
Y11047D01*
X295075Y10946D01*
X295057Y10819D01*
X295020Y10673D01*
X294975Y10518D01*
X294902Y10354D01*
X294801Y10181D01*
Y10172D01*
X294792Y10163D01*
X294747Y10108D01*
X294683Y10026D01*
X294592Y9935D01*
X294474Y9826D01*
X294328Y9708D01*
X294164Y9598D01*
X293972Y9498D01*
X293963D01*
X293945Y9489D01*
X293918Y9480D01*
X293881Y9461D01*
X293827Y9443D01*
X293763Y9416D01*
X293617Y9380D01*
X293444Y9334D01*
X293235Y9288D01*
X293007Y9261D01*
X292761Y9252D01*
X292615D01*
X292542Y9261D01*
X292460D01*
X292369Y9270D01*
X292260Y9279D01*
X292032Y9316D01*
X291795Y9352D01*
X291558Y9416D01*
X291331Y9498D01*
X291321D01*
X291303Y9507D01*
X291276Y9525D01*
X291240Y9544D01*
X291130Y9598D01*
X291003Y9680D01*
X290857Y9789D01*
X290702Y9917D01*
X290556Y10072D01*
X290420Y10245D01*
Y10254D01*
X290401Y10272D01*
X290392Y10300D01*
X290365Y10336D01*
X290347Y10382D01*
X290319Y10436D01*
X290256Y10573D01*
X290192Y10746D01*
X290137Y10937D01*
X290101Y11156D01*
X290083Y11384D01*
X290866Y11457D01*
Y11447D01*
Y11438D01*
X290875Y11411D01*
Y11375D01*
X290893Y11293D01*
X290921Y11174D01*
X290957Y11056D01*
X290993Y10919D01*
X291057Y10792D01*
X291121Y10673D01*
X291130Y10664D01*
X291158Y10628D01*
X291203Y10564D01*
X291276Y10500D01*
X291367Y10418D01*
X291467Y10336D01*
X291604Y10254D01*
X291750Y10181D01*
X291759D01*
X291768Y10172D01*
X291795Y10163D01*
X291823Y10154D01*
X291914Y10126D01*
X292032Y10090D01*
X292178Y10054D01*
X292342Y10026D01*
X292524Y10008D01*
X292724Y9999D01*
X292806D01*
X292898Y10008D01*
X293007Y10017D01*
X293134Y10035D01*
X293280Y10054D01*
X293426Y10090D01*
X293563Y10136D01*
X293581Y10145D01*
X293626Y10163D01*
X293690Y10199D01*
X293772Y10236D01*
X293854Y10300D01*
X293945Y10363D01*
X294036Y10436D01*
X294109Y10527D01*
X294118Y10537D01*
X294137Y10573D01*
X294164Y10618D01*
X294200Y10691D01*
X294237Y10764D01*
X294264Y10855D01*
X294282Y10955D01*
X294291Y11065D01*
Y11074D01*
Y11119D01*
X294282Y11174D01*
X294273Y11247D01*
X294246Y11320D01*
X294218Y11411D01*
X294173Y11502D01*
X294109Y11584D01*
X294100Y11593D01*
X294073Y11621D01*
X294036Y11657D01*
X293972Y11712D01*
X293900Y11766D01*
X293799Y11830D01*
X293681Y11894D01*
X293544Y11948D01*
X293535Y11958D01*
X293490Y11967D01*
X293417Y11994D01*
X293371Y12003D01*
X293307Y12021D01*
X293244Y12049D01*
X293162Y12067D01*
X293071Y12094D01*
X292961Y12122D01*
X292852Y12149D01*
X292724Y12185D01*
X292579Y12222D01*
X292424Y12258D01*
X292415D01*
X292387Y12267D01*
X292342Y12276D01*
X292287Y12295D01*
X292214Y12313D01*
X292132Y12331D01*
X291950Y12386D01*
X291750Y12450D01*
X291540Y12513D01*
X291358Y12577D01*
X291276Y12614D01*
X291203Y12650D01*
X291194D01*
X291185Y12659D01*
X291130Y12696D01*
X291048Y12741D01*
X290957Y12814D01*
X290848Y12896D01*
X290738Y12996D01*
X290629Y13115D01*
X290538Y13242D01*
X290529Y13260D01*
X290502Y13306D01*
X290465Y13379D01*
X290429Y13470D01*
X290392Y13588D01*
X290356Y13725D01*
X290329Y13871D01*
X290319Y14026D01*
Y14035D01*
Y14044D01*
Y14071D01*
Y14108D01*
X290338Y14199D01*
X290356Y14317D01*
X290383Y14454D01*
X290429Y14609D01*
X290493Y14763D01*
X290584Y14918D01*
Y14928D01*
X290593Y14937D01*
X290638Y14991D01*
X290702Y15064D01*
X290784Y15155D01*
X290893Y15256D01*
X291030Y15365D01*
X291194Y15465D01*
X291376Y15556D01*
X291385D01*
X291404Y15565D01*
X291431Y15574D01*
X291467Y15593D01*
X291513Y15611D01*
X291577Y15629D01*
X291713Y15665D01*
X291886Y15702D01*
X292087Y15738D01*
X292296Y15766D01*
X292533Y15775D01*
X292652D01*
X292715Y15766D01*
D02*
G37*
G36*
X273402Y15766D02*
X273475D01*
X273648Y15747D01*
X273839Y15720D01*
X274040Y15675D01*
X274258Y15620D01*
X274468Y15547D01*
X274477D01*
X274495Y15538D01*
X274523Y15529D01*
X274559Y15510D01*
X274659Y15456D01*
X274787Y15392D01*
X274923Y15301D01*
X275069Y15192D01*
X275206Y15073D01*
X275333Y14928D01*
X275352Y14909D01*
X275388Y14855D01*
X275443Y14773D01*
X275516Y14654D01*
X275588Y14508D01*
X275671Y14326D01*
X275752Y14126D01*
X275816Y13898D01*
X275060Y13698D01*
Y13707D01*
X275051Y13716D01*
X275042Y13743D01*
X275033Y13780D01*
X275006Y13862D01*
X274969Y13971D01*
X274914Y14098D01*
X274851Y14217D01*
X274787Y14345D01*
X274705Y14454D01*
X274696Y14463D01*
X274668Y14499D01*
X274614Y14545D01*
X274550Y14609D01*
X274468Y14682D01*
X274359Y14754D01*
X274240Y14827D01*
X274104Y14891D01*
X274085Y14900D01*
X274040Y14918D01*
X273958Y14946D01*
X273849Y14982D01*
X273721Y15010D01*
X273575Y15037D01*
X273411Y15055D01*
X273238Y15064D01*
X273138D01*
X273092Y15055D01*
X273038D01*
X272901Y15046D01*
X272746Y15019D01*
X272573Y14991D01*
X272409Y14946D01*
X272245Y14882D01*
X272227Y14873D01*
X272172Y14855D01*
X272099Y14809D01*
X272008Y14763D01*
X271899Y14691D01*
X271780Y14618D01*
X271671Y14527D01*
X271571Y14426D01*
X271562Y14417D01*
X271525Y14381D01*
X271480Y14317D01*
X271425Y14244D01*
X271361Y14153D01*
X271298Y14044D01*
X271234Y13925D01*
X271170Y13798D01*
Y13789D01*
X271161Y13770D01*
X271152Y13743D01*
X271134Y13698D01*
X271115Y13643D01*
X271097Y13579D01*
X271070Y13506D01*
X271052Y13424D01*
X271006Y13233D01*
X270970Y13014D01*
X270942Y12787D01*
X270933Y12532D01*
Y12522D01*
Y12495D01*
Y12450D01*
X270942Y12395D01*
Y12322D01*
X270952Y12231D01*
X270961Y12140D01*
X270970Y12040D01*
X271006Y11812D01*
X271052Y11575D01*
X271125Y11338D01*
X271216Y11110D01*
Y11101D01*
X271234Y11083D01*
X271243Y11056D01*
X271270Y11019D01*
X271334Y10919D01*
X271434Y10792D01*
X271553Y10655D01*
X271698Y10518D01*
X271872Y10391D01*
X272063Y10272D01*
X272072D01*
X272090Y10263D01*
X272118Y10245D01*
X272163Y10227D01*
X272209Y10209D01*
X272272Y10190D01*
X272418Y10136D01*
X272600Y10090D01*
X272801Y10045D01*
X273020Y10008D01*
X273247Y9999D01*
X273338D01*
X273393Y10008D01*
X273448D01*
X273584Y10026D01*
X273748Y10045D01*
X273921Y10081D01*
X274113Y10136D01*
X274304Y10199D01*
X274313D01*
X274331Y10209D01*
X274349Y10218D01*
X274386Y10236D01*
X274486Y10281D01*
X274595Y10336D01*
X274723Y10400D01*
X274860Y10473D01*
X274987Y10555D01*
X275097Y10646D01*
Y11830D01*
X273238Y11830D01*
Y12577D01*
X275917Y12577D01*
Y10236D01*
X275907Y10227D01*
X275889Y10218D01*
X275853Y10190D01*
X275807Y10154D01*
X275752Y10117D01*
X275689Y10072D01*
X275607Y10017D01*
X275525Y9963D01*
X275333Y9844D01*
X275115Y9717D01*
X274887Y9598D01*
X274641Y9498D01*
X274632D01*
X274614Y9489D01*
X274577Y9480D01*
X274532Y9461D01*
X274468Y9443D01*
X274395Y9416D01*
X274313Y9398D01*
X274231Y9380D01*
X274031Y9334D01*
X273803Y9288D01*
X273557Y9261D01*
X273302Y9252D01*
X273211D01*
X273147Y9261D01*
X273065D01*
X272965Y9270D01*
X272855Y9288D01*
X272737Y9297D01*
X272473Y9352D01*
X272190Y9416D01*
X271899Y9516D01*
X271753Y9571D01*
X271607Y9644D01*
X271598Y9653D01*
X271571Y9662D01*
X271534Y9689D01*
X271480Y9717D01*
X271416Y9762D01*
X271352Y9808D01*
X271179Y9935D01*
X270997Y10099D01*
X270806Y10300D01*
X270623Y10527D01*
X270460Y10792D01*
Y10801D01*
X270441Y10828D01*
X270423Y10864D01*
X270396Y10928D01*
X270369Y10992D01*
X270341Y11083D01*
X270305Y11174D01*
X270268Y11283D01*
X270232Y11402D01*
X270195Y11539D01*
X270168Y11675D01*
X270141Y11821D01*
X270095Y12140D01*
X270077Y12477D01*
Y12486D01*
Y12522D01*
Y12568D01*
X270086Y12632D01*
Y12714D01*
X270095Y12814D01*
X270113Y12914D01*
X270123Y13033D01*
X270150Y13160D01*
X270168Y13297D01*
X270241Y13588D01*
X270332Y13889D01*
X270460Y14190D01*
X270469Y14199D01*
X270478Y14226D01*
X270496Y14263D01*
X270532Y14317D01*
X270569Y14390D01*
X270614Y14463D01*
X270742Y14636D01*
X270897Y14836D01*
X271088Y15028D01*
X271307Y15219D01*
X271434Y15301D01*
X271562Y15383D01*
X271571Y15392D01*
X271598Y15401D01*
X271635Y15419D01*
X271689Y15447D01*
X271762Y15474D01*
X271844Y15510D01*
X271935Y15547D01*
X272045Y15583D01*
X272163Y15620D01*
X272291Y15647D01*
X272427Y15684D01*
X272573Y15711D01*
X272892Y15756D01*
X273056Y15775D01*
X273347D01*
X273402Y15766D01*
D02*
G37*
G36*
X282111Y9361D02*
X281273D01*
Y12331D01*
X278012D01*
Y9361D01*
X277174D01*
Y15665D01*
X278012D01*
Y13078D01*
X281273D01*
Y15665D01*
X282111D01*
Y9361D01*
D02*
G37*
G36*
X259810Y15684D02*
X259856D01*
X259919Y15675D01*
X260074Y15647D01*
X260247Y15611D01*
X260439Y15547D01*
X260630Y15465D01*
X260821Y15356D01*
X260830D01*
X260839Y15337D01*
X260867Y15319D01*
X260903Y15292D01*
X260994Y15219D01*
X261113Y15119D01*
X261231Y14982D01*
X261368Y14818D01*
X261486Y14627D01*
X261596Y14408D01*
Y14399D01*
X261605Y14381D01*
X261623Y14345D01*
X261641Y14299D01*
X261659Y14235D01*
X261687Y14153D01*
X261705Y14062D01*
X261732Y13962D01*
X261759Y13843D01*
X261787Y13707D01*
X261805Y13561D01*
X261823Y13406D01*
X261842Y13233D01*
X261860Y13051D01*
X261869Y12850D01*
Y12641D01*
Y12632D01*
Y12586D01*
Y12522D01*
Y12440D01*
X261860Y12340D01*
Y12222D01*
X261851Y12085D01*
X261832Y11948D01*
X261805Y11639D01*
X261759Y11311D01*
X261696Y11001D01*
X261650Y10846D01*
X261605Y10710D01*
Y10701D01*
X261596Y10682D01*
X261577Y10646D01*
X261559Y10591D01*
X261532Y10537D01*
X261495Y10464D01*
X261404Y10309D01*
X261295Y10136D01*
X261167Y9953D01*
X261003Y9780D01*
X260821Y9625D01*
X260812D01*
X260794Y9607D01*
X260767Y9589D01*
X260730Y9571D01*
X260675Y9544D01*
X260621Y9507D01*
X260548Y9471D01*
X260475Y9443D01*
X260302Y9370D01*
X260092Y9307D01*
X259865Y9270D01*
X259610Y9252D01*
X259537D01*
X259491Y9261D01*
X259427D01*
X259354Y9270D01*
X259181Y9307D01*
X258990Y9352D01*
X258790Y9425D01*
X258589Y9525D01*
X258489Y9589D01*
X258398Y9662D01*
X258389Y9671D01*
X258380Y9680D01*
X258352Y9708D01*
X258325Y9735D01*
X258289Y9780D01*
X258243Y9835D01*
X258152Y9963D01*
X258061Y10126D01*
X257970Y10327D01*
X257897Y10555D01*
X257842Y10819D01*
X258589Y10883D01*
Y10874D01*
X258598Y10855D01*
Y10837D01*
X258608Y10801D01*
X258635Y10701D01*
X258671Y10591D01*
X258717Y10464D01*
X258781Y10336D01*
X258853Y10218D01*
X258945Y10117D01*
X258954Y10108D01*
X258990Y10081D01*
X259054Y10045D01*
X259127Y10008D01*
X259227Y9963D01*
X259345Y9926D01*
X259482Y9899D01*
X259628Y9890D01*
X259692D01*
X259755Y9899D01*
X259837Y9908D01*
X259938Y9926D01*
X260038Y9953D01*
X260147Y9990D01*
X260247Y10045D01*
X260256Y10054D01*
X260293Y10072D01*
X260348Y10108D01*
X260402Y10163D01*
X260475Y10227D01*
X260548Y10300D01*
X260621Y10382D01*
X260694Y10482D01*
X260703Y10491D01*
X260721Y10537D01*
X260757Y10600D01*
X260794Y10682D01*
X260839Y10792D01*
X260885Y10919D01*
X260930Y11065D01*
X260976Y11229D01*
Y11238D01*
X260985Y11247D01*
Y11274D01*
X260994Y11311D01*
X261013Y11402D01*
X261040Y11520D01*
X261058Y11666D01*
X261076Y11821D01*
X261085Y11994D01*
X261094Y12176D01*
Y12185D01*
Y12213D01*
Y12258D01*
Y12331D01*
X261085Y12313D01*
X261049Y12267D01*
X260994Y12204D01*
X260930Y12112D01*
X260839Y12021D01*
X260730Y11921D01*
X260603Y11821D01*
X260457Y11730D01*
X260439Y11721D01*
X260384Y11693D01*
X260302Y11657D01*
X260202Y11621D01*
X260065Y11575D01*
X259919Y11539D01*
X259755Y11511D01*
X259582Y11502D01*
X259509D01*
X259455Y11511D01*
X259382Y11520D01*
X259309Y11530D01*
X259218Y11548D01*
X259127Y11575D01*
X258917Y11639D01*
X258808Y11684D01*
X258699Y11739D01*
X258580Y11803D01*
X258471Y11885D01*
X258362Y11967D01*
X258261Y12067D01*
X258252Y12076D01*
X258234Y12094D01*
X258216Y12122D01*
X258179Y12167D01*
X258134Y12231D01*
X258088Y12295D01*
X258043Y12377D01*
X257997Y12468D01*
X257942Y12568D01*
X257897Y12677D01*
X257851Y12805D01*
X257806Y12932D01*
X257769Y13078D01*
X257751Y13233D01*
X257733Y13388D01*
X257724Y13561D01*
Y13570D01*
Y13607D01*
Y13652D01*
X257733Y13716D01*
X257742Y13798D01*
X257751Y13898D01*
X257769Y13998D01*
X257797Y14117D01*
X257860Y14354D01*
X257906Y14481D01*
X257961Y14618D01*
X258024Y14745D01*
X258106Y14864D01*
X258188Y14991D01*
X258289Y15101D01*
X258298Y15110D01*
X258316Y15128D01*
X258343Y15155D01*
X258389Y15192D01*
X258443Y15237D01*
X258516Y15292D01*
X258589Y15337D01*
X258680Y15401D01*
X258771Y15456D01*
X258881Y15501D01*
X259127Y15602D01*
X259254Y15638D01*
X259400Y15665D01*
X259546Y15684D01*
X259701Y15693D01*
X259764D01*
X259810Y15684D01*
D02*
G37*
G36*
X313195Y9361D02*
X312247D01*
X311509Y11274D01*
X308867D01*
X308184Y9361D01*
X307300D01*
X309705Y15665D01*
X310616D01*
X313195Y9361D01*
D02*
G37*
G36*
X304841Y15656D02*
X304996Y15647D01*
X305160Y15638D01*
X305314Y15620D01*
X305451Y15602D01*
X305469D01*
X305533Y15583D01*
X305615Y15565D01*
X305724Y15538D01*
X305843Y15492D01*
X305970Y15438D01*
X306107Y15374D01*
X306225Y15301D01*
X306244Y15292D01*
X306280Y15265D01*
X306335Y15210D01*
X306408Y15146D01*
X306490Y15064D01*
X306572Y14955D01*
X306663Y14836D01*
X306736Y14700D01*
X306745Y14682D01*
X306763Y14636D01*
X306799Y14554D01*
X306836Y14445D01*
X306863Y14317D01*
X306900Y14171D01*
X306918Y14007D01*
X306927Y13834D01*
Y13825D01*
Y13798D01*
Y13761D01*
X306918Y13698D01*
X306909Y13634D01*
X306900Y13552D01*
X306881Y13461D01*
X306863Y13361D01*
X306799Y13151D01*
X306763Y13042D01*
X306708Y12923D01*
X306645Y12805D01*
X306581Y12696D01*
X306499Y12586D01*
X306408Y12477D01*
X306399Y12468D01*
X306380Y12450D01*
X306353Y12422D01*
X306307Y12395D01*
X306253Y12349D01*
X306180Y12304D01*
X306089Y12249D01*
X305989Y12204D01*
X305870Y12149D01*
X305733Y12094D01*
X305588Y12049D01*
X305415Y12012D01*
X305232Y11976D01*
X305032Y11948D01*
X304804Y11930D01*
X304567Y11921D01*
X302955D01*
Y9361D01*
X302117D01*
Y15665D01*
X304704D01*
X304841Y15656D01*
D02*
G37*
G36*
X286894Y13415D02*
X284416Y10518D01*
X283933Y9981D01*
X283988D01*
X284024Y9990D01*
X284125Y9999D01*
X284252Y10008D01*
X284407D01*
X284571Y10017D01*
X284917Y10026D01*
X287031D01*
Y9361D01*
X282986D01*
Y9981D01*
X285892Y13333D01*
X285810D01*
X285719Y13324D01*
X285600D01*
X285464Y13315D01*
X285318D01*
X285163Y13306D01*
X283159D01*
Y13935D01*
X286894D01*
Y13415D01*
D02*
G37*
G36*
X255064Y15684D02*
X255136Y15675D01*
X255228Y15665D01*
X255328Y15647D01*
X255428Y15629D01*
X255665Y15565D01*
X255902Y15474D01*
X256020Y15419D01*
X256139Y15356D01*
X256248Y15274D01*
X256348Y15183D01*
X256357Y15173D01*
X256376Y15164D01*
X256394Y15128D01*
X256430Y15091D01*
X256476Y15046D01*
X256521Y14982D01*
X256567Y14918D01*
X256622Y14836D01*
X256713Y14663D01*
X256804Y14445D01*
X256840Y14335D01*
X256858Y14208D01*
X256877Y14080D01*
X256886Y13944D01*
Y13925D01*
Y13880D01*
X256877Y13807D01*
X256868Y13707D01*
X256849Y13597D01*
X256813Y13470D01*
X256776Y13333D01*
X256722Y13197D01*
X256713Y13178D01*
X256694Y13133D01*
X256658Y13060D01*
X256603Y12960D01*
X256530Y12850D01*
X256439Y12714D01*
X256330Y12577D01*
X256202Y12422D01*
X256184Y12404D01*
X256139Y12349D01*
X256093Y12304D01*
X256048Y12258D01*
X255993Y12204D01*
X255920Y12131D01*
X255847Y12058D01*
X255756Y11976D01*
X255665Y11885D01*
X255556Y11785D01*
X255437Y11684D01*
X255310Y11566D01*
X255164Y11447D01*
X255018Y11320D01*
X255009Y11311D01*
X254991Y11293D01*
X254954Y11265D01*
X254909Y11229D01*
X254854Y11174D01*
X254790Y11119D01*
X254645Y11001D01*
X254490Y10864D01*
X254344Y10728D01*
X254216Y10609D01*
X254162Y10564D01*
X254116Y10518D01*
X254107Y10509D01*
X254080Y10482D01*
X254043Y10445D01*
X253998Y10391D01*
X253952Y10327D01*
X253898Y10263D01*
X253788Y10108D01*
X256895D01*
Y9361D01*
X252713D01*
Y9370D01*
Y9407D01*
Y9461D01*
X252722Y9534D01*
X252731Y9616D01*
X252750Y9708D01*
X252768Y9799D01*
X252804Y9899D01*
Y9908D01*
X252814Y9917D01*
X252832Y9972D01*
X252868Y10054D01*
X252923Y10163D01*
X252996Y10290D01*
X253087Y10436D01*
X253187Y10582D01*
X253315Y10737D01*
Y10746D01*
X253333Y10755D01*
X253378Y10810D01*
X253460Y10892D01*
X253579Y11010D01*
X253715Y11147D01*
X253889Y11311D01*
X254098Y11493D01*
X254326Y11684D01*
X254335Y11693D01*
X254371Y11721D01*
X254426Y11766D01*
X254490Y11821D01*
X254572Y11894D01*
X254672Y11976D01*
X254772Y12067D01*
X254891Y12167D01*
X255118Y12386D01*
X255346Y12604D01*
X255455Y12714D01*
X255556Y12823D01*
X255647Y12923D01*
X255720Y13024D01*
Y13033D01*
X255738Y13042D01*
X255756Y13069D01*
X255774Y13105D01*
X255838Y13206D01*
X255911Y13324D01*
X255975Y13470D01*
X256038Y13625D01*
X256075Y13798D01*
X256093Y13962D01*
Y13971D01*
Y13980D01*
X256084Y14035D01*
X256075Y14126D01*
X256048Y14226D01*
X256011Y14354D01*
X255947Y14481D01*
X255865Y14609D01*
X255756Y14736D01*
X255738Y14754D01*
X255692Y14791D01*
X255628Y14836D01*
X255528Y14900D01*
X255401Y14955D01*
X255255Y15010D01*
X255082Y15046D01*
X254891Y15055D01*
X254836D01*
X254800Y15046D01*
X254690Y15037D01*
X254563Y15010D01*
X254426Y14973D01*
X254271Y14909D01*
X254125Y14827D01*
X253989Y14718D01*
X253971Y14700D01*
X253934Y14654D01*
X253879Y14581D01*
X253825Y14472D01*
X253761Y14345D01*
X253706Y14180D01*
X253670Y13998D01*
X253652Y13789D01*
X252859Y13871D01*
Y13880D01*
X252868Y13907D01*
Y13953D01*
X252877Y14017D01*
X252895Y14089D01*
X252914Y14171D01*
X252941Y14272D01*
X252968Y14372D01*
X253041Y14590D01*
X253151Y14809D01*
X253214Y14918D01*
X253296Y15028D01*
X253378Y15128D01*
X253469Y15219D01*
X253479Y15228D01*
X253497Y15237D01*
X253524Y15265D01*
X253570Y15292D01*
X253624Y15328D01*
X253688Y15365D01*
X253761Y15410D01*
X253852Y15456D01*
X253952Y15501D01*
X254062Y15547D01*
X254180Y15583D01*
X254308Y15620D01*
X254444Y15647D01*
X254590Y15675D01*
X254745Y15684D01*
X254909Y15693D01*
X255000D01*
X255064Y15684D01*
D02*
G37*
G36*
X251693Y9361D02*
X250809D01*
Y10245D01*
X251693D01*
Y9361D01*
D02*
G37*
G36*
X248386D02*
X247612D01*
Y14290D01*
X247603Y14281D01*
X247557Y14244D01*
X247502Y14190D01*
X247411Y14126D01*
X247311Y14044D01*
X247183Y13953D01*
X247038Y13852D01*
X246874Y13752D01*
X246865D01*
X246856Y13743D01*
X246801Y13707D01*
X246710Y13661D01*
X246601Y13607D01*
X246473Y13543D01*
X246336Y13479D01*
X246200Y13415D01*
X246063Y13361D01*
Y14108D01*
X246072D01*
X246090Y14126D01*
X246127Y14135D01*
X246172Y14162D01*
X246227Y14190D01*
X246291Y14226D01*
X246446Y14317D01*
X246628Y14417D01*
X246810Y14545D01*
X247001Y14691D01*
X247193Y14845D01*
X247202Y14855D01*
X247211Y14864D01*
X247238Y14891D01*
X247275Y14918D01*
X247357Y15010D01*
X247466Y15119D01*
X247575Y15246D01*
X247694Y15392D01*
X247794Y15538D01*
X247885Y15693D01*
X248386D01*
Y9361D01*
D02*
G37*
G36*
X270395Y84270D02*
X270477Y84260D01*
X270578Y84251D01*
X270678Y84242D01*
X270796Y84215D01*
X271042Y84160D01*
X271316Y84078D01*
X271452Y84024D01*
X271580Y83960D01*
X271707Y83878D01*
X271835Y83796D01*
X271844Y83787D01*
X271862Y83778D01*
X271899Y83750D01*
X271944Y83705D01*
X271990Y83659D01*
X272053Y83595D01*
X272117Y83522D01*
X272190Y83450D01*
X272263Y83359D01*
X272336Y83249D01*
X272418Y83140D01*
X272491Y83021D01*
X272554Y82885D01*
X272627Y82748D01*
X272682Y82602D01*
X272737Y82438D01*
X271917Y82247D01*
Y82256D01*
X271908Y82275D01*
X271889Y82311D01*
X271871Y82357D01*
X271853Y82411D01*
X271826Y82484D01*
X271753Y82630D01*
X271662Y82794D01*
X271552Y82958D01*
X271416Y83113D01*
X271270Y83249D01*
X271252Y83267D01*
X271197Y83304D01*
X271106Y83350D01*
X270988Y83413D01*
X270833Y83468D01*
X270659Y83522D01*
X270450Y83559D01*
X270222Y83568D01*
X270149D01*
X270104Y83559D01*
X270040D01*
X269967Y83550D01*
X269794Y83522D01*
X269603Y83486D01*
X269402Y83422D01*
X269193Y83331D01*
X269002Y83213D01*
X268992D01*
X268983Y83195D01*
X268919Y83149D01*
X268838Y83076D01*
X268737Y82967D01*
X268619Y82830D01*
X268510Y82675D01*
X268409Y82484D01*
X268318Y82275D01*
Y82265D01*
X268309Y82247D01*
X268300Y82220D01*
X268291Y82174D01*
X268273Y82120D01*
X268254Y82056D01*
X268227Y81901D01*
X268191Y81719D01*
X268154Y81518D01*
X268136Y81300D01*
X268127Y81063D01*
Y81054D01*
Y81026D01*
Y80981D01*
Y80926D01*
X268136Y80862D01*
Y80780D01*
X268145Y80689D01*
X268154Y80589D01*
X268182Y80370D01*
X268227Y80134D01*
X268282Y79897D01*
X268355Y79660D01*
Y79651D01*
X268364Y79633D01*
X268382Y79605D01*
X268400Y79560D01*
X268455Y79450D01*
X268537Y79323D01*
X268637Y79177D01*
X268765Y79022D01*
X268910Y78886D01*
X269083Y78758D01*
X269093D01*
X269111Y78749D01*
X269138Y78731D01*
X269175Y78712D01*
X269220Y78694D01*
X269275Y78667D01*
X269402Y78612D01*
X269566Y78558D01*
X269748Y78512D01*
X269949Y78476D01*
X270159Y78466D01*
X270222D01*
X270277Y78476D01*
X270341D01*
X270405Y78485D01*
X270568Y78521D01*
X270760Y78567D01*
X270951Y78640D01*
X271151Y78740D01*
X271252Y78794D01*
X271343Y78867D01*
X271352Y78876D01*
X271361Y78886D01*
X271388Y78913D01*
X271425Y78940D01*
X271461Y78986D01*
X271507Y79040D01*
X271561Y79095D01*
X271607Y79168D01*
X271662Y79250D01*
X271725Y79341D01*
X271780Y79432D01*
X271835Y79541D01*
X271880Y79660D01*
X271926Y79787D01*
X271971Y79924D01*
X272008Y80070D01*
X272846Y79860D01*
Y79851D01*
X272837Y79815D01*
X272819Y79760D01*
X272791Y79687D01*
X272764Y79605D01*
X272727Y79505D01*
X272682Y79396D01*
X272627Y79277D01*
X272500Y79022D01*
X272336Y78767D01*
X272236Y78640D01*
X272135Y78512D01*
X272026Y78403D01*
X271899Y78293D01*
X271889Y78284D01*
X271871Y78266D01*
X271826Y78248D01*
X271780Y78211D01*
X271707Y78166D01*
X271634Y78120D01*
X271534Y78075D01*
X271434Y78029D01*
X271316Y77974D01*
X271188Y77929D01*
X271051Y77883D01*
X270905Y77838D01*
X270751Y77802D01*
X270587Y77783D01*
X270414Y77765D01*
X270231Y77756D01*
X270131D01*
X270058Y77765D01*
X269976D01*
X269876Y77774D01*
X269767Y77792D01*
X269639Y77811D01*
X269375Y77856D01*
X269102Y77929D01*
X268828Y78029D01*
X268701Y78093D01*
X268573Y78166D01*
X268564Y78175D01*
X268546Y78184D01*
X268510Y78211D01*
X268473Y78248D01*
X268419Y78284D01*
X268355Y78339D01*
X268282Y78403D01*
X268209Y78476D01*
X268136Y78558D01*
X268054Y78640D01*
X267890Y78849D01*
X267735Y79095D01*
X267599Y79368D01*
Y79378D01*
X267580Y79405D01*
X267571Y79450D01*
X267544Y79505D01*
X267526Y79578D01*
X267498Y79669D01*
X267462Y79769D01*
X267435Y79878D01*
X267407Y79997D01*
X267371Y80134D01*
X267325Y80416D01*
X267289Y80735D01*
X267271Y81063D01*
Y81072D01*
Y81108D01*
Y81163D01*
X267280Y81227D01*
Y81318D01*
X267289Y81409D01*
X267298Y81527D01*
X267316Y81646D01*
X267362Y81910D01*
X267425Y82202D01*
X267517Y82493D01*
X267644Y82775D01*
X267653Y82785D01*
X267662Y82812D01*
X267681Y82848D01*
X267717Y82894D01*
X267754Y82958D01*
X267799Y83031D01*
X267917Y83195D01*
X268072Y83377D01*
X268254Y83559D01*
X268464Y83741D01*
X268710Y83896D01*
X268719Y83905D01*
X268746Y83914D01*
X268783Y83933D01*
X268828Y83960D01*
X268901Y83987D01*
X268974Y84014D01*
X269065Y84051D01*
X269165Y84087D01*
X269275Y84124D01*
X269393Y84160D01*
X269648Y84215D01*
X269940Y84260D01*
X270240Y84279D01*
X270332D01*
X270395Y84270D01*
D02*
G37*
G36*
X275861Y79760D02*
X273465D01*
Y80534D01*
X275861D01*
Y79760D01*
D02*
G37*
G36*
X266569D02*
X264173D01*
Y80534D01*
X266569D01*
Y79760D01*
D02*
G37*
G36*
X106064Y67734D02*
X106146Y67725D01*
X106246Y67716D01*
X106347Y67707D01*
X106465Y67680D01*
X106711Y67625D01*
X106984Y67543D01*
X107121Y67488D01*
X107248Y67424D01*
X107376Y67342D01*
X107503Y67260D01*
X107513Y67251D01*
X107531Y67242D01*
X107567Y67215D01*
X107613Y67169D01*
X107658Y67124D01*
X107722Y67060D01*
X107786Y66987D01*
X107859Y66914D01*
X107932Y66823D01*
X108005Y66714D01*
X108087Y66605D01*
X108159Y66486D01*
X108223Y66349D01*
X108296Y66213D01*
X108351Y66067D01*
X108405Y65903D01*
X107586Y65712D01*
Y65721D01*
X107576Y65739D01*
X107558Y65776D01*
X107540Y65821D01*
X107522Y65876D01*
X107494Y65949D01*
X107422Y66094D01*
X107331Y66258D01*
X107221Y66422D01*
X107085Y66577D01*
X106939Y66714D01*
X106921Y66732D01*
X106866Y66768D01*
X106775Y66814D01*
X106656Y66878D01*
X106501Y66932D01*
X106328Y66987D01*
X106119Y67023D01*
X105891Y67033D01*
X105818D01*
X105773Y67023D01*
X105709D01*
X105636Y67014D01*
X105463Y66987D01*
X105272Y66951D01*
X105071Y66887D01*
X104862Y66796D01*
X104670Y66677D01*
X104661D01*
X104652Y66659D01*
X104588Y66614D01*
X104506Y66541D01*
X104406Y66431D01*
X104288Y66295D01*
X104178Y66140D01*
X104078Y65949D01*
X103987Y65739D01*
Y65730D01*
X103978Y65712D01*
X103969Y65684D01*
X103960Y65639D01*
X103942Y65584D01*
X103923Y65520D01*
X103896Y65365D01*
X103859Y65183D01*
X103823Y64983D01*
X103805Y64764D01*
X103796Y64527D01*
Y64518D01*
Y64491D01*
Y64445D01*
Y64391D01*
X103805Y64327D01*
Y64245D01*
X103814Y64154D01*
X103823Y64054D01*
X103850Y63835D01*
X103896Y63598D01*
X103951Y63361D01*
X104024Y63125D01*
Y63115D01*
X104033Y63097D01*
X104051Y63070D01*
X104069Y63024D01*
X104124Y62915D01*
X104206Y62787D01*
X104306Y62642D01*
X104434Y62487D01*
X104579Y62350D01*
X104752Y62223D01*
X104761D01*
X104780Y62213D01*
X104807Y62195D01*
X104843Y62177D01*
X104889Y62159D01*
X104944Y62132D01*
X105071Y62077D01*
X105235Y62022D01*
X105417Y61977D01*
X105618Y61940D01*
X105827Y61931D01*
X105891D01*
X105946Y61940D01*
X106009D01*
X106073Y61949D01*
X106237Y61986D01*
X106429Y62031D01*
X106620Y62104D01*
X106820Y62204D01*
X106921Y62259D01*
X107012Y62332D01*
X107021Y62341D01*
X107030Y62350D01*
X107057Y62377D01*
X107094Y62405D01*
X107130Y62450D01*
X107176Y62505D01*
X107230Y62560D01*
X107276Y62633D01*
X107331Y62714D01*
X107394Y62806D01*
X107449Y62897D01*
X107503Y63006D01*
X107549Y63125D01*
X107595Y63252D01*
X107640Y63389D01*
X107677Y63534D01*
X108515Y63325D01*
Y63316D01*
X108506Y63279D01*
X108487Y63225D01*
X108460Y63152D01*
X108433Y63070D01*
X108396Y62970D01*
X108351Y62860D01*
X108296Y62742D01*
X108169Y62487D01*
X108005Y62232D01*
X107904Y62104D01*
X107804Y61977D01*
X107695Y61867D01*
X107567Y61758D01*
X107558Y61749D01*
X107540Y61731D01*
X107494Y61712D01*
X107449Y61676D01*
X107376Y61630D01*
X107303Y61585D01*
X107203Y61539D01*
X107103Y61494D01*
X106984Y61439D01*
X106857Y61394D01*
X106720Y61348D01*
X106574Y61303D01*
X106420Y61266D01*
X106255Y61248D01*
X106082Y61230D01*
X105900Y61221D01*
X105800D01*
X105727Y61230D01*
X105645D01*
X105545Y61239D01*
X105436Y61257D01*
X105308Y61275D01*
X105044Y61321D01*
X104771Y61394D01*
X104497Y61494D01*
X104370Y61558D01*
X104242Y61630D01*
X104233Y61639D01*
X104215Y61649D01*
X104178Y61676D01*
X104142Y61712D01*
X104087Y61749D01*
X104024Y61804D01*
X103951Y61867D01*
X103878Y61940D01*
X103805Y62022D01*
X103723Y62104D01*
X103559Y62314D01*
X103404Y62560D01*
X103267Y62833D01*
Y62842D01*
X103249Y62869D01*
X103240Y62915D01*
X103213Y62970D01*
X103194Y63042D01*
X103167Y63134D01*
X103131Y63234D01*
X103103Y63343D01*
X103076Y63462D01*
X103040Y63598D01*
X102994Y63881D01*
X102958Y64199D01*
X102939Y64527D01*
Y64536D01*
Y64573D01*
Y64628D01*
X102949Y64691D01*
Y64783D01*
X102958Y64874D01*
X102967Y64992D01*
X102985Y65110D01*
X103031Y65375D01*
X103094Y65666D01*
X103185Y65958D01*
X103313Y66240D01*
X103322Y66249D01*
X103331Y66277D01*
X103349Y66313D01*
X103386Y66359D01*
X103422Y66422D01*
X103468Y66495D01*
X103586Y66659D01*
X103741Y66841D01*
X103923Y67023D01*
X104133Y67206D01*
X104379Y67361D01*
X104388Y67370D01*
X104415Y67379D01*
X104452Y67397D01*
X104497Y67424D01*
X104570Y67452D01*
X104643Y67479D01*
X104734Y67515D01*
X104834Y67552D01*
X104944Y67588D01*
X105062Y67625D01*
X105317Y67680D01*
X105609Y67725D01*
X105909Y67743D01*
X106000D01*
X106064Y67734D01*
D02*
G37*
G36*
X99970Y61330D02*
X99095D01*
X96653Y67634D01*
X97565D01*
X99204Y63052D01*
Y63042D01*
X99213Y63024D01*
X99223Y62997D01*
X99241Y62960D01*
X99250Y62906D01*
X99268Y62851D01*
X99314Y62714D01*
X99368Y62560D01*
X99423Y62387D01*
X99532Y62022D01*
Y62031D01*
X99541Y62050D01*
X99550Y62077D01*
X99560Y62113D01*
X99587Y62213D01*
X99633Y62350D01*
X99678Y62505D01*
X99733Y62678D01*
X99796Y62860D01*
X99869Y63052D01*
X101582Y67634D01*
X102429D01*
X99970Y61330D01*
D02*
G37*
G36*
X35791Y15766D02*
X35863D01*
X36037Y15747D01*
X36228Y15720D01*
X36428Y15675D01*
X36647Y15620D01*
X36856Y15547D01*
X36865D01*
X36884Y15538D01*
X36911Y15529D01*
X36948Y15510D01*
X37048Y15456D01*
X37175Y15392D01*
X37312Y15301D01*
X37458Y15192D01*
X37594Y15073D01*
X37722Y14928D01*
X37740Y14909D01*
X37776Y14855D01*
X37831Y14773D01*
X37904Y14654D01*
X37977Y14508D01*
X38059Y14326D01*
X38141Y14126D01*
X38205Y13898D01*
X37449Y13698D01*
Y13707D01*
X37440Y13716D01*
X37430Y13743D01*
X37421Y13780D01*
X37394Y13862D01*
X37358Y13971D01*
X37303Y14098D01*
X37239Y14217D01*
X37175Y14345D01*
X37093Y14454D01*
X37084Y14463D01*
X37057Y14499D01*
X37002Y14545D01*
X36938Y14609D01*
X36856Y14682D01*
X36747Y14754D01*
X36629Y14827D01*
X36492Y14891D01*
X36474Y14900D01*
X36428Y14918D01*
X36346Y14946D01*
X36237Y14982D01*
X36109Y15010D01*
X35964Y15037D01*
X35800Y15055D01*
X35627Y15064D01*
X35526D01*
X35481Y15055D01*
X35426D01*
X35289Y15046D01*
X35135Y15019D01*
X34962Y14991D01*
X34798Y14946D01*
X34634Y14882D01*
X34615Y14873D01*
X34561Y14855D01*
X34488Y14809D01*
X34397Y14763D01*
X34287Y14691D01*
X34169Y14618D01*
X34060Y14527D01*
X33959Y14426D01*
X33950Y14417D01*
X33914Y14381D01*
X33868Y14317D01*
X33814Y14244D01*
X33750Y14153D01*
X33686Y14044D01*
X33622Y13925D01*
X33559Y13798D01*
Y13789D01*
X33549Y13770D01*
X33540Y13743D01*
X33522Y13698D01*
X33504Y13643D01*
X33486Y13579D01*
X33458Y13506D01*
X33440Y13424D01*
X33395Y13233D01*
X33358Y13014D01*
X33331Y12787D01*
X33322Y12532D01*
Y12522D01*
Y12495D01*
Y12450D01*
X33331Y12395D01*
Y12322D01*
X33340Y12231D01*
X33349Y12140D01*
X33358Y12040D01*
X33395Y11812D01*
X33440Y11575D01*
X33513Y11338D01*
X33604Y11110D01*
Y11101D01*
X33622Y11083D01*
X33632Y11056D01*
X33659Y11019D01*
X33723Y10919D01*
X33823Y10792D01*
X33941Y10655D01*
X34087Y10518D01*
X34260Y10391D01*
X34451Y10272D01*
X34460D01*
X34479Y10263D01*
X34506Y10245D01*
X34552Y10227D01*
X34597Y10209D01*
X34661Y10190D01*
X34807Y10136D01*
X34989Y10090D01*
X35189Y10045D01*
X35408Y10008D01*
X35636Y9999D01*
X35727D01*
X35781Y10008D01*
X35836D01*
X35973Y10026D01*
X36137Y10045D01*
X36310Y10081D01*
X36501Y10136D01*
X36692Y10199D01*
X36702D01*
X36720Y10209D01*
X36738Y10218D01*
X36774Y10236D01*
X36875Y10281D01*
X36984Y10336D01*
X37111Y10400D01*
X37248Y10473D01*
X37376Y10555D01*
X37485Y10646D01*
Y11830D01*
X35627D01*
Y12577D01*
X38305D01*
Y10236D01*
X38296Y10227D01*
X38278Y10218D01*
X38241Y10190D01*
X38196Y10154D01*
X38141Y10117D01*
X38077Y10072D01*
X37995Y10017D01*
X37913Y9963D01*
X37722Y9844D01*
X37503Y9717D01*
X37275Y9598D01*
X37029Y9498D01*
X37020D01*
X37002Y9489D01*
X36966Y9480D01*
X36920Y9461D01*
X36856Y9443D01*
X36783Y9416D01*
X36702Y9398D01*
X36620Y9380D01*
X36419Y9334D01*
X36191Y9288D01*
X35945Y9261D01*
X35690Y9252D01*
X35599D01*
X35535Y9261D01*
X35454D01*
X35353Y9270D01*
X35244Y9288D01*
X35125Y9297D01*
X34861Y9352D01*
X34579Y9416D01*
X34287Y9516D01*
X34142Y9571D01*
X33996Y9644D01*
X33987Y9653D01*
X33959Y9662D01*
X33923Y9689D01*
X33868Y9717D01*
X33805Y9762D01*
X33741Y9808D01*
X33568Y9935D01*
X33386Y10099D01*
X33194Y10300D01*
X33012Y10527D01*
X32848Y10792D01*
Y10801D01*
X32830Y10828D01*
X32812Y10864D01*
X32784Y10928D01*
X32757Y10992D01*
X32730Y11083D01*
X32693Y11174D01*
X32657Y11283D01*
X32620Y11402D01*
X32584Y11539D01*
X32557Y11675D01*
X32529Y11821D01*
X32484Y12140D01*
X32465Y12477D01*
Y12486D01*
Y12522D01*
Y12568D01*
X32474Y12632D01*
Y12714D01*
X32484Y12814D01*
X32502Y12914D01*
X32511Y13033D01*
X32538Y13160D01*
X32557Y13297D01*
X32629Y13588D01*
X32721Y13889D01*
X32848Y14190D01*
X32857Y14199D01*
X32866Y14226D01*
X32884Y14263D01*
X32921Y14317D01*
X32957Y14390D01*
X33003Y14463D01*
X33130Y14636D01*
X33285Y14836D01*
X33477Y15028D01*
X33695Y15219D01*
X33823Y15301D01*
X33950Y15383D01*
X33959Y15392D01*
X33987Y15401D01*
X34023Y15419D01*
X34078Y15447D01*
X34151Y15474D01*
X34233Y15510D01*
X34324Y15547D01*
X34433Y15583D01*
X34552Y15620D01*
X34679Y15647D01*
X34816Y15684D01*
X34962Y15711D01*
X35280Y15756D01*
X35444Y15775D01*
X35736D01*
X35791Y15766D01*
D02*
G37*
G36*
X55277Y12021D02*
Y12012D01*
Y11976D01*
Y11930D01*
Y11867D01*
X55268Y11785D01*
Y11693D01*
X55259Y11584D01*
X55250Y11475D01*
X55222Y11229D01*
X55186Y10974D01*
X55131Y10728D01*
X55095Y10609D01*
X55058Y10500D01*
Y10491D01*
X55049Y10473D01*
X55031Y10445D01*
X55013Y10409D01*
X54958Y10309D01*
X54876Y10181D01*
X54767Y10035D01*
X54639Y9890D01*
X54475Y9735D01*
X54275Y9598D01*
X54266D01*
X54247Y9580D01*
X54220Y9571D01*
X54175Y9544D01*
X54120Y9516D01*
X54047Y9489D01*
X53974Y9461D01*
X53883Y9425D01*
X53783Y9389D01*
X53673Y9361D01*
X53555Y9334D01*
X53418Y9307D01*
X53282Y9288D01*
X53136Y9270D01*
X52808Y9252D01*
X52726D01*
X52662Y9261D01*
X52589D01*
X52498Y9270D01*
X52398Y9279D01*
X52298Y9288D01*
X52070Y9325D01*
X51824Y9380D01*
X51587Y9452D01*
X51359Y9553D01*
X51350D01*
X51332Y9571D01*
X51305Y9589D01*
X51268Y9607D01*
X51168Y9680D01*
X51050Y9780D01*
X50913Y9908D01*
X50786Y10054D01*
X50658Y10236D01*
X50558Y10436D01*
Y10445D01*
X50549Y10464D01*
X50540Y10500D01*
X50521Y10546D01*
X50503Y10600D01*
X50485Y10673D01*
X50458Y10755D01*
X50439Y10855D01*
X50421Y10965D01*
X50394Y11083D01*
X50376Y11211D01*
X50357Y11347D01*
X50339Y11502D01*
X50330Y11666D01*
X50321Y11839D01*
Y12021D01*
Y15665D01*
X51159D01*
Y12021D01*
Y12012D01*
Y11985D01*
Y11939D01*
Y11885D01*
X51168Y11821D01*
Y11739D01*
X51177Y11566D01*
X51196Y11366D01*
X51223Y11165D01*
X51259Y10974D01*
X51278Y10892D01*
X51305Y10810D01*
X51314Y10792D01*
X51332Y10746D01*
X51378Y10682D01*
X51432Y10591D01*
X51496Y10500D01*
X51587Y10400D01*
X51697Y10300D01*
X51824Y10218D01*
X51842Y10209D01*
X51888Y10181D01*
X51970Y10154D01*
X52079Y10117D01*
X52207Y10072D01*
X52371Y10045D01*
X52544Y10017D01*
X52735Y10008D01*
X52826D01*
X52881Y10017D01*
X52963D01*
X53045Y10026D01*
X53245Y10063D01*
X53464Y10108D01*
X53673Y10181D01*
X53874Y10281D01*
X53965Y10345D01*
X54047Y10418D01*
X54056Y10427D01*
X54065Y10436D01*
X54083Y10464D01*
X54111Y10500D01*
X54138Y10555D01*
X54175Y10609D01*
X54211Y10691D01*
X54247Y10773D01*
X54284Y10874D01*
X54311Y10992D01*
X54348Y11129D01*
X54375Y11274D01*
X54402Y11438D01*
X54421Y11611D01*
X54439Y11812D01*
Y12021D01*
Y15665D01*
X55277D01*
Y12021D01*
D02*
G37*
G36*
X59176Y15656D02*
X59249D01*
X59413Y15638D01*
X59595Y15620D01*
X59786Y15583D01*
X59978Y15538D01*
X60151Y15474D01*
X60160D01*
X60169Y15465D01*
X60224Y15438D01*
X60306Y15392D01*
X60397Y15328D01*
X60506Y15246D01*
X60624Y15146D01*
X60734Y15019D01*
X60834Y14882D01*
X60843Y14864D01*
X60870Y14809D01*
X60916Y14736D01*
X60962Y14627D01*
X61007Y14499D01*
X61053Y14363D01*
X61080Y14208D01*
X61089Y14053D01*
Y14035D01*
Y13989D01*
X61080Y13907D01*
X61062Y13807D01*
X61034Y13689D01*
X60989Y13561D01*
X60934Y13433D01*
X60861Y13297D01*
X60852Y13279D01*
X60825Y13242D01*
X60770Y13169D01*
X60697Y13096D01*
X60606Y13005D01*
X60497Y12905D01*
X60360Y12814D01*
X60205Y12723D01*
X60215D01*
X60233Y12714D01*
X60260Y12705D01*
X60296Y12686D01*
X60406Y12650D01*
X60533Y12586D01*
X60670Y12504D01*
X60825Y12404D01*
X60962Y12286D01*
X61089Y12140D01*
X61098Y12122D01*
X61135Y12067D01*
X61189Y11985D01*
X61244Y11876D01*
X61299Y11730D01*
X61353Y11575D01*
X61390Y11393D01*
X61399Y11192D01*
Y11183D01*
Y11174D01*
Y11119D01*
X61390Y11028D01*
X61371Y10919D01*
X61353Y10792D01*
X61317Y10655D01*
X61271Y10509D01*
X61207Y10363D01*
X61198Y10345D01*
X61171Y10300D01*
X61135Y10236D01*
X61080Y10145D01*
X61007Y10054D01*
X60934Y9953D01*
X60843Y9853D01*
X60743Y9771D01*
X60734Y9762D01*
X60697Y9735D01*
X60633Y9698D01*
X60552Y9662D01*
X60451Y9607D01*
X60333Y9553D01*
X60205Y9507D01*
X60050Y9461D01*
X60032D01*
X59978Y9443D01*
X59886Y9434D01*
X59768Y9416D01*
X59622Y9398D01*
X59449Y9380D01*
X59258Y9370D01*
X59039Y9361D01*
X56634D01*
Y15665D01*
X59112D01*
X59176Y15656D01*
D02*
G37*
G36*
X49638Y9361D02*
X48690D01*
X47952Y11274D01*
X45311D01*
X44627Y9361D01*
X43744D01*
X46149Y15665D01*
X47060D01*
X49638Y9361D01*
D02*
G37*
G36*
X29313Y15656D02*
X29386D01*
X29550Y15638D01*
X29732Y15620D01*
X29924Y15583D01*
X30115Y15538D01*
X30288Y15474D01*
X30297D01*
X30306Y15465D01*
X30361Y15438D01*
X30443Y15392D01*
X30534Y15328D01*
X30643Y15246D01*
X30762Y15146D01*
X30871Y15019D01*
X30971Y14882D01*
X30981Y14864D01*
X31008Y14809D01*
X31053Y14736D01*
X31099Y14627D01*
X31144Y14499D01*
X31190Y14363D01*
X31217Y14208D01*
X31226Y14053D01*
Y14035D01*
Y13989D01*
X31217Y13907D01*
X31199Y13807D01*
X31172Y13689D01*
X31126Y13561D01*
X31072Y13433D01*
X30999Y13297D01*
X30990Y13279D01*
X30962Y13242D01*
X30908Y13169D01*
X30835Y13096D01*
X30744Y13005D01*
X30634Y12905D01*
X30498Y12814D01*
X30343Y12723D01*
X30352D01*
X30370Y12714D01*
X30397Y12705D01*
X30434Y12686D01*
X30543Y12650D01*
X30671Y12586D01*
X30807Y12504D01*
X30962Y12404D01*
X31099Y12286D01*
X31226Y12140D01*
X31236Y12122D01*
X31272Y12067D01*
X31327Y11985D01*
X31381Y11876D01*
X31436Y11730D01*
X31491Y11575D01*
X31527Y11393D01*
X31536Y11192D01*
Y11183D01*
Y11174D01*
Y11119D01*
X31527Y11028D01*
X31509Y10919D01*
X31491Y10792D01*
X31454Y10655D01*
X31409Y10509D01*
X31345Y10363D01*
X31336Y10345D01*
X31308Y10300D01*
X31272Y10236D01*
X31217Y10145D01*
X31144Y10054D01*
X31072Y9953D01*
X30981Y9853D01*
X30880Y9771D01*
X30871Y9762D01*
X30835Y9735D01*
X30771Y9698D01*
X30689Y9662D01*
X30589Y9607D01*
X30470Y9553D01*
X30343Y9507D01*
X30188Y9461D01*
X30170D01*
X30115Y9443D01*
X30024Y9434D01*
X29906Y9416D01*
X29760Y9398D01*
X29587Y9380D01*
X29395Y9370D01*
X29177Y9361D01*
X26772D01*
Y15665D01*
X29250D01*
X29313Y15656D01*
D02*
G37*
G36*
X41457Y15684D02*
X41575Y15665D01*
X41712Y15638D01*
X41858Y15602D01*
X42013Y15556D01*
X42158Y15483D01*
X42167D01*
X42177Y15474D01*
X42222Y15447D01*
X42295Y15401D01*
X42386Y15337D01*
X42486Y15246D01*
X42596Y15146D01*
X42696Y15028D01*
X42796Y14891D01*
X42805Y14873D01*
X42842Y14827D01*
X42878Y14745D01*
X42942Y14627D01*
X42997Y14490D01*
X43069Y14335D01*
X43133Y14153D01*
X43188Y13953D01*
Y13944D01*
X43197Y13925D01*
X43206Y13898D01*
X43215Y13852D01*
X43224Y13798D01*
X43233Y13734D01*
X43252Y13652D01*
X43261Y13561D01*
X43279Y13461D01*
X43288Y13352D01*
X43297Y13224D01*
X43315Y13096D01*
X43325Y12951D01*
Y12805D01*
X43334Y12641D01*
Y12468D01*
Y12459D01*
Y12422D01*
Y12359D01*
Y12286D01*
X43325Y12185D01*
Y12076D01*
X43315Y11958D01*
X43306Y11830D01*
X43279Y11539D01*
X43233Y11238D01*
X43179Y10946D01*
X43142Y10810D01*
X43097Y10673D01*
Y10664D01*
X43088Y10646D01*
X43069Y10609D01*
X43051Y10564D01*
X43033Y10500D01*
X42997Y10436D01*
X42924Y10281D01*
X42833Y10117D01*
X42714Y9935D01*
X42577Y9771D01*
X42413Y9616D01*
X42404D01*
X42395Y9598D01*
X42368Y9580D01*
X42331Y9562D01*
X42286Y9534D01*
X42240Y9498D01*
X42104Y9434D01*
X41940Y9370D01*
X41748Y9307D01*
X41521Y9270D01*
X41275Y9252D01*
X41184D01*
X41120Y9261D01*
X41047Y9270D01*
X40956Y9288D01*
X40856Y9307D01*
X40746Y9334D01*
X40637Y9370D01*
X40519Y9407D01*
X40400Y9461D01*
X40282Y9525D01*
X40163Y9598D01*
X40045Y9689D01*
X39936Y9789D01*
X39835Y9899D01*
X39826Y9908D01*
X39808Y9935D01*
X39781Y9981D01*
X39735Y10054D01*
X39690Y10136D01*
X39644Y10245D01*
X39580Y10373D01*
X39526Y10518D01*
X39471Y10682D01*
X39416Y10874D01*
X39362Y11083D01*
X39316Y11320D01*
X39271Y11575D01*
X39243Y11848D01*
X39225Y12149D01*
X39216Y12468D01*
Y12477D01*
Y12513D01*
Y12577D01*
Y12650D01*
X39225Y12750D01*
Y12859D01*
X39234Y12978D01*
X39243Y13115D01*
X39271Y13397D01*
X39316Y13698D01*
X39371Y13998D01*
X39407Y14135D01*
X39444Y14272D01*
Y14281D01*
X39453Y14299D01*
X39471Y14335D01*
X39489Y14381D01*
X39507Y14445D01*
X39544Y14508D01*
X39617Y14663D01*
X39708Y14827D01*
X39826Y15000D01*
X39963Y15173D01*
X40127Y15319D01*
X40136D01*
X40145Y15337D01*
X40172Y15356D01*
X40209Y15374D01*
X40255Y15410D01*
X40309Y15438D01*
X40446Y15510D01*
X40610Y15574D01*
X40801Y15638D01*
X41029Y15675D01*
X41275Y15693D01*
X41357D01*
X41457Y15684D01*
D02*
G37*
G36*
X120133Y134860D02*
X120196D01*
X120370Y134842D01*
X120561Y134815D01*
X120761Y134769D01*
X120980Y134714D01*
X121180Y134642D01*
X121189D01*
X121208Y134632D01*
X121235Y134614D01*
X121271Y134596D01*
X121362Y134550D01*
X121481Y134468D01*
X121618Y134377D01*
X121754Y134259D01*
X121882Y134122D01*
X122000Y133967D01*
Y133958D01*
X122009Y133949D01*
X122028Y133922D01*
X122046Y133895D01*
X122091Y133803D01*
X122146Y133685D01*
X122210Y133539D01*
X122255Y133366D01*
X122301Y133184D01*
X122319Y132983D01*
X121517Y132920D01*
Y132929D01*
Y132947D01*
X121508Y132974D01*
X121499Y133020D01*
X121472Y133120D01*
X121435Y133257D01*
X121381Y133403D01*
X121299Y133548D01*
X121198Y133685D01*
X121071Y133812D01*
X121053Y133822D01*
X121007Y133858D01*
X120916Y133913D01*
X120798Y133967D01*
X120643Y134022D01*
X120461Y134077D01*
X120233Y134113D01*
X119978Y134122D01*
X119850D01*
X119796Y134113D01*
X119723Y134104D01*
X119559Y134086D01*
X119377Y134049D01*
X119194Y134004D01*
X119021Y133931D01*
X118948Y133885D01*
X118875Y133840D01*
X118857Y133831D01*
X118821Y133794D01*
X118766Y133730D01*
X118711Y133658D01*
X118648Y133557D01*
X118593Y133448D01*
X118557Y133320D01*
X118538Y133175D01*
Y133157D01*
Y133120D01*
X118547Y133056D01*
X118566Y132983D01*
X118593Y132892D01*
X118639Y132801D01*
X118693Y132710D01*
X118775Y132619D01*
X118784Y132610D01*
X118830Y132583D01*
X118866Y132555D01*
X118903Y132537D01*
X118957Y132510D01*
X119021Y132473D01*
X119103Y132446D01*
X119194Y132410D01*
X119295Y132373D01*
X119413Y132327D01*
X119541Y132291D01*
X119686Y132246D01*
X119850Y132209D01*
X120032Y132164D01*
X120042D01*
X120078Y132154D01*
X120133Y132145D01*
X120196Y132127D01*
X120278Y132109D01*
X120379Y132082D01*
X120479Y132054D01*
X120588Y132027D01*
X120825Y131963D01*
X121053Y131899D01*
X121162Y131863D01*
X121262Y131826D01*
X121353Y131799D01*
X121426Y131763D01*
X121435D01*
X121454Y131754D01*
X121481Y131735D01*
X121517Y131717D01*
X121618Y131662D01*
X121736Y131590D01*
X121873Y131489D01*
X122009Y131380D01*
X122137Y131253D01*
X122246Y131116D01*
X122255Y131098D01*
X122292Y131052D01*
X122328Y130970D01*
X122383Y130861D01*
X122428Y130733D01*
X122474Y130578D01*
X122501Y130405D01*
X122510Y130223D01*
Y130214D01*
Y130205D01*
Y130178D01*
Y130141D01*
X122492Y130041D01*
X122474Y129913D01*
X122437Y129768D01*
X122392Y129613D01*
X122319Y129449D01*
X122219Y129276D01*
Y129267D01*
X122210Y129258D01*
X122164Y129203D01*
X122100Y129121D01*
X122009Y129030D01*
X121891Y128920D01*
X121745Y128802D01*
X121581Y128693D01*
X121390Y128592D01*
X121381D01*
X121362Y128583D01*
X121335Y128574D01*
X121299Y128556D01*
X121244Y128538D01*
X121180Y128510D01*
X121035Y128474D01*
X120861Y128428D01*
X120652Y128383D01*
X120424Y128356D01*
X120178Y128347D01*
X120032D01*
X119959Y128356D01*
X119878D01*
X119786Y128365D01*
X119677Y128374D01*
X119449Y128410D01*
X119212Y128447D01*
X118976Y128510D01*
X118748Y128592D01*
X118739D01*
X118721Y128602D01*
X118693Y128620D01*
X118657Y128638D01*
X118547Y128693D01*
X118420Y128775D01*
X118274Y128884D01*
X118119Y129011D01*
X117974Y129166D01*
X117837Y129340D01*
Y129349D01*
X117819Y129367D01*
X117810Y129394D01*
X117782Y129430D01*
X117764Y129476D01*
X117737Y129531D01*
X117673Y129667D01*
X117609Y129841D01*
X117554Y130032D01*
X117518Y130251D01*
X117500Y130478D01*
X118283Y130551D01*
Y130542D01*
Y130533D01*
X118292Y130506D01*
Y130469D01*
X118311Y130387D01*
X118338Y130269D01*
X118374Y130150D01*
X118411Y130014D01*
X118475Y129886D01*
X118538Y129768D01*
X118547Y129759D01*
X118575Y129722D01*
X118620Y129658D01*
X118693Y129595D01*
X118784Y129513D01*
X118885Y129430D01*
X119021Y129349D01*
X119167Y129276D01*
X119176D01*
X119185Y129267D01*
X119212Y129258D01*
X119240Y129248D01*
X119331Y129221D01*
X119449Y129185D01*
X119595Y129148D01*
X119759Y129121D01*
X119941Y129103D01*
X120142Y129094D01*
X120224D01*
X120315Y129103D01*
X120424Y129112D01*
X120552Y129130D01*
X120697Y129148D01*
X120843Y129185D01*
X120980Y129230D01*
X120998Y129239D01*
X121044Y129258D01*
X121107Y129294D01*
X121189Y129330D01*
X121271Y129394D01*
X121362Y129458D01*
X121454Y129531D01*
X121526Y129622D01*
X121536Y129631D01*
X121554Y129667D01*
X121581Y129713D01*
X121618Y129786D01*
X121654Y129859D01*
X121681Y129950D01*
X121700Y130050D01*
X121709Y130159D01*
Y130168D01*
Y130214D01*
X121700Y130269D01*
X121690Y130342D01*
X121663Y130414D01*
X121636Y130506D01*
X121590Y130597D01*
X121526Y130679D01*
X121517Y130688D01*
X121490Y130715D01*
X121454Y130752D01*
X121390Y130806D01*
X121317Y130861D01*
X121217Y130925D01*
X121098Y130988D01*
X120962Y131043D01*
X120952Y131052D01*
X120907Y131061D01*
X120834Y131089D01*
X120789Y131098D01*
X120725Y131116D01*
X120661Y131143D01*
X120579Y131161D01*
X120488Y131189D01*
X120379Y131216D01*
X120269Y131243D01*
X120142Y131280D01*
X119996Y131316D01*
X119841Y131353D01*
X119832D01*
X119805Y131362D01*
X119759Y131371D01*
X119704Y131389D01*
X119632Y131407D01*
X119550Y131426D01*
X119367Y131480D01*
X119167Y131544D01*
X118957Y131608D01*
X118775Y131672D01*
X118693Y131708D01*
X118620Y131745D01*
X118611D01*
X118602Y131754D01*
X118547Y131790D01*
X118465Y131836D01*
X118374Y131909D01*
X118265Y131991D01*
X118156Y132091D01*
X118046Y132209D01*
X117955Y132337D01*
X117946Y132355D01*
X117919Y132400D01*
X117882Y132473D01*
X117846Y132564D01*
X117810Y132683D01*
X117773Y132819D01*
X117746Y132965D01*
X117737Y133120D01*
Y133129D01*
Y133138D01*
Y133166D01*
Y133202D01*
X117755Y133293D01*
X117773Y133412D01*
X117800Y133548D01*
X117846Y133703D01*
X117910Y133858D01*
X118001Y134013D01*
Y134022D01*
X118010Y134031D01*
X118055Y134086D01*
X118119Y134159D01*
X118201Y134250D01*
X118311Y134350D01*
X118447Y134459D01*
X118611Y134560D01*
X118793Y134651D01*
X118803D01*
X118821Y134660D01*
X118848Y134669D01*
X118885Y134687D01*
X118930Y134705D01*
X118994Y134723D01*
X119131Y134760D01*
X119304Y134796D01*
X119504Y134833D01*
X119714Y134860D01*
X119950Y134869D01*
X120069D01*
X120133Y134860D01*
D02*
G37*
G36*
X117108Y128456D02*
X116161D01*
X115423Y130369D01*
X112781D01*
X112098Y128456D01*
X111214D01*
X113619Y134760D01*
X114530D01*
X117108Y128456D01*
D02*
G37*
G36*
X110431D02*
X109592D01*
Y134760D01*
X110431D01*
Y128456D01*
D02*
G37*
G36*
X106085Y134751D02*
X106158D01*
X106322Y134733D01*
X106504Y134714D01*
X106695Y134678D01*
X106887Y134632D01*
X107060Y134569D01*
X107069D01*
X107078Y134560D01*
X107133Y134532D01*
X107215Y134487D01*
X107306Y134423D01*
X107415Y134341D01*
X107534Y134241D01*
X107643Y134113D01*
X107743Y133976D01*
X107752Y133958D01*
X107780Y133904D01*
X107825Y133831D01*
X107871Y133721D01*
X107916Y133594D01*
X107962Y133457D01*
X107989Y133302D01*
X107998Y133147D01*
Y133129D01*
Y133084D01*
X107989Y133002D01*
X107971Y132902D01*
X107943Y132783D01*
X107898Y132656D01*
X107843Y132528D01*
X107770Y132391D01*
X107761Y132373D01*
X107734Y132337D01*
X107679Y132264D01*
X107606Y132191D01*
X107515Y132100D01*
X107406Y132000D01*
X107269Y131909D01*
X107114Y131817D01*
X107123D01*
X107142Y131808D01*
X107169Y131799D01*
X107205Y131781D01*
X107315Y131745D01*
X107442Y131681D01*
X107579Y131599D01*
X107734Y131499D01*
X107871Y131380D01*
X107998Y131234D01*
X108007Y131216D01*
X108044Y131161D01*
X108098Y131079D01*
X108153Y130970D01*
X108208Y130824D01*
X108262Y130669D01*
X108299Y130487D01*
X108308Y130287D01*
Y130278D01*
Y130269D01*
Y130214D01*
X108299Y130123D01*
X108281Y130014D01*
X108262Y129886D01*
X108226Y129749D01*
X108180Y129604D01*
X108116Y129458D01*
X108107Y129440D01*
X108080Y129394D01*
X108044Y129330D01*
X107989Y129239D01*
X107916Y129148D01*
X107843Y129048D01*
X107752Y128948D01*
X107652Y128866D01*
X107643Y128857D01*
X107606Y128829D01*
X107543Y128793D01*
X107461Y128756D01*
X107360Y128702D01*
X107242Y128647D01*
X107114Y128602D01*
X106960Y128556D01*
X106941D01*
X106887Y128538D01*
X106796Y128529D01*
X106677Y128510D01*
X106531Y128492D01*
X106358Y128474D01*
X106167Y128465D01*
X105948Y128456D01*
X103543D01*
Y134760D01*
X106021D01*
X106085Y134751D01*
D02*
G37*
G36*
X229578Y106849D02*
X232685D01*
Y106102D01*
X228740D01*
Y112407D01*
X229578D01*
Y106849D01*
D02*
G37*
G36*
X104948Y15766D02*
X105030Y15756D01*
X105130Y15747D01*
X105231Y15738D01*
X105349Y15711D01*
X105595Y15656D01*
X105868Y15574D01*
X106005Y15520D01*
X106132Y15456D01*
X106260Y15374D01*
X106388Y15292D01*
X106397Y15283D01*
X106415Y15274D01*
X106451Y15246D01*
X106497Y15201D01*
X106543Y15155D01*
X106606Y15091D01*
X106670Y15019D01*
X106743Y14946D01*
X106816Y14855D01*
X106889Y14745D01*
X106971Y14636D01*
X107044Y14518D01*
X107107Y14381D01*
X107180Y14244D01*
X107235Y14098D01*
X107290Y13935D01*
X106470Y13743D01*
Y13752D01*
X106460Y13770D01*
X106442Y13807D01*
X106424Y13852D01*
X106406Y13907D01*
X106378Y13980D01*
X106306Y14126D01*
X106214Y14290D01*
X106105Y14454D01*
X105969Y14609D01*
X105823Y14745D01*
X105805Y14763D01*
X105750Y14800D01*
X105659Y14845D01*
X105540Y14909D01*
X105385Y14964D01*
X105212Y15019D01*
X105003Y15055D01*
X104775Y15064D01*
X104702D01*
X104657Y15055D01*
X104593D01*
X104520Y15046D01*
X104347Y15019D01*
X104156Y14982D01*
X103955Y14918D01*
X103746Y14827D01*
X103554Y14709D01*
X103545D01*
X103536Y14691D01*
X103472Y14645D01*
X103390Y14572D01*
X103290Y14463D01*
X103172Y14326D01*
X103062Y14171D01*
X102962Y13980D01*
X102871Y13770D01*
Y13761D01*
X102862Y13743D01*
X102853Y13716D01*
X102844Y13670D01*
X102826Y13616D01*
X102807Y13552D01*
X102780Y13397D01*
X102744Y13215D01*
X102707Y13014D01*
X102689Y12796D01*
X102680Y12559D01*
Y12550D01*
Y12522D01*
Y12477D01*
Y12422D01*
X102689Y12359D01*
Y12276D01*
X102698Y12185D01*
X102707Y12085D01*
X102734Y11867D01*
X102780Y11630D01*
X102835Y11393D01*
X102908Y11156D01*
Y11147D01*
X102917Y11129D01*
X102935Y11101D01*
X102953Y11056D01*
X103008Y10946D01*
X103090Y10819D01*
X103190Y10673D01*
X103318Y10518D01*
X103463Y10382D01*
X103636Y10254D01*
X103646D01*
X103664Y10245D01*
X103691Y10227D01*
X103727Y10209D01*
X103773Y10190D01*
X103828Y10163D01*
X103955Y10108D01*
X104119Y10054D01*
X104301Y10008D01*
X104502Y9972D01*
X104711Y9963D01*
X104775D01*
X104830Y9972D01*
X104894D01*
X104957Y9981D01*
X105121Y10017D01*
X105313Y10063D01*
X105504Y10136D01*
X105704Y10236D01*
X105805Y10290D01*
X105896Y10363D01*
X105905Y10373D01*
X105914Y10382D01*
X105941Y10409D01*
X105978Y10436D01*
X106014Y10482D01*
X106060Y10537D01*
X106114Y10591D01*
X106160Y10664D01*
X106214Y10746D01*
X106278Y10837D01*
X106333Y10928D01*
X106388Y11038D01*
X106433Y11156D01*
X106479Y11283D01*
X106524Y11420D01*
X106561Y11566D01*
X107399Y11356D01*
Y11347D01*
X107390Y11311D01*
X107371Y11256D01*
X107344Y11183D01*
X107317Y11101D01*
X107280Y11001D01*
X107235Y10892D01*
X107180Y10773D01*
X107053Y10518D01*
X106889Y10263D01*
X106789Y10136D01*
X106688Y10008D01*
X106579Y9899D01*
X106451Y9789D01*
X106442Y9780D01*
X106424Y9762D01*
X106378Y9744D01*
X106333Y9708D01*
X106260Y9662D01*
X106187Y9616D01*
X106087Y9571D01*
X105987Y9525D01*
X105868Y9471D01*
X105741Y9425D01*
X105604Y9380D01*
X105458Y9334D01*
X105304Y9297D01*
X105140Y9279D01*
X104966Y9261D01*
X104784Y9252D01*
X104684D01*
X104611Y9261D01*
X104529D01*
X104429Y9270D01*
X104320Y9288D01*
X104192Y9307D01*
X103928Y9352D01*
X103655Y9425D01*
X103381Y9525D01*
X103254Y9589D01*
X103126Y9662D01*
X103117Y9671D01*
X103099Y9680D01*
X103062Y9708D01*
X103026Y9744D01*
X102971Y9780D01*
X102908Y9835D01*
X102835Y9899D01*
X102762Y9972D01*
X102689Y10054D01*
X102607Y10136D01*
X102443Y10345D01*
X102288Y10591D01*
X102152Y10864D01*
Y10874D01*
X102133Y10901D01*
X102124Y10946D01*
X102097Y11001D01*
X102079Y11074D01*
X102051Y11165D01*
X102015Y11265D01*
X101988Y11375D01*
X101960Y11493D01*
X101924Y11630D01*
X101878Y11912D01*
X101842Y12231D01*
X101823Y12559D01*
Y12568D01*
Y12605D01*
Y12659D01*
X101833Y12723D01*
Y12814D01*
X101842Y12905D01*
X101851Y13024D01*
X101869Y13142D01*
X101915Y13406D01*
X101978Y13698D01*
X102069Y13989D01*
X102197Y14272D01*
X102206Y14281D01*
X102215Y14308D01*
X102234Y14345D01*
X102270Y14390D01*
X102306Y14454D01*
X102352Y14527D01*
X102470Y14691D01*
X102625Y14873D01*
X102807Y15055D01*
X103017Y15237D01*
X103263Y15392D01*
X103272Y15401D01*
X103299Y15410D01*
X103336Y15429D01*
X103381Y15456D01*
X103454Y15483D01*
X103527Y15511D01*
X103618Y15547D01*
X103718Y15583D01*
X103828Y15620D01*
X103946Y15656D01*
X104201Y15711D01*
X104493Y15756D01*
X104793Y15775D01*
X104885D01*
X104948Y15766D01*
D02*
G37*
G36*
X96485Y15684D02*
X96531D01*
X96594Y15675D01*
X96749Y15647D01*
X96922Y15611D01*
X97114Y15547D01*
X97305Y15465D01*
X97496Y15356D01*
X97505D01*
X97514Y15337D01*
X97542Y15319D01*
X97578Y15292D01*
X97669Y15219D01*
X97788Y15119D01*
X97906Y14982D01*
X98043Y14818D01*
X98161Y14627D01*
X98271Y14408D01*
Y14399D01*
X98280Y14381D01*
X98298Y14345D01*
X98316Y14299D01*
X98334Y14235D01*
X98362Y14153D01*
X98380Y14062D01*
X98407Y13962D01*
X98435Y13843D01*
X98462Y13707D01*
X98480Y13561D01*
X98498Y13406D01*
X98517Y13233D01*
X98535Y13051D01*
X98544Y12850D01*
Y12641D01*
Y12632D01*
Y12586D01*
Y12522D01*
Y12440D01*
X98535Y12340D01*
Y12222D01*
X98526Y12085D01*
X98507Y11948D01*
X98480Y11639D01*
X98435Y11311D01*
X98371Y11001D01*
X98325Y10846D01*
X98280Y10710D01*
Y10701D01*
X98271Y10682D01*
X98252Y10646D01*
X98234Y10591D01*
X98207Y10537D01*
X98170Y10464D01*
X98079Y10309D01*
X97970Y10136D01*
X97842Y9953D01*
X97679Y9780D01*
X97496Y9625D01*
X97487D01*
X97469Y9607D01*
X97442Y9589D01*
X97405Y9571D01*
X97351Y9544D01*
X97296Y9507D01*
X97223Y9471D01*
X97150Y9443D01*
X96977Y9370D01*
X96767Y9307D01*
X96540Y9270D01*
X96285Y9252D01*
X96212D01*
X96166Y9261D01*
X96102D01*
X96030Y9270D01*
X95856Y9307D01*
X95665Y9352D01*
X95465Y9425D01*
X95264Y9525D01*
X95164Y9589D01*
X95073Y9662D01*
X95064Y9671D01*
X95055Y9680D01*
X95028Y9708D01*
X95000Y9735D01*
X94964Y9780D01*
X94918Y9835D01*
X94827Y9963D01*
X94736Y10126D01*
X94645Y10327D01*
X94572Y10555D01*
X94517Y10819D01*
X95264Y10883D01*
Y10874D01*
X95273Y10855D01*
Y10837D01*
X95283Y10801D01*
X95310Y10701D01*
X95346Y10591D01*
X95392Y10464D01*
X95456Y10336D01*
X95529Y10218D01*
X95620Y10117D01*
X95629Y10108D01*
X95665Y10081D01*
X95729Y10045D01*
X95802Y10008D01*
X95902Y9963D01*
X96021Y9926D01*
X96157Y9899D01*
X96303Y9890D01*
X96367D01*
X96430Y9899D01*
X96512Y9908D01*
X96613Y9926D01*
X96713Y9953D01*
X96822Y9990D01*
X96922Y10045D01*
X96931Y10054D01*
X96968Y10072D01*
X97023Y10108D01*
X97077Y10163D01*
X97150Y10227D01*
X97223Y10300D01*
X97296Y10382D01*
X97369Y10482D01*
X97378Y10491D01*
X97396Y10537D01*
X97433Y10600D01*
X97469Y10682D01*
X97514Y10792D01*
X97560Y10919D01*
X97606Y11065D01*
X97651Y11229D01*
Y11238D01*
X97660Y11247D01*
Y11274D01*
X97669Y11311D01*
X97688Y11402D01*
X97715Y11520D01*
X97733Y11666D01*
X97751Y11821D01*
X97760Y11994D01*
X97770Y12176D01*
Y12185D01*
Y12213D01*
Y12258D01*
Y12331D01*
X97760Y12313D01*
X97724Y12267D01*
X97669Y12204D01*
X97606Y12112D01*
X97514Y12021D01*
X97405Y11921D01*
X97278Y11821D01*
X97132Y11730D01*
X97114Y11721D01*
X97059Y11693D01*
X96977Y11657D01*
X96877Y11621D01*
X96740Y11575D01*
X96594Y11539D01*
X96430Y11511D01*
X96257Y11502D01*
X96184D01*
X96130Y11511D01*
X96057Y11520D01*
X95984Y11530D01*
X95893Y11548D01*
X95802Y11575D01*
X95592Y11639D01*
X95483Y11684D01*
X95374Y11739D01*
X95255Y11803D01*
X95146Y11885D01*
X95037Y11967D01*
X94936Y12067D01*
X94927Y12076D01*
X94909Y12094D01*
X94891Y12122D01*
X94854Y12167D01*
X94809Y12231D01*
X94763Y12295D01*
X94718Y12377D01*
X94672Y12468D01*
X94617Y12568D01*
X94572Y12677D01*
X94526Y12805D01*
X94481Y12932D01*
X94444Y13078D01*
X94426Y13233D01*
X94408Y13388D01*
X94399Y13561D01*
Y13570D01*
Y13607D01*
Y13652D01*
X94408Y13716D01*
X94417Y13798D01*
X94426Y13898D01*
X94444Y13998D01*
X94472Y14117D01*
X94535Y14354D01*
X94581Y14481D01*
X94636Y14618D01*
X94700Y14745D01*
X94782Y14864D01*
X94863Y14991D01*
X94964Y15101D01*
X94973Y15110D01*
X94991Y15128D01*
X95018Y15155D01*
X95064Y15192D01*
X95119Y15237D01*
X95191Y15292D01*
X95264Y15337D01*
X95355Y15401D01*
X95446Y15456D01*
X95556Y15501D01*
X95802Y15602D01*
X95929Y15638D01*
X96075Y15665D01*
X96221Y15684D01*
X96376Y15693D01*
X96439D01*
X96485Y15684D01*
D02*
G37*
G36*
X100594Y9361D02*
X99756D01*
Y15665D01*
X100594D01*
Y9361D01*
D02*
G37*
G36*
X93634Y14918D02*
X90208D01*
Y12969D01*
X93169D01*
Y12222D01*
X90208D01*
Y9361D01*
X89370D01*
Y15665D01*
X93634D01*
Y14918D01*
D02*
G37*
G36*
X85562Y15656D02*
X85744Y15647D01*
X85927Y15629D01*
X86109Y15602D01*
X86264Y15574D01*
X86273D01*
X86291Y15565D01*
X86318D01*
X86355Y15547D01*
X86455Y15520D01*
X86582Y15474D01*
X86728Y15410D01*
X86883Y15328D01*
X87038Y15237D01*
X87184Y15119D01*
X87193Y15110D01*
X87202Y15101D01*
X87229Y15073D01*
X87266Y15046D01*
X87357Y14955D01*
X87466Y14827D01*
X87585Y14672D01*
X87712Y14490D01*
X87831Y14281D01*
X87931Y14044D01*
Y14035D01*
X87940Y14017D01*
X87958Y13980D01*
X87967Y13925D01*
X87994Y13862D01*
X88013Y13789D01*
X88031Y13707D01*
X88058Y13607D01*
X88086Y13506D01*
X88104Y13388D01*
X88149Y13133D01*
X88177Y12850D01*
X88186Y12541D01*
Y12532D01*
Y12513D01*
Y12468D01*
Y12422D01*
X88177Y12359D01*
Y12286D01*
X88168Y12112D01*
X88140Y11912D01*
X88113Y11703D01*
X88067Y11484D01*
X88013Y11265D01*
Y11256D01*
X88004Y11238D01*
X87994Y11211D01*
X87985Y11174D01*
X87949Y11074D01*
X87894Y10946D01*
X87840Y10801D01*
X87767Y10655D01*
X87676Y10500D01*
X87585Y10354D01*
X87576Y10336D01*
X87539Y10290D01*
X87484Y10227D01*
X87411Y10145D01*
X87330Y10054D01*
X87229Y9963D01*
X87129Y9862D01*
X87011Y9780D01*
X86992Y9771D01*
X86956Y9744D01*
X86892Y9708D01*
X86801Y9662D01*
X86692Y9607D01*
X86564Y9562D01*
X86418Y9507D01*
X86255Y9461D01*
X86236D01*
X86209Y9452D01*
X86182Y9443D01*
X86090Y9434D01*
X85963Y9416D01*
X85817Y9398D01*
X85644Y9380D01*
X85453Y9370D01*
X85243Y9361D01*
X82975D01*
Y15665D01*
X85398D01*
X85562Y15656D01*
D02*
G37*
G36*
X79076Y9361D02*
X78192D01*
Y10245D01*
X79076D01*
Y9361D01*
D02*
G37*
G36*
X74539Y14918D02*
X71114D01*
Y12969D01*
X74075D01*
Y12222D01*
X71114D01*
Y9361D01*
X70276D01*
Y15665D01*
X74539D01*
Y14918D01*
D02*
G37*
G36*
X76425Y13935D02*
X77208D01*
Y13333D01*
X76425D01*
Y10646D01*
Y10628D01*
Y10591D01*
Y10537D01*
X76434Y10473D01*
X76443Y10327D01*
X76452Y10263D01*
X76461Y10218D01*
X76470Y10199D01*
X76498Y10163D01*
X76534Y10117D01*
X76598Y10072D01*
X76616Y10063D01*
X76662Y10045D01*
X76744Y10026D01*
X76862Y10017D01*
X76953D01*
X76999Y10026D01*
X77062D01*
X77135Y10035D01*
X77208Y10045D01*
X77308Y9361D01*
X77290D01*
X77254Y9352D01*
X77190Y9343D01*
X77108Y9334D01*
X77017Y9316D01*
X76917Y9307D01*
X76716Y9297D01*
X76644D01*
X76571Y9307D01*
X76480Y9316D01*
X76370Y9325D01*
X76261Y9352D01*
X76161Y9380D01*
X76060Y9425D01*
X76051Y9434D01*
X76024Y9452D01*
X75988Y9480D01*
X75933Y9525D01*
X75887Y9571D01*
X75833Y9635D01*
X75778Y9698D01*
X75742Y9780D01*
Y9789D01*
X75723Y9826D01*
X75714Y9890D01*
X75696Y9981D01*
X75678Y10099D01*
X75669Y10172D01*
Y10254D01*
X75660Y10354D01*
X75651Y10454D01*
Y10564D01*
Y10691D01*
Y13333D01*
X75077D01*
Y13935D01*
X75651D01*
Y15064D01*
X76425Y15529D01*
Y13935D01*
D02*
G37*
G36*
X305286Y25723D02*
X305350D01*
X305423Y25714D01*
X305596Y25677D01*
X305787Y25632D01*
X305988Y25559D01*
X306188Y25450D01*
X306288Y25386D01*
X306379Y25313D01*
X306388Y25304D01*
X306397Y25295D01*
X306425Y25267D01*
X306452Y25240D01*
X306498Y25195D01*
X306534Y25140D01*
X306634Y25012D01*
X306734Y24848D01*
X306826Y24648D01*
X306908Y24420D01*
X306962Y24165D01*
X306188Y24101D01*
Y24111D01*
X306179Y24120D01*
X306170Y24174D01*
X306142Y24256D01*
X306106Y24356D01*
X306069Y24466D01*
X306015Y24575D01*
X305951Y24675D01*
X305887Y24757D01*
X305869Y24776D01*
X305833Y24812D01*
X305769Y24867D01*
X305678Y24930D01*
X305559Y24985D01*
X305432Y25040D01*
X305277Y25076D01*
X305113Y25094D01*
X305049D01*
X304976Y25085D01*
X304894Y25067D01*
X304785Y25040D01*
X304676Y25003D01*
X304566Y24958D01*
X304457Y24885D01*
X304439Y24876D01*
X304393Y24839D01*
X304329Y24776D01*
X304247Y24685D01*
X304156Y24575D01*
X304056Y24448D01*
X303965Y24284D01*
X303874Y24101D01*
Y24092D01*
X303865Y24074D01*
X303856Y24047D01*
X303837Y24010D01*
X303828Y23956D01*
X303810Y23892D01*
X303792Y23819D01*
X303774Y23728D01*
X303746Y23628D01*
X303728Y23518D01*
X303710Y23400D01*
X303701Y23272D01*
X303683Y23127D01*
X303674Y22981D01*
X303664Y22817D01*
Y22653D01*
X303674Y22662D01*
X303710Y22717D01*
X303774Y22790D01*
X303856Y22881D01*
X303947Y22990D01*
X304065Y23090D01*
X304193Y23190D01*
X304339Y23281D01*
X304348D01*
X304357Y23291D01*
X304412Y23318D01*
X304493Y23345D01*
X304603Y23391D01*
X304730Y23427D01*
X304876Y23455D01*
X305031Y23482D01*
X305195Y23491D01*
X305268D01*
X305323Y23482D01*
X305395Y23473D01*
X305468Y23464D01*
X305559Y23446D01*
X305650Y23418D01*
X305860Y23354D01*
X305969Y23309D01*
X306079Y23245D01*
X306188Y23181D01*
X306306Y23108D01*
X306416Y23017D01*
X306516Y22917D01*
X306525Y22908D01*
X306543Y22890D01*
X306571Y22862D01*
X306598Y22817D01*
X306643Y22753D01*
X306689Y22689D01*
X306734Y22607D01*
X306789Y22516D01*
X306844Y22416D01*
X306889Y22307D01*
X306935Y22179D01*
X306980Y22052D01*
X307008Y21915D01*
X307035Y21760D01*
X307053Y21605D01*
X307063Y21441D01*
Y21432D01*
Y21414D01*
Y21387D01*
Y21341D01*
X307053Y21286D01*
Y21232D01*
X307026Y21086D01*
X306999Y20913D01*
X306953Y20731D01*
X306889Y20530D01*
X306798Y20339D01*
Y20330D01*
X306789Y20321D01*
X306771Y20293D01*
X306753Y20257D01*
X306698Y20166D01*
X306616Y20048D01*
X306516Y19920D01*
X306397Y19792D01*
X306252Y19665D01*
X306097Y19556D01*
X306088D01*
X306079Y19546D01*
X306051Y19528D01*
X306015Y19519D01*
X305924Y19474D01*
X305805Y19428D01*
X305650Y19373D01*
X305477Y19337D01*
X305286Y19300D01*
X305077Y19291D01*
X305031D01*
X304985Y19300D01*
X304912D01*
X304831Y19310D01*
X304739Y19328D01*
X304630Y19355D01*
X304521Y19383D01*
X304393Y19419D01*
X304266Y19464D01*
X304138Y19519D01*
X304001Y19592D01*
X303874Y19674D01*
X303746Y19765D01*
X303619Y19874D01*
X303501Y20002D01*
X303491Y20011D01*
X303473Y20038D01*
X303446Y20075D01*
X303409Y20139D01*
X303355Y20221D01*
X303309Y20312D01*
X303255Y20430D01*
X303200Y20558D01*
X303136Y20712D01*
X303081Y20886D01*
X303036Y21077D01*
X302990Y21286D01*
X302945Y21523D01*
X302917Y21778D01*
X302899Y22052D01*
X302890Y22343D01*
Y22352D01*
Y22361D01*
Y22389D01*
Y22425D01*
X302899Y22516D01*
Y22644D01*
X302908Y22790D01*
X302926Y22963D01*
X302945Y23154D01*
X302972Y23363D01*
X303009Y23573D01*
X303054Y23801D01*
X303109Y24019D01*
X303172Y24238D01*
X303255Y24448D01*
X303346Y24648D01*
X303446Y24839D01*
X303564Y25003D01*
X303573Y25012D01*
X303592Y25031D01*
X303628Y25067D01*
X303674Y25122D01*
X303728Y25176D01*
X303801Y25231D01*
X303892Y25304D01*
X303983Y25368D01*
X304093Y25431D01*
X304211Y25504D01*
X304348Y25559D01*
X304484Y25623D01*
X304639Y25668D01*
X304803Y25705D01*
X304976Y25723D01*
X305158Y25732D01*
X305231D01*
X305286Y25723D01*
D02*
G37*
G36*
X284706Y25723D02*
X284770D01*
X284843Y25714D01*
X285016Y25677D01*
X285208Y25632D01*
X285408Y25559D01*
X285608Y25450D01*
X285709Y25386D01*
X285800Y25313D01*
X285809Y25304D01*
X285818Y25295D01*
X285845Y25267D01*
X285873Y25240D01*
X285918Y25195D01*
X285955Y25140D01*
X286055Y25012D01*
X286155Y24848D01*
X286246Y24648D01*
X286328Y24420D01*
X286383Y24165D01*
X285608Y24101D01*
Y24111D01*
X285599Y24120D01*
X285590Y24174D01*
X285563Y24256D01*
X285526Y24356D01*
X285490Y24466D01*
X285435Y24575D01*
X285372Y24675D01*
X285308Y24757D01*
X285290Y24776D01*
X285253Y24812D01*
X285189Y24867D01*
X285098Y24930D01*
X284980Y24985D01*
X284852Y25040D01*
X284697Y25076D01*
X284533Y25094D01*
X284470D01*
X284397Y25085D01*
X284315Y25067D01*
X284206Y25040D01*
X284096Y25003D01*
X283987Y24958D01*
X283877Y24885D01*
X283859Y24876D01*
X283814Y24839D01*
X283750Y24776D01*
X283668Y24685D01*
X283577Y24575D01*
X283477Y24448D01*
X283386Y24284D01*
X283295Y24101D01*
Y24092D01*
X283285Y24074D01*
X283276Y24047D01*
X283258Y24010D01*
X283249Y23956D01*
X283231Y23892D01*
X283212Y23819D01*
X283194Y23728D01*
X283167Y23628D01*
X283149Y23518D01*
X283131Y23400D01*
X283121Y23272D01*
X283103Y23127D01*
X283094Y22981D01*
X283085Y22817D01*
Y22653D01*
X283094Y22662D01*
X283131Y22717D01*
X283194Y22790D01*
X283276Y22881D01*
X283367Y22990D01*
X283486Y23090D01*
X283613Y23190D01*
X283759Y23281D01*
X283768D01*
X283777Y23291D01*
X283832Y23318D01*
X283914Y23345D01*
X284023Y23391D01*
X284151Y23427D01*
X284297Y23455D01*
X284452Y23482D01*
X284615Y23491D01*
X284688D01*
X284743Y23482D01*
X284816Y23473D01*
X284889Y23464D01*
X284980Y23446D01*
X285071Y23418D01*
X285280Y23354D01*
X285390Y23309D01*
X285499Y23245D01*
X285608Y23181D01*
X285727Y23108D01*
X285836Y23017D01*
X285936Y22917D01*
X285946Y22908D01*
X285964Y22890D01*
X285991Y22862D01*
X286018Y22817D01*
X286064Y22753D01*
X286109Y22689D01*
X286155Y22607D01*
X286210Y22516D01*
X286264Y22416D01*
X286310Y22307D01*
X286355Y22179D01*
X286401Y22052D01*
X286428Y21915D01*
X286456Y21760D01*
X286474Y21605D01*
X286483Y21441D01*
Y21432D01*
Y21414D01*
Y21387D01*
Y21341D01*
X286474Y21286D01*
Y21232D01*
X286446Y21086D01*
X286419Y20913D01*
X286374Y20731D01*
X286310Y20530D01*
X286219Y20339D01*
Y20330D01*
X286210Y20321D01*
X286192Y20293D01*
X286173Y20257D01*
X286119Y20166D01*
X286037Y20048D01*
X285936Y19920D01*
X285818Y19792D01*
X285672Y19665D01*
X285517Y19556D01*
X285508D01*
X285499Y19546D01*
X285472Y19528D01*
X285435Y19519D01*
X285344Y19474D01*
X285226Y19428D01*
X285071Y19373D01*
X284898Y19337D01*
X284706Y19300D01*
X284497Y19291D01*
X284452D01*
X284406Y19300D01*
X284333D01*
X284251Y19310D01*
X284160Y19328D01*
X284051Y19355D01*
X283941Y19382D01*
X283814Y19419D01*
X283686Y19464D01*
X283559Y19519D01*
X283422Y19592D01*
X283295Y19674D01*
X283167Y19765D01*
X283039Y19874D01*
X282921Y20002D01*
X282912Y20011D01*
X282894Y20038D01*
X282866Y20075D01*
X282830Y20139D01*
X282775Y20221D01*
X282730Y20312D01*
X282675Y20430D01*
X282620Y20558D01*
X282557Y20712D01*
X282502Y20886D01*
X282456Y21077D01*
X282411Y21286D01*
X282365Y21523D01*
X282338Y21778D01*
X282320Y22052D01*
X282311Y22343D01*
Y22352D01*
Y22361D01*
Y22389D01*
Y22425D01*
X282320Y22516D01*
Y22644D01*
X282329Y22790D01*
X282347Y22963D01*
X282365Y23154D01*
X282393Y23363D01*
X282429Y23573D01*
X282475Y23801D01*
X282529Y24019D01*
X282593Y24238D01*
X282675Y24448D01*
X282766Y24648D01*
X282866Y24839D01*
X282985Y25003D01*
X282994Y25012D01*
X283012Y25031D01*
X283049Y25067D01*
X283094Y25122D01*
X283149Y25176D01*
X283222Y25231D01*
X283313Y25304D01*
X283404Y25368D01*
X283513Y25431D01*
X283632Y25504D01*
X283768Y25559D01*
X283905Y25623D01*
X284060Y25668D01*
X284224Y25705D01*
X284397Y25723D01*
X284579Y25732D01*
X284652D01*
X284706Y25723D01*
D02*
G37*
G36*
X289917Y25805D02*
X289981D01*
X290154Y25787D01*
X290346Y25759D01*
X290546Y25714D01*
X290765Y25659D01*
X290965Y25586D01*
X290974D01*
X290992Y25577D01*
X291020Y25559D01*
X291056Y25541D01*
X291147Y25495D01*
X291266Y25413D01*
X291402Y25322D01*
X291539Y25204D01*
X291667Y25067D01*
X291785Y24912D01*
Y24903D01*
X291794Y24894D01*
X291812Y24867D01*
X291831Y24839D01*
X291876Y24748D01*
X291931Y24630D01*
X291995Y24484D01*
X292040Y24311D01*
X292086Y24129D01*
X292104Y23928D01*
X291302Y23865D01*
Y23874D01*
Y23892D01*
X291293Y23919D01*
X291284Y23965D01*
X291257Y24065D01*
X291220Y24202D01*
X291165Y24347D01*
X291084Y24493D01*
X290983Y24630D01*
X290856Y24757D01*
X290838Y24767D01*
X290792Y24803D01*
X290701Y24858D01*
X290582Y24912D01*
X290428Y24967D01*
X290245Y25021D01*
X290018Y25058D01*
X289763Y25067D01*
X289635D01*
X289580Y25058D01*
X289508Y25049D01*
X289344Y25031D01*
X289161Y24994D01*
X288979Y24949D01*
X288806Y24876D01*
X288733Y24830D01*
X288660Y24785D01*
X288642Y24776D01*
X288606Y24739D01*
X288551Y24675D01*
X288496Y24602D01*
X288433Y24502D01*
X288378Y24393D01*
X288341Y24265D01*
X288323Y24120D01*
Y24101D01*
Y24065D01*
X288332Y24001D01*
X288351Y23928D01*
X288378Y23837D01*
X288423Y23746D01*
X288478Y23655D01*
X288560Y23564D01*
X288569Y23555D01*
X288615Y23528D01*
X288651Y23500D01*
X288688Y23482D01*
X288742Y23455D01*
X288806Y23418D01*
X288888Y23391D01*
X288979Y23354D01*
X289079Y23318D01*
X289198Y23272D01*
X289325Y23236D01*
X289471Y23190D01*
X289635Y23154D01*
X289817Y23108D01*
X289826D01*
X289863Y23099D01*
X289917Y23090D01*
X289981Y23072D01*
X290063Y23054D01*
X290163Y23026D01*
X290264Y22999D01*
X290373Y22972D01*
X290610Y22908D01*
X290838Y22844D01*
X290947Y22808D01*
X291047Y22771D01*
X291138Y22744D01*
X291211Y22708D01*
X291220D01*
X291238Y22698D01*
X291266Y22680D01*
X291302Y22662D01*
X291402Y22607D01*
X291521Y22535D01*
X291657Y22434D01*
X291794Y22325D01*
X291922Y22197D01*
X292031Y22061D01*
X292040Y22043D01*
X292076Y21997D01*
X292113Y21915D01*
X292168Y21806D01*
X292213Y21678D01*
X292259Y21523D01*
X292286Y21350D01*
X292295Y21168D01*
Y21159D01*
Y21150D01*
Y21123D01*
Y21086D01*
X292277Y20986D01*
X292259Y20858D01*
X292222Y20712D01*
X292177Y20558D01*
X292104Y20394D01*
X292004Y20221D01*
Y20211D01*
X291995Y20202D01*
X291949Y20148D01*
X291885Y20066D01*
X291794Y19975D01*
X291676Y19865D01*
X291530Y19747D01*
X291366Y19637D01*
X291175Y19537D01*
X291165D01*
X291147Y19528D01*
X291120Y19519D01*
X291084Y19501D01*
X291029Y19483D01*
X290965Y19455D01*
X290819Y19419D01*
X290646Y19373D01*
X290437Y19328D01*
X290209Y19300D01*
X289963Y19291D01*
X289817D01*
X289744Y19300D01*
X289662D01*
X289571Y19310D01*
X289462Y19319D01*
X289234Y19355D01*
X288997Y19392D01*
X288760Y19455D01*
X288533Y19537D01*
X288524D01*
X288505Y19546D01*
X288478Y19565D01*
X288442Y19583D01*
X288332Y19637D01*
X288205Y19719D01*
X288059Y19829D01*
X287904Y19956D01*
X287758Y20111D01*
X287622Y20284D01*
Y20293D01*
X287603Y20312D01*
X287594Y20339D01*
X287567Y20375D01*
X287549Y20421D01*
X287522Y20476D01*
X287458Y20612D01*
X287394Y20785D01*
X287339Y20977D01*
X287303Y21195D01*
X287285Y21423D01*
X288068Y21496D01*
Y21487D01*
Y21478D01*
X288077Y21450D01*
Y21414D01*
X288095Y21332D01*
X288123Y21214D01*
X288159Y21095D01*
X288196Y20958D01*
X288259Y20831D01*
X288323Y20712D01*
X288332Y20703D01*
X288360Y20667D01*
X288405Y20603D01*
X288478Y20539D01*
X288569Y20457D01*
X288669Y20375D01*
X288806Y20293D01*
X288952Y20221D01*
X288961D01*
X288970Y20211D01*
X288997Y20202D01*
X289025Y20193D01*
X289116Y20166D01*
X289234Y20130D01*
X289380Y20093D01*
X289544Y20066D01*
X289726Y20048D01*
X289927Y20038D01*
X290009D01*
X290100Y20048D01*
X290209Y20057D01*
X290336Y20075D01*
X290482Y20093D01*
X290628Y20130D01*
X290765Y20175D01*
X290783Y20184D01*
X290828Y20202D01*
X290892Y20239D01*
X290974Y20275D01*
X291056Y20339D01*
X291147Y20403D01*
X291238Y20476D01*
X291311Y20567D01*
X291320Y20576D01*
X291339Y20612D01*
X291366Y20658D01*
X291402Y20731D01*
X291439Y20804D01*
X291466Y20895D01*
X291484Y20995D01*
X291494Y21104D01*
Y21113D01*
Y21159D01*
X291484Y21214D01*
X291475Y21286D01*
X291448Y21359D01*
X291421Y21450D01*
X291375Y21542D01*
X291311Y21623D01*
X291302Y21633D01*
X291275Y21660D01*
X291238Y21696D01*
X291175Y21751D01*
X291102Y21806D01*
X291002Y21869D01*
X290883Y21933D01*
X290746Y21988D01*
X290737Y21997D01*
X290692Y22006D01*
X290619Y22034D01*
X290573Y22043D01*
X290510Y22061D01*
X290446Y22088D01*
X290364Y22106D01*
X290273Y22134D01*
X290163Y22161D01*
X290054Y22188D01*
X289927Y22225D01*
X289781Y22261D01*
X289626Y22298D01*
X289617D01*
X289590Y22307D01*
X289544Y22316D01*
X289489Y22334D01*
X289416Y22352D01*
X289334Y22370D01*
X289152Y22425D01*
X288952Y22489D01*
X288742Y22553D01*
X288560Y22616D01*
X288478Y22653D01*
X288405Y22689D01*
X288396D01*
X288387Y22698D01*
X288332Y22735D01*
X288250Y22781D01*
X288159Y22853D01*
X288050Y22935D01*
X287941Y23036D01*
X287831Y23154D01*
X287740Y23281D01*
X287731Y23300D01*
X287704Y23345D01*
X287667Y23418D01*
X287631Y23509D01*
X287594Y23628D01*
X287558Y23764D01*
X287531Y23910D01*
X287522Y24065D01*
Y24074D01*
Y24083D01*
Y24111D01*
Y24147D01*
X287540Y24238D01*
X287558Y24356D01*
X287585Y24493D01*
X287631Y24648D01*
X287695Y24803D01*
X287786Y24958D01*
Y24967D01*
X287795Y24976D01*
X287840Y25031D01*
X287904Y25104D01*
X287986Y25195D01*
X288095Y25295D01*
X288232Y25404D01*
X288396Y25504D01*
X288578Y25596D01*
X288587D01*
X288606Y25605D01*
X288633Y25614D01*
X288669Y25632D01*
X288715Y25650D01*
X288779Y25668D01*
X288915Y25705D01*
X289089Y25741D01*
X289289Y25778D01*
X289498Y25805D01*
X289735Y25814D01*
X289854D01*
X289917Y25805D01*
D02*
G37*
G36*
X263690Y19401D02*
X262888D01*
Y24675D01*
X261048Y19401D01*
X260301D01*
X258479Y24767D01*
Y19401D01*
X257677D01*
Y25705D01*
X258925D01*
X260419Y21232D01*
Y21223D01*
X260428Y21204D01*
X260437Y21177D01*
X260456Y21132D01*
X260492Y21022D01*
X260538Y20886D01*
X260583Y20731D01*
X260638Y20576D01*
X260683Y20430D01*
X260720Y20302D01*
X260729Y20321D01*
X260738Y20366D01*
X260766Y20448D01*
X260802Y20558D01*
X260847Y20703D01*
X260911Y20877D01*
X260975Y21077D01*
X261057Y21314D01*
X262569Y25705D01*
X263690D01*
Y19401D01*
D02*
G37*
G36*
X295210Y25723D02*
X295256D01*
X295320Y25714D01*
X295475Y25687D01*
X295648Y25650D01*
X295839Y25586D01*
X296030Y25504D01*
X296222Y25395D01*
X296231D01*
X296240Y25377D01*
X296267Y25359D01*
X296304Y25331D01*
X296395Y25258D01*
X296513Y25158D01*
X296632Y25021D01*
X296768Y24858D01*
X296887Y24666D01*
X296996Y24448D01*
Y24439D01*
X297005Y24420D01*
X297023Y24384D01*
X297042Y24338D01*
X297060Y24274D01*
X297087Y24193D01*
X297105Y24101D01*
X297133Y24001D01*
X297160Y23883D01*
X297187Y23746D01*
X297205Y23600D01*
X297224Y23446D01*
X297242Y23272D01*
X297260Y23090D01*
X297269Y22890D01*
Y22680D01*
Y22671D01*
Y22626D01*
Y22562D01*
Y22480D01*
X297260Y22380D01*
Y22261D01*
X297251Y22125D01*
X297233Y21988D01*
X297205Y21678D01*
X297160Y21350D01*
X297096Y21041D01*
X297051Y20886D01*
X297005Y20749D01*
Y20740D01*
X296996Y20722D01*
X296978Y20685D01*
X296959Y20630D01*
X296932Y20576D01*
X296896Y20503D01*
X296805Y20348D01*
X296695Y20175D01*
X296568Y19993D01*
X296404Y19820D01*
X296222Y19665D01*
X296213D01*
X296194Y19647D01*
X296167Y19628D01*
X296130Y19610D01*
X296076Y19583D01*
X296021Y19546D01*
X295948Y19510D01*
X295875Y19483D01*
X295702Y19410D01*
X295493Y19346D01*
X295265Y19310D01*
X295010Y19291D01*
X294937D01*
X294892Y19300D01*
X294828D01*
X294755Y19310D01*
X294582Y19346D01*
X294391Y19392D01*
X294190Y19464D01*
X293990Y19565D01*
X293889Y19628D01*
X293798Y19701D01*
X293789Y19710D01*
X293780Y19719D01*
X293753Y19747D01*
X293725Y19774D01*
X293689Y19820D01*
X293643Y19874D01*
X293552Y20002D01*
X293461Y20166D01*
X293370Y20366D01*
X293297Y20594D01*
X293243Y20858D01*
X293990Y20922D01*
Y20913D01*
X293999Y20895D01*
Y20877D01*
X294008Y20840D01*
X294035Y20740D01*
X294072Y20630D01*
X294117Y20503D01*
X294181Y20375D01*
X294254Y20257D01*
X294345Y20157D01*
X294354Y20148D01*
X294391Y20120D01*
X294454Y20084D01*
X294527Y20048D01*
X294627Y20002D01*
X294746Y19965D01*
X294882Y19938D01*
X295028Y19929D01*
X295092D01*
X295156Y19938D01*
X295238Y19947D01*
X295338Y19965D01*
X295438Y19993D01*
X295547Y20029D01*
X295648Y20084D01*
X295657Y20093D01*
X295693Y20111D01*
X295748Y20148D01*
X295802Y20202D01*
X295875Y20266D01*
X295948Y20339D01*
X296021Y20421D01*
X296094Y20521D01*
X296103Y20530D01*
X296121Y20576D01*
X296158Y20640D01*
X296194Y20722D01*
X296240Y20831D01*
X296285Y20958D01*
X296331Y21104D01*
X296376Y21268D01*
Y21277D01*
X296386Y21286D01*
Y21314D01*
X296395Y21350D01*
X296413Y21441D01*
X296440Y21560D01*
X296458Y21705D01*
X296477Y21860D01*
X296486Y22034D01*
X296495Y22216D01*
Y22225D01*
Y22252D01*
Y22298D01*
Y22370D01*
X296486Y22352D01*
X296449Y22307D01*
X296395Y22243D01*
X296331Y22152D01*
X296240Y22061D01*
X296130Y21961D01*
X296003Y21860D01*
X295857Y21769D01*
X295839Y21760D01*
X295784Y21733D01*
X295702Y21696D01*
X295602Y21660D01*
X295465Y21614D01*
X295320Y21578D01*
X295156Y21551D01*
X294983Y21542D01*
X294910D01*
X294855Y21551D01*
X294782Y21560D01*
X294709Y21569D01*
X294618Y21587D01*
X294527Y21614D01*
X294318Y21678D01*
X294208Y21724D01*
X294099Y21778D01*
X293981Y21842D01*
X293871Y21924D01*
X293762Y22006D01*
X293662Y22106D01*
X293653Y22116D01*
X293634Y22134D01*
X293616Y22161D01*
X293580Y22207D01*
X293534Y22270D01*
X293489Y22334D01*
X293443Y22416D01*
X293397Y22507D01*
X293343Y22607D01*
X293297Y22717D01*
X293252Y22844D01*
X293206Y22972D01*
X293170Y23118D01*
X293151Y23272D01*
X293133Y23427D01*
X293124Y23600D01*
Y23609D01*
Y23646D01*
Y23692D01*
X293133Y23755D01*
X293142Y23837D01*
X293151Y23937D01*
X293170Y24038D01*
X293197Y24156D01*
X293261Y24393D01*
X293306Y24521D01*
X293361Y24657D01*
X293425Y24785D01*
X293507Y24903D01*
X293589Y25031D01*
X293689Y25140D01*
X293698Y25149D01*
X293716Y25167D01*
X293744Y25195D01*
X293789Y25231D01*
X293844Y25277D01*
X293917Y25331D01*
X293990Y25377D01*
X294081Y25441D01*
X294172Y25495D01*
X294281Y25541D01*
X294527Y25641D01*
X294655Y25677D01*
X294800Y25705D01*
X294946Y25723D01*
X295101Y25732D01*
X295165D01*
X295210Y25723D01*
D02*
G37*
G36*
X300941Y19401D02*
X300166D01*
Y24329D01*
X300157Y24320D01*
X300112Y24284D01*
X300057Y24229D01*
X299966Y24165D01*
X299866Y24083D01*
X299738Y23992D01*
X299592Y23892D01*
X299428Y23792D01*
X299419D01*
X299410Y23783D01*
X299355Y23746D01*
X299264Y23701D01*
X299155Y23646D01*
X299027Y23582D01*
X298891Y23518D01*
X298754Y23455D01*
X298618Y23400D01*
Y24147D01*
X298627D01*
X298645Y24165D01*
X298681Y24174D01*
X298727Y24202D01*
X298781Y24229D01*
X298845Y24265D01*
X299000Y24356D01*
X299182Y24457D01*
X299364Y24584D01*
X299556Y24730D01*
X299747Y24885D01*
X299756Y24894D01*
X299765Y24903D01*
X299793Y24930D01*
X299829Y24958D01*
X299911Y25049D01*
X300020Y25158D01*
X300130Y25286D01*
X300248Y25431D01*
X300348Y25577D01*
X300440Y25732D01*
X300941D01*
Y19401D01*
D02*
G37*
G36*
X281363Y24958D02*
X277637D01*
Y23036D01*
X281126D01*
Y22288D01*
X277637D01*
Y20148D01*
X281509D01*
Y19401D01*
X276799D01*
Y25705D01*
X281363D01*
Y24958D01*
D02*
G37*
G36*
X275706D02*
X272281D01*
Y23008D01*
X275241D01*
Y22261D01*
X272281D01*
Y19401D01*
X271442D01*
Y25705D01*
X275706D01*
Y24958D01*
D02*
G37*
G36*
X268054Y25696D02*
X268135D01*
X268327Y25687D01*
X268527Y25659D01*
X268746Y25632D01*
X268946Y25586D01*
X269046Y25559D01*
X269128Y25532D01*
X269138D01*
X269147Y25523D01*
X269201Y25495D01*
X269283Y25459D01*
X269384Y25395D01*
X269493Y25313D01*
X269611Y25204D01*
X269721Y25076D01*
X269830Y24930D01*
Y24921D01*
X269839Y24912D01*
X269876Y24858D01*
X269912Y24767D01*
X269967Y24648D01*
X270012Y24511D01*
X270058Y24347D01*
X270085Y24174D01*
X270094Y23983D01*
Y23974D01*
Y23956D01*
Y23919D01*
X270085Y23874D01*
Y23810D01*
X270076Y23746D01*
X270039Y23591D01*
X269985Y23409D01*
X269912Y23218D01*
X269803Y23026D01*
X269730Y22935D01*
X269657Y22844D01*
X269648Y22835D01*
X269639Y22826D01*
X269611Y22799D01*
X269575Y22771D01*
X269529Y22735D01*
X269475Y22698D01*
X269402Y22653D01*
X269329Y22598D01*
X269238Y22553D01*
X269138Y22507D01*
X269028Y22453D01*
X268910Y22407D01*
X268773Y22370D01*
X268636Y22325D01*
X268482Y22298D01*
X268318Y22270D01*
X268336Y22261D01*
X268372Y22243D01*
X268427Y22207D01*
X268500Y22170D01*
X268664Y22070D01*
X268746Y22006D01*
X268819Y21951D01*
X268837Y21933D01*
X268882Y21888D01*
X268955Y21815D01*
X269046Y21724D01*
X269147Y21596D01*
X269265Y21460D01*
X269384Y21295D01*
X269511Y21113D01*
X270595Y19401D01*
X269557D01*
X268728Y20712D01*
Y20722D01*
X268709Y20740D01*
X268691Y20767D01*
X268664Y20804D01*
X268600Y20904D01*
X268518Y21031D01*
X268418Y21168D01*
X268318Y21314D01*
X268217Y21450D01*
X268126Y21578D01*
X268117Y21587D01*
X268090Y21623D01*
X268044Y21678D01*
X267981Y21742D01*
X267844Y21879D01*
X267771Y21942D01*
X267698Y21997D01*
X267689Y22006D01*
X267671Y22015D01*
X267634Y22033D01*
X267580Y22061D01*
X267525Y22088D01*
X267461Y22115D01*
X267316Y22161D01*
X267306D01*
X267288Y22170D01*
X267252D01*
X267206Y22179D01*
X267143Y22188D01*
X267070D01*
X266969Y22197D01*
X265894D01*
Y19401D01*
X265056D01*
Y25705D01*
X267981D01*
X268054Y25696D01*
D02*
G37*
G36*
X310069Y25723D02*
X310187Y25705D01*
X310324Y25677D01*
X310470Y25641D01*
X310625Y25596D01*
X310770Y25523D01*
X310779D01*
X310788Y25513D01*
X310834Y25486D01*
X310907Y25441D01*
X310998Y25377D01*
X311098Y25286D01*
X311208Y25185D01*
X311308Y25067D01*
X311408Y24930D01*
X311417Y24912D01*
X311454Y24867D01*
X311490Y24785D01*
X311554Y24666D01*
X311608Y24530D01*
X311681Y24375D01*
X311745Y24193D01*
X311800Y23992D01*
Y23983D01*
X311809Y23965D01*
X311818Y23937D01*
X311827Y23892D01*
X311836Y23837D01*
X311845Y23774D01*
X311863Y23692D01*
X311873Y23600D01*
X311891Y23500D01*
X311900Y23391D01*
X311909Y23263D01*
X311927Y23136D01*
X311936Y22990D01*
Y22844D01*
X311945Y22680D01*
Y22507D01*
Y22498D01*
Y22462D01*
Y22398D01*
Y22325D01*
X311936Y22225D01*
Y22116D01*
X311927Y21997D01*
X311918Y21869D01*
X311891Y21578D01*
X311845Y21277D01*
X311791Y20986D01*
X311754Y20849D01*
X311709Y20712D01*
Y20703D01*
X311700Y20685D01*
X311681Y20649D01*
X311663Y20603D01*
X311645Y20539D01*
X311608Y20476D01*
X311536Y20321D01*
X311444Y20157D01*
X311326Y19975D01*
X311189Y19811D01*
X311025Y19656D01*
X311016D01*
X311007Y19637D01*
X310980Y19619D01*
X310943Y19601D01*
X310898Y19574D01*
X310852Y19537D01*
X310716Y19474D01*
X310552Y19410D01*
X310360Y19346D01*
X310133Y19310D01*
X309887Y19291D01*
X309795D01*
X309732Y19300D01*
X309659Y19310D01*
X309568Y19328D01*
X309468Y19346D01*
X309358Y19373D01*
X309249Y19410D01*
X309131Y19446D01*
X309012Y19501D01*
X308894Y19565D01*
X308775Y19637D01*
X308657Y19729D01*
X308547Y19829D01*
X308447Y19938D01*
X308438Y19947D01*
X308420Y19975D01*
X308393Y20020D01*
X308347Y20093D01*
X308301Y20175D01*
X308256Y20284D01*
X308192Y20412D01*
X308137Y20558D01*
X308083Y20722D01*
X308028Y20913D01*
X307974Y21123D01*
X307928Y21359D01*
X307882Y21614D01*
X307855Y21888D01*
X307837Y22188D01*
X307828Y22507D01*
Y22516D01*
Y22553D01*
Y22616D01*
Y22689D01*
X307837Y22790D01*
Y22899D01*
X307846Y23017D01*
X307855Y23154D01*
X307882Y23436D01*
X307928Y23737D01*
X307983Y24038D01*
X308019Y24174D01*
X308055Y24311D01*
Y24320D01*
X308065Y24338D01*
X308083Y24375D01*
X308101Y24420D01*
X308119Y24484D01*
X308156Y24548D01*
X308229Y24703D01*
X308320Y24867D01*
X308438Y25040D01*
X308575Y25213D01*
X308739Y25359D01*
X308748D01*
X308757Y25377D01*
X308784Y25395D01*
X308821Y25413D01*
X308866Y25450D01*
X308921Y25477D01*
X309058Y25550D01*
X309222Y25614D01*
X309413Y25677D01*
X309641Y25714D01*
X309887Y25732D01*
X309969D01*
X310069Y25723D01*
D02*
G37*
G36*
X58347Y109289D02*
X60060D01*
Y108569D01*
X58347D01*
Y106838D01*
X57618D01*
Y108569D01*
X55905D01*
Y109289D01*
X57618D01*
Y111002D01*
X58347D01*
Y109289D01*
D02*
G37*
G36*
X68814Y105818D02*
X67940D01*
X65498Y112122D01*
X66409D01*
X68049Y107540D01*
Y107531D01*
X68058Y107512D01*
X68067Y107485D01*
X68086Y107449D01*
X68095Y107394D01*
X68113Y107339D01*
X68159Y107203D01*
X68213Y107048D01*
X68268Y106875D01*
X68377Y106510D01*
Y106519D01*
X68386Y106538D01*
X68395Y106565D01*
X68404Y106601D01*
X68432Y106702D01*
X68477Y106838D01*
X68523Y106993D01*
X68577Y107166D01*
X68641Y107349D01*
X68714Y107540D01*
X70427Y112122D01*
X71274D01*
X68814Y105818D01*
D02*
G37*
G36*
X64815Y111302D02*
X62292D01*
X61954Y109599D01*
X61964Y109608D01*
X61982Y109617D01*
X62009Y109635D01*
X62055Y109662D01*
X62109Y109690D01*
X62173Y109726D01*
X62319Y109799D01*
X62501Y109872D01*
X62702Y109936D01*
X62920Y109981D01*
X63029Y110000D01*
X63230D01*
X63285Y109990D01*
X63358Y109981D01*
X63440Y109972D01*
X63531Y109954D01*
X63631Y109927D01*
X63849Y109863D01*
X63968Y109817D01*
X64086Y109754D01*
X64205Y109690D01*
X64323Y109617D01*
X64433Y109526D01*
X64542Y109425D01*
X64551Y109416D01*
X64569Y109398D01*
X64596Y109371D01*
X64633Y109325D01*
X64678Y109262D01*
X64724Y109198D01*
X64779Y109116D01*
X64833Y109025D01*
X64879Y108924D01*
X64934Y108815D01*
X64979Y108688D01*
X65025Y108560D01*
X65061Y108423D01*
X65088Y108269D01*
X65107Y108114D01*
X65116Y107950D01*
Y107941D01*
Y107913D01*
Y107868D01*
X65107Y107804D01*
X65097Y107731D01*
X65088Y107649D01*
X65070Y107549D01*
X65052Y107449D01*
X64997Y107212D01*
X64906Y106966D01*
X64851Y106838D01*
X64779Y106720D01*
X64706Y106592D01*
X64615Y106474D01*
X64606Y106465D01*
X64587Y106438D01*
X64551Y106401D01*
X64505Y106356D01*
X64442Y106301D01*
X64369Y106228D01*
X64278Y106164D01*
X64177Y106091D01*
X64068Y106018D01*
X63941Y105955D01*
X63804Y105891D01*
X63658Y105827D01*
X63503Y105781D01*
X63330Y105745D01*
X63148Y105718D01*
X62957Y105709D01*
X62875D01*
X62811Y105718D01*
X62738Y105727D01*
X62656Y105736D01*
X62556Y105745D01*
X62456Y105772D01*
X62228Y105827D01*
X62000Y105909D01*
X61882Y105964D01*
X61763Y106027D01*
X61654Y106100D01*
X61545Y106182D01*
X61536Y106192D01*
X61517Y106201D01*
X61499Y106237D01*
X61463Y106273D01*
X61417Y106319D01*
X61371Y106374D01*
X61317Y106447D01*
X61271Y106529D01*
X61217Y106611D01*
X61162Y106711D01*
X61062Y106929D01*
X60980Y107185D01*
X60952Y107321D01*
X60934Y107467D01*
X61745Y107531D01*
Y107522D01*
Y107503D01*
X61754Y107476D01*
X61763Y107430D01*
X61791Y107330D01*
X61827Y107194D01*
X61882Y107057D01*
X61954Y106902D01*
X62046Y106765D01*
X62155Y106638D01*
X62173Y106629D01*
X62210Y106592D01*
X62283Y106547D01*
X62383Y106492D01*
X62492Y106438D01*
X62629Y106392D01*
X62784Y106356D01*
X62957Y106346D01*
X63011D01*
X63048Y106356D01*
X63157Y106365D01*
X63285Y106401D01*
X63440Y106447D01*
X63594Y106519D01*
X63758Y106629D01*
X63831Y106693D01*
X63904Y106765D01*
X63913Y106774D01*
X63922Y106784D01*
X63941Y106811D01*
X63968Y106838D01*
X64032Y106939D01*
X64104Y107066D01*
X64168Y107221D01*
X64232Y107412D01*
X64278Y107640D01*
X64296Y107758D01*
Y107886D01*
Y107895D01*
Y107913D01*
Y107950D01*
X64287Y107995D01*
Y108050D01*
X64278Y108114D01*
X64250Y108259D01*
X64205Y108432D01*
X64141Y108606D01*
X64050Y108770D01*
X63922Y108924D01*
Y108934D01*
X63904Y108943D01*
X63858Y108988D01*
X63776Y109052D01*
X63667Y109125D01*
X63521Y109189D01*
X63358Y109252D01*
X63166Y109298D01*
X63057Y109316D01*
X62884D01*
X62811Y109307D01*
X62720Y109298D01*
X62611Y109271D01*
X62501Y109243D01*
X62383Y109198D01*
X62264Y109143D01*
X62255Y109134D01*
X62219Y109116D01*
X62164Y109070D01*
X62091Y109025D01*
X62018Y108961D01*
X61945Y108879D01*
X61863Y108797D01*
X61800Y108697D01*
X61071Y108797D01*
X61681Y112040D01*
X64815D01*
Y111302D01*
D02*
G37*
G36*
X249854Y130078D02*
X252960D01*
Y129331D01*
X249016D01*
Y135635D01*
X249854D01*
Y130078D01*
D02*
G37*
G36*
X306709Y45289D02*
Y45280D01*
Y45244D01*
Y45198D01*
Y45134D01*
X306699Y45052D01*
Y44961D01*
X306690Y44852D01*
X306681Y44743D01*
X306654Y44497D01*
X306617Y44241D01*
X306563Y43995D01*
X306526Y43877D01*
X306490Y43768D01*
Y43759D01*
X306481Y43740D01*
X306463Y43713D01*
X306444Y43677D01*
X306390Y43576D01*
X306308Y43449D01*
X306198Y43303D01*
X306071Y43157D01*
X305907Y43003D01*
X305707Y42866D01*
X305697D01*
X305679Y42848D01*
X305652Y42838D01*
X305606Y42811D01*
X305552Y42784D01*
X305479Y42757D01*
X305406Y42729D01*
X305315Y42693D01*
X305215Y42656D01*
X305105Y42629D01*
X304987Y42602D01*
X304850Y42574D01*
X304714Y42556D01*
X304568Y42538D01*
X304240Y42520D01*
X304158D01*
X304094Y42529D01*
X304021D01*
X303930Y42538D01*
X303830Y42547D01*
X303730Y42556D01*
X303502Y42593D01*
X303256Y42647D01*
X303019Y42720D01*
X302791Y42820D01*
X302782D01*
X302764Y42838D01*
X302737Y42857D01*
X302700Y42875D01*
X302600Y42948D01*
X302482Y43048D01*
X302345Y43176D01*
X302217Y43321D01*
X302090Y43504D01*
X301990Y43704D01*
Y43713D01*
X301980Y43731D01*
X301971Y43768D01*
X301953Y43813D01*
X301935Y43868D01*
X301917Y43941D01*
X301889Y44023D01*
X301871Y44123D01*
X301853Y44232D01*
X301826Y44351D01*
X301807Y44478D01*
X301789Y44615D01*
X301771Y44770D01*
X301762Y44934D01*
X301753Y45107D01*
Y45289D01*
Y48933D01*
X302591D01*
Y45289D01*
Y45280D01*
Y45253D01*
Y45207D01*
Y45153D01*
X302600Y45089D01*
Y45007D01*
X302609Y44834D01*
X302627Y44633D01*
X302655Y44433D01*
X302691Y44241D01*
X302709Y44159D01*
X302737Y44078D01*
X302746Y44059D01*
X302764Y44014D01*
X302810Y43950D01*
X302864Y43859D01*
X302928Y43768D01*
X303019Y43668D01*
X303128Y43567D01*
X303256Y43485D01*
X303274Y43476D01*
X303320Y43449D01*
X303402Y43422D01*
X303511Y43385D01*
X303639Y43340D01*
X303802Y43312D01*
X303976Y43285D01*
X304167Y43276D01*
X304258D01*
X304313Y43285D01*
X304395D01*
X304477Y43294D01*
X304677Y43330D01*
X304896Y43376D01*
X305105Y43449D01*
X305306Y43549D01*
X305397Y43613D01*
X305479Y43686D01*
X305488Y43695D01*
X305497Y43704D01*
X305515Y43731D01*
X305542Y43768D01*
X305570Y43822D01*
X305606Y43877D01*
X305643Y43959D01*
X305679Y44041D01*
X305716Y44141D01*
X305743Y44260D01*
X305779Y44396D01*
X305807Y44542D01*
X305834Y44706D01*
X305852Y44879D01*
X305871Y45080D01*
Y45289D01*
Y48933D01*
X306709D01*
Y45289D01*
D02*
G37*
G36*
X312621Y48186D02*
X310544D01*
Y42629D01*
X309706D01*
Y48186D01*
X307629D01*
Y48933D01*
X312621D01*
Y48186D01*
D02*
G37*
G36*
X291358D02*
X287933D01*
Y46237D01*
X290894D01*
Y45489D01*
X287933D01*
Y42629D01*
X287095D01*
Y48933D01*
X291358D01*
Y48186D01*
D02*
G37*
G36*
X283706Y48924D02*
X283788D01*
X283979Y48915D01*
X284180Y48888D01*
X284398Y48860D01*
X284599Y48815D01*
X284699Y48787D01*
X284781Y48760D01*
X284790D01*
X284799Y48751D01*
X284854Y48724D01*
X284936Y48687D01*
X285036Y48623D01*
X285145Y48541D01*
X285264Y48432D01*
X285373Y48305D01*
X285482Y48159D01*
Y48150D01*
X285491Y48141D01*
X285528Y48086D01*
X285564Y47995D01*
X285619Y47876D01*
X285665Y47740D01*
X285710Y47576D01*
X285737Y47403D01*
X285747Y47211D01*
Y47202D01*
Y47184D01*
Y47148D01*
X285737Y47102D01*
Y47038D01*
X285728Y46975D01*
X285692Y46820D01*
X285637Y46637D01*
X285564Y46446D01*
X285455Y46255D01*
X285382Y46164D01*
X285309Y46073D01*
X285300Y46064D01*
X285291Y46054D01*
X285264Y46027D01*
X285227Y46000D01*
X285182Y45963D01*
X285127Y45927D01*
X285054Y45881D01*
X284981Y45827D01*
X284890Y45781D01*
X284790Y45735D01*
X284681Y45681D01*
X284562Y45635D01*
X284425Y45599D01*
X284289Y45553D01*
X284134Y45526D01*
X283970Y45499D01*
X283988Y45489D01*
X284025Y45471D01*
X284079Y45435D01*
X284152Y45398D01*
X284316Y45298D01*
X284398Y45235D01*
X284471Y45180D01*
X284489Y45162D01*
X284535Y45116D01*
X284608Y45043D01*
X284699Y44952D01*
X284799Y44824D01*
X284917Y44688D01*
X285036Y44524D01*
X285163Y44342D01*
X286247Y42629D01*
X285209D01*
X284380Y43941D01*
Y43950D01*
X284362Y43968D01*
X284344Y43995D01*
X284316Y44032D01*
X284252Y44132D01*
X284171Y44260D01*
X284070Y44396D01*
X283970Y44542D01*
X283870Y44679D01*
X283779Y44806D01*
X283770Y44815D01*
X283742Y44852D01*
X283697Y44906D01*
X283633Y44970D01*
X283496Y45107D01*
X283423Y45171D01*
X283351Y45225D01*
X283341Y45235D01*
X283323Y45244D01*
X283287Y45262D01*
X283232Y45289D01*
X283177Y45316D01*
X283114Y45344D01*
X282968Y45389D01*
X282959D01*
X282941Y45398D01*
X282904D01*
X282859Y45408D01*
X282795Y45417D01*
X282722D01*
X282622Y45426D01*
X281547D01*
Y42629D01*
X280709D01*
Y48933D01*
X283633D01*
X283706Y48924D01*
D02*
G37*
G36*
X297799Y49033D02*
X297881D01*
X297963Y49024D01*
X298072Y49006D01*
X298182Y48988D01*
X298418Y48942D01*
X298692Y48869D01*
X298956Y48760D01*
X299093Y48696D01*
X299229Y48623D01*
X299238Y48614D01*
X299257Y48605D01*
X299293Y48578D01*
X299348Y48551D01*
X299402Y48505D01*
X299475Y48450D01*
X299630Y48323D01*
X299794Y48159D01*
X299976Y47958D01*
X300149Y47721D01*
X300295Y47457D01*
Y47448D01*
X300313Y47421D01*
X300332Y47384D01*
X300350Y47330D01*
X300386Y47257D01*
X300414Y47175D01*
X300450Y47075D01*
X300486Y46965D01*
X300514Y46847D01*
X300550Y46719D01*
X300587Y46574D01*
X300614Y46428D01*
X300651Y46109D01*
X300669Y45763D01*
Y45754D01*
Y45717D01*
Y45672D01*
X300660Y45599D01*
Y45517D01*
X300651Y45417D01*
X300632Y45307D01*
X300623Y45189D01*
X300578Y44925D01*
X300505Y44633D01*
X300405Y44342D01*
X300350Y44196D01*
X300277Y44050D01*
Y44041D01*
X300259Y44014D01*
X300240Y43977D01*
X300204Y43923D01*
X300168Y43859D01*
X300122Y43795D01*
X299994Y43622D01*
X299840Y43440D01*
X299658Y43249D01*
X299439Y43066D01*
X299184Y42902D01*
X299175D01*
X299156Y42884D01*
X299111Y42866D01*
X299056Y42838D01*
X298992Y42811D01*
X298920Y42784D01*
X298829Y42747D01*
X298728Y42711D01*
X298619Y42674D01*
X298500Y42638D01*
X298236Y42583D01*
X297954Y42538D01*
X297653Y42520D01*
X297562D01*
X297508Y42529D01*
X297426D01*
X297334Y42547D01*
X297234Y42556D01*
X297116Y42574D01*
X296870Y42629D01*
X296606Y42702D01*
X296332Y42811D01*
X296196Y42875D01*
X296059Y42948D01*
X296050Y42957D01*
X296032Y42966D01*
X295995Y42993D01*
X295941Y43030D01*
X295886Y43066D01*
X295822Y43121D01*
X295667Y43258D01*
X295494Y43422D01*
X295312Y43622D01*
X295148Y43850D01*
X294993Y44114D01*
Y44123D01*
X294975Y44150D01*
X294957Y44187D01*
X294938Y44241D01*
X294911Y44314D01*
X294884Y44396D01*
X294847Y44487D01*
X294820Y44588D01*
X294784Y44706D01*
X294747Y44824D01*
X294692Y45098D01*
X294656Y45380D01*
X294638Y45690D01*
Y45699D01*
Y45708D01*
Y45763D01*
X294647Y45845D01*
Y45954D01*
X294665Y46082D01*
X294683Y46237D01*
X294711Y46410D01*
X294747Y46592D01*
X294784Y46783D01*
X294838Y46984D01*
X294911Y47184D01*
X294993Y47394D01*
X295084Y47594D01*
X295203Y47794D01*
X295330Y47977D01*
X295476Y48150D01*
X295485Y48159D01*
X295512Y48186D01*
X295567Y48232D01*
X295631Y48286D01*
X295713Y48359D01*
X295813Y48432D01*
X295932Y48514D01*
X296068Y48596D01*
X296214Y48678D01*
X296378Y48760D01*
X296560Y48833D01*
X296751Y48906D01*
X296961Y48960D01*
X297180Y49006D01*
X297407Y49033D01*
X297653Y49042D01*
X297735D01*
X297799Y49033D01*
D02*
G37*
G36*
X248504Y122478D02*
X250217D01*
Y121758D01*
X248504D01*
Y120027D01*
X247776D01*
Y121758D01*
X246063D01*
Y122478D01*
X247776D01*
Y124191D01*
X248504D01*
Y122478D01*
D02*
G37*
G36*
X263873Y119007D02*
X262999D01*
X260557Y125311D01*
X261468D01*
X263108Y120729D01*
Y120720D01*
X263117Y120701D01*
X263126Y120674D01*
X263144Y120638D01*
X263153Y120583D01*
X263172Y120528D01*
X263217Y120392D01*
X263272Y120237D01*
X263326Y120064D01*
X263436Y119699D01*
Y119708D01*
X263445Y119727D01*
X263454Y119754D01*
X263463Y119790D01*
X263490Y119891D01*
X263536Y120027D01*
X263581Y120182D01*
X263636Y120355D01*
X263700Y120537D01*
X263773Y120729D01*
X265486Y125311D01*
X266333D01*
X263873Y119007D01*
D02*
G37*
G36*
X253333Y125329D02*
X253406Y125320D01*
X253497Y125311D01*
X253597Y125293D01*
X253697Y125275D01*
X253934Y125211D01*
X254171Y125120D01*
X254289Y125065D01*
X254408Y125001D01*
X254517Y124919D01*
X254617Y124828D01*
X254626Y124819D01*
X254645Y124810D01*
X254663Y124774D01*
X254699Y124737D01*
X254745Y124692D01*
X254790Y124628D01*
X254836Y124564D01*
X254891Y124482D01*
X254982Y124309D01*
X255073Y124090D01*
X255109Y123981D01*
X255127Y123854D01*
X255146Y123726D01*
X255155Y123589D01*
Y123571D01*
Y123526D01*
X255146Y123453D01*
X255136Y123352D01*
X255118Y123243D01*
X255082Y123116D01*
X255045Y122979D01*
X254991Y122842D01*
X254982Y122824D01*
X254963Y122778D01*
X254927Y122706D01*
X254872Y122605D01*
X254800Y122496D01*
X254708Y122359D01*
X254599Y122223D01*
X254471Y122068D01*
X254453Y122050D01*
X254408Y121995D01*
X254362Y121950D01*
X254317Y121904D01*
X254262Y121849D01*
X254189Y121776D01*
X254116Y121704D01*
X254025Y121622D01*
X253934Y121530D01*
X253825Y121430D01*
X253706Y121330D01*
X253579Y121212D01*
X253433Y121093D01*
X253287Y120966D01*
X253278Y120957D01*
X253260Y120938D01*
X253223Y120911D01*
X253178Y120875D01*
X253123Y120820D01*
X253060Y120765D01*
X252914Y120647D01*
X252759Y120510D01*
X252613Y120373D01*
X252485Y120255D01*
X252431Y120210D01*
X252385Y120164D01*
X252376Y120155D01*
X252349Y120127D01*
X252312Y120091D01*
X252267Y120036D01*
X252221Y119973D01*
X252167Y119909D01*
X252057Y119754D01*
X255164D01*
Y119007D01*
X250982D01*
Y119016D01*
Y119053D01*
Y119107D01*
X250992Y119180D01*
X251001Y119262D01*
X251019Y119353D01*
X251037Y119444D01*
X251074Y119544D01*
Y119554D01*
X251083Y119563D01*
X251101Y119617D01*
X251137Y119699D01*
X251192Y119809D01*
X251265Y119936D01*
X251356Y120082D01*
X251456Y120228D01*
X251584Y120383D01*
Y120392D01*
X251602Y120401D01*
X251647Y120455D01*
X251729Y120537D01*
X251848Y120656D01*
X251985Y120792D01*
X252158Y120957D01*
X252367Y121139D01*
X252595Y121330D01*
X252604Y121339D01*
X252640Y121367D01*
X252695Y121412D01*
X252759Y121467D01*
X252841Y121539D01*
X252941Y121622D01*
X253041Y121713D01*
X253160Y121813D01*
X253387Y122031D01*
X253615Y122250D01*
X253725Y122359D01*
X253825Y122469D01*
X253916Y122569D01*
X253989Y122669D01*
Y122678D01*
X254007Y122687D01*
X254025Y122715D01*
X254043Y122751D01*
X254107Y122851D01*
X254180Y122970D01*
X254244Y123116D01*
X254308Y123270D01*
X254344Y123443D01*
X254362Y123608D01*
Y123617D01*
Y123626D01*
X254353Y123680D01*
X254344Y123772D01*
X254317Y123872D01*
X254280Y123999D01*
X254216Y124127D01*
X254134Y124254D01*
X254025Y124382D01*
X254007Y124400D01*
X253961Y124436D01*
X253898Y124482D01*
X253797Y124546D01*
X253670Y124601D01*
X253524Y124655D01*
X253351Y124692D01*
X253160Y124701D01*
X253105D01*
X253069Y124692D01*
X252959Y124682D01*
X252832Y124655D01*
X252695Y124619D01*
X252540Y124555D01*
X252394Y124473D01*
X252258Y124364D01*
X252240Y124345D01*
X252203Y124300D01*
X252149Y124227D01*
X252094Y124118D01*
X252030Y123990D01*
X251975Y123826D01*
X251939Y123644D01*
X251921Y123434D01*
X251128Y123516D01*
Y123526D01*
X251137Y123553D01*
Y123598D01*
X251146Y123662D01*
X251165Y123735D01*
X251183Y123817D01*
X251210Y123917D01*
X251238Y124018D01*
X251310Y124236D01*
X251420Y124455D01*
X251483Y124564D01*
X251565Y124673D01*
X251647Y124774D01*
X251739Y124865D01*
X251748Y124874D01*
X251766Y124883D01*
X251793Y124910D01*
X251839Y124938D01*
X251893Y124974D01*
X251957Y125010D01*
X252030Y125056D01*
X252121Y125101D01*
X252221Y125147D01*
X252331Y125193D01*
X252449Y125229D01*
X252577Y125266D01*
X252713Y125293D01*
X252859Y125320D01*
X253014Y125329D01*
X253178Y125338D01*
X253269D01*
X253333Y125329D01*
D02*
G37*
G36*
X258179D02*
X258252Y125320D01*
X258334Y125311D01*
X258425Y125302D01*
X258516Y125275D01*
X258735Y125220D01*
X258954Y125138D01*
X259063Y125083D01*
X259172Y125020D01*
X259273Y124938D01*
X259373Y124856D01*
X259382Y124846D01*
X259391Y124837D01*
X259418Y124810D01*
X259455Y124774D01*
X259491Y124719D01*
X259537Y124664D01*
X259628Y124528D01*
X259719Y124355D01*
X259801Y124154D01*
X259865Y123926D01*
X259874Y123808D01*
X259883Y123680D01*
Y123671D01*
Y123662D01*
Y123608D01*
X259874Y123526D01*
X259856Y123425D01*
X259828Y123298D01*
X259783Y123170D01*
X259728Y123043D01*
X259646Y122915D01*
X259637Y122897D01*
X259600Y122861D01*
X259546Y122806D01*
X259473Y122733D01*
X259373Y122651D01*
X259254Y122569D01*
X259118Y122487D01*
X258954Y122414D01*
X258963D01*
X258981Y122405D01*
X259008Y122396D01*
X259045Y122378D01*
X259154Y122332D01*
X259282Y122268D01*
X259418Y122177D01*
X259564Y122077D01*
X259701Y121950D01*
X259828Y121804D01*
Y121795D01*
X259837Y121785D01*
X259874Y121731D01*
X259928Y121640D01*
X259983Y121521D01*
X260038Y121376D01*
X260092Y121203D01*
X260129Y121011D01*
X260138Y120802D01*
Y120792D01*
Y120765D01*
Y120720D01*
X260129Y120665D01*
X260120Y120601D01*
X260111Y120519D01*
X260092Y120428D01*
X260065Y120328D01*
X260001Y120118D01*
X259956Y120000D01*
X259892Y119891D01*
X259828Y119772D01*
X259755Y119663D01*
X259664Y119554D01*
X259564Y119444D01*
X259555Y119435D01*
X259537Y119417D01*
X259509Y119390D01*
X259464Y119362D01*
X259400Y119317D01*
X259336Y119271D01*
X259254Y119226D01*
X259163Y119171D01*
X259063Y119116D01*
X258945Y119071D01*
X258817Y119025D01*
X258689Y118980D01*
X258544Y118952D01*
X258389Y118925D01*
X258234Y118907D01*
X258061Y118898D01*
X257970D01*
X257906Y118907D01*
X257824Y118916D01*
X257733Y118925D01*
X257633Y118943D01*
X257523Y118971D01*
X257277Y119034D01*
X257150Y119080D01*
X257031Y119125D01*
X256904Y119189D01*
X256776Y119262D01*
X256658Y119344D01*
X256549Y119444D01*
X256540Y119453D01*
X256521Y119472D01*
X256494Y119499D01*
X256457Y119544D01*
X256421Y119599D01*
X256366Y119663D01*
X256321Y119736D01*
X256266Y119827D01*
X256211Y119918D01*
X256166Y120027D01*
X256075Y120255D01*
X256038Y120392D01*
X256011Y120528D01*
X255993Y120674D01*
X255984Y120820D01*
Y120829D01*
Y120847D01*
Y120884D01*
X255993Y120920D01*
Y120975D01*
X256002Y121038D01*
X256020Y121184D01*
X256057Y121348D01*
X256111Y121512D01*
X256193Y121685D01*
X256294Y121849D01*
Y121858D01*
X256312Y121868D01*
X256348Y121913D01*
X256421Y121986D01*
X256521Y122077D01*
X256649Y122168D01*
X256804Y122268D01*
X256977Y122350D01*
X257186Y122414D01*
X257177D01*
X257168Y122423D01*
X257141Y122432D01*
X257104Y122450D01*
X257022Y122487D01*
X256913Y122542D01*
X256795Y122615D01*
X256676Y122706D01*
X256567Y122806D01*
X256467Y122915D01*
X256457Y122933D01*
X256430Y122970D01*
X256394Y123043D01*
X256357Y123134D01*
X256312Y123252D01*
X256275Y123389D01*
X256248Y123544D01*
X256239Y123708D01*
Y123717D01*
Y123735D01*
Y123772D01*
X256248Y123826D01*
X256257Y123881D01*
X256266Y123954D01*
X256303Y124109D01*
X256357Y124291D01*
X256448Y124482D01*
X256503Y124582D01*
X256567Y124682D01*
X256649Y124774D01*
X256731Y124865D01*
X256740Y124874D01*
X256758Y124883D01*
X256785Y124910D01*
X256822Y124938D01*
X256868Y124974D01*
X256931Y125010D01*
X257004Y125056D01*
X257077Y125101D01*
X257168Y125147D01*
X257268Y125193D01*
X257378Y125229D01*
X257496Y125266D01*
X257751Y125320D01*
X257897Y125329D01*
X258043Y125338D01*
X258125D01*
X258179Y125329D01*
D02*
G37*
%LPC*%
G36*
X11289Y48122D02*
X9303D01*
Y46036D01*
X11179D01*
X11289Y46045D01*
X11416Y46054D01*
X11562Y46064D01*
X11708Y46082D01*
X11853Y46109D01*
X11981Y46145D01*
X11999Y46155D01*
X12036Y46173D01*
X12090Y46200D01*
X12163Y46237D01*
X12245Y46291D01*
X12327Y46355D01*
X12409Y46437D01*
X12473Y46528D01*
X12482Y46537D01*
X12500Y46574D01*
X12528Y46628D01*
X12564Y46701D01*
X12591Y46783D01*
X12619Y46874D01*
X12637Y46984D01*
X12646Y47093D01*
Y47102D01*
Y47111D01*
X12637Y47166D01*
X12628Y47248D01*
X12610Y47357D01*
X12564Y47466D01*
X12509Y47594D01*
X12427Y47712D01*
X12318Y47831D01*
X12300Y47840D01*
X12254Y47876D01*
X12181Y47922D01*
X12063Y47977D01*
X11926Y48031D01*
X11744Y48077D01*
X11535Y48113D01*
X11289Y48122D01*
D02*
G37*
G36*
X27839Y35524D02*
X25853D01*
Y33438D01*
X27730D01*
X27839Y33447D01*
X27967Y33456D01*
X28113Y33465D01*
X28258Y33483D01*
X28404Y33511D01*
X28532Y33547D01*
X28550Y33556D01*
X28587Y33574D01*
X28641Y33602D01*
X28714Y33638D01*
X28796Y33693D01*
X28878Y33757D01*
X28960Y33838D01*
X29024Y33930D01*
X29033Y33939D01*
X29051Y33975D01*
X29078Y34030D01*
X29115Y34103D01*
X29142Y34185D01*
X29169Y34276D01*
X29188Y34385D01*
X29197Y34495D01*
Y34504D01*
Y34513D01*
X29188Y34567D01*
X29179Y34649D01*
X29160Y34759D01*
X29115Y34868D01*
X29060Y34995D01*
X28978Y35114D01*
X28869Y35232D01*
X28851Y35241D01*
X28805Y35278D01*
X28732Y35324D01*
X28614Y35378D01*
X28477Y35433D01*
X28295Y35478D01*
X28085Y35515D01*
X27839Y35524D01*
D02*
G37*
G36*
X54104Y24958D02*
X52646D01*
Y20148D01*
X54140D01*
X54204Y20157D01*
X54340Y20166D01*
X54495Y20175D01*
X54659Y20193D01*
X54823Y20221D01*
X54960Y20257D01*
X54978Y20266D01*
X55024Y20275D01*
X55088Y20302D01*
X55169Y20339D01*
X55261Y20394D01*
X55352Y20448D01*
X55443Y20512D01*
X55534Y20585D01*
X55543Y20603D01*
X55579Y20640D01*
X55634Y20703D01*
X55698Y20795D01*
X55771Y20913D01*
X55853Y21050D01*
X55926Y21204D01*
X55989Y21377D01*
Y21387D01*
X55998Y21405D01*
X56008Y21432D01*
X56017Y21469D01*
X56026Y21514D01*
X56044Y21578D01*
X56062Y21642D01*
X56080Y21715D01*
X56108Y21897D01*
X56135Y22106D01*
X56153Y22343D01*
X56162Y22598D01*
Y22607D01*
Y22644D01*
Y22689D01*
X56153Y22762D01*
Y22844D01*
X56144Y22935D01*
X56135Y23045D01*
X56126Y23154D01*
X56080Y23400D01*
X56026Y23655D01*
X55944Y23892D01*
X55889Y24010D01*
X55835Y24111D01*
Y24120D01*
X55816Y24138D01*
X55798Y24165D01*
X55780Y24202D01*
X55707Y24293D01*
X55616Y24402D01*
X55497Y24521D01*
X55361Y24639D01*
X55206Y24739D01*
X55042Y24821D01*
X55024Y24830D01*
X54978Y24839D01*
X54896Y24867D01*
X54778Y24894D01*
X54632Y24912D01*
X54450Y24939D01*
X54340Y24949D01*
X54222D01*
X54104Y24958D01*
D02*
G37*
G36*
X29133D02*
X27639D01*
Y23063D01*
X29188D01*
X29306Y23072D01*
X29434Y23081D01*
X29561Y23090D01*
X29689Y23108D01*
X29789Y23127D01*
X29807Y23136D01*
X29844Y23145D01*
X29898Y23172D01*
X29971Y23209D01*
X30044Y23245D01*
X30126Y23300D01*
X30208Y23373D01*
X30272Y23446D01*
X30281Y23455D01*
X30299Y23482D01*
X30327Y23537D01*
X30354Y23600D01*
X30381Y23673D01*
X30408Y23764D01*
X30427Y23874D01*
X30436Y23992D01*
Y24010D01*
Y24047D01*
X30427Y24101D01*
X30418Y24174D01*
X30399Y24265D01*
X30372Y24356D01*
X30336Y24448D01*
X30281Y24539D01*
X30272Y24548D01*
X30254Y24575D01*
X30217Y24621D01*
X30172Y24666D01*
X30108Y24721D01*
X30035Y24776D01*
X29944Y24830D01*
X29844Y24867D01*
X29834D01*
X29789Y24885D01*
X29725Y24894D01*
X29625Y24912D01*
X29488Y24930D01*
X29333Y24939D01*
X29133Y24958D01*
D02*
G37*
G36*
X29297Y22316D02*
X27639D01*
Y20148D01*
X29434D01*
X29625Y20157D01*
X29707Y20166D01*
X29780Y20175D01*
X29789D01*
X29825Y20184D01*
X29880Y20193D01*
X29944Y20211D01*
X30099Y20266D01*
X30254Y20339D01*
X30263Y20348D01*
X30290Y20366D01*
X30327Y20394D01*
X30372Y20430D01*
X30418Y20485D01*
X30481Y20539D01*
X30527Y20612D01*
X30582Y20694D01*
X30591Y20703D01*
X30600Y20731D01*
X30618Y20785D01*
X30645Y20849D01*
X30673Y20922D01*
X30691Y21013D01*
X30700Y21123D01*
X30709Y21232D01*
Y21250D01*
Y21286D01*
X30700Y21359D01*
X30682Y21441D01*
X30663Y21532D01*
X30627Y21633D01*
X30582Y21733D01*
X30518Y21833D01*
X30509Y21842D01*
X30481Y21879D01*
X30445Y21924D01*
X30390Y21979D01*
X30317Y22043D01*
X30226Y22106D01*
X30126Y22161D01*
X30008Y22207D01*
X29989Y22216D01*
X29953Y22225D01*
X29871Y22243D01*
X29771Y22261D01*
X29643Y22279D01*
X29488Y22298D01*
X29297Y22316D01*
D02*
G37*
G36*
X14931Y24958D02*
X13437D01*
Y23063D01*
X14985D01*
X15104Y23072D01*
X15231Y23081D01*
X15359Y23090D01*
X15486Y23108D01*
X15586Y23127D01*
X15605Y23136D01*
X15641Y23145D01*
X15696Y23172D01*
X15769Y23209D01*
X15842Y23245D01*
X15924Y23300D01*
X16006Y23373D01*
X16069Y23446D01*
X16078Y23455D01*
X16097Y23482D01*
X16124Y23537D01*
X16151Y23600D01*
X16179Y23673D01*
X16206Y23764D01*
X16224Y23874D01*
X16233Y23992D01*
Y24010D01*
Y24047D01*
X16224Y24101D01*
X16215Y24174D01*
X16197Y24265D01*
X16170Y24356D01*
X16133Y24448D01*
X16078Y24539D01*
X16069Y24548D01*
X16051Y24575D01*
X16015Y24621D01*
X15969Y24666D01*
X15905Y24721D01*
X15833Y24776D01*
X15741Y24830D01*
X15641Y24867D01*
X15632D01*
X15586Y24885D01*
X15523Y24894D01*
X15423Y24912D01*
X15286Y24930D01*
X15131Y24939D01*
X14931Y24958D01*
D02*
G37*
G36*
X15095Y22316D02*
X13437D01*
Y20148D01*
X15231D01*
X15423Y20157D01*
X15505Y20166D01*
X15577Y20175D01*
X15586D01*
X15623Y20184D01*
X15678Y20193D01*
X15741Y20211D01*
X15896Y20266D01*
X16051Y20339D01*
X16060Y20348D01*
X16087Y20366D01*
X16124Y20394D01*
X16170Y20430D01*
X16215Y20485D01*
X16279Y20539D01*
X16324Y20612D01*
X16379Y20694D01*
X16388Y20703D01*
X16397Y20731D01*
X16416Y20785D01*
X16443Y20849D01*
X16470Y20922D01*
X16488Y21013D01*
X16498Y21123D01*
X16507Y21232D01*
Y21250D01*
Y21286D01*
X16498Y21359D01*
X16479Y21441D01*
X16461Y21532D01*
X16425Y21633D01*
X16379Y21733D01*
X16315Y21833D01*
X16306Y21842D01*
X16279Y21879D01*
X16242Y21924D01*
X16188Y21979D01*
X16115Y22043D01*
X16024Y22106D01*
X15924Y22161D01*
X15805Y22207D01*
X15787Y22216D01*
X15751Y22225D01*
X15668Y22243D01*
X15568Y22261D01*
X15441Y22279D01*
X15286Y22298D01*
X15095Y22316D01*
D02*
G37*
G36*
X60927Y25094D02*
X60845D01*
X60781Y25085D01*
X60699Y25076D01*
X60617Y25058D01*
X60517Y25040D01*
X60408Y25021D01*
X60171Y24949D01*
X60043Y24894D01*
X59916Y24839D01*
X59779Y24767D01*
X59652Y24685D01*
X59524Y24593D01*
X59406Y24484D01*
X59396Y24475D01*
X59378Y24457D01*
X59351Y24420D01*
X59305Y24366D01*
X59260Y24302D01*
X59205Y24220D01*
X59150Y24120D01*
X59087Y24001D01*
X59032Y23874D01*
X58968Y23719D01*
X58914Y23555D01*
X58868Y23373D01*
X58823Y23172D01*
X58795Y22944D01*
X58777Y22708D01*
X58768Y22453D01*
Y22443D01*
Y22407D01*
Y22343D01*
X58777Y22261D01*
X58786Y22170D01*
X58804Y22061D01*
X58823Y21933D01*
X58841Y21806D01*
X58914Y21514D01*
X58968Y21368D01*
X59023Y21214D01*
X59096Y21068D01*
X59178Y20922D01*
X59269Y20785D01*
X59378Y20658D01*
X59387Y20649D01*
X59406Y20630D01*
X59442Y20594D01*
X59488Y20558D01*
X59551Y20503D01*
X59624Y20448D01*
X59706Y20394D01*
X59797Y20330D01*
X59907Y20266D01*
X60025Y20211D01*
X60153Y20157D01*
X60289Y20102D01*
X60435Y20066D01*
X60581Y20029D01*
X60745Y20011D01*
X60918Y20002D01*
X60963D01*
X61009Y20011D01*
X61073D01*
X61155Y20020D01*
X61246Y20038D01*
X61355Y20057D01*
X61465Y20084D01*
X61592Y20120D01*
X61710Y20166D01*
X61847Y20211D01*
X61975Y20275D01*
X62102Y20357D01*
X62230Y20439D01*
X62357Y20539D01*
X62476Y20658D01*
X62485Y20667D01*
X62503Y20685D01*
X62530Y20731D01*
X62576Y20785D01*
X62621Y20849D01*
X62667Y20931D01*
X62722Y21031D01*
X62785Y21141D01*
X62840Y21268D01*
X62895Y21414D01*
X62940Y21569D01*
X62995Y21733D01*
X63031Y21915D01*
X63059Y22115D01*
X63077Y22325D01*
X63086Y22544D01*
Y22553D01*
Y22580D01*
Y22616D01*
Y22671D01*
X63077Y22735D01*
Y22817D01*
X63068Y22899D01*
X63050Y22999D01*
X63022Y23209D01*
X62977Y23427D01*
X62913Y23664D01*
X62822Y23883D01*
Y23892D01*
X62813Y23910D01*
X62795Y23937D01*
X62776Y23974D01*
X62713Y24083D01*
X62630Y24211D01*
X62521Y24356D01*
X62385Y24502D01*
X62230Y24648D01*
X62057Y24776D01*
X62047D01*
X62038Y24794D01*
X62011Y24803D01*
X61966Y24830D01*
X61920Y24848D01*
X61865Y24876D01*
X61729Y24939D01*
X61565Y24994D01*
X61373Y25049D01*
X61155Y25085D01*
X60927Y25094D01*
D02*
G37*
G36*
X264738Y12768D02*
X264684D01*
X264647Y12759D01*
X264556Y12750D01*
X264429Y12723D01*
X264292Y12677D01*
X264137Y12604D01*
X263991Y12513D01*
X263846Y12386D01*
X263827Y12368D01*
X263791Y12322D01*
X263727Y12240D01*
X263664Y12122D01*
X263600Y11985D01*
X263536Y11812D01*
X263499Y11621D01*
X263481Y11402D01*
Y11384D01*
Y11338D01*
X263490Y11256D01*
X263499Y11156D01*
X263518Y11038D01*
X263554Y10910D01*
X263591Y10773D01*
X263645Y10637D01*
X263654Y10618D01*
X263682Y10573D01*
X263718Y10509D01*
X263773Y10427D01*
X263837Y10345D01*
X263919Y10245D01*
X264010Y10163D01*
X264119Y10081D01*
X264137Y10072D01*
X264174Y10054D01*
X264237Y10017D01*
X264319Y9990D01*
X264410Y9953D01*
X264520Y9917D01*
X264638Y9899D01*
X264766Y9890D01*
X264811D01*
X264848Y9899D01*
X264939Y9908D01*
X265057Y9935D01*
X265185Y9990D01*
X265331Y10054D01*
X265476Y10154D01*
X265549Y10209D01*
X265613Y10281D01*
Y10290D01*
X265631Y10300D01*
X265668Y10354D01*
X265722Y10445D01*
X265795Y10564D01*
X265859Y10719D01*
X265914Y10901D01*
X265950Y11110D01*
X265968Y11356D01*
Y11366D01*
Y11384D01*
Y11420D01*
X265959Y11466D01*
Y11520D01*
X265950Y11584D01*
X265923Y11730D01*
X265886Y11894D01*
X265823Y12067D01*
X265732Y12231D01*
X265613Y12386D01*
X265595Y12404D01*
X265549Y12450D01*
X265476Y12504D01*
X265376Y12577D01*
X265249Y12650D01*
X265103Y12705D01*
X264930Y12750D01*
X264738Y12768D01*
D02*
G37*
G36*
X259892Y15055D02*
X259746D01*
X259710Y15046D01*
X259610Y15037D01*
X259491Y15000D01*
X259345Y14955D01*
X259191Y14873D01*
X259036Y14773D01*
X258963Y14700D01*
X258890Y14627D01*
Y14618D01*
X258872Y14609D01*
X258853Y14581D01*
X258835Y14554D01*
X258771Y14463D01*
X258708Y14335D01*
X258635Y14180D01*
X258571Y13989D01*
X258535Y13770D01*
X258516Y13534D01*
Y13525D01*
Y13506D01*
Y13479D01*
X258525Y13433D01*
Y13379D01*
X258535Y13324D01*
X258562Y13187D01*
X258608Y13033D01*
X258662Y12869D01*
X258753Y12705D01*
X258872Y12559D01*
X258890Y12541D01*
X258935Y12504D01*
X259017Y12440D01*
X259118Y12377D01*
X259254Y12304D01*
X259409Y12240D01*
X259582Y12204D01*
X259773Y12185D01*
X259828D01*
X259865Y12195D01*
X259965Y12204D01*
X260083Y12231D01*
X260229Y12276D01*
X260375Y12340D01*
X260521Y12431D01*
X260657Y12559D01*
X260675Y12577D01*
X260712Y12632D01*
X260767Y12714D01*
X260839Y12832D01*
X260903Y12978D01*
X260958Y13151D01*
X260994Y13361D01*
X261013Y13597D01*
Y13607D01*
Y13625D01*
Y13661D01*
X261003Y13707D01*
Y13770D01*
X260994Y13834D01*
X260967Y13980D01*
X260930Y14153D01*
X260867Y14335D01*
X260776Y14508D01*
X260657Y14663D01*
Y14672D01*
X260639Y14682D01*
X260593Y14727D01*
X260521Y14791D01*
X260420Y14864D01*
X260293Y14928D01*
X260147Y14991D01*
X259983Y15037D01*
X259892Y15055D01*
D02*
G37*
G36*
X310143Y15010D02*
Y15000D01*
X310134Y14982D01*
Y14946D01*
X310115Y14909D01*
X310106Y14845D01*
X310088Y14782D01*
X310052Y14627D01*
X310006Y14445D01*
X309942Y14244D01*
X309878Y14026D01*
X309797Y13798D01*
X309113Y11958D01*
X311245D01*
X310589Y13689D01*
Y13698D01*
X310580Y13725D01*
X310562Y13770D01*
X310544Y13825D01*
X310516Y13889D01*
X310489Y13971D01*
X310462Y14062D01*
X310425Y14153D01*
X310352Y14363D01*
X310279Y14581D01*
X310207Y14800D01*
X310143Y15010D01*
D02*
G37*
G36*
X304759Y14918D02*
X302955D01*
Y12668D01*
X304649D01*
X304713Y12677D01*
X304777D01*
X304850Y12686D01*
X305023Y12705D01*
X305214Y12741D01*
X305405Y12796D01*
X305579Y12869D01*
X305661Y12914D01*
X305724Y12969D01*
X305743Y12987D01*
X305779Y13024D01*
X305834Y13096D01*
X305897Y13187D01*
X305961Y13306D01*
X306016Y13452D01*
X306052Y13616D01*
X306071Y13807D01*
Y13816D01*
Y13825D01*
Y13871D01*
X306062Y13953D01*
X306043Y14044D01*
X306025Y14144D01*
X305989Y14263D01*
X305934Y14372D01*
X305870Y14481D01*
X305861Y14490D01*
X305834Y14527D01*
X305788Y14572D01*
X305733Y14636D01*
X305651Y14700D01*
X305560Y14754D01*
X305460Y14809D01*
X305342Y14855D01*
X305333D01*
X305296Y14864D01*
X305242Y14873D01*
X305169Y14891D01*
X305059Y14900D01*
X304923Y14909D01*
X304759Y14918D01*
D02*
G37*
G36*
X58966Y14918D02*
X57472D01*
Y13024D01*
X59021D01*
X59140Y13033D01*
X59267Y13042D01*
X59395Y13051D01*
X59522Y13069D01*
X59622Y13087D01*
X59641Y13096D01*
X59677Y13105D01*
X59732Y13133D01*
X59804Y13169D01*
X59877Y13206D01*
X59959Y13260D01*
X60041Y13333D01*
X60105Y13406D01*
X60114Y13415D01*
X60132Y13443D01*
X60160Y13497D01*
X60187Y13561D01*
X60215Y13634D01*
X60242Y13725D01*
X60260Y13834D01*
X60269Y13953D01*
Y13971D01*
Y14007D01*
X60260Y14062D01*
X60251Y14135D01*
X60233Y14226D01*
X60205Y14317D01*
X60169Y14408D01*
X60114Y14499D01*
X60105Y14508D01*
X60087Y14536D01*
X60050Y14581D01*
X60005Y14627D01*
X59941Y14682D01*
X59868Y14736D01*
X59777Y14791D01*
X59677Y14827D01*
X59668D01*
X59622Y14845D01*
X59558Y14855D01*
X59458Y14873D01*
X59322Y14891D01*
X59167Y14900D01*
X58966Y14918D01*
D02*
G37*
G36*
X59130Y12276D02*
X57472D01*
Y10108D01*
X59267D01*
X59458Y10117D01*
X59540Y10126D01*
X59613Y10136D01*
X59622D01*
X59659Y10145D01*
X59713Y10154D01*
X59777Y10172D01*
X59932Y10227D01*
X60087Y10300D01*
X60096Y10309D01*
X60123Y10327D01*
X60160Y10354D01*
X60205Y10391D01*
X60251Y10445D01*
X60315Y10500D01*
X60360Y10573D01*
X60415Y10655D01*
X60424Y10664D01*
X60433Y10691D01*
X60451Y10746D01*
X60479Y10810D01*
X60506Y10883D01*
X60524Y10974D01*
X60533Y11083D01*
X60542Y11192D01*
Y11211D01*
Y11247D01*
X60533Y11320D01*
X60515Y11402D01*
X60497Y11493D01*
X60460Y11593D01*
X60415Y11693D01*
X60351Y11794D01*
X60342Y11803D01*
X60315Y11839D01*
X60278Y11885D01*
X60224Y11939D01*
X60151Y12003D01*
X60060Y12067D01*
X59959Y12122D01*
X59841Y12167D01*
X59823Y12176D01*
X59786Y12185D01*
X59704Y12204D01*
X59604Y12222D01*
X59477Y12240D01*
X59322Y12258D01*
X59130Y12276D01*
D02*
G37*
G36*
X46586Y15010D02*
Y15000D01*
X46577Y14982D01*
Y14946D01*
X46559Y14909D01*
X46549Y14845D01*
X46531Y14782D01*
X46495Y14627D01*
X46449Y14445D01*
X46385Y14244D01*
X46322Y14026D01*
X46240Y13798D01*
X45557Y11958D01*
X47688D01*
X47032Y13689D01*
Y13698D01*
X47023Y13725D01*
X47005Y13770D01*
X46987Y13825D01*
X46959Y13889D01*
X46932Y13971D01*
X46905Y14062D01*
X46868Y14153D01*
X46795Y14363D01*
X46723Y14581D01*
X46650Y14800D01*
X46586Y15010D01*
D02*
G37*
G36*
X29104Y14918D02*
X27610D01*
Y13024D01*
X29158D01*
X29277Y13033D01*
X29404Y13042D01*
X29532Y13051D01*
X29660Y13069D01*
X29760Y13087D01*
X29778Y13096D01*
X29814Y13105D01*
X29869Y13133D01*
X29942Y13169D01*
X30015Y13206D01*
X30097Y13260D01*
X30179Y13333D01*
X30243Y13406D01*
X30252Y13415D01*
X30270Y13443D01*
X30297Y13497D01*
X30325Y13561D01*
X30352Y13634D01*
X30379Y13725D01*
X30397Y13834D01*
X30406Y13953D01*
Y13971D01*
Y14007D01*
X30397Y14062D01*
X30388Y14135D01*
X30370Y14226D01*
X30343Y14317D01*
X30306Y14408D01*
X30252Y14499D01*
X30243Y14508D01*
X30224Y14536D01*
X30188Y14581D01*
X30142Y14627D01*
X30079Y14682D01*
X30006Y14736D01*
X29915Y14791D01*
X29814Y14827D01*
X29805D01*
X29760Y14845D01*
X29696Y14855D01*
X29596Y14873D01*
X29459Y14891D01*
X29304Y14900D01*
X29104Y14918D01*
D02*
G37*
G36*
X29268Y12276D02*
X27610D01*
Y10108D01*
X29404D01*
X29596Y10117D01*
X29678Y10126D01*
X29751Y10136D01*
X29760D01*
X29796Y10145D01*
X29851Y10154D01*
X29915Y10172D01*
X30070Y10227D01*
X30224Y10300D01*
X30233Y10309D01*
X30261Y10327D01*
X30297Y10354D01*
X30343Y10391D01*
X30388Y10445D01*
X30452Y10500D01*
X30498Y10573D01*
X30552Y10655D01*
X30561Y10664D01*
X30571Y10691D01*
X30589Y10746D01*
X30616Y10810D01*
X30643Y10883D01*
X30662Y10974D01*
X30671Y11083D01*
X30680Y11192D01*
Y11211D01*
Y11247D01*
X30671Y11320D01*
X30652Y11402D01*
X30634Y11493D01*
X30598Y11593D01*
X30552Y11693D01*
X30488Y11794D01*
X30479Y11803D01*
X30452Y11839D01*
X30416Y11885D01*
X30361Y11939D01*
X30288Y12003D01*
X30197Y12067D01*
X30097Y12122D01*
X29978Y12167D01*
X29960Y12176D01*
X29924Y12185D01*
X29842Y12204D01*
X29741Y12222D01*
X29614Y12240D01*
X29459Y12258D01*
X29268Y12276D01*
D02*
G37*
G36*
X41266Y15055D02*
X41211D01*
X41175Y15046D01*
X41074Y15028D01*
X40956Y15000D01*
X40819Y14946D01*
X40674Y14864D01*
X40601Y14809D01*
X40528Y14754D01*
X40464Y14682D01*
X40400Y14600D01*
Y14590D01*
X40382Y14572D01*
X40364Y14536D01*
X40336Y14490D01*
X40309Y14417D01*
X40273Y14335D01*
X40245Y14235D01*
X40209Y14117D01*
X40172Y13980D01*
X40136Y13825D01*
X40100Y13652D01*
X40072Y13461D01*
X40045Y13242D01*
X40027Y13005D01*
X40018Y12750D01*
X40009Y12468D01*
Y12450D01*
Y12404D01*
Y12322D01*
X40018Y12213D01*
Y12094D01*
X40027Y11948D01*
X40036Y11794D01*
X40054Y11630D01*
X40100Y11274D01*
X40127Y11101D01*
X40163Y10937D01*
X40200Y10783D01*
X40255Y10637D01*
X40309Y10509D01*
X40373Y10400D01*
Y10391D01*
X40391Y10382D01*
X40437Y10318D01*
X40519Y10236D01*
X40619Y10145D01*
X40756Y10054D01*
X40910Y9972D01*
X41083Y9908D01*
X41175Y9899D01*
X41275Y9890D01*
X41329D01*
X41366Y9899D01*
X41457Y9917D01*
X41585Y9953D01*
X41721Y10017D01*
X41876Y10108D01*
X41949Y10163D01*
X42022Y10236D01*
X42095Y10309D01*
X42167Y10400D01*
Y10409D01*
X42186Y10427D01*
X42204Y10454D01*
X42222Y10500D01*
X42259Y10564D01*
X42286Y10646D01*
X42322Y10737D01*
X42359Y10846D01*
X42386Y10983D01*
X42423Y11129D01*
X42459Y11302D01*
X42486Y11484D01*
X42505Y11703D01*
X42523Y11930D01*
X42541Y12185D01*
Y12468D01*
Y12477D01*
Y12486D01*
Y12532D01*
Y12614D01*
X42532Y12723D01*
Y12841D01*
X42523Y12987D01*
X42514Y13142D01*
X42496Y13315D01*
X42450Y13661D01*
X42423Y13834D01*
X42386Y13998D01*
X42350Y14153D01*
X42295Y14299D01*
X42240Y14426D01*
X42177Y14536D01*
Y14545D01*
X42158Y14554D01*
X42140Y14581D01*
X42113Y14618D01*
X42031Y14700D01*
X41931Y14800D01*
X41794Y14891D01*
X41639Y14973D01*
X41557Y15010D01*
X41466Y15037D01*
X41366Y15046D01*
X41266Y15055D01*
D02*
G37*
G36*
X114056Y134104D02*
Y134095D01*
X114047Y134077D01*
Y134040D01*
X114029Y134004D01*
X114020Y133940D01*
X114002Y133876D01*
X113965Y133721D01*
X113920Y133539D01*
X113856Y133339D01*
X113792Y133120D01*
X113710Y132892D01*
X113027Y131052D01*
X115159D01*
X114503Y132783D01*
Y132792D01*
X114494Y132819D01*
X114475Y132865D01*
X114457Y132920D01*
X114430Y132983D01*
X114402Y133065D01*
X114375Y133157D01*
X114339Y133248D01*
X114266Y133457D01*
X114193Y133676D01*
X114120Y133895D01*
X114056Y134104D01*
D02*
G37*
G36*
X105876Y134013D02*
X104381D01*
Y132118D01*
X105930D01*
X106049Y132127D01*
X106176Y132136D01*
X106304Y132145D01*
X106431Y132164D01*
X106531Y132182D01*
X106550Y132191D01*
X106586Y132200D01*
X106641Y132227D01*
X106714Y132264D01*
X106787Y132300D01*
X106869Y132355D01*
X106950Y132428D01*
X107014Y132501D01*
X107023Y132510D01*
X107042Y132537D01*
X107069Y132592D01*
X107096Y132656D01*
X107123Y132728D01*
X107151Y132819D01*
X107169Y132929D01*
X107178Y133047D01*
Y133065D01*
Y133102D01*
X107169Y133157D01*
X107160Y133229D01*
X107142Y133320D01*
X107114Y133412D01*
X107078Y133503D01*
X107023Y133594D01*
X107014Y133603D01*
X106996Y133630D01*
X106960Y133676D01*
X106914Y133721D01*
X106850Y133776D01*
X106777Y133831D01*
X106686Y133885D01*
X106586Y133922D01*
X106577D01*
X106531Y133940D01*
X106468Y133949D01*
X106367Y133967D01*
X106231Y133985D01*
X106076Y133995D01*
X105876Y134013D01*
D02*
G37*
G36*
X106040Y131371D02*
X104381D01*
Y129203D01*
X106176D01*
X106367Y129212D01*
X106449Y129221D01*
X106522Y129230D01*
X106531D01*
X106568Y129239D01*
X106623Y129248D01*
X106686Y129267D01*
X106841Y129321D01*
X106996Y129394D01*
X107005Y129403D01*
X107032Y129421D01*
X107069Y129449D01*
X107114Y129485D01*
X107160Y129540D01*
X107224Y129595D01*
X107269Y129667D01*
X107324Y129749D01*
X107333Y129759D01*
X107342Y129786D01*
X107360Y129841D01*
X107388Y129904D01*
X107415Y129977D01*
X107433Y130068D01*
X107442Y130178D01*
X107451Y130287D01*
Y130305D01*
Y130342D01*
X107442Y130414D01*
X107424Y130496D01*
X107406Y130587D01*
X107369Y130688D01*
X107324Y130788D01*
X107260Y130888D01*
X107251Y130897D01*
X107224Y130934D01*
X107187Y130979D01*
X107133Y131034D01*
X107060Y131098D01*
X106969Y131161D01*
X106869Y131216D01*
X106750Y131262D01*
X106732Y131271D01*
X106695Y131280D01*
X106613Y131298D01*
X106513Y131316D01*
X106386Y131334D01*
X106231Y131353D01*
X106040Y131371D01*
D02*
G37*
G36*
X96567Y15055D02*
X96421D01*
X96385Y15046D01*
X96285Y15037D01*
X96166Y15000D01*
X96021Y14955D01*
X95866Y14873D01*
X95711Y14773D01*
X95638Y14700D01*
X95565Y14627D01*
Y14618D01*
X95547Y14609D01*
X95529Y14581D01*
X95510Y14554D01*
X95446Y14463D01*
X95383Y14335D01*
X95310Y14180D01*
X95246Y13989D01*
X95210Y13770D01*
X95191Y13534D01*
Y13525D01*
Y13506D01*
Y13479D01*
X95201Y13433D01*
Y13379D01*
X95210Y13324D01*
X95237Y13187D01*
X95283Y13033D01*
X95337Y12869D01*
X95428Y12705D01*
X95547Y12559D01*
X95565Y12541D01*
X95610Y12504D01*
X95692Y12440D01*
X95793Y12377D01*
X95929Y12304D01*
X96084Y12240D01*
X96257Y12204D01*
X96449Y12185D01*
X96503D01*
X96540Y12195D01*
X96640Y12204D01*
X96758Y12231D01*
X96904Y12276D01*
X97050Y12340D01*
X97196Y12431D01*
X97332Y12559D01*
X97351Y12577D01*
X97387Y12632D01*
X97442Y12714D01*
X97514Y12832D01*
X97578Y12978D01*
X97633Y13151D01*
X97669Y13361D01*
X97688Y13597D01*
Y13607D01*
Y13625D01*
Y13661D01*
X97679Y13707D01*
Y13770D01*
X97669Y13834D01*
X97642Y13980D01*
X97606Y14153D01*
X97542Y14335D01*
X97451Y14508D01*
X97332Y14663D01*
Y14672D01*
X97314Y14682D01*
X97268Y14727D01*
X97196Y14791D01*
X97095Y14864D01*
X96968Y14928D01*
X96822Y14991D01*
X96658Y15037D01*
X96567Y15055D01*
D02*
G37*
G36*
X85271Y14918D02*
X83813D01*
Y10108D01*
X85307D01*
X85371Y10117D01*
X85508Y10126D01*
X85662Y10136D01*
X85826Y10154D01*
X85990Y10181D01*
X86127Y10218D01*
X86145Y10227D01*
X86191Y10236D01*
X86255Y10263D01*
X86336Y10300D01*
X86428Y10354D01*
X86519Y10409D01*
X86610Y10473D01*
X86701Y10546D01*
X86710Y10564D01*
X86747Y10600D01*
X86801Y10664D01*
X86865Y10755D01*
X86938Y10874D01*
X87020Y11010D01*
X87093Y11165D01*
X87156Y11338D01*
Y11347D01*
X87165Y11366D01*
X87175Y11393D01*
X87184Y11429D01*
X87193Y11475D01*
X87211Y11539D01*
X87229Y11602D01*
X87248Y11675D01*
X87275Y11857D01*
X87302Y12067D01*
X87320Y12304D01*
X87330Y12559D01*
Y12568D01*
Y12604D01*
Y12650D01*
X87320Y12723D01*
Y12805D01*
X87311Y12896D01*
X87302Y13005D01*
X87293Y13115D01*
X87248Y13361D01*
X87193Y13616D01*
X87111Y13852D01*
X87056Y13971D01*
X87002Y14071D01*
Y14080D01*
X86983Y14098D01*
X86965Y14126D01*
X86947Y14162D01*
X86874Y14253D01*
X86783Y14363D01*
X86664Y14481D01*
X86528Y14600D01*
X86373Y14700D01*
X86209Y14782D01*
X86191Y14791D01*
X86145Y14800D01*
X86063Y14827D01*
X85945Y14855D01*
X85799Y14873D01*
X85617Y14900D01*
X85508Y14909D01*
X85389D01*
X85271Y14918D01*
D02*
G37*
G36*
X305040Y22808D02*
X304985D01*
X304949Y22799D01*
X304858Y22790D01*
X304730Y22762D01*
X304594Y22717D01*
X304439Y22644D01*
X304293Y22553D01*
X304147Y22425D01*
X304129Y22407D01*
X304093Y22361D01*
X304029Y22279D01*
X303965Y22161D01*
X303901Y22024D01*
X303837Y21851D01*
X303801Y21660D01*
X303783Y21441D01*
Y21423D01*
Y21377D01*
X303792Y21296D01*
X303801Y21195D01*
X303819Y21077D01*
X303856Y20949D01*
X303892Y20813D01*
X303947Y20676D01*
X303956Y20658D01*
X303983Y20612D01*
X304020Y20549D01*
X304074Y20467D01*
X304138Y20384D01*
X304220Y20284D01*
X304311Y20202D01*
X304421Y20120D01*
X304439Y20111D01*
X304475Y20093D01*
X304539Y20057D01*
X304621Y20029D01*
X304712Y19993D01*
X304821Y19956D01*
X304940Y19938D01*
X305067Y19929D01*
X305113D01*
X305149Y19938D01*
X305241Y19947D01*
X305359Y19975D01*
X305486Y20029D01*
X305632Y20093D01*
X305778Y20193D01*
X305851Y20248D01*
X305915Y20321D01*
Y20330D01*
X305933Y20339D01*
X305969Y20394D01*
X306024Y20485D01*
X306097Y20603D01*
X306161Y20758D01*
X306215Y20940D01*
X306252Y21150D01*
X306270Y21396D01*
Y21405D01*
Y21423D01*
Y21460D01*
X306261Y21505D01*
Y21560D01*
X306252Y21623D01*
X306224Y21769D01*
X306188Y21933D01*
X306124Y22106D01*
X306033Y22270D01*
X305915Y22425D01*
X305896Y22443D01*
X305851Y22489D01*
X305778Y22544D01*
X305678Y22616D01*
X305550Y22689D01*
X305404Y22744D01*
X305231Y22790D01*
X305040Y22808D01*
D02*
G37*
G36*
X284461Y22808D02*
X284406D01*
X284369Y22799D01*
X284278Y22790D01*
X284151Y22762D01*
X284014Y22717D01*
X283859Y22644D01*
X283714Y22553D01*
X283568Y22425D01*
X283550Y22407D01*
X283513Y22361D01*
X283449Y22279D01*
X283386Y22161D01*
X283322Y22024D01*
X283258Y21851D01*
X283222Y21660D01*
X283203Y21441D01*
Y21423D01*
Y21377D01*
X283212Y21295D01*
X283222Y21195D01*
X283240Y21077D01*
X283276Y20949D01*
X283313Y20813D01*
X283367Y20676D01*
X283377Y20658D01*
X283404Y20612D01*
X283440Y20549D01*
X283495Y20467D01*
X283559Y20384D01*
X283641Y20284D01*
X283732Y20202D01*
X283841Y20120D01*
X283859Y20111D01*
X283896Y20093D01*
X283960Y20057D01*
X284042Y20029D01*
X284133Y19993D01*
X284242Y19956D01*
X284360Y19938D01*
X284488Y19929D01*
X284533D01*
X284570Y19938D01*
X284661Y19947D01*
X284779Y19975D01*
X284907Y20029D01*
X285053Y20093D01*
X285198Y20193D01*
X285271Y20248D01*
X285335Y20321D01*
Y20330D01*
X285353Y20339D01*
X285390Y20394D01*
X285444Y20485D01*
X285517Y20603D01*
X285581Y20758D01*
X285636Y20940D01*
X285672Y21150D01*
X285690Y21396D01*
Y21405D01*
Y21423D01*
Y21460D01*
X285681Y21505D01*
Y21560D01*
X285672Y21623D01*
X285645Y21769D01*
X285608Y21933D01*
X285545Y22106D01*
X285454Y22270D01*
X285335Y22425D01*
X285317Y22443D01*
X285271Y22489D01*
X285198Y22544D01*
X285098Y22616D01*
X284971Y22689D01*
X284825Y22744D01*
X284652Y22790D01*
X284461Y22808D01*
D02*
G37*
G36*
X295292Y25094D02*
X295147D01*
X295110Y25085D01*
X295010Y25076D01*
X294892Y25040D01*
X294746Y24994D01*
X294591Y24912D01*
X294436Y24812D01*
X294363Y24739D01*
X294290Y24666D01*
Y24657D01*
X294272Y24648D01*
X294254Y24621D01*
X294236Y24593D01*
X294172Y24502D01*
X294108Y24375D01*
X294035Y24220D01*
X293971Y24029D01*
X293935Y23810D01*
X293917Y23573D01*
Y23564D01*
Y23546D01*
Y23518D01*
X293926Y23473D01*
Y23418D01*
X293935Y23363D01*
X293962Y23227D01*
X294008Y23072D01*
X294062Y22908D01*
X294154Y22744D01*
X294272Y22598D01*
X294290Y22580D01*
X294336Y22544D01*
X294418Y22480D01*
X294518Y22416D01*
X294655Y22343D01*
X294810Y22279D01*
X294983Y22243D01*
X295174Y22225D01*
X295229D01*
X295265Y22234D01*
X295365Y22243D01*
X295484Y22270D01*
X295629Y22316D01*
X295775Y22380D01*
X295921Y22471D01*
X296058Y22598D01*
X296076Y22616D01*
X296112Y22671D01*
X296167Y22753D01*
X296240Y22872D01*
X296304Y23017D01*
X296358Y23190D01*
X296395Y23400D01*
X296413Y23637D01*
Y23646D01*
Y23664D01*
Y23701D01*
X296404Y23746D01*
Y23810D01*
X296395Y23874D01*
X296367Y24019D01*
X296331Y24193D01*
X296267Y24375D01*
X296176Y24548D01*
X296058Y24703D01*
Y24712D01*
X296039Y24721D01*
X295994Y24767D01*
X295921Y24830D01*
X295821Y24903D01*
X295693Y24967D01*
X295547Y25031D01*
X295384Y25076D01*
X295292Y25094D01*
D02*
G37*
G36*
X267880Y25003D02*
X265894D01*
Y22917D01*
X267771D01*
X267880Y22926D01*
X268008Y22935D01*
X268154Y22944D01*
X268299Y22963D01*
X268445Y22990D01*
X268573Y23026D01*
X268591Y23036D01*
X268627Y23054D01*
X268682Y23081D01*
X268755Y23118D01*
X268837Y23172D01*
X268919Y23236D01*
X269001Y23318D01*
X269065Y23409D01*
X269074Y23418D01*
X269092Y23455D01*
X269119Y23509D01*
X269156Y23582D01*
X269183Y23664D01*
X269210Y23755D01*
X269229Y23865D01*
X269238Y23974D01*
Y23983D01*
Y23992D01*
X269229Y24047D01*
X269219Y24129D01*
X269201Y24238D01*
X269156Y24347D01*
X269101Y24475D01*
X269019Y24593D01*
X268910Y24712D01*
X268892Y24721D01*
X268846Y24757D01*
X268773Y24803D01*
X268655Y24858D01*
X268518Y24912D01*
X268336Y24958D01*
X268126Y24994D01*
X267880Y25003D01*
D02*
G37*
G36*
X309877Y25094D02*
X309823D01*
X309786Y25085D01*
X309686Y25067D01*
X309568Y25040D01*
X309431Y24985D01*
X309285Y24903D01*
X309212Y24848D01*
X309140Y24794D01*
X309076Y24721D01*
X309012Y24639D01*
Y24630D01*
X308994Y24612D01*
X308976Y24575D01*
X308948Y24530D01*
X308921Y24457D01*
X308885Y24375D01*
X308857Y24274D01*
X308821Y24156D01*
X308784Y24019D01*
X308748Y23865D01*
X308711Y23692D01*
X308684Y23500D01*
X308657Y23281D01*
X308639Y23045D01*
X308629Y22790D01*
X308620Y22507D01*
Y22489D01*
Y22443D01*
Y22361D01*
X308629Y22252D01*
Y22134D01*
X308639Y21988D01*
X308648Y21833D01*
X308666Y21669D01*
X308711Y21314D01*
X308739Y21141D01*
X308775Y20977D01*
X308812Y20822D01*
X308866Y20676D01*
X308921Y20549D01*
X308985Y20439D01*
Y20430D01*
X309003Y20421D01*
X309049Y20357D01*
X309131Y20275D01*
X309231Y20184D01*
X309367Y20093D01*
X309522Y20011D01*
X309695Y19947D01*
X309786Y19938D01*
X309887Y19929D01*
X309941D01*
X309978Y19938D01*
X310069Y19956D01*
X310196Y19993D01*
X310333Y20057D01*
X310488Y20148D01*
X310561Y20202D01*
X310634Y20275D01*
X310706Y20348D01*
X310779Y20439D01*
Y20448D01*
X310798Y20467D01*
X310816Y20494D01*
X310834Y20539D01*
X310871Y20603D01*
X310898Y20685D01*
X310934Y20776D01*
X310971Y20886D01*
X310998Y21022D01*
X311034Y21168D01*
X311071Y21341D01*
X311098Y21523D01*
X311116Y21742D01*
X311135Y21970D01*
X311153Y22225D01*
Y22507D01*
Y22516D01*
Y22525D01*
Y22571D01*
Y22653D01*
X311144Y22762D01*
Y22881D01*
X311135Y23026D01*
X311125Y23181D01*
X311107Y23354D01*
X311062Y23701D01*
X311034Y23874D01*
X310998Y24038D01*
X310962Y24193D01*
X310907Y24338D01*
X310852Y24466D01*
X310788Y24575D01*
Y24584D01*
X310770Y24593D01*
X310752Y24621D01*
X310725Y24657D01*
X310643Y24739D01*
X310542Y24839D01*
X310406Y24930D01*
X310251Y25012D01*
X310169Y25049D01*
X310078Y25076D01*
X309978Y25085D01*
X309877Y25094D01*
D02*
G37*
G36*
X283533Y48232D02*
X281547D01*
Y46145D01*
X283423D01*
X283533Y46155D01*
X283660Y46164D01*
X283806Y46173D01*
X283952Y46191D01*
X284098Y46218D01*
X284225Y46255D01*
X284243Y46264D01*
X284280Y46282D01*
X284334Y46309D01*
X284407Y46346D01*
X284489Y46400D01*
X284571Y46464D01*
X284653Y46546D01*
X284717Y46637D01*
X284726Y46646D01*
X284744Y46683D01*
X284772Y46738D01*
X284808Y46810D01*
X284836Y46892D01*
X284863Y46984D01*
X284881Y47093D01*
X284890Y47202D01*
Y47211D01*
Y47220D01*
X284881Y47275D01*
X284872Y47357D01*
X284854Y47466D01*
X284808Y47576D01*
X284753Y47703D01*
X284671Y47822D01*
X284562Y47940D01*
X284544Y47949D01*
X284498Y47986D01*
X284425Y48031D01*
X284307Y48086D01*
X284171Y48141D01*
X283988Y48186D01*
X283779Y48223D01*
X283533Y48232D01*
D02*
G37*
G36*
X297653Y48323D02*
X297571D01*
X297508Y48314D01*
X297426Y48305D01*
X297343Y48286D01*
X297243Y48268D01*
X297134Y48250D01*
X296897Y48177D01*
X296770Y48122D01*
X296642Y48068D01*
X296505Y47995D01*
X296378Y47913D01*
X296250Y47822D01*
X296132Y47712D01*
X296123Y47703D01*
X296105Y47685D01*
X296077Y47649D01*
X296032Y47594D01*
X295986Y47530D01*
X295932Y47448D01*
X295877Y47348D01*
X295813Y47230D01*
X295758Y47102D01*
X295695Y46947D01*
X295640Y46783D01*
X295594Y46601D01*
X295549Y46400D01*
X295521Y46173D01*
X295503Y45936D01*
X295494Y45681D01*
Y45672D01*
Y45635D01*
Y45572D01*
X295503Y45489D01*
X295512Y45398D01*
X295531Y45289D01*
X295549Y45162D01*
X295567Y45034D01*
X295640Y44743D01*
X295695Y44597D01*
X295749Y44442D01*
X295822Y44296D01*
X295904Y44150D01*
X295995Y44014D01*
X296105Y43886D01*
X296114Y43877D01*
X296132Y43859D01*
X296168Y43822D01*
X296214Y43786D01*
X296278Y43731D01*
X296351Y43677D01*
X296432Y43622D01*
X296524Y43558D01*
X296633Y43494D01*
X296751Y43440D01*
X296879Y43385D01*
X297016Y43330D01*
X297161Y43294D01*
X297307Y43258D01*
X297471Y43239D01*
X297644Y43230D01*
X297690D01*
X297735Y43239D01*
X297799D01*
X297881Y43249D01*
X297972Y43267D01*
X298081Y43285D01*
X298191Y43312D01*
X298318Y43349D01*
X298437Y43394D01*
X298573Y43440D01*
X298701Y43504D01*
X298829Y43586D01*
X298956Y43668D01*
X299083Y43768D01*
X299202Y43886D01*
X299211Y43895D01*
X299229Y43913D01*
X299257Y43959D01*
X299302Y44014D01*
X299348Y44078D01*
X299393Y44159D01*
X299448Y44260D01*
X299512Y44369D01*
X299566Y44497D01*
X299621Y44642D01*
X299667Y44797D01*
X299721Y44961D01*
X299758Y45143D01*
X299785Y45344D01*
X299803Y45553D01*
X299812Y45772D01*
Y45781D01*
Y45808D01*
Y45845D01*
Y45900D01*
X299803Y45963D01*
Y46045D01*
X299794Y46127D01*
X299776Y46227D01*
X299749Y46437D01*
X299703Y46656D01*
X299639Y46892D01*
X299548Y47111D01*
Y47120D01*
X299539Y47139D01*
X299521Y47166D01*
X299503Y47202D01*
X299439Y47311D01*
X299357Y47439D01*
X299248Y47585D01*
X299111Y47731D01*
X298956Y47876D01*
X298783Y48004D01*
X298774D01*
X298765Y48022D01*
X298737Y48031D01*
X298692Y48059D01*
X298646Y48077D01*
X298592Y48104D01*
X298455Y48168D01*
X298291Y48223D01*
X298100Y48277D01*
X297881Y48314D01*
X297653Y48323D01*
D02*
G37*
G36*
X258061Y124701D02*
X257988D01*
X257906Y124682D01*
X257797Y124664D01*
X257678Y124628D01*
X257551Y124582D01*
X257432Y124509D01*
X257314Y124409D01*
X257305Y124400D01*
X257268Y124364D01*
X257223Y124300D01*
X257177Y124218D01*
X257122Y124118D01*
X257077Y123999D01*
X257041Y123872D01*
X257031Y123726D01*
Y123717D01*
Y123708D01*
X257041Y123653D01*
X257050Y123571D01*
X257068Y123471D01*
X257104Y123352D01*
X257150Y123234D01*
X257223Y123107D01*
X257314Y122997D01*
X257323Y122988D01*
X257368Y122952D01*
X257432Y122906D01*
X257514Y122861D01*
X257624Y122806D01*
X257751Y122760D01*
X257897Y122724D01*
X258061Y122715D01*
X258079D01*
X258134Y122724D01*
X258216Y122733D01*
X258325Y122751D01*
X258443Y122788D01*
X258562Y122833D01*
X258689Y122906D01*
X258799Y122997D01*
X258808Y123006D01*
X258844Y123052D01*
X258890Y123107D01*
X258945Y123188D01*
X258999Y123289D01*
X259045Y123407D01*
X259081Y123544D01*
X259090Y123689D01*
Y123699D01*
Y123708D01*
Y123762D01*
X259072Y123844D01*
X259054Y123945D01*
X259017Y124054D01*
X258963Y124172D01*
X258890Y124291D01*
X258790Y124409D01*
X258781Y124418D01*
X258735Y124455D01*
X258671Y124500D01*
X258589Y124555D01*
X258480Y124610D01*
X258362Y124655D01*
X258216Y124692D01*
X258061Y124701D01*
D02*
G37*
G36*
X258033Y122086D02*
X257979D01*
X257942Y122077D01*
X257842Y122068D01*
X257715Y122041D01*
X257569Y121995D01*
X257423Y121931D01*
X257268Y121840D01*
X257132Y121722D01*
X257113Y121704D01*
X257077Y121658D01*
X257022Y121576D01*
X256959Y121476D01*
X256886Y121339D01*
X256831Y121184D01*
X256795Y121011D01*
X256776Y120820D01*
Y120802D01*
Y120765D01*
X256785Y120701D01*
X256795Y120619D01*
X256813Y120519D01*
X256840Y120410D01*
X256877Y120301D01*
X256922Y120182D01*
X256931Y120173D01*
X256949Y120127D01*
X256986Y120073D01*
X257041Y120009D01*
X257104Y119927D01*
X257186Y119845D01*
X257277Y119772D01*
X257387Y119699D01*
X257405Y119690D01*
X257441Y119672D01*
X257505Y119645D01*
X257587Y119617D01*
X257687Y119590D01*
X257806Y119563D01*
X257933Y119544D01*
X258061Y119535D01*
X258116D01*
X258152Y119544D01*
X258261Y119554D01*
X258389Y119581D01*
X258535Y119626D01*
X258689Y119681D01*
X258835Y119772D01*
X258981Y119891D01*
X258999Y119909D01*
X259036Y119954D01*
X259099Y120036D01*
X259163Y120137D01*
X259227Y120264D01*
X259291Y120419D01*
X259327Y120601D01*
X259345Y120792D01*
Y120802D01*
Y120820D01*
Y120847D01*
X259336Y120884D01*
X259327Y120984D01*
X259300Y121121D01*
X259254Y121257D01*
X259191Y121412D01*
X259099Y121567D01*
X258972Y121713D01*
X258954Y121731D01*
X258908Y121767D01*
X258826Y121831D01*
X258717Y121904D01*
X258580Y121968D01*
X258416Y122031D01*
X258234Y122068D01*
X258033Y122086D01*
D02*
G37*
%LPD*%
D10*
X29398Y108366D02*
X28854Y109115D01*
X27973Y108829D01*
Y107903D01*
X28854Y107617D01*
X29398Y108366D01*
D11*
X75945Y128386D02*
Y127598D01*
Y128386D01*
X56110Y118866D02*
Y123622D01*
X30110Y118866D02*
X56110D01*
X30110D02*
Y123622D01*
D12*
X308661Y119685D02*
X308636Y120682D01*
X308560Y121677D01*
X308434Y122666D01*
X308259Y123648D01*
X308033Y124619D01*
X307759Y125578D01*
X307436Y126522D01*
X307066Y127448D01*
X306650Y128354D01*
X306188Y129238D01*
X305682Y130098D01*
X305133Y130930D01*
X304543Y131734D01*
X303913Y132507D01*
X303244Y133247D01*
X302539Y133953D01*
X301799Y134621D01*
X301026Y135251D01*
X300222Y135842D01*
X299389Y136391D01*
X298530Y136897D01*
X297646Y137358D01*
X296739Y137775D01*
X295813Y138145D01*
X294869Y138467D01*
X293911Y138742D01*
X292939Y138967D01*
X291957Y139143D01*
X290968Y139269D01*
X289973Y139345D01*
X288976Y139370D01*
X287979Y139345D01*
X286985Y139269D01*
X285996Y139143D01*
X285014Y138967D01*
X284042Y138742D01*
X283083Y138467D01*
X282140Y138145D01*
X281213Y137775D01*
X280307Y137358D01*
X279423Y136897D01*
X278564Y136391D01*
X277731Y135842D01*
X276927Y135251D01*
X276154Y134621D01*
X275414Y133953D01*
X274709Y133247D01*
X274040Y132507D01*
X273410Y131734D01*
X272820Y130930D01*
X272271Y130098D01*
X271765Y129238D01*
X271303Y128354D01*
X270887Y127448D01*
X270517Y126522D01*
X270194Y125578D01*
X269920Y124619D01*
X269694Y123648D01*
X269518Y122666D01*
X269392Y121677D01*
X269317Y120682D01*
X269291Y119685D01*
X269317Y118688D01*
X269392Y117693D01*
X269518Y116704D01*
X269694Y115722D01*
X269920Y114751D01*
X270194Y113792D01*
X270517Y112848D01*
X270887Y111922D01*
X271303Y111016D01*
X271765Y110132D01*
X272271Y109272D01*
X272820Y108440D01*
X273410Y107636D01*
X274040Y106863D01*
X274709Y106123D01*
X275414Y105417D01*
X276154Y104749D01*
X276927Y104119D01*
X277731Y103528D01*
X278564Y102979D01*
X279423Y102473D01*
X280307Y102012D01*
X281213Y101595D01*
X282140Y101225D01*
X283084Y100903D01*
X284042Y100628D01*
X285014Y100403D01*
X285996Y100227D01*
X286985Y100101D01*
X287979Y100025D01*
X288976Y100000D01*
X289973Y100025D01*
X290968Y100101D01*
X291957Y100227D01*
X292939Y100403D01*
X293911Y100628D01*
X294869Y100903D01*
X295813Y101225D01*
X296739Y101595D01*
X297646Y102012D01*
X298530Y102473D01*
X299389Y102980D01*
X300222Y103528D01*
X301026Y104119D01*
X301799Y104749D01*
X302539Y105418D01*
X303244Y106123D01*
X303913Y106863D01*
X304543Y107636D01*
X305133Y108440D01*
X305682Y109272D01*
X306188Y110132D01*
X306650Y111016D01*
X307066Y111922D01*
X307436Y112848D01*
X307759Y113792D01*
X308033Y114751D01*
X308259Y115723D01*
X308434Y116704D01*
X308560Y117694D01*
X308636Y118688D01*
X308661Y119685D01*
X-591Y74606D02*
Y87598D01*
X17126D01*
X-591Y56102D02*
X17126D01*
X-591D02*
Y69095D01*
X321489Y56102D02*
Y69095D01*
X303773Y56102D02*
X321489D01*
X303773Y87598D02*
X321489D01*
Y74606D02*
Y87598D01*
X251378Y65945D02*
X288583D01*
D13*
X20613Y124335D02*
Y129527D01*
Y116142D02*
Y121335D01*
X27812Y116142D02*
Y121335D01*
Y124335D02*
Y129527D01*
X20612D02*
X27812D01*
X20612Y116142D02*
X27812D01*
X67168Y124299D02*
Y129492D01*
Y116106D02*
Y121299D01*
X74367Y116106D02*
Y121299D01*
Y124299D02*
Y129492D01*
X67167D02*
X74367D01*
X67167Y116106D02*
X74367D01*
X58015Y124335D02*
Y129527D01*
Y116142D02*
Y121335D01*
X65214Y116142D02*
Y121335D01*
Y124335D02*
Y129527D01*
X58014D02*
X65214D01*
X58014Y116142D02*
X65214D01*
X94685Y70669D02*
Y80905D01*
X89567D02*
X94685D01*
X89567Y70669D02*
Y80905D01*
Y70669D02*
X94685D01*
X115354Y70669D02*
Y80905D01*
X110236D02*
X115354D01*
X110236Y70669D02*
Y80905D01*
Y70669D02*
X115354D01*
X27952Y69291D02*
Y74409D01*
X17716Y69291D02*
Y74409D01*
X21335D01*
X17716Y69291D02*
X21335D01*
X24335Y74409D02*
X27952D01*
X24335Y69291D02*
X27952D01*
X95765Y97638D02*
Y102831D01*
Y105831D02*
Y111024D01*
X88566Y105831D02*
Y111024D01*
Y97638D02*
Y102831D01*
Y97638D02*
X95766D01*
X88566Y111024D02*
X95766D01*
X234195Y144882D02*
X241395D01*
X234195Y131496D02*
X241395D01*
X234195D02*
Y136689D01*
Y139689D02*
Y144882D01*
X241395Y139689D02*
Y144882D01*
Y131496D02*
Y136689D01*
X227195Y144882D02*
X234395D01*
X227195Y131496D02*
X234395D01*
X227195D02*
Y136689D01*
Y139689D02*
Y144882D01*
X234395Y139689D02*
Y144882D01*
Y131496D02*
Y136689D01*
D14*
X24213Y123335D02*
Y123835D01*
Y121835D02*
Y122335D01*
X22713D02*
X25713D01*
X22713Y123335D02*
X25713D01*
X70768Y123299D02*
Y123799D01*
Y121799D02*
Y122299D01*
X69268D02*
X72268D01*
X69268Y123299D02*
X72268D01*
X61614Y123335D02*
Y123835D01*
Y121835D02*
Y122335D01*
X60114D02*
X63114D01*
X60114Y123335D02*
X63114D01*
X22835Y70950D02*
Y72750D01*
X22535Y71850D02*
X22835D01*
X23135D01*
X92165Y103331D02*
Y103831D01*
Y104831D02*
Y105331D01*
X90665Y104831D02*
X93665D01*
X90665Y103831D02*
X93665D01*
X236295Y137689D02*
X239295D01*
X236295Y138689D02*
X239295D01*
X237795D02*
Y139189D01*
Y137189D02*
Y137689D01*
X229295D02*
X232295D01*
X229295Y138689D02*
X232295D01*
X230795D02*
Y139189D01*
Y137189D02*
Y137689D01*
X21940Y142157D02*
Y139491D01*
X23273Y138158D01*
X24606Y139491D01*
Y142157D01*
X25939Y138158D02*
X27272D01*
X26606D01*
Y142157D01*
X25939Y141490D01*
X19911Y135388D02*
X19245Y136055D01*
X17912D01*
X17246Y135388D01*
Y132722D01*
X17912Y132056D01*
X19245D01*
X19911Y132722D01*
X21244Y132056D02*
X22577D01*
X21911D01*
Y136055D01*
X21244Y135388D01*
X24577Y132722D02*
X25243Y132056D01*
X26576D01*
X27242Y132722D01*
Y135388D01*
X26576Y136055D01*
X25243D01*
X24577Y135388D01*
Y134722D01*
X25243Y134055D01*
X27242D01*
X81792Y139204D02*
Y136538D01*
X83125Y135205D01*
X84457Y136538D01*
Y139204D01*
X85790Y135205D02*
Y139204D01*
X87790D01*
X88456Y138538D01*
Y137205D01*
X87790Y136538D01*
X85790D01*
X87123D02*
X88456Y135205D01*
X89789D02*
X91122D01*
X90455D01*
Y139204D01*
X89789Y138538D01*
X97062Y77135D02*
Y81133D01*
X99061D01*
X99727Y80467D01*
Y79134D01*
X99061Y78467D01*
X97062D01*
X98394D02*
X99727Y77135D01*
X103726D02*
X101060D01*
X103726Y79800D01*
Y80467D01*
X103059Y81133D01*
X101727D01*
X101060Y80467D01*
X116035Y83237D02*
Y87236D01*
X118034D01*
X118701Y86569D01*
Y85236D01*
X118034Y84570D01*
X116035D01*
X117368D02*
X118701Y83237D01*
X120034D02*
X121367D01*
X120700D01*
Y87236D01*
X120034Y86569D01*
X82011Y109798D02*
X81344Y110464D01*
X80011D01*
X79345Y109798D01*
Y107132D01*
X80011Y106465D01*
X81344D01*
X82011Y107132D01*
X86009Y110464D02*
X83344D01*
Y108465D01*
X84676Y109131D01*
X85343D01*
X86009Y108465D01*
Y107132D01*
X85343Y106465D01*
X84010D01*
X83344Y107132D01*
X247759Y142278D02*
X247092Y142944D01*
X245759D01*
X245093Y142278D01*
Y139612D01*
X245759Y138945D01*
X247092D01*
X247759Y139612D01*
X251091Y138945D02*
Y142944D01*
X249092Y140945D01*
X251758D01*
X219806Y135191D02*
X219140Y135858D01*
X217807D01*
X217140Y135191D01*
Y132525D01*
X217807Y131859D01*
X219140D01*
X219806Y132525D01*
X221139Y135191D02*
X221805Y135858D01*
X223138D01*
X223805Y135191D01*
Y134525D01*
X223138Y133858D01*
X222472D01*
X223138D01*
X223805Y133192D01*
Y132525D01*
X223138Y131859D01*
X221805D01*
X221139Y132525D01*
X60822Y135187D02*
X60155Y135854D01*
X58822D01*
X58156Y135187D01*
Y132521D01*
X58822Y131855D01*
X60155D01*
X60822Y132521D01*
X64820Y131855D02*
X62155D01*
X64820Y134521D01*
Y135187D01*
X64154Y135854D01*
X62821D01*
X62155Y135187D01*
X70315Y135152D02*
X69648Y135818D01*
X68316D01*
X67649Y135152D01*
Y132486D01*
X68316Y131819D01*
X69648D01*
X70315Y132486D01*
X71648Y131819D02*
X72981D01*
X72314D01*
Y135818D01*
X71648Y135152D01*
D15*
X79685Y113425D02*
X93465D01*
Y116969D01*
Y128779D02*
Y132323D01*
X79685D02*
X93465D01*
D16*
X268504Y99213D02*
X309449D01*
X302413Y140120D02*
X309449Y133085D01*
X268504Y99213D02*
Y133085D01*
X275576Y140157D01*
X309449Y99213D02*
Y133085D01*
X275576Y140157D02*
X302376D01*
D17*
X166136Y103072D02*
X166147Y104001D01*
X165360Y103543D02*
X166934D01*
X126766Y103072D02*
X126777Y104001D01*
X125989Y103543D02*
X127564D01*
X126766Y39687D02*
X126777Y40615D01*
X125989Y40157D02*
X127564D01*
X166136Y39687D02*
X166147Y40615D01*
X165360Y40157D02*
X166934D01*
X196950Y106693D02*
X199903D01*
X196950Y105709D02*
X199903D01*
X198425Y106781D02*
Y107874D01*
Y104724D02*
Y105620D01*
X189076Y106693D02*
X192029D01*
X189076Y105709D02*
X192029D01*
X190551Y106781D02*
Y107874D01*
Y104724D02*
Y105620D01*
X181202Y106693D02*
X184155D01*
X181202Y105709D02*
X184155D01*
X182677Y106781D02*
Y107874D01*
Y104724D02*
Y105620D01*
X196950Y37992D02*
X199903D01*
X196950Y37008D02*
X199903D01*
X198425Y38081D02*
Y39173D01*
Y36024D02*
Y36919D01*
X189076Y37992D02*
X192029D01*
X189076Y37008D02*
X192029D01*
X190551Y38081D02*
Y39173D01*
Y36024D02*
Y36919D01*
X181202Y37992D02*
X184155D01*
X181202Y37008D02*
X184155D01*
X182677Y38081D02*
Y39173D01*
Y36024D02*
Y36919D01*
M02*
