G04*
G04 #@! TF.GenerationSoftware,Altium Limited,Altium Designer,22.0.2 (36)*
G04*
G04 Layer_Color=128*
%FSLAX25Y25*%
%MOIN*%
G70*
G04*
G04 #@! TF.SameCoordinates,04F3E7EA-1EC6-48BA-AAB6-D1FA50B40766*
G04*
G04*
G04 #@! TF.FilePolarity,Positive*
G04*
G01*
G75*
%ADD89C,0.00200*%
D89*
X152165Y12795D02*
X164764D01*
X158465Y6496D02*
Y19094D01*
X176181Y12795D02*
X188779D01*
X182480Y6496D02*
Y19094D01*
X176181Y130905D02*
X188779D01*
X182480Y124606D02*
Y137205D01*
X152165Y130905D02*
X164764D01*
X158465Y124606D02*
Y137205D01*
X318386Y143543D02*
X319961D01*
X319173Y142756D02*
Y144331D01*
X318386Y133543D02*
X319961D01*
X319173Y132756D02*
Y134331D01*
X318386Y123543D02*
X319961D01*
X319173Y122756D02*
Y124331D01*
X318386Y113543D02*
X319961D01*
X319173Y112756D02*
Y114331D01*
X318386Y103543D02*
X319961D01*
X319173Y102756D02*
Y104331D01*
X318386Y93543D02*
X319961D01*
X319173Y92756D02*
Y94331D01*
X318386Y53543D02*
X319961D01*
X319173Y52756D02*
Y54331D01*
X318386Y43543D02*
X319961D01*
X319173Y42756D02*
Y44331D01*
X318386Y33543D02*
X319961D01*
X319173Y32756D02*
Y34331D01*
X318386Y23543D02*
X319961D01*
X319173Y22756D02*
Y24331D01*
X318386Y13543D02*
X319961D01*
X319173Y12756D02*
Y14331D01*
X318386Y3543D02*
X319961D01*
X319173Y2756D02*
Y4331D01*
X315886Y148543D02*
X317461D01*
X316673Y147756D02*
Y149331D01*
X313386Y143543D02*
X314961D01*
X314173Y142756D02*
Y144331D01*
X315886Y138543D02*
X317461D01*
X316673Y137756D02*
Y139331D01*
X313386Y133543D02*
X314961D01*
X314173Y132756D02*
Y134331D01*
X315886Y128543D02*
X317461D01*
X316673Y127756D02*
Y129331D01*
X313386Y123543D02*
X314961D01*
X314173Y122756D02*
Y124331D01*
X315886Y118543D02*
X317461D01*
X316673Y117756D02*
Y119331D01*
X313386Y113543D02*
X314961D01*
X314173Y112756D02*
Y114331D01*
X315886Y108543D02*
X317461D01*
X316673Y107756D02*
Y109331D01*
X313386Y103543D02*
X314961D01*
X314173Y102756D02*
Y104331D01*
X315886Y98543D02*
X317461D01*
X316673Y97756D02*
Y99331D01*
X313386Y93543D02*
X314961D01*
X314173Y92756D02*
Y94331D01*
X315886Y88543D02*
X317461D01*
X316673Y87756D02*
Y89331D01*
X313386Y53543D02*
X314961D01*
X314173Y52756D02*
Y54331D01*
X315886Y48543D02*
X317461D01*
X316673Y47756D02*
Y49331D01*
X313386Y43543D02*
X314961D01*
X314173Y42756D02*
Y44331D01*
X315886Y38543D02*
X317461D01*
X316673Y37756D02*
Y39331D01*
X313386Y33543D02*
X314961D01*
X314173Y32756D02*
Y34331D01*
X315886Y28543D02*
X317461D01*
X316673Y27756D02*
Y29331D01*
X313386Y23543D02*
X314961D01*
X314173Y22756D02*
Y24331D01*
X315886Y18543D02*
X317461D01*
X316673Y17756D02*
Y19331D01*
X313386Y13543D02*
X314961D01*
X314173Y12756D02*
Y14331D01*
X315886Y8543D02*
X317461D01*
X316673Y7756D02*
Y9331D01*
X313386Y3543D02*
X314961D01*
X314173Y2756D02*
Y4331D01*
X310886Y148543D02*
X312461D01*
X311673Y147756D02*
Y149331D01*
X308386Y143543D02*
X309961D01*
X309173Y142756D02*
Y144331D01*
X310886Y138543D02*
X312461D01*
X311673Y137756D02*
Y139331D01*
X308386Y133543D02*
X309961D01*
X309173Y132756D02*
Y134331D01*
X310886Y128543D02*
X312461D01*
X311673Y127756D02*
Y129331D01*
X308386Y123543D02*
X309961D01*
X309173Y122756D02*
Y124331D01*
X310886Y118543D02*
X312461D01*
X311673Y117756D02*
Y119331D01*
X308386Y113543D02*
X309961D01*
X309173Y112756D02*
Y114331D01*
X310886Y108543D02*
X312461D01*
X311673Y107756D02*
Y109331D01*
X308386Y103543D02*
X309961D01*
X309173Y102756D02*
Y104331D01*
X310886Y98543D02*
X312461D01*
X311673Y97756D02*
Y99331D01*
X308386Y93543D02*
X309961D01*
X309173Y92756D02*
Y94331D01*
X310886Y88543D02*
X312461D01*
X311673Y87756D02*
Y89331D01*
X308386Y53543D02*
X309961D01*
X309173Y52756D02*
Y54331D01*
X310886Y48543D02*
X312461D01*
X311673Y47756D02*
Y49331D01*
X308386Y43543D02*
X309961D01*
X309173Y42756D02*
Y44331D01*
X310886Y38543D02*
X312461D01*
X311673Y37756D02*
Y39331D01*
X308386Y33543D02*
X309961D01*
X309173Y32756D02*
Y34331D01*
X310886Y28543D02*
X312461D01*
X311673Y27756D02*
Y29331D01*
X308386Y23543D02*
X309961D01*
X309173Y22756D02*
Y24331D01*
X310886Y18543D02*
X312461D01*
X311673Y17756D02*
Y19331D01*
X308386Y13543D02*
X309961D01*
X309173Y12756D02*
Y14331D01*
X310886Y8543D02*
X312461D01*
X311673Y7756D02*
Y9331D01*
X308386Y3543D02*
X309961D01*
X309173Y2756D02*
Y4331D01*
X305886Y148543D02*
X307461D01*
X306673Y147756D02*
Y149331D01*
X305886Y138543D02*
X307461D01*
X306673Y137756D02*
Y139331D01*
X305886Y128543D02*
X307461D01*
X306673Y127756D02*
Y129331D01*
X305886Y118543D02*
X307461D01*
X306673Y117756D02*
Y119331D01*
X305886Y108543D02*
X307461D01*
X306673Y107756D02*
Y109331D01*
X303386Y103543D02*
X304961D01*
X304173Y102756D02*
Y104331D01*
X305886Y98543D02*
X307461D01*
X306673Y97756D02*
Y99331D01*
X303386Y93543D02*
X304961D01*
X304173Y92756D02*
Y94331D01*
X305886Y88543D02*
X307461D01*
X306673Y87756D02*
Y89331D01*
X303386Y53543D02*
X304961D01*
X304173Y52756D02*
Y54331D01*
X305886Y48543D02*
X307461D01*
X306673Y47756D02*
Y49331D01*
X303386Y43543D02*
X304961D01*
X304173Y42756D02*
Y44331D01*
X305886Y38543D02*
X307461D01*
X306673Y37756D02*
Y39331D01*
X303386Y33543D02*
X304961D01*
X304173Y32756D02*
Y34331D01*
X305886Y28543D02*
X307461D01*
X306673Y27756D02*
Y29331D01*
X303386Y23543D02*
X304961D01*
X304173Y22756D02*
Y24331D01*
X305886Y18543D02*
X307461D01*
X306673Y17756D02*
Y19331D01*
X303386Y13543D02*
X304961D01*
X304173Y12756D02*
Y14331D01*
X305886Y8543D02*
X307461D01*
X306673Y7756D02*
Y9331D01*
X303386Y3543D02*
X304961D01*
X304173Y2756D02*
Y4331D01*
X298386Y103543D02*
X299961D01*
X299173Y102756D02*
Y104331D01*
X300886Y98543D02*
X302461D01*
X301673Y97756D02*
Y99331D01*
X298386Y93543D02*
X299961D01*
X299173Y92756D02*
Y94331D01*
X300886Y88543D02*
X302461D01*
X301673Y87756D02*
Y89331D01*
X298386Y53543D02*
X299961D01*
X299173Y52756D02*
Y54331D01*
X300886Y48543D02*
X302461D01*
X301673Y47756D02*
Y49331D01*
X298386Y43543D02*
X299961D01*
X299173Y42756D02*
Y44331D01*
X300886Y38543D02*
X302461D01*
X301673Y37756D02*
Y39331D01*
X298386Y33543D02*
X299961D01*
X299173Y32756D02*
Y34331D01*
X300886Y28543D02*
X302461D01*
X301673Y27756D02*
Y29331D01*
X298386Y23543D02*
X299961D01*
X299173Y22756D02*
Y24331D01*
X300886Y18543D02*
X302461D01*
X301673Y17756D02*
Y19331D01*
X298386Y13543D02*
X299961D01*
X299173Y12756D02*
Y14331D01*
X300886Y8543D02*
X302461D01*
X301673Y7756D02*
Y9331D01*
X298386Y3543D02*
X299961D01*
X299173Y2756D02*
Y4331D01*
X293386Y103543D02*
X294961D01*
X294173Y102756D02*
Y104331D01*
X295886Y98543D02*
X297461D01*
X296673Y97756D02*
Y99331D01*
X293386Y93543D02*
X294961D01*
X294173Y92756D02*
Y94331D01*
X295886Y88543D02*
X297461D01*
X296673Y87756D02*
Y89331D01*
X293386Y53543D02*
X294961D01*
X294173Y52756D02*
Y54331D01*
X295886Y48543D02*
X297461D01*
X296673Y47756D02*
Y49331D01*
X293386Y43543D02*
X294961D01*
X294173Y42756D02*
Y44331D01*
X295886Y38543D02*
X297461D01*
X296673Y37756D02*
Y39331D01*
X293386Y33543D02*
X294961D01*
X294173Y32756D02*
Y34331D01*
X295886Y28543D02*
X297461D01*
X296673Y27756D02*
Y29331D01*
X293386Y23543D02*
X294961D01*
X294173Y22756D02*
Y24331D01*
X295886Y18543D02*
X297461D01*
X296673Y17756D02*
Y19331D01*
X293386Y13543D02*
X294961D01*
X294173Y12756D02*
Y14331D01*
X295886Y8543D02*
X297461D01*
X296673Y7756D02*
Y9331D01*
X293386Y3543D02*
X294961D01*
X294173Y2756D02*
Y4331D01*
X290886Y88543D02*
X292461D01*
X291673Y87756D02*
Y89331D01*
X290886Y58543D02*
X292461D01*
X291673Y57756D02*
Y59331D01*
X288386Y53543D02*
X289961D01*
X289173Y52756D02*
Y54331D01*
X290886Y48543D02*
X292461D01*
X291673Y47756D02*
Y49331D01*
X288386Y43543D02*
X289961D01*
X289173Y42756D02*
Y44331D01*
X290886Y38543D02*
X292461D01*
X291673Y37756D02*
Y39331D01*
X288386Y33543D02*
X289961D01*
X289173Y32756D02*
Y34331D01*
X290886Y28543D02*
X292461D01*
X291673Y27756D02*
Y29331D01*
X288386Y23543D02*
X289961D01*
X289173Y22756D02*
Y24331D01*
X290886Y18543D02*
X292461D01*
X291673Y17756D02*
Y19331D01*
X288386Y13543D02*
X289961D01*
X289173Y12756D02*
Y14331D01*
X290886Y8543D02*
X292461D01*
X291673Y7756D02*
Y9331D01*
X288386Y3543D02*
X289961D01*
X289173Y2756D02*
Y4331D01*
X283386Y103543D02*
X284961D01*
X284173Y102756D02*
Y104331D01*
X283386Y93543D02*
X284961D01*
X284173Y92756D02*
Y94331D01*
X285886Y88543D02*
X287461D01*
X286673Y87756D02*
Y89331D01*
X285886Y58543D02*
X287461D01*
X286673Y57756D02*
Y59331D01*
X283386Y53543D02*
X284961D01*
X284173Y52756D02*
Y54331D01*
X285886Y48543D02*
X287461D01*
X286673Y47756D02*
Y49331D01*
X283386Y43543D02*
X284961D01*
X284173Y42756D02*
Y44331D01*
X285886Y38543D02*
X287461D01*
X286673Y37756D02*
Y39331D01*
X283386Y33543D02*
X284961D01*
X284173Y32756D02*
Y34331D01*
X285886Y28543D02*
X287461D01*
X286673Y27756D02*
Y29331D01*
X283386Y23543D02*
X284961D01*
X284173Y22756D02*
Y24331D01*
X285886Y18543D02*
X287461D01*
X286673Y17756D02*
Y19331D01*
X283386Y13543D02*
X284961D01*
X284173Y12756D02*
Y14331D01*
X285886Y8543D02*
X287461D01*
X286673Y7756D02*
Y9331D01*
X283386Y3543D02*
X284961D01*
X284173Y2756D02*
Y4331D01*
X278386Y103543D02*
X279961D01*
X279173Y102756D02*
Y104331D01*
X280886Y98543D02*
X282461D01*
X281673Y97756D02*
Y99331D01*
X278386Y93543D02*
X279961D01*
X279173Y92756D02*
Y94331D01*
X280886Y88543D02*
X282461D01*
X281673Y87756D02*
Y89331D01*
X280886Y58543D02*
X282461D01*
X281673Y57756D02*
Y59331D01*
X278386Y53543D02*
X279961D01*
X279173Y52756D02*
Y54331D01*
X280886Y48543D02*
X282461D01*
X281673Y47756D02*
Y49331D01*
X278386Y43543D02*
X279961D01*
X279173Y42756D02*
Y44331D01*
X280886Y38543D02*
X282461D01*
X281673Y37756D02*
Y39331D01*
X278386Y33543D02*
X279961D01*
X279173Y32756D02*
Y34331D01*
X280886Y28543D02*
X282461D01*
X281673Y27756D02*
Y29331D01*
X278386Y23543D02*
X279961D01*
X279173Y22756D02*
Y24331D01*
X280886Y18543D02*
X282461D01*
X281673Y17756D02*
Y19331D01*
X278386Y13543D02*
X279961D01*
X279173Y12756D02*
Y14331D01*
X280886Y8543D02*
X282461D01*
X281673Y7756D02*
Y9331D01*
X278386Y3543D02*
X279961D01*
X279173Y2756D02*
Y4331D01*
X273386Y103543D02*
X274961D01*
X274173Y102756D02*
Y104331D01*
X275886Y98543D02*
X277461D01*
X276673Y97756D02*
Y99331D01*
X273386Y93543D02*
X274961D01*
X274173Y92756D02*
Y94331D01*
X275886Y88543D02*
X277461D01*
X276673Y87756D02*
Y89331D01*
X275886Y58543D02*
X277461D01*
X276673Y57756D02*
Y59331D01*
X273386Y53543D02*
X274961D01*
X274173Y52756D02*
Y54331D01*
X275886Y48543D02*
X277461D01*
X276673Y47756D02*
Y49331D01*
X273386Y43543D02*
X274961D01*
X274173Y42756D02*
Y44331D01*
X275886Y38543D02*
X277461D01*
X276673Y37756D02*
Y39331D01*
X273386Y33543D02*
X274961D01*
X274173Y32756D02*
Y34331D01*
X275886Y28543D02*
X277461D01*
X276673Y27756D02*
Y29331D01*
X273386Y23543D02*
X274961D01*
X274173Y22756D02*
Y24331D01*
X275886Y18543D02*
X277461D01*
X276673Y17756D02*
Y19331D01*
X273386Y13543D02*
X274961D01*
X274173Y12756D02*
Y14331D01*
X275886Y8543D02*
X277461D01*
X276673Y7756D02*
Y9331D01*
X273386Y3543D02*
X274961D01*
X274173Y2756D02*
Y4331D01*
X268386Y103543D02*
X269961D01*
X269173Y102756D02*
Y104331D01*
X270886Y98543D02*
X272461D01*
X271673Y97756D02*
Y99331D01*
X268386Y93543D02*
X269961D01*
X269173Y92756D02*
Y94331D01*
X270886Y88543D02*
X272461D01*
X271673Y87756D02*
Y89331D01*
X270886Y58543D02*
X272461D01*
X271673Y57756D02*
Y59331D01*
X268386Y53543D02*
X269961D01*
X269173Y52756D02*
Y54331D01*
X270886Y48543D02*
X272461D01*
X271673Y47756D02*
Y49331D01*
X268386Y43543D02*
X269961D01*
X269173Y42756D02*
Y44331D01*
X270886Y38543D02*
X272461D01*
X271673Y37756D02*
Y39331D01*
X268386Y33543D02*
X269961D01*
X269173Y32756D02*
Y34331D01*
X270886Y28543D02*
X272461D01*
X271673Y27756D02*
Y29331D01*
X268386Y23543D02*
X269961D01*
X269173Y22756D02*
Y24331D01*
X270886Y18543D02*
X272461D01*
X271673Y17756D02*
Y19331D01*
X268386Y13543D02*
X269961D01*
X269173Y12756D02*
Y14331D01*
X270886Y8543D02*
X272461D01*
X271673Y7756D02*
Y9331D01*
X268386Y3543D02*
X269961D01*
X269173Y2756D02*
Y4331D01*
X263386Y103543D02*
X264961D01*
X264173Y102756D02*
Y104331D01*
X265886Y98543D02*
X267461D01*
X266673Y97756D02*
Y99331D01*
X263386Y93543D02*
X264961D01*
X264173Y92756D02*
Y94331D01*
X265886Y88543D02*
X267461D01*
X266673Y87756D02*
Y89331D01*
X265886Y58543D02*
X267461D01*
X266673Y57756D02*
Y59331D01*
X263386Y53543D02*
X264961D01*
X264173Y52756D02*
Y54331D01*
X265886Y48543D02*
X267461D01*
X266673Y47756D02*
Y49331D01*
X265886Y38543D02*
X267461D01*
X266673Y37756D02*
Y39331D01*
X263386Y33543D02*
X264961D01*
X264173Y32756D02*
Y34331D01*
X265886Y28543D02*
X267461D01*
X266673Y27756D02*
Y29331D01*
X263386Y23543D02*
X264961D01*
X264173Y22756D02*
Y24331D01*
X265886Y18543D02*
X267461D01*
X266673Y17756D02*
Y19331D01*
X263386Y13543D02*
X264961D01*
X264173Y12756D02*
Y14331D01*
X265886Y8543D02*
X267461D01*
X266673Y7756D02*
Y9331D01*
X263386Y3543D02*
X264961D01*
X264173Y2756D02*
Y4331D01*
X258386Y103543D02*
X259961D01*
X259173Y102756D02*
Y104331D01*
X260886Y88543D02*
X262461D01*
X261673Y87756D02*
Y89331D01*
X260886Y58543D02*
X262461D01*
X261673Y57756D02*
Y59331D01*
X260886Y38543D02*
X262461D01*
X261673Y37756D02*
Y39331D01*
X258386Y33543D02*
X259961D01*
X259173Y32756D02*
Y34331D01*
X260886Y28543D02*
X262461D01*
X261673Y27756D02*
Y29331D01*
X258386Y23543D02*
X259961D01*
X259173Y22756D02*
Y24331D01*
X260886Y18543D02*
X262461D01*
X261673Y17756D02*
Y19331D01*
X258386Y13543D02*
X259961D01*
X259173Y12756D02*
Y14331D01*
X260886Y8543D02*
X262461D01*
X261673Y7756D02*
Y9331D01*
X258386Y3543D02*
X259961D01*
X259173Y2756D02*
Y4331D01*
X255886Y88543D02*
X257461D01*
X256673Y87756D02*
Y89331D01*
X255886Y58543D02*
X257461D01*
X256673Y57756D02*
Y59331D01*
X253386Y33543D02*
X254961D01*
X254173Y32756D02*
Y34331D01*
X255886Y28543D02*
X257461D01*
X256673Y27756D02*
Y29331D01*
X253386Y23543D02*
X254961D01*
X254173Y22756D02*
Y24331D01*
X255886Y18543D02*
X257461D01*
X256673Y17756D02*
Y19331D01*
X253386Y13543D02*
X254961D01*
X254173Y12756D02*
Y14331D01*
X255886Y8543D02*
X257461D01*
X256673Y7756D02*
Y9331D01*
X253386Y3543D02*
X254961D01*
X254173Y2756D02*
Y4331D01*
X248386Y103543D02*
X249961D01*
X249173Y102756D02*
Y104331D01*
X250886Y88543D02*
X252461D01*
X251673Y87756D02*
Y89331D01*
X250886Y58543D02*
X252461D01*
X251673Y57756D02*
Y59331D01*
X250886Y38543D02*
X252461D01*
X251673Y37756D02*
Y39331D01*
X248386Y33543D02*
X249961D01*
X249173Y32756D02*
Y34331D01*
X250886Y28543D02*
X252461D01*
X251673Y27756D02*
Y29331D01*
X248386Y23543D02*
X249961D01*
X249173Y22756D02*
Y24331D01*
X250886Y18543D02*
X252461D01*
X251673Y17756D02*
Y19331D01*
X248386Y13543D02*
X249961D01*
X249173Y12756D02*
Y14331D01*
X250886Y8543D02*
X252461D01*
X251673Y7756D02*
Y9331D01*
X248386Y3543D02*
X249961D01*
X249173Y2756D02*
Y4331D01*
X245886Y148543D02*
X247461D01*
X246673Y147756D02*
Y149331D01*
X245886Y98543D02*
X247461D01*
X246673Y97756D02*
Y99331D01*
X245886Y88543D02*
X247461D01*
X246673Y87756D02*
Y89331D01*
X245886Y58543D02*
X247461D01*
X246673Y57756D02*
Y59331D01*
X245886Y38543D02*
X247461D01*
X246673Y37756D02*
Y39331D01*
X243386Y33543D02*
X244961D01*
X244173Y32756D02*
Y34331D01*
X245886Y28543D02*
X247461D01*
X246673Y27756D02*
Y29331D01*
X243386Y23543D02*
X244961D01*
X244173Y22756D02*
Y24331D01*
X245886Y18543D02*
X247461D01*
X246673Y17756D02*
Y19331D01*
X243386Y13543D02*
X244961D01*
X244173Y12756D02*
Y14331D01*
X245886Y8543D02*
X247461D01*
X246673Y7756D02*
Y9331D01*
X243386Y3543D02*
X244961D01*
X244173Y2756D02*
Y4331D01*
X240886Y148543D02*
X242461D01*
X241673Y147756D02*
Y149331D01*
X238386Y33543D02*
X239961D01*
X239173Y32756D02*
Y34331D01*
X240886Y28543D02*
X242461D01*
X241673Y27756D02*
Y29331D01*
X238386Y23543D02*
X239961D01*
X239173Y22756D02*
Y24331D01*
X240886Y18543D02*
X242461D01*
X241673Y17756D02*
Y19331D01*
X238386Y13543D02*
X239961D01*
X239173Y12756D02*
Y14331D01*
X240886Y8543D02*
X242461D01*
X241673Y7756D02*
Y9331D01*
X238386Y3543D02*
X239961D01*
X239173Y2756D02*
Y4331D01*
X235886Y148543D02*
X237461D01*
X236673Y147756D02*
Y149331D01*
X233386Y33543D02*
X234961D01*
X234173Y32756D02*
Y34331D01*
X235886Y28543D02*
X237461D01*
X236673Y27756D02*
Y29331D01*
X233386Y23543D02*
X234961D01*
X234173Y22756D02*
Y24331D01*
X235886Y18543D02*
X237461D01*
X236673Y17756D02*
Y19331D01*
X233386Y13543D02*
X234961D01*
X234173Y12756D02*
Y14331D01*
X235886Y8543D02*
X237461D01*
X236673Y7756D02*
Y9331D01*
X233386Y3543D02*
X234961D01*
X234173Y2756D02*
Y4331D01*
X230886Y148543D02*
X232461D01*
X231673Y147756D02*
Y149331D01*
X228386Y33543D02*
X229961D01*
X229173Y32756D02*
Y34331D01*
X230886Y28543D02*
X232461D01*
X231673Y27756D02*
Y29331D01*
X228386Y23543D02*
X229961D01*
X229173Y22756D02*
Y24331D01*
X230886Y18543D02*
X232461D01*
X231673Y17756D02*
Y19331D01*
X228386Y13543D02*
X229961D01*
X229173Y12756D02*
Y14331D01*
X230886Y8543D02*
X232461D01*
X231673Y7756D02*
Y9331D01*
X228386Y3543D02*
X229961D01*
X229173Y2756D02*
Y4331D01*
X225886Y148543D02*
X227461D01*
X226673Y147756D02*
Y149331D01*
X223386Y33543D02*
X224961D01*
X224173Y32756D02*
Y34331D01*
X225886Y28543D02*
X227461D01*
X226673Y27756D02*
Y29331D01*
X223386Y23543D02*
X224961D01*
X224173Y22756D02*
Y24331D01*
X225886Y18543D02*
X227461D01*
X226673Y17756D02*
Y19331D01*
X223386Y13543D02*
X224961D01*
X224173Y12756D02*
Y14331D01*
X225886Y8543D02*
X227461D01*
X226673Y7756D02*
Y9331D01*
X223386Y3543D02*
X224961D01*
X224173Y2756D02*
Y4331D01*
X220886Y148543D02*
X222461D01*
X221673Y147756D02*
Y149331D01*
X218386Y33543D02*
X219961D01*
X219173Y32756D02*
Y34331D01*
X220886Y28543D02*
X222461D01*
X221673Y27756D02*
Y29331D01*
X218386Y23543D02*
X219961D01*
X219173Y22756D02*
Y24331D01*
X220886Y18543D02*
X222461D01*
X221673Y17756D02*
Y19331D01*
X218386Y13543D02*
X219961D01*
X219173Y12756D02*
Y14331D01*
X220886Y8543D02*
X222461D01*
X221673Y7756D02*
Y9331D01*
X218386Y3543D02*
X219961D01*
X219173Y2756D02*
Y4331D01*
X215886Y148543D02*
X217461D01*
X216673Y147756D02*
Y149331D01*
X213386Y33543D02*
X214961D01*
X214173Y32756D02*
Y34331D01*
X215886Y28543D02*
X217461D01*
X216673Y27756D02*
Y29331D01*
X213386Y23543D02*
X214961D01*
X214173Y22756D02*
Y24331D01*
X215886Y18543D02*
X217461D01*
X216673Y17756D02*
Y19331D01*
X213386Y13543D02*
X214961D01*
X214173Y12756D02*
Y14331D01*
X215886Y8543D02*
X217461D01*
X216673Y7756D02*
Y9331D01*
X213386Y3543D02*
X214961D01*
X214173Y2756D02*
Y4331D01*
X210886Y148543D02*
X212461D01*
X211673Y147756D02*
Y149331D01*
X208386Y143543D02*
X209961D01*
X209173Y142756D02*
Y144331D01*
X210886Y138543D02*
X212461D01*
X211673Y137756D02*
Y139331D01*
X208386Y133543D02*
X209961D01*
X209173Y132756D02*
Y134331D01*
X210886Y128543D02*
X212461D01*
X211673Y127756D02*
Y129331D01*
X208386Y123543D02*
X209961D01*
X209173Y122756D02*
Y124331D01*
X210886Y118543D02*
X212461D01*
X211673Y117756D02*
Y119331D01*
X208386Y113543D02*
X209961D01*
X209173Y112756D02*
Y114331D01*
X208386Y33543D02*
X209961D01*
X209173Y32756D02*
Y34331D01*
X210886Y28543D02*
X212461D01*
X211673Y27756D02*
Y29331D01*
X208386Y23543D02*
X209961D01*
X209173Y22756D02*
Y24331D01*
X210886Y18543D02*
X212461D01*
X211673Y17756D02*
Y19331D01*
X208386Y13543D02*
X209961D01*
X209173Y12756D02*
Y14331D01*
X210886Y8543D02*
X212461D01*
X211673Y7756D02*
Y9331D01*
X208386Y3543D02*
X209961D01*
X209173Y2756D02*
Y4331D01*
X205886Y148543D02*
X207461D01*
X206673Y147756D02*
Y149331D01*
X203386Y143543D02*
X204961D01*
X204173Y142756D02*
Y144331D01*
X205886Y138543D02*
X207461D01*
X206673Y137756D02*
Y139331D01*
X203386Y133543D02*
X204961D01*
X204173Y132756D02*
Y134331D01*
X205886Y128543D02*
X207461D01*
X206673Y127756D02*
Y129331D01*
X203386Y123543D02*
X204961D01*
X204173Y122756D02*
Y124331D01*
X205886Y118543D02*
X207461D01*
X206673Y117756D02*
Y119331D01*
X203386Y113543D02*
X204961D01*
X204173Y112756D02*
Y114331D01*
X203386Y33543D02*
X204961D01*
X204173Y32756D02*
Y34331D01*
X205886Y28543D02*
X207461D01*
X206673Y27756D02*
Y29331D01*
X203386Y23543D02*
X204961D01*
X204173Y22756D02*
Y24331D01*
X205886Y18543D02*
X207461D01*
X206673Y17756D02*
Y19331D01*
X203386Y13543D02*
X204961D01*
X204173Y12756D02*
Y14331D01*
X205886Y8543D02*
X207461D01*
X206673Y7756D02*
Y9331D01*
X203386Y3543D02*
X204961D01*
X204173Y2756D02*
Y4331D01*
X200886Y148543D02*
X202461D01*
X201673Y147756D02*
Y149331D01*
X198386Y143543D02*
X199961D01*
X199173Y142756D02*
Y144331D01*
X200886Y138543D02*
X202461D01*
X201673Y137756D02*
Y139331D01*
X198386Y133543D02*
X199961D01*
X199173Y132756D02*
Y134331D01*
X200886Y128543D02*
X202461D01*
X201673Y127756D02*
Y129331D01*
X198386Y123543D02*
X199961D01*
X199173Y122756D02*
Y124331D01*
X200886Y118543D02*
X202461D01*
X201673Y117756D02*
Y119331D01*
X198386Y113543D02*
X199961D01*
X199173Y112756D02*
Y114331D01*
X198386Y33543D02*
X199961D01*
X199173Y32756D02*
Y34331D01*
X200886Y28543D02*
X202461D01*
X201673Y27756D02*
Y29331D01*
X198386Y23543D02*
X199961D01*
X199173Y22756D02*
Y24331D01*
X200886Y18543D02*
X202461D01*
X201673Y17756D02*
Y19331D01*
X198386Y13543D02*
X199961D01*
X199173Y12756D02*
Y14331D01*
X200886Y8543D02*
X202461D01*
X201673Y7756D02*
Y9331D01*
X198386Y3543D02*
X199961D01*
X199173Y2756D02*
Y4331D01*
X195886Y148543D02*
X197461D01*
X196673Y147756D02*
Y149331D01*
X193386Y143543D02*
X194961D01*
X194173Y142756D02*
Y144331D01*
X195886Y138543D02*
X197461D01*
X196673Y137756D02*
Y139331D01*
X193386Y133543D02*
X194961D01*
X194173Y132756D02*
Y134331D01*
X195886Y128543D02*
X197461D01*
X196673Y127756D02*
Y129331D01*
X193386Y123543D02*
X194961D01*
X194173Y122756D02*
Y124331D01*
X195886Y118543D02*
X197461D01*
X196673Y117756D02*
Y119331D01*
X193386Y113543D02*
X194961D01*
X194173Y112756D02*
Y114331D01*
X193386Y33543D02*
X194961D01*
X194173Y32756D02*
Y34331D01*
X195886Y28543D02*
X197461D01*
X196673Y27756D02*
Y29331D01*
X193386Y23543D02*
X194961D01*
X194173Y22756D02*
Y24331D01*
X195886Y18543D02*
X197461D01*
X196673Y17756D02*
Y19331D01*
X193386Y13543D02*
X194961D01*
X194173Y12756D02*
Y14331D01*
X195886Y8543D02*
X197461D01*
X196673Y7756D02*
Y9331D01*
X193386Y3543D02*
X194961D01*
X194173Y2756D02*
Y4331D01*
X190886Y148543D02*
X192461D01*
X191673Y147756D02*
Y149331D01*
X188386Y143543D02*
X189961D01*
X189173Y142756D02*
Y144331D01*
X190886Y138543D02*
X192461D01*
X191673Y137756D02*
Y139331D01*
X190886Y128543D02*
X192461D01*
X191673Y127756D02*
Y129331D01*
X188386Y123543D02*
X189961D01*
X189173Y122756D02*
Y124331D01*
X190886Y118543D02*
X192461D01*
X191673Y117756D02*
Y119331D01*
X188386Y113543D02*
X189961D01*
X189173Y112756D02*
Y114331D01*
X188386Y33543D02*
X189961D01*
X189173Y32756D02*
Y34331D01*
X190886Y28543D02*
X192461D01*
X191673Y27756D02*
Y29331D01*
X188386Y23543D02*
X189961D01*
X189173Y22756D02*
Y24331D01*
X190886Y18543D02*
X192461D01*
X191673Y17756D02*
Y19331D01*
X190886Y8543D02*
X192461D01*
X191673Y7756D02*
Y9331D01*
X188386Y3543D02*
X189961D01*
X189173Y2756D02*
Y4331D01*
X185886Y148543D02*
X187461D01*
X186673Y147756D02*
Y149331D01*
X183386Y143543D02*
X184961D01*
X184173Y142756D02*
Y144331D01*
X185886Y138543D02*
X187461D01*
X186673Y137756D02*
Y139331D01*
X185886Y118543D02*
X187461D01*
X186673Y117756D02*
Y119331D01*
X183386Y113543D02*
X184961D01*
X184173Y112756D02*
Y114331D01*
X183386Y33543D02*
X184961D01*
X184173Y32756D02*
Y34331D01*
X185886Y28543D02*
X187461D01*
X186673Y27756D02*
Y29331D01*
X183386Y23543D02*
X184961D01*
X184173Y22756D02*
Y24331D01*
X183386Y3543D02*
X184961D01*
X184173Y2756D02*
Y4331D01*
X180886Y148543D02*
X182461D01*
X181673Y147756D02*
Y149331D01*
X178386Y143543D02*
X179961D01*
X179173Y142756D02*
Y144331D01*
X178386Y123543D02*
X179961D01*
X179173Y122756D02*
Y124331D01*
X180886Y118543D02*
X182461D01*
X181673Y117756D02*
Y119331D01*
X178386Y113543D02*
X179961D01*
X179173Y112756D02*
Y114331D01*
X178386Y33543D02*
X179961D01*
X179173Y32756D02*
Y34331D01*
X180886Y28543D02*
X182461D01*
X181673Y27756D02*
Y29331D01*
X178386Y23543D02*
X179961D01*
X179173Y22756D02*
Y24331D01*
X178386Y3543D02*
X179961D01*
X179173Y2756D02*
Y4331D01*
X175886Y148543D02*
X177461D01*
X176673Y147756D02*
Y149331D01*
X173386Y143543D02*
X174961D01*
X174173Y142756D02*
Y144331D01*
X175886Y138543D02*
X177461D01*
X176673Y137756D02*
Y139331D01*
X173386Y133543D02*
X174961D01*
X174173Y132756D02*
Y134331D01*
X173386Y123543D02*
X174961D01*
X174173Y122756D02*
Y124331D01*
X175886Y118543D02*
X177461D01*
X176673Y117756D02*
Y119331D01*
X173386Y113543D02*
X174961D01*
X174173Y112756D02*
Y114331D01*
X173386Y33543D02*
X174961D01*
X174173Y32756D02*
Y34331D01*
X175886Y28543D02*
X177461D01*
X176673Y27756D02*
Y29331D01*
X173386Y23543D02*
X174961D01*
X174173Y22756D02*
Y24331D01*
X175886Y18543D02*
X177461D01*
X176673Y17756D02*
Y19331D01*
X173386Y13543D02*
X174961D01*
X174173Y12756D02*
Y14331D01*
X173386Y3543D02*
X174961D01*
X174173Y2756D02*
Y4331D01*
X165886Y148543D02*
X167461D01*
X166673Y147756D02*
Y149331D01*
X163386Y143543D02*
X164961D01*
X164173Y142756D02*
Y144331D01*
X165886Y138543D02*
X167461D01*
X166673Y137756D02*
Y139331D01*
X165886Y128543D02*
X167461D01*
X166673Y127756D02*
Y129331D01*
X163386Y123543D02*
X164961D01*
X164173Y122756D02*
Y124331D01*
X165886Y118543D02*
X167461D01*
X166673Y117756D02*
Y119331D01*
X163386Y113543D02*
X164961D01*
X164173Y112756D02*
Y114331D01*
X163386Y33543D02*
X164961D01*
X164173Y32756D02*
Y34331D01*
X165886Y28543D02*
X167461D01*
X166673Y27756D02*
Y29331D01*
X163386Y23543D02*
X164961D01*
X164173Y22756D02*
Y24331D01*
X165886Y18543D02*
X167461D01*
X166673Y17756D02*
Y19331D01*
X165886Y8543D02*
X167461D01*
X166673Y7756D02*
Y9331D01*
X163386Y3543D02*
X164961D01*
X164173Y2756D02*
Y4331D01*
X160886Y148543D02*
X162461D01*
X161673Y147756D02*
Y149331D01*
X158386Y143543D02*
X159961D01*
X159173Y142756D02*
Y144331D01*
X160886Y138543D02*
X162461D01*
X161673Y137756D02*
Y139331D01*
X160886Y118543D02*
X162461D01*
X161673Y117756D02*
Y119331D01*
X158386Y113543D02*
X159961D01*
X159173Y112756D02*
Y114331D01*
X158386Y33543D02*
X159961D01*
X159173Y32756D02*
Y34331D01*
X160886Y28543D02*
X162461D01*
X161673Y27756D02*
Y29331D01*
X158386Y23543D02*
X159961D01*
X159173Y22756D02*
Y24331D01*
X158386Y3543D02*
X159961D01*
X159173Y2756D02*
Y4331D01*
X155886Y148543D02*
X157461D01*
X156673Y147756D02*
Y149331D01*
X153386Y143543D02*
X154961D01*
X154173Y142756D02*
Y144331D01*
X153386Y123543D02*
X154961D01*
X154173Y122756D02*
Y124331D01*
X155886Y118543D02*
X157461D01*
X156673Y117756D02*
Y119331D01*
X153386Y113543D02*
X154961D01*
X154173Y112756D02*
Y114331D01*
X153386Y33543D02*
X154961D01*
X154173Y32756D02*
Y34331D01*
X155886Y28543D02*
X157461D01*
X156673Y27756D02*
Y29331D01*
X153386Y23543D02*
X154961D01*
X154173Y22756D02*
Y24331D01*
X153386Y3543D02*
X154961D01*
X154173Y2756D02*
Y4331D01*
X150886Y148543D02*
X152461D01*
X151673Y147756D02*
Y149331D01*
X148386Y143543D02*
X149961D01*
X149173Y142756D02*
Y144331D01*
X150886Y138543D02*
X152461D01*
X151673Y137756D02*
Y139331D01*
X148386Y133543D02*
X149961D01*
X149173Y132756D02*
Y134331D01*
X148386Y123543D02*
X149961D01*
X149173Y122756D02*
Y124331D01*
X150886Y118543D02*
X152461D01*
X151673Y117756D02*
Y119331D01*
X148386Y113543D02*
X149961D01*
X149173Y112756D02*
Y114331D01*
X148386Y33543D02*
X149961D01*
X149173Y32756D02*
Y34331D01*
X150886Y28543D02*
X152461D01*
X151673Y27756D02*
Y29331D01*
X148386Y23543D02*
X149961D01*
X149173Y22756D02*
Y24331D01*
X150886Y18543D02*
X152461D01*
X151673Y17756D02*
Y19331D01*
X148386Y13543D02*
X149961D01*
X149173Y12756D02*
Y14331D01*
X150886Y8543D02*
X152461D01*
X151673Y7756D02*
Y9331D01*
X148386Y3543D02*
X149961D01*
X149173Y2756D02*
Y4331D01*
X145886Y148543D02*
X147461D01*
X146673Y147756D02*
Y149331D01*
X143386Y143543D02*
X144961D01*
X144173Y142756D02*
Y144331D01*
X145886Y138543D02*
X147461D01*
X146673Y137756D02*
Y139331D01*
X143386Y133543D02*
X144961D01*
X144173Y132756D02*
Y134331D01*
X145886Y128543D02*
X147461D01*
X146673Y127756D02*
Y129331D01*
X143386Y123543D02*
X144961D01*
X144173Y122756D02*
Y124331D01*
X145886Y118543D02*
X147461D01*
X146673Y117756D02*
Y119331D01*
X143386Y113543D02*
X144961D01*
X144173Y112756D02*
Y114331D01*
X143386Y33543D02*
X144961D01*
X144173Y32756D02*
Y34331D01*
X145886Y28543D02*
X147461D01*
X146673Y27756D02*
Y29331D01*
X143386Y23543D02*
X144961D01*
X144173Y22756D02*
Y24331D01*
X145886Y18543D02*
X147461D01*
X146673Y17756D02*
Y19331D01*
X143386Y13543D02*
X144961D01*
X144173Y12756D02*
Y14331D01*
X145886Y8543D02*
X147461D01*
X146673Y7756D02*
Y9331D01*
X143386Y3543D02*
X144961D01*
X144173Y2756D02*
Y4331D01*
X140886Y148543D02*
X142461D01*
X141673Y147756D02*
Y149331D01*
X138386Y143543D02*
X139961D01*
X139173Y142756D02*
Y144331D01*
X140886Y138543D02*
X142461D01*
X141673Y137756D02*
Y139331D01*
X138386Y133543D02*
X139961D01*
X139173Y132756D02*
Y134331D01*
X140886Y128543D02*
X142461D01*
X141673Y127756D02*
Y129331D01*
X138386Y123543D02*
X139961D01*
X139173Y122756D02*
Y124331D01*
X140886Y118543D02*
X142461D01*
X141673Y117756D02*
Y119331D01*
X138386Y113543D02*
X139961D01*
X139173Y112756D02*
Y114331D01*
X138386Y33543D02*
X139961D01*
X139173Y32756D02*
Y34331D01*
X140886Y28543D02*
X142461D01*
X141673Y27756D02*
Y29331D01*
X138386Y23543D02*
X139961D01*
X139173Y22756D02*
Y24331D01*
X140886Y18543D02*
X142461D01*
X141673Y17756D02*
Y19331D01*
X138386Y13543D02*
X139961D01*
X139173Y12756D02*
Y14331D01*
X140886Y8543D02*
X142461D01*
X141673Y7756D02*
Y9331D01*
X138386Y3543D02*
X139961D01*
X139173Y2756D02*
Y4331D01*
X135886Y148543D02*
X137461D01*
X136673Y147756D02*
Y149331D01*
X133386Y143543D02*
X134961D01*
X134173Y142756D02*
Y144331D01*
X135886Y138543D02*
X137461D01*
X136673Y137756D02*
Y139331D01*
X133386Y133543D02*
X134961D01*
X134173Y132756D02*
Y134331D01*
X135886Y128543D02*
X137461D01*
X136673Y127756D02*
Y129331D01*
X133386Y123543D02*
X134961D01*
X134173Y122756D02*
Y124331D01*
X135886Y118543D02*
X137461D01*
X136673Y117756D02*
Y119331D01*
X133386Y113543D02*
X134961D01*
X134173Y112756D02*
Y114331D01*
X133386Y33543D02*
X134961D01*
X134173Y32756D02*
Y34331D01*
X135886Y28543D02*
X137461D01*
X136673Y27756D02*
Y29331D01*
X133386Y23543D02*
X134961D01*
X134173Y22756D02*
Y24331D01*
X135886Y18543D02*
X137461D01*
X136673Y17756D02*
Y19331D01*
X133386Y13543D02*
X134961D01*
X134173Y12756D02*
Y14331D01*
X135886Y8543D02*
X137461D01*
X136673Y7756D02*
Y9331D01*
X133386Y3543D02*
X134961D01*
X134173Y2756D02*
Y4331D01*
X130886Y148543D02*
X132461D01*
X131673Y147756D02*
Y149331D01*
X128386Y143543D02*
X129961D01*
X129173Y142756D02*
Y144331D01*
X130886Y138543D02*
X132461D01*
X131673Y137756D02*
Y139331D01*
X128386Y133543D02*
X129961D01*
X129173Y132756D02*
Y134331D01*
X130886Y128543D02*
X132461D01*
X131673Y127756D02*
Y129331D01*
X128386Y123543D02*
X129961D01*
X129173Y122756D02*
Y124331D01*
X130886Y118543D02*
X132461D01*
X131673Y117756D02*
Y119331D01*
X128386Y113543D02*
X129961D01*
X129173Y112756D02*
Y114331D01*
X128386Y33543D02*
X129961D01*
X129173Y32756D02*
Y34331D01*
X130886Y28543D02*
X132461D01*
X131673Y27756D02*
Y29331D01*
X128386Y23543D02*
X129961D01*
X129173Y22756D02*
Y24331D01*
X130886Y18543D02*
X132461D01*
X131673Y17756D02*
Y19331D01*
X128386Y13543D02*
X129961D01*
X129173Y12756D02*
Y14331D01*
X130886Y8543D02*
X132461D01*
X131673Y7756D02*
Y9331D01*
X128386Y3543D02*
X129961D01*
X129173Y2756D02*
Y4331D01*
X125886Y148543D02*
X127461D01*
X126673Y147756D02*
Y149331D01*
X123386Y143543D02*
X124961D01*
X124173Y142756D02*
Y144331D01*
X125886Y138543D02*
X127461D01*
X126673Y137756D02*
Y139331D01*
X123386Y133543D02*
X124961D01*
X124173Y132756D02*
Y134331D01*
X125886Y128543D02*
X127461D01*
X126673Y127756D02*
Y129331D01*
X123386Y123543D02*
X124961D01*
X124173Y122756D02*
Y124331D01*
X125886Y118543D02*
X127461D01*
X126673Y117756D02*
Y119331D01*
X123386Y113543D02*
X124961D01*
X124173Y112756D02*
Y114331D01*
X123386Y33543D02*
X124961D01*
X124173Y32756D02*
Y34331D01*
X125886Y28543D02*
X127461D01*
X126673Y27756D02*
Y29331D01*
X123386Y23543D02*
X124961D01*
X124173Y22756D02*
Y24331D01*
X125886Y18543D02*
X127461D01*
X126673Y17756D02*
Y19331D01*
X123386Y13543D02*
X124961D01*
X124173Y12756D02*
Y14331D01*
X125886Y8543D02*
X127461D01*
X126673Y7756D02*
Y9331D01*
X123386Y3543D02*
X124961D01*
X124173Y2756D02*
Y4331D01*
X120886Y148543D02*
X122461D01*
X121673Y147756D02*
Y149331D01*
X118386Y33543D02*
X119961D01*
X119173Y32756D02*
Y34331D01*
X120886Y28543D02*
X122461D01*
X121673Y27756D02*
Y29331D01*
X118386Y23543D02*
X119961D01*
X119173Y22756D02*
Y24331D01*
X120886Y18543D02*
X122461D01*
X121673Y17756D02*
Y19331D01*
X118386Y13543D02*
X119961D01*
X119173Y12756D02*
Y14331D01*
X120886Y8543D02*
X122461D01*
X121673Y7756D02*
Y9331D01*
X118386Y3543D02*
X119961D01*
X119173Y2756D02*
Y4331D01*
X115886Y148543D02*
X117461D01*
X116673Y147756D02*
Y149331D01*
X113386Y33543D02*
X114961D01*
X114173Y32756D02*
Y34331D01*
X115886Y28543D02*
X117461D01*
X116673Y27756D02*
Y29331D01*
X113386Y23543D02*
X114961D01*
X114173Y22756D02*
Y24331D01*
X115886Y18543D02*
X117461D01*
X116673Y17756D02*
Y19331D01*
X113386Y13543D02*
X114961D01*
X114173Y12756D02*
Y14331D01*
X115886Y8543D02*
X117461D01*
X116673Y7756D02*
Y9331D01*
X113386Y3543D02*
X114961D01*
X114173Y2756D02*
Y4331D01*
X110886Y148543D02*
X112461D01*
X111673Y147756D02*
Y149331D01*
X108386Y53543D02*
X109961D01*
X109173Y52756D02*
Y54331D01*
X108386Y43543D02*
X109961D01*
X109173Y42756D02*
Y44331D01*
X108386Y33543D02*
X109961D01*
X109173Y32756D02*
Y34331D01*
X110886Y28543D02*
X112461D01*
X111673Y27756D02*
Y29331D01*
X108386Y23543D02*
X109961D01*
X109173Y22756D02*
Y24331D01*
X110886Y18543D02*
X112461D01*
X111673Y17756D02*
Y19331D01*
X108386Y13543D02*
X109961D01*
X109173Y12756D02*
Y14331D01*
X110886Y8543D02*
X112461D01*
X111673Y7756D02*
Y9331D01*
X108386Y3543D02*
X109961D01*
X109173Y2756D02*
Y4331D01*
X105886Y148543D02*
X107461D01*
X106673Y147756D02*
Y149331D01*
X105886Y58543D02*
X107461D01*
X106673Y57756D02*
Y59331D01*
X103386Y53543D02*
X104961D01*
X104173Y52756D02*
Y54331D01*
X105886Y48543D02*
X107461D01*
X106673Y47756D02*
Y49331D01*
X103386Y43543D02*
X104961D01*
X104173Y42756D02*
Y44331D01*
X105886Y38543D02*
X107461D01*
X106673Y37756D02*
Y39331D01*
X103386Y33543D02*
X104961D01*
X104173Y32756D02*
Y34331D01*
X105886Y28543D02*
X107461D01*
X106673Y27756D02*
Y29331D01*
X103386Y23543D02*
X104961D01*
X104173Y22756D02*
Y24331D01*
X105886Y18543D02*
X107461D01*
X106673Y17756D02*
Y19331D01*
X103386Y13543D02*
X104961D01*
X104173Y12756D02*
Y14331D01*
X105886Y8543D02*
X107461D01*
X106673Y7756D02*
Y9331D01*
X103386Y3543D02*
X104961D01*
X104173Y2756D02*
Y4331D01*
X100886Y148543D02*
X102461D01*
X101673Y147756D02*
Y149331D01*
X100886Y58543D02*
X102461D01*
X101673Y57756D02*
Y59331D01*
X98386Y53543D02*
X99961D01*
X99173Y52756D02*
Y54331D01*
X100886Y48543D02*
X102461D01*
X101673Y47756D02*
Y49331D01*
X98386Y43543D02*
X99961D01*
X99173Y42756D02*
Y44331D01*
X100886Y38543D02*
X102461D01*
X101673Y37756D02*
Y39331D01*
X98386Y33543D02*
X99961D01*
X99173Y32756D02*
Y34331D01*
X100886Y28543D02*
X102461D01*
X101673Y27756D02*
Y29331D01*
X98386Y23543D02*
X99961D01*
X99173Y22756D02*
Y24331D01*
X100886Y18543D02*
X102461D01*
X101673Y17756D02*
Y19331D01*
X98386Y13543D02*
X99961D01*
X99173Y12756D02*
Y14331D01*
X100886Y8543D02*
X102461D01*
X101673Y7756D02*
Y9331D01*
X98386Y3543D02*
X99961D01*
X99173Y2756D02*
Y4331D01*
X95886Y148543D02*
X97461D01*
X96673Y147756D02*
Y149331D01*
X95886Y58543D02*
X97461D01*
X96673Y57756D02*
Y59331D01*
X93386Y53543D02*
X94961D01*
X94173Y52756D02*
Y54331D01*
X95886Y48543D02*
X97461D01*
X96673Y47756D02*
Y49331D01*
X93386Y43543D02*
X94961D01*
X94173Y42756D02*
Y44331D01*
X95886Y38543D02*
X97461D01*
X96673Y37756D02*
Y39331D01*
X93386Y33543D02*
X94961D01*
X94173Y32756D02*
Y34331D01*
X95886Y28543D02*
X97461D01*
X96673Y27756D02*
Y29331D01*
X93386Y23543D02*
X94961D01*
X94173Y22756D02*
Y24331D01*
X95886Y18543D02*
X97461D01*
X96673Y17756D02*
Y19331D01*
X93386Y13543D02*
X94961D01*
X94173Y12756D02*
Y14331D01*
X95886Y8543D02*
X97461D01*
X96673Y7756D02*
Y9331D01*
X93386Y3543D02*
X94961D01*
X94173Y2756D02*
Y4331D01*
X90886Y148543D02*
X92461D01*
X91673Y147756D02*
Y149331D01*
X88386Y93543D02*
X89961D01*
X89173Y92756D02*
Y94331D01*
X90886Y88543D02*
X92461D01*
X91673Y87756D02*
Y89331D01*
X90886Y58543D02*
X92461D01*
X91673Y57756D02*
Y59331D01*
X88386Y53543D02*
X89961D01*
X89173Y52756D02*
Y54331D01*
X90886Y48543D02*
X92461D01*
X91673Y47756D02*
Y49331D01*
X88386Y43543D02*
X89961D01*
X89173Y42756D02*
Y44331D01*
X90886Y38543D02*
X92461D01*
X91673Y37756D02*
Y39331D01*
X88386Y33543D02*
X89961D01*
X89173Y32756D02*
Y34331D01*
X90886Y28543D02*
X92461D01*
X91673Y27756D02*
Y29331D01*
X88386Y23543D02*
X89961D01*
X89173Y22756D02*
Y24331D01*
X90886Y18543D02*
X92461D01*
X91673Y17756D02*
Y19331D01*
X88386Y13543D02*
X89961D01*
X89173Y12756D02*
Y14331D01*
X90886Y8543D02*
X92461D01*
X91673Y7756D02*
Y9331D01*
X88386Y3543D02*
X89961D01*
X89173Y2756D02*
Y4331D01*
X85886Y148543D02*
X87461D01*
X86673Y147756D02*
Y149331D01*
X85886Y98543D02*
X87461D01*
X86673Y97756D02*
Y99331D01*
X83386Y93543D02*
X84961D01*
X84173Y92756D02*
Y94331D01*
X85886Y88543D02*
X87461D01*
X86673Y87756D02*
Y89331D01*
X85886Y58543D02*
X87461D01*
X86673Y57756D02*
Y59331D01*
X83386Y53543D02*
X84961D01*
X84173Y52756D02*
Y54331D01*
X85886Y48543D02*
X87461D01*
X86673Y47756D02*
Y49331D01*
X83386Y43543D02*
X84961D01*
X84173Y42756D02*
Y44331D01*
X85886Y38543D02*
X87461D01*
X86673Y37756D02*
Y39331D01*
X83386Y33543D02*
X84961D01*
X84173Y32756D02*
Y34331D01*
X85886Y28543D02*
X87461D01*
X86673Y27756D02*
Y29331D01*
X83386Y23543D02*
X84961D01*
X84173Y22756D02*
Y24331D01*
X85886Y18543D02*
X87461D01*
X86673Y17756D02*
Y19331D01*
X83386Y13543D02*
X84961D01*
X84173Y12756D02*
Y14331D01*
X85886Y8543D02*
X87461D01*
X86673Y7756D02*
Y9331D01*
X83386Y3543D02*
X84961D01*
X84173Y2756D02*
Y4331D01*
X80886Y148543D02*
X82461D01*
X81673Y147756D02*
Y149331D01*
X80886Y98543D02*
X82461D01*
X81673Y97756D02*
Y99331D01*
X78386Y93543D02*
X79961D01*
X79173Y92756D02*
Y94331D01*
X80886Y88543D02*
X82461D01*
X81673Y87756D02*
Y89331D01*
X80886Y58543D02*
X82461D01*
X81673Y57756D02*
Y59331D01*
X78386Y53543D02*
X79961D01*
X79173Y52756D02*
Y54331D01*
X80886Y48543D02*
X82461D01*
X81673Y47756D02*
Y49331D01*
X78386Y43543D02*
X79961D01*
X79173Y42756D02*
Y44331D01*
X80886Y38543D02*
X82461D01*
X81673Y37756D02*
Y39331D01*
X78386Y33543D02*
X79961D01*
X79173Y32756D02*
Y34331D01*
X80886Y28543D02*
X82461D01*
X81673Y27756D02*
Y29331D01*
X78386Y23543D02*
X79961D01*
X79173Y22756D02*
Y24331D01*
X80886Y18543D02*
X82461D01*
X81673Y17756D02*
Y19331D01*
X78386Y13543D02*
X79961D01*
X79173Y12756D02*
Y14331D01*
X80886Y8543D02*
X82461D01*
X81673Y7756D02*
Y9331D01*
X78386Y3543D02*
X79961D01*
X79173Y2756D02*
Y4331D01*
X75886Y148543D02*
X77461D01*
X76673Y147756D02*
Y149331D01*
X75886Y98543D02*
X77461D01*
X76673Y97756D02*
Y99331D01*
X73386Y93543D02*
X74961D01*
X74173Y92756D02*
Y94331D01*
X75886Y88543D02*
X77461D01*
X76673Y87756D02*
Y89331D01*
X75886Y58543D02*
X77461D01*
X76673Y57756D02*
Y59331D01*
X73386Y53543D02*
X74961D01*
X74173Y52756D02*
Y54331D01*
X75886Y48543D02*
X77461D01*
X76673Y47756D02*
Y49331D01*
X73386Y43543D02*
X74961D01*
X74173Y42756D02*
Y44331D01*
X75886Y38543D02*
X77461D01*
X76673Y37756D02*
Y39331D01*
X73386Y33543D02*
X74961D01*
X74173Y32756D02*
Y34331D01*
X75886Y28543D02*
X77461D01*
X76673Y27756D02*
Y29331D01*
X73386Y23543D02*
X74961D01*
X74173Y22756D02*
Y24331D01*
X75886Y18543D02*
X77461D01*
X76673Y17756D02*
Y19331D01*
X73386Y13543D02*
X74961D01*
X74173Y12756D02*
Y14331D01*
X75886Y8543D02*
X77461D01*
X76673Y7756D02*
Y9331D01*
X73386Y3543D02*
X74961D01*
X74173Y2756D02*
Y4331D01*
X70886Y148543D02*
X72461D01*
X71673Y147756D02*
Y149331D01*
X70886Y98543D02*
X72461D01*
X71673Y97756D02*
Y99331D01*
X68386Y93543D02*
X69961D01*
X69173Y92756D02*
Y94331D01*
X70886Y88543D02*
X72461D01*
X71673Y87756D02*
Y89331D01*
X70886Y58543D02*
X72461D01*
X71673Y57756D02*
Y59331D01*
X68386Y53543D02*
X69961D01*
X69173Y52756D02*
Y54331D01*
X70886Y48543D02*
X72461D01*
X71673Y47756D02*
Y49331D01*
X68386Y43543D02*
X69961D01*
X69173Y42756D02*
Y44331D01*
X70886Y38543D02*
X72461D01*
X71673Y37756D02*
Y39331D01*
X68386Y33543D02*
X69961D01*
X69173Y32756D02*
Y34331D01*
X70886Y28543D02*
X72461D01*
X71673Y27756D02*
Y29331D01*
X68386Y23543D02*
X69961D01*
X69173Y22756D02*
Y24331D01*
X70886Y18543D02*
X72461D01*
X71673Y17756D02*
Y19331D01*
X68386Y13543D02*
X69961D01*
X69173Y12756D02*
Y14331D01*
X70886Y8543D02*
X72461D01*
X71673Y7756D02*
Y9331D01*
X68386Y3543D02*
X69961D01*
X69173Y2756D02*
Y4331D01*
X65886Y148543D02*
X67461D01*
X66673Y147756D02*
Y149331D01*
X65886Y98543D02*
X67461D01*
X66673Y97756D02*
Y99331D01*
X63386Y93543D02*
X64961D01*
X64173Y92756D02*
Y94331D01*
X65886Y88543D02*
X67461D01*
X66673Y87756D02*
Y89331D01*
X65886Y58543D02*
X67461D01*
X66673Y57756D02*
Y59331D01*
X63386Y53543D02*
X64961D01*
X64173Y52756D02*
Y54331D01*
X65886Y48543D02*
X67461D01*
X66673Y47756D02*
Y49331D01*
X63386Y43543D02*
X64961D01*
X64173Y42756D02*
Y44331D01*
X65886Y38543D02*
X67461D01*
X66673Y37756D02*
Y39331D01*
X63386Y33543D02*
X64961D01*
X64173Y32756D02*
Y34331D01*
X65886Y28543D02*
X67461D01*
X66673Y27756D02*
Y29331D01*
X63386Y23543D02*
X64961D01*
X64173Y22756D02*
Y24331D01*
X65886Y18543D02*
X67461D01*
X66673Y17756D02*
Y19331D01*
X63386Y13543D02*
X64961D01*
X64173Y12756D02*
Y14331D01*
X65886Y8543D02*
X67461D01*
X66673Y7756D02*
Y9331D01*
X63386Y3543D02*
X64961D01*
X64173Y2756D02*
Y4331D01*
X60886Y148543D02*
X62461D01*
X61673Y147756D02*
Y149331D01*
X60886Y98543D02*
X62461D01*
X61673Y97756D02*
Y99331D01*
X58386Y93543D02*
X59961D01*
X59173Y92756D02*
Y94331D01*
X60886Y88543D02*
X62461D01*
X61673Y87756D02*
Y89331D01*
X60886Y58543D02*
X62461D01*
X61673Y57756D02*
Y59331D01*
X58386Y53543D02*
X59961D01*
X59173Y52756D02*
Y54331D01*
X60886Y48543D02*
X62461D01*
X61673Y47756D02*
Y49331D01*
X58386Y43543D02*
X59961D01*
X59173Y42756D02*
Y44331D01*
X60886Y38543D02*
X62461D01*
X61673Y37756D02*
Y39331D01*
X58386Y33543D02*
X59961D01*
X59173Y32756D02*
Y34331D01*
X60886Y28543D02*
X62461D01*
X61673Y27756D02*
Y29331D01*
X58386Y23543D02*
X59961D01*
X59173Y22756D02*
Y24331D01*
X60886Y18543D02*
X62461D01*
X61673Y17756D02*
Y19331D01*
X58386Y13543D02*
X59961D01*
X59173Y12756D02*
Y14331D01*
X60886Y8543D02*
X62461D01*
X61673Y7756D02*
Y9331D01*
X58386Y3543D02*
X59961D01*
X59173Y2756D02*
Y4331D01*
X55886Y148543D02*
X57461D01*
X56673Y147756D02*
Y149331D01*
X55886Y98543D02*
X57461D01*
X56673Y97756D02*
Y99331D01*
X53386Y93543D02*
X54961D01*
X54173Y92756D02*
Y94331D01*
X55886Y88543D02*
X57461D01*
X56673Y87756D02*
Y89331D01*
X55886Y58543D02*
X57461D01*
X56673Y57756D02*
Y59331D01*
X53386Y53543D02*
X54961D01*
X54173Y52756D02*
Y54331D01*
X55886Y48543D02*
X57461D01*
X56673Y47756D02*
Y49331D01*
X53386Y43543D02*
X54961D01*
X54173Y42756D02*
Y44331D01*
X55886Y38543D02*
X57461D01*
X56673Y37756D02*
Y39331D01*
X53386Y33543D02*
X54961D01*
X54173Y32756D02*
Y34331D01*
X55886Y28543D02*
X57461D01*
X56673Y27756D02*
Y29331D01*
X53386Y23543D02*
X54961D01*
X54173Y22756D02*
Y24331D01*
X55886Y18543D02*
X57461D01*
X56673Y17756D02*
Y19331D01*
X53386Y13543D02*
X54961D01*
X54173Y12756D02*
Y14331D01*
X55886Y8543D02*
X57461D01*
X56673Y7756D02*
Y9331D01*
X53386Y3543D02*
X54961D01*
X54173Y2756D02*
Y4331D01*
X50886Y98543D02*
X52461D01*
X51673Y97756D02*
Y99331D01*
X50886Y88543D02*
X52461D01*
X51673Y87756D02*
Y89331D01*
X50886Y58543D02*
X52461D01*
X51673Y57756D02*
Y59331D01*
X50886Y38543D02*
X52461D01*
X51673Y37756D02*
Y39331D01*
X48386Y33543D02*
X49961D01*
X49173Y32756D02*
Y34331D01*
X50886Y28543D02*
X52461D01*
X51673Y27756D02*
Y29331D01*
X48386Y23543D02*
X49961D01*
X49173Y22756D02*
Y24331D01*
X50886Y18543D02*
X52461D01*
X51673Y17756D02*
Y19331D01*
X48386Y13543D02*
X49961D01*
X49173Y12756D02*
Y14331D01*
X50886Y8543D02*
X52461D01*
X51673Y7756D02*
Y9331D01*
X48386Y3543D02*
X49961D01*
X49173Y2756D02*
Y4331D01*
X45886Y58543D02*
X47461D01*
X46673Y57756D02*
Y59331D01*
X45886Y38543D02*
X47461D01*
X46673Y37756D02*
Y39331D01*
X43386Y33543D02*
X44961D01*
X44173Y32756D02*
Y34331D01*
X45886Y28543D02*
X47461D01*
X46673Y27756D02*
Y29331D01*
X43386Y23543D02*
X44961D01*
X44173Y22756D02*
Y24331D01*
X45886Y18543D02*
X47461D01*
X46673Y17756D02*
Y19331D01*
X43386Y13543D02*
X44961D01*
X44173Y12756D02*
Y14331D01*
X45886Y8543D02*
X47461D01*
X46673Y7756D02*
Y9331D01*
X43386Y3543D02*
X44961D01*
X44173Y2756D02*
Y4331D01*
X40886Y58543D02*
X42461D01*
X41673Y57756D02*
Y59331D01*
X38386Y33543D02*
X39961D01*
X39173Y32756D02*
Y34331D01*
X40886Y28543D02*
X42461D01*
X41673Y27756D02*
Y29331D01*
X38386Y23543D02*
X39961D01*
X39173Y22756D02*
Y24331D01*
X40886Y18543D02*
X42461D01*
X41673Y17756D02*
Y19331D01*
X38386Y13543D02*
X39961D01*
X39173Y12756D02*
Y14331D01*
X40886Y8543D02*
X42461D01*
X41673Y7756D02*
Y9331D01*
X38386Y3543D02*
X39961D01*
X39173Y2756D02*
Y4331D01*
X35886Y98543D02*
X37461D01*
X36673Y97756D02*
Y99331D01*
X33386Y93543D02*
X34961D01*
X34173Y92756D02*
Y94331D01*
X35886Y58543D02*
X37461D01*
X36673Y57756D02*
Y59331D01*
X33386Y53543D02*
X34961D01*
X34173Y52756D02*
Y54331D01*
X33386Y43543D02*
X34961D01*
X34173Y42756D02*
Y44331D01*
X35886Y38543D02*
X37461D01*
X36673Y37756D02*
Y39331D01*
X33386Y33543D02*
X34961D01*
X34173Y32756D02*
Y34331D01*
X35886Y28543D02*
X37461D01*
X36673Y27756D02*
Y29331D01*
X33386Y23543D02*
X34961D01*
X34173Y22756D02*
Y24331D01*
X35886Y18543D02*
X37461D01*
X36673Y17756D02*
Y19331D01*
X33386Y13543D02*
X34961D01*
X34173Y12756D02*
Y14331D01*
X35886Y8543D02*
X37461D01*
X36673Y7756D02*
Y9331D01*
X33386Y3543D02*
X34961D01*
X34173Y2756D02*
Y4331D01*
X30886Y98543D02*
X32461D01*
X31673Y97756D02*
Y99331D01*
X28386Y93543D02*
X29961D01*
X29173Y92756D02*
Y94331D01*
X30886Y88543D02*
X32461D01*
X31673Y87756D02*
Y89331D01*
X30886Y58543D02*
X32461D01*
X31673Y57756D02*
Y59331D01*
X28386Y53543D02*
X29961D01*
X29173Y52756D02*
Y54331D01*
X30886Y48543D02*
X32461D01*
X31673Y47756D02*
Y49331D01*
X28386Y43543D02*
X29961D01*
X29173Y42756D02*
Y44331D01*
X30886Y38543D02*
X32461D01*
X31673Y37756D02*
Y39331D01*
X28386Y33543D02*
X29961D01*
X29173Y32756D02*
Y34331D01*
X30886Y28543D02*
X32461D01*
X31673Y27756D02*
Y29331D01*
X28386Y23543D02*
X29961D01*
X29173Y22756D02*
Y24331D01*
X30886Y18543D02*
X32461D01*
X31673Y17756D02*
Y19331D01*
X28386Y13543D02*
X29961D01*
X29173Y12756D02*
Y14331D01*
X30886Y8543D02*
X32461D01*
X31673Y7756D02*
Y9331D01*
X28386Y3543D02*
X29961D01*
X29173Y2756D02*
Y4331D01*
X25886Y148543D02*
X27461D01*
X26673Y147756D02*
Y149331D01*
X25886Y98543D02*
X27461D01*
X26673Y97756D02*
Y99331D01*
X23386Y93543D02*
X24961D01*
X24173Y92756D02*
Y94331D01*
X25886Y88543D02*
X27461D01*
X26673Y87756D02*
Y89331D01*
X25886Y58543D02*
X27461D01*
X26673Y57756D02*
Y59331D01*
X23386Y53543D02*
X24961D01*
X24173Y52756D02*
Y54331D01*
X25886Y48543D02*
X27461D01*
X26673Y47756D02*
Y49331D01*
X23386Y43543D02*
X24961D01*
X24173Y42756D02*
Y44331D01*
X25886Y38543D02*
X27461D01*
X26673Y37756D02*
Y39331D01*
X23386Y33543D02*
X24961D01*
X24173Y32756D02*
Y34331D01*
X25886Y28543D02*
X27461D01*
X26673Y27756D02*
Y29331D01*
X23386Y23543D02*
X24961D01*
X24173Y22756D02*
Y24331D01*
X25886Y18543D02*
X27461D01*
X26673Y17756D02*
Y19331D01*
X23386Y13543D02*
X24961D01*
X24173Y12756D02*
Y14331D01*
X25886Y8543D02*
X27461D01*
X26673Y7756D02*
Y9331D01*
X23386Y3543D02*
X24961D01*
X24173Y2756D02*
Y4331D01*
X20886Y148543D02*
X22461D01*
X21673Y147756D02*
Y149331D01*
X20886Y98543D02*
X22461D01*
X21673Y97756D02*
Y99331D01*
X18386Y93543D02*
X19961D01*
X19173Y92756D02*
Y94331D01*
X20886Y88543D02*
X22461D01*
X21673Y87756D02*
Y89331D01*
X20886Y58543D02*
X22461D01*
X21673Y57756D02*
Y59331D01*
X18386Y53543D02*
X19961D01*
X19173Y52756D02*
Y54331D01*
X20886Y48543D02*
X22461D01*
X21673Y47756D02*
Y49331D01*
X18386Y43543D02*
X19961D01*
X19173Y42756D02*
Y44331D01*
X20886Y38543D02*
X22461D01*
X21673Y37756D02*
Y39331D01*
X18386Y33543D02*
X19961D01*
X19173Y32756D02*
Y34331D01*
X20886Y28543D02*
X22461D01*
X21673Y27756D02*
Y29331D01*
X18386Y23543D02*
X19961D01*
X19173Y22756D02*
Y24331D01*
X20886Y18543D02*
X22461D01*
X21673Y17756D02*
Y19331D01*
X18386Y13543D02*
X19961D01*
X19173Y12756D02*
Y14331D01*
X20886Y8543D02*
X22461D01*
X21673Y7756D02*
Y9331D01*
X18386Y3543D02*
X19961D01*
X19173Y2756D02*
Y4331D01*
X15886Y148543D02*
X17461D01*
X16673Y147756D02*
Y149331D01*
X13386Y143543D02*
X14961D01*
X14173Y142756D02*
Y144331D01*
X13386Y133543D02*
X14961D01*
X14173Y132756D02*
Y134331D01*
X13386Y103543D02*
X14961D01*
X14173Y102756D02*
Y104331D01*
X15886Y98543D02*
X17461D01*
X16673Y97756D02*
Y99331D01*
X13386Y93543D02*
X14961D01*
X14173Y92756D02*
Y94331D01*
X15886Y88543D02*
X17461D01*
X16673Y87756D02*
Y89331D01*
X13386Y53543D02*
X14961D01*
X14173Y52756D02*
Y54331D01*
X15886Y48543D02*
X17461D01*
X16673Y47756D02*
Y49331D01*
X13386Y43543D02*
X14961D01*
X14173Y42756D02*
Y44331D01*
X15886Y38543D02*
X17461D01*
X16673Y37756D02*
Y39331D01*
X13386Y33543D02*
X14961D01*
X14173Y32756D02*
Y34331D01*
X15886Y28543D02*
X17461D01*
X16673Y27756D02*
Y29331D01*
X13386Y23543D02*
X14961D01*
X14173Y22756D02*
Y24331D01*
X15886Y18543D02*
X17461D01*
X16673Y17756D02*
Y19331D01*
X13386Y13543D02*
X14961D01*
X14173Y12756D02*
Y14331D01*
X15886Y8543D02*
X17461D01*
X16673Y7756D02*
Y9331D01*
X13386Y3543D02*
X14961D01*
X14173Y2756D02*
Y4331D01*
X10886Y148543D02*
X12461D01*
X11673Y147756D02*
Y149331D01*
X8386Y143543D02*
X9961D01*
X9173Y142756D02*
Y144331D01*
X10886Y138543D02*
X12461D01*
X11673Y137756D02*
Y139331D01*
X8386Y133543D02*
X9961D01*
X9173Y132756D02*
Y134331D01*
X10886Y128543D02*
X12461D01*
X11673Y127756D02*
Y129331D01*
X10886Y108543D02*
X12461D01*
X11673Y107756D02*
Y109331D01*
X8386Y103543D02*
X9961D01*
X9173Y102756D02*
Y104331D01*
X10886Y98543D02*
X12461D01*
X11673Y97756D02*
Y99331D01*
X8386Y93543D02*
X9961D01*
X9173Y92756D02*
Y94331D01*
X10886Y88543D02*
X12461D01*
X11673Y87756D02*
Y89331D01*
X8386Y53543D02*
X9961D01*
X9173Y52756D02*
Y54331D01*
X10886Y48543D02*
X12461D01*
X11673Y47756D02*
Y49331D01*
X8386Y43543D02*
X9961D01*
X9173Y42756D02*
Y44331D01*
X10886Y38543D02*
X12461D01*
X11673Y37756D02*
Y39331D01*
X8386Y33543D02*
X9961D01*
X9173Y32756D02*
Y34331D01*
X10886Y28543D02*
X12461D01*
X11673Y27756D02*
Y29331D01*
X8386Y23543D02*
X9961D01*
X9173Y22756D02*
Y24331D01*
X10886Y18543D02*
X12461D01*
X11673Y17756D02*
Y19331D01*
X8386Y13543D02*
X9961D01*
X9173Y12756D02*
Y14331D01*
X10886Y8543D02*
X12461D01*
X11673Y7756D02*
Y9331D01*
X8386Y3543D02*
X9961D01*
X9173Y2756D02*
Y4331D01*
X5886Y148543D02*
X7461D01*
X6673Y147756D02*
Y149331D01*
X3386Y143543D02*
X4961D01*
X4173Y142756D02*
Y144331D01*
X5886Y138543D02*
X7461D01*
X6673Y137756D02*
Y139331D01*
X3386Y133543D02*
X4961D01*
X4173Y132756D02*
Y134331D01*
X5886Y128543D02*
X7461D01*
X6673Y127756D02*
Y129331D01*
X5886Y108543D02*
X7461D01*
X6673Y107756D02*
Y109331D01*
X3386Y103543D02*
X4961D01*
X4173Y102756D02*
Y104331D01*
X5886Y98543D02*
X7461D01*
X6673Y97756D02*
Y99331D01*
X3386Y93543D02*
X4961D01*
X4173Y92756D02*
Y94331D01*
X5886Y88543D02*
X7461D01*
X6673Y87756D02*
Y89331D01*
X3386Y53543D02*
X4961D01*
X4173Y52756D02*
Y54331D01*
X5886Y48543D02*
X7461D01*
X6673Y47756D02*
Y49331D01*
X3386Y43543D02*
X4961D01*
X4173Y42756D02*
Y44331D01*
X5886Y38543D02*
X7461D01*
X6673Y37756D02*
Y39331D01*
X3386Y33543D02*
X4961D01*
X4173Y32756D02*
Y34331D01*
X5886Y28543D02*
X7461D01*
X6673Y27756D02*
Y29331D01*
X3386Y23543D02*
X4961D01*
X4173Y22756D02*
Y24331D01*
X5886Y18543D02*
X7461D01*
X6673Y17756D02*
Y19331D01*
X3386Y13543D02*
X4961D01*
X4173Y12756D02*
Y14331D01*
X5886Y8543D02*
X7461D01*
X6673Y7756D02*
Y9331D01*
X3386Y3543D02*
X4961D01*
X4173Y2756D02*
Y4331D01*
X248819Y96653D02*
X260630D01*
X254724Y90748D02*
Y102559D01*
X250197Y47441D02*
X262008D01*
X256102Y41535D02*
Y53347D01*
X37205Y47441D02*
X49016D01*
X43110Y41535D02*
Y53347D01*
X37205Y92716D02*
X49016D01*
X43110Y86811D02*
Y98622D01*
M02*
